ISO-10303-21;
HEADER;
FILE_DESCRIPTION(('FreeCAD Model'),'2;1');
FILE_NAME('Open CASCADE Shape Model','2026-08-20T22:00:12',('Author'),(
    ''),'Open CASCADE STEP processor 7.8','FreeCAD','Unknown');
FILE_SCHEMA(('AUTOMOTIVE_DESIGN { 1 0 10303 214 1 1 1 1 }'));
ENDSEC;
DATA;
#1 = APPLICATION_PROTOCOL_DEFINITION('international standard',
  'automotive_design',2000,#2);
#2 = APPLICATION_CONTEXT(
  'core data for automotive mechanical design processes');
#3 = SHAPE_DEFINITION_REPRESENTATION(#4,#10);
#4 = PRODUCT_DEFINITION_SHAPE('','',#5);
#5 = PRODUCT_DEFINITION('design','',#6,#9);
#6 = PRODUCT_DEFINITION_FORMATION('','',#7);
#7 = PRODUCT('COMPOUND003','COMPOUND003','',(#8));
#8 = PRODUCT_CONTEXT('',#2,'mechanical');
#9 = PRODUCT_DEFINITION_CONTEXT('part definition',#2,'design');
#10 = ADVANCED_BREP_SHAPE_REPRESENTATION('',(#11,#15),#1347);
#11 = AXIS2_PLACEMENT_3D('',#12,#13,#14);
#12 = CARTESIAN_POINT('',(0.,0.,0.));
#13 = DIRECTION('',(0.,0.,1.));
#14 = DIRECTION('',(1.,0.,-0.));
#15 = MANIFOLD_SOLID_BREP('',#16);
#16 = CLOSED_SHELL('',(#17,#112,#137,#162,#187,#212,#237,#268,#314,#345,
    #396,#421,#502,#611,#627,#658,#689,#720,#738,#770,#802,#826,#851,
    #867,#910,#950,#975,#999,#1024,#1057,#1090,#1123,#1166,#1199,#1230,
    #1263,#1287,#1318));
#17 = ADVANCED_FACE('',(#18,#52,#63,#74,#85,#96),#107,.F.);
#18 = FACE_BOUND('',#19,.T.);
#19 = EDGE_LOOP('',(#20,#30,#38,#46));
#20 = ORIENTED_EDGE('',*,*,#21,.F.);
#21 = EDGE_CURVE('',#22,#24,#26,.T.);
#22 = VERTEX_POINT('',#23);
#23 = CARTESIAN_POINT('',(256.00000381469,114.76305796466,76.46672846111
    ));
#24 = VERTEX_POINT('',#25);
#25 = CARTESIAN_POINT('',(214.00001016445,114.76305796466,76.46672846111
    ));
#26 = LINE('',#27,#28);
#27 = CARTESIAN_POINT('',(235.00000349478,114.76305796466,76.46672846111
    ));
#28 = VECTOR('',#29,1.);
#29 = DIRECTION('',(-1.,-3.170851060611E-30,1.165734175919E-15));
#30 = ORIENTED_EDGE('',*,*,#31,.T.);
#31 = EDGE_CURVE('',#22,#32,#34,.T.);
#32 = VERTEX_POINT('',#33);
#33 = CARTESIAN_POINT('',(256.00000381469,157.00000233948,76.46672846111
    ));
#34 = LINE('',#35,#36);
#35 = CARTESIAN_POINT('',(256.00000381469,114.7600054508,76.46672846111)
  );
#36 = VECTOR('',#37,1.);
#37 = DIRECTION('',(3.510585102819E-30,1.,3.011479954296E-15));
#38 = ORIENTED_EDGE('',*,*,#39,.T.);
#39 = EDGE_CURVE('',#32,#40,#42,.T.);
#40 = VERTEX_POINT('',#41);
#41 = CARTESIAN_POINT('',(214.00001016445,157.00000233948,76.46672846111
    ));
#42 = LINE('',#43,#44);
#43 = CARTESIAN_POINT('',(256.00000381469,157.00000233948,76.46672846111
    ));
#44 = VECTOR('',#45,1.);
#45 = DIRECTION('',(-1.,6.70543211202E-46,1.165734175919E-15));
#46 = ORIENTED_EDGE('',*,*,#47,.T.);
#47 = EDGE_CURVE('',#40,#24,#48,.T.);
#48 = LINE('',#49,#50);
#49 = CARTESIAN_POINT('',(214.00001016445,157.00000233948,76.46672846111
    ));
#50 = VECTOR('',#51,1.);
#51 = DIRECTION('',(-3.510585102819E-30,-1.,-3.011479954296E-15));
#52 = FACE_BOUND('',#53,.T.);
#53 = EDGE_LOOP('',(#54));
#54 = ORIENTED_EDGE('',*,*,#55,.F.);
#55 = EDGE_CURVE('',#56,#56,#58,.T.);
#56 = VERTEX_POINT('',#57);
#57 = CARTESIAN_POINT('',(233.69999999999,120.99284439043,76.46672846111
    ));
#58 = CIRCLE('',#59,1.3);
#59 = AXIS2_PLACEMENT_3D('',#60,#61,#62);
#60 = CARTESIAN_POINT('',(234.99999999999,120.99284439043,76.46672846111
    ));
#61 = DIRECTION('',(1.165734175919E-15,-3.011479954296E-15,1.));
#62 = DIRECTION('',(1.,-7.006492321624E-46,-1.165734175919E-15));
#63 = FACE_BOUND('',#64,.T.);
#64 = EDGE_LOOP('',(#65));
#65 = ORIENTED_EDGE('',*,*,#66,.F.);
#66 = EDGE_CURVE('',#67,#67,#69,.T.);
#67 = VERTEX_POINT('',#68);
#68 = CARTESIAN_POINT('',(219.69999999999,134.99284439043,76.46672846111
    ));
#69 = CIRCLE('',#70,1.3);
#70 = AXIS2_PLACEMENT_3D('',#71,#72,#73);
#71 = CARTESIAN_POINT('',(220.99999999999,134.99284439043,76.46672846111
    ));
#72 = DIRECTION('',(1.165734175919E-15,-3.011479954296E-15,1.));
#73 = DIRECTION('',(1.,0.,-1.165734175919E-15));
#74 = FACE_BOUND('',#75,.T.);
#75 = EDGE_LOOP('',(#76));
#76 = ORIENTED_EDGE('',*,*,#77,.F.);
#77 = EDGE_CURVE('',#78,#78,#80,.T.);
#78 = VERTEX_POINT('',#79);
#79 = CARTESIAN_POINT('',(233.69999999999,148.99284439043,76.46672846111
    ));
#80 = CIRCLE('',#81,1.3);
#81 = AXIS2_PLACEMENT_3D('',#82,#83,#84);
#82 = CARTESIAN_POINT('',(234.99999999999,148.99284439043,76.46672846111
    ));
#83 = DIRECTION('',(1.165734175919E-15,-3.011479954296E-15,1.));
#84 = DIRECTION('',(1.,-7.006492321624E-46,-1.165734175919E-15));
#85 = FACE_BOUND('',#86,.T.);
#86 = EDGE_LOOP('',(#87));
#87 = ORIENTED_EDGE('',*,*,#88,.F.);
#88 = EDGE_CURVE('',#89,#89,#91,.T.);
#89 = VERTEX_POINT('',#90);
#90 = CARTESIAN_POINT('',(223.99999999999,134.99284439043,76.46672846111
    ));
#91 = CIRCLE('',#92,11.);
#92 = AXIS2_PLACEMENT_3D('',#93,#94,#95);
#93 = CARTESIAN_POINT('',(234.99999999999,134.99284439043,76.46672846111
    ));
#94 = DIRECTION('',(1.165734175919E-15,-3.011479954296E-15,1.));
#95 = DIRECTION('',(1.,-7.006492321624E-46,-1.165734175919E-15));
#96 = FACE_BOUND('',#97,.T.);
#97 = EDGE_LOOP('',(#98));
#98 = ORIENTED_EDGE('',*,*,#99,.F.);
#99 = EDGE_CURVE('',#100,#100,#102,.T.);
#100 = VERTEX_POINT('',#101);
#101 = CARTESIAN_POINT('',(247.69999999999,134.99284439043,
    76.46672846111));
#102 = CIRCLE('',#103,1.3);
#103 = AXIS2_PLACEMENT_3D('',#104,#105,#106);
#104 = CARTESIAN_POINT('',(248.99999999999,134.99284439043,
    76.46672846111));
#105 = DIRECTION('',(1.165734175919E-15,-3.011479954296E-15,1.));
#106 = DIRECTION('',(1.,0.,-1.165734175919E-15));
#107 = PLANE('',#108);
#108 = AXIS2_PLACEMENT_3D('',#109,#110,#111);
#109 = CARTESIAN_POINT('',(235.00000698957,135.88000389514,
    76.46672846111));
#110 = DIRECTION('',(-1.165734175919E-15,3.011479954296E-15,-1.));
#111 = DIRECTION('',(1.,-7.006492321624E-46,-1.165734175919E-15));
#112 = ADVANCED_FACE('',(#113),#132,.F.);
#113 = FACE_BOUND('',#114,.F.);
#114 = EDGE_LOOP('',(#115,#123,#124,#125));
#115 = ORIENTED_EDGE('',*,*,#116,.T.);
#116 = EDGE_CURVE('',#117,#56,#119,.T.);
#117 = VERTEX_POINT('',#118);
#118 = CARTESIAN_POINT('',(233.69999999999,120.99284439043,
    72.46672846111));
#119 = LINE('',#120,#121);
#120 = CARTESIAN_POINT('',(233.69999999999,120.99284439043,
    76.46672846111));
#121 = VECTOR('',#122,1.);
#122 = DIRECTION('',(0.,-4.440892098501E-15,1.));
#123 = ORIENTED_EDGE('',*,*,#55,.F.);
#124 = ORIENTED_EDGE('',*,*,#116,.F.);
#125 = ORIENTED_EDGE('',*,*,#126,.T.);
#126 = EDGE_CURVE('',#117,#117,#127,.T.);
#127 = CIRCLE('',#128,1.3);
#128 = AXIS2_PLACEMENT_3D('',#129,#130,#131);
#129 = CARTESIAN_POINT('',(234.99999999999,120.99284439043,
    72.46672846111));
#130 = DIRECTION('',(1.165734175919E-15,-3.011479954296E-15,1.));
#131 = DIRECTION('',(1.,-7.006492321624E-46,-1.165734175919E-15));
#132 = CYLINDRICAL_SURFACE('',#133,1.3);
#133 = AXIS2_PLACEMENT_3D('',#134,#135,#136);
#134 = CARTESIAN_POINT('',(234.99999999999,120.99284439043,
    76.46672846111));
#135 = DIRECTION('',(0.,4.440892098501E-15,-1.));
#136 = DIRECTION('',(1.,-5.176899690793E-30,-2.299005293157E-44));
#137 = ADVANCED_FACE('',(#138),#157,.F.);
#138 = FACE_BOUND('',#139,.F.);
#139 = EDGE_LOOP('',(#140,#148,#149,#150));
#140 = ORIENTED_EDGE('',*,*,#141,.T.);
#141 = EDGE_CURVE('',#142,#67,#144,.T.);
#142 = VERTEX_POINT('',#143);
#143 = CARTESIAN_POINT('',(219.69999999999,134.99284439043,
    72.46672846111));
#144 = LINE('',#145,#146);
#145 = CARTESIAN_POINT('',(219.69999999999,134.99284439043,
    76.46672846111));
#146 = VECTOR('',#147,1.);
#147 = DIRECTION('',(0.,-4.440892098501E-15,1.));
#148 = ORIENTED_EDGE('',*,*,#66,.F.);
#149 = ORIENTED_EDGE('',*,*,#141,.F.);
#150 = ORIENTED_EDGE('',*,*,#151,.T.);
#151 = EDGE_CURVE('',#142,#142,#152,.T.);
#152 = CIRCLE('',#153,1.3);
#153 = AXIS2_PLACEMENT_3D('',#154,#155,#156);
#154 = CARTESIAN_POINT('',(220.99999999999,134.99284439043,
    72.46672846111));
#155 = DIRECTION('',(1.165734175919E-15,-3.011479954296E-15,1.));
#156 = DIRECTION('',(1.,0.,-1.165734175919E-15));
#157 = CYLINDRICAL_SURFACE('',#158,1.3);
#158 = AXIS2_PLACEMENT_3D('',#159,#160,#161);
#159 = CARTESIAN_POINT('',(220.99999999999,134.99284439043,
    76.46672846111));
#160 = DIRECTION('',(0.,4.440892098501E-15,-1.));
#161 = DIRECTION('',(1.,-5.176899690793E-30,-2.299005293157E-44));
#162 = ADVANCED_FACE('',(#163),#182,.F.);
#163 = FACE_BOUND('',#164,.F.);
#164 = EDGE_LOOP('',(#165,#173,#174,#175));
#165 = ORIENTED_EDGE('',*,*,#166,.T.);
#166 = EDGE_CURVE('',#167,#78,#169,.T.);
#167 = VERTEX_POINT('',#168);
#168 = CARTESIAN_POINT('',(233.69999999999,148.99284439043,
    72.46672846111));
#169 = LINE('',#170,#171);
#170 = CARTESIAN_POINT('',(233.69999999999,148.99284439043,
    76.46672846111));
#171 = VECTOR('',#172,1.);
#172 = DIRECTION('',(0.,-4.440892098501E-15,1.));
#173 = ORIENTED_EDGE('',*,*,#77,.F.);
#174 = ORIENTED_EDGE('',*,*,#166,.F.);
#175 = ORIENTED_EDGE('',*,*,#176,.T.);
#176 = EDGE_CURVE('',#167,#167,#177,.T.);
#177 = CIRCLE('',#178,1.3);
#178 = AXIS2_PLACEMENT_3D('',#179,#180,#181);
#179 = CARTESIAN_POINT('',(234.99999999999,148.99284439043,
    72.46672846111));
#180 = DIRECTION('',(1.165734175919E-15,-3.011479954296E-15,1.));
#181 = DIRECTION('',(1.,-7.006492321624E-46,-1.165734175919E-15));
#182 = CYLINDRICAL_SURFACE('',#183,1.3);
#183 = AXIS2_PLACEMENT_3D('',#184,#185,#186);
#184 = CARTESIAN_POINT('',(234.99999999999,148.99284439043,
    76.46672846111));
#185 = DIRECTION('',(0.,4.440892098501E-15,-1.));
#186 = DIRECTION('',(1.,-5.176899690793E-30,-2.299005293157E-44));
#187 = ADVANCED_FACE('',(#188),#207,.F.);
#188 = FACE_BOUND('',#189,.F.);
#189 = EDGE_LOOP('',(#190,#198,#199,#200));
#190 = ORIENTED_EDGE('',*,*,#191,.T.);
#191 = EDGE_CURVE('',#192,#89,#194,.T.);
#192 = VERTEX_POINT('',#193);
#193 = CARTESIAN_POINT('',(223.99999999999,134.99284439043,
    72.46672846111));
#194 = LINE('',#195,#196);
#195 = CARTESIAN_POINT('',(223.99999999999,134.99284439043,
    76.46672846111));
#196 = VECTOR('',#197,1.);
#197 = DIRECTION('',(0.,-4.440892098501E-15,1.));
#198 = ORIENTED_EDGE('',*,*,#88,.F.);
#199 = ORIENTED_EDGE('',*,*,#191,.F.);
#200 = ORIENTED_EDGE('',*,*,#201,.T.);
#201 = EDGE_CURVE('',#192,#192,#202,.T.);
#202 = CIRCLE('',#203,11.);
#203 = AXIS2_PLACEMENT_3D('',#204,#205,#206);
#204 = CARTESIAN_POINT('',(234.99999999999,134.99284439043,
    72.46672846111));
#205 = DIRECTION('',(1.165734175919E-15,-3.011479954296E-15,1.));
#206 = DIRECTION('',(1.,-7.006492321624E-46,-1.165734175919E-15));
#207 = CYLINDRICAL_SURFACE('',#208,11.);
#208 = AXIS2_PLACEMENT_3D('',#209,#210,#211);
#209 = CARTESIAN_POINT('',(234.99999999999,134.99284439043,
    76.46672846111));
#210 = DIRECTION('',(0.,4.440892098501E-15,-1.));
#211 = DIRECTION('',(1.,-5.176899690793E-30,-2.299005293157E-44));
#212 = ADVANCED_FACE('',(#213),#232,.F.);
#213 = FACE_BOUND('',#214,.F.);
#214 = EDGE_LOOP('',(#215,#223,#224,#225));
#215 = ORIENTED_EDGE('',*,*,#216,.T.);
#216 = EDGE_CURVE('',#217,#100,#219,.T.);
#217 = VERTEX_POINT('',#218);
#218 = CARTESIAN_POINT('',(247.69999999999,134.99284439043,
    72.46672846111));
#219 = LINE('',#220,#221);
#220 = CARTESIAN_POINT('',(247.69999999999,134.99284439043,
    76.46672846111));
#221 = VECTOR('',#222,1.);
#222 = DIRECTION('',(0.,-4.440892098501E-15,1.));
#223 = ORIENTED_EDGE('',*,*,#99,.F.);
#224 = ORIENTED_EDGE('',*,*,#216,.F.);
#225 = ORIENTED_EDGE('',*,*,#226,.T.);
#226 = EDGE_CURVE('',#217,#217,#227,.T.);
#227 = CIRCLE('',#228,1.3);
#228 = AXIS2_PLACEMENT_3D('',#229,#230,#231);
#229 = CARTESIAN_POINT('',(248.99999999999,134.99284439043,
    72.46672846111));
#230 = DIRECTION('',(1.165734175919E-15,-3.011479954296E-15,1.));
#231 = DIRECTION('',(1.,0.,-1.165734175919E-15));
#232 = CYLINDRICAL_SURFACE('',#233,1.3);
#233 = AXIS2_PLACEMENT_3D('',#234,#235,#236);
#234 = CARTESIAN_POINT('',(248.99999999999,134.99284439043,
    76.46672846111));
#235 = DIRECTION('',(0.,4.440892098501E-15,-1.));
#236 = DIRECTION('',(1.,-5.176899690793E-30,-2.299005293157E-44));
#237 = ADVANCED_FACE('',(#238),#263,.T.);
#238 = FACE_BOUND('',#239,.T.);
#239 = EDGE_LOOP('',(#240,#241,#249,#257));
#240 = ORIENTED_EDGE('',*,*,#39,.F.);
#241 = ORIENTED_EDGE('',*,*,#242,.T.);
#242 = EDGE_CURVE('',#32,#243,#245,.T.);
#243 = VERTEX_POINT('',#244);
#244 = CARTESIAN_POINT('',(256.00000381469,157.00000233948,
    72.46672846111));
#245 = LINE('',#246,#247);
#246 = CARTESIAN_POINT('',(256.00000381469,157.00000233948,
    76.46672846111));
#247 = VECTOR('',#248,1.);
#248 = DIRECTION('',(0.,4.440892098501E-15,-1.));
#249 = ORIENTED_EDGE('',*,*,#250,.F.);
#250 = EDGE_CURVE('',#251,#243,#253,.T.);
#251 = VERTEX_POINT('',#252);
#252 = CARTESIAN_POINT('',(214.00001016445,157.00000233948,
    72.46672846111));
#253 = LINE('',#254,#255);
#254 = CARTESIAN_POINT('',(256.00000381469,157.00000233948,
    72.46672846111));
#255 = VECTOR('',#256,1.);
#256 = DIRECTION('',(1.,-6.70543211202E-46,-1.165734175919E-15));
#257 = ORIENTED_EDGE('',*,*,#258,.F.);
#258 = EDGE_CURVE('',#40,#251,#259,.T.);
#259 = LINE('',#260,#261);
#260 = CARTESIAN_POINT('',(214.00001016445,157.00000233948,
    76.46672846111));
#261 = VECTOR('',#262,1.);
#262 = DIRECTION('',(0.,4.440892098501E-15,-1.));
#263 = PLANE('',#264);
#264 = AXIS2_PLACEMENT_3D('',#265,#266,#267);
#265 = CARTESIAN_POINT('',(214.00001016445,157.00000233948,
    76.46672846111));
#266 = DIRECTION('',(5.176899690793E-30,1.,4.440892098501E-15));
#267 = DIRECTION('',(1.,-2.24207754292E-44,-1.165734175919E-15));
#268 = ADVANCED_FACE('',(#269,#294,#297,#300,#303,#306),#309,.T.);
#269 = FACE_BOUND('',#270,.T.);
#270 = EDGE_LOOP('',(#271,#281,#287,#288));
#271 = ORIENTED_EDGE('',*,*,#272,.F.);
#272 = EDGE_CURVE('',#273,#275,#277,.T.);
#273 = VERTEX_POINT('',#274);
#274 = CARTESIAN_POINT('',(214.00001016445,114.76305796466,
    72.46672846111));
#275 = VERTEX_POINT('',#276);
#276 = CARTESIAN_POINT('',(256.00000381469,114.76305796466,
    72.46672846111));
#277 = LINE('',#278,#279);
#278 = CARTESIAN_POINT('',(235.00000349478,114.76305796466,
    72.46672846111));
#279 = VECTOR('',#280,1.);
#280 = DIRECTION('',(1.,3.170851060611E-30,-1.165734175919E-15));
#281 = ORIENTED_EDGE('',*,*,#282,.T.);
#282 = EDGE_CURVE('',#273,#251,#283,.T.);
#283 = LINE('',#284,#285);
#284 = CARTESIAN_POINT('',(214.00001016445,157.00000233948,
    72.46672846111));
#285 = VECTOR('',#286,1.);
#286 = DIRECTION('',(3.510585102819E-30,1.,3.011479954296E-15));
#287 = ORIENTED_EDGE('',*,*,#250,.T.);
#288 = ORIENTED_EDGE('',*,*,#289,.T.);
#289 = EDGE_CURVE('',#243,#275,#290,.T.);
#290 = LINE('',#291,#292);
#291 = CARTESIAN_POINT('',(256.00000381469,114.7600054508,72.46672846111
    ));
#292 = VECTOR('',#293,1.);
#293 = DIRECTION('',(-3.510585102819E-30,-1.,-3.011479954296E-15));
#294 = FACE_BOUND('',#295,.T.);
#295 = EDGE_LOOP('',(#296));
#296 = ORIENTED_EDGE('',*,*,#226,.T.);
#297 = FACE_BOUND('',#298,.T.);
#298 = EDGE_LOOP('',(#299));
#299 = ORIENTED_EDGE('',*,*,#201,.T.);
#300 = FACE_BOUND('',#301,.T.);
#301 = EDGE_LOOP('',(#302));
#302 = ORIENTED_EDGE('',*,*,#176,.T.);
#303 = FACE_BOUND('',#304,.T.);
#304 = EDGE_LOOP('',(#305));
#305 = ORIENTED_EDGE('',*,*,#151,.T.);
#306 = FACE_BOUND('',#307,.T.);
#307 = EDGE_LOOP('',(#308));
#308 = ORIENTED_EDGE('',*,*,#126,.T.);
#309 = PLANE('',#310);
#310 = AXIS2_PLACEMENT_3D('',#311,#312,#313);
#311 = CARTESIAN_POINT('',(235.00000698957,135.88000389514,
    72.46672846111));
#312 = DIRECTION('',(-1.165734175919E-15,3.011479954296E-15,-1.));
#313 = DIRECTION('',(1.,-7.006492321624E-46,-1.165734175919E-15));
#314 = ADVANCED_FACE('',(#315),#340,.T.);
#315 = FACE_BOUND('',#316,.T.);
#316 = EDGE_LOOP('',(#317,#318,#326,#334));
#317 = ORIENTED_EDGE('',*,*,#21,.T.);
#318 = ORIENTED_EDGE('',*,*,#319,.T.);
#319 = EDGE_CURVE('',#24,#320,#322,.T.);
#320 = VERTEX_POINT('',#321);
#321 = CARTESIAN_POINT('',(214.00000318884,114.76305796466,
    111.23000552062));
#322 = LINE('',#323,#324);
#323 = CARTESIAN_POINT('',(214.00000318884,114.76305796466,
    59.229786425774));
#324 = VECTOR('',#325,1.);
#325 = DIRECTION('',(0.,-2.720046410332E-15,1.));
#326 = ORIENTED_EDGE('',*,*,#327,.T.);
#327 = EDGE_CURVE('',#320,#328,#330,.T.);
#328 = VERTEX_POINT('',#329);
#329 = CARTESIAN_POINT('',(256.00000381469,114.76305796466,
    111.23000552062));
#330 = LINE('',#331,#332);
#331 = CARTESIAN_POINT('',(245.50000190734,114.76305796466,
    111.23000552062));
#332 = VECTOR('',#333,1.);
#333 = DIRECTION('',(1.,0.,0.));
#334 = ORIENTED_EDGE('',*,*,#335,.F.);
#335 = EDGE_CURVE('',#22,#328,#336,.T.);
#336 = LINE('',#337,#338);
#337 = CARTESIAN_POINT('',(256.00000381469,114.76305796466,
    59.229786425774));
#338 = VECTOR('',#339,1.);
#339 = DIRECTION('',(0.,-2.720046410332E-15,1.));
#340 = PLANE('',#341);
#341 = AXIS2_PLACEMENT_3D('',#342,#343,#344);
#342 = CARTESIAN_POINT('',(235.,114.76305796466,79.114892199608));
#343 = DIRECTION('',(0.,1.,2.720046410332E-15));
#344 = DIRECTION('',(-1.,0.,0.));
#345 = ADVANCED_FACE('',(#346,#372),#391,.T.);
#346 = FACE_BOUND('',#347,.T.);
#347 = EDGE_LOOP('',(#348,#349,#357,#366));
#348 = ORIENTED_EDGE('',*,*,#272,.T.);
#349 = ORIENTED_EDGE('',*,*,#350,.F.);
#350 = EDGE_CURVE('',#351,#275,#353,.T.);
#351 = VERTEX_POINT('',#352);
#352 = CARTESIAN_POINT('',(256.00000381469,114.76305796466,
    59.229786425774));
#353 = LINE('',#354,#355);
#354 = CARTESIAN_POINT('',(256.00000381469,114.76305796466,
    59.229786425774));
#355 = VECTOR('',#356,1.);
#356 = DIRECTION('',(0.,-2.720046410332E-15,1.));
#357 = ORIENTED_EDGE('',*,*,#358,.T.);
#358 = EDGE_CURVE('',#351,#359,#361,.T.);
#359 = VERTEX_POINT('',#360);
#360 = CARTESIAN_POINT('',(214.00000318884,114.76305796466,
    59.246937196203));
#361 = CIRCLE('',#362,21.000003814697);
#362 = AXIS2_PLACEMENT_3D('',#363,#364,#365);
#363 = CARTESIAN_POINT('',(235.,114.76305796466,59.229786425774));
#364 = DIRECTION('',(0.,1.,2.720046410332E-15));
#365 = DIRECTION('',(1.,0.,-0.));
#366 = ORIENTED_EDGE('',*,*,#367,.T.);
#367 = EDGE_CURVE('',#359,#273,#368,.T.);
#368 = LINE('',#369,#370);
#369 = CARTESIAN_POINT('',(214.00000318884,114.76305796466,
    59.229786425774));
#370 = VECTOR('',#371,1.);
#371 = DIRECTION('',(0.,-2.720046410332E-15,1.));
#372 = FACE_BOUND('',#373,.T.);
#373 = EDGE_LOOP('',(#374,#385));
#374 = ORIENTED_EDGE('',*,*,#375,.T.);
#375 = EDGE_CURVE('',#376,#378,#380,.T.);
#376 = VERTEX_POINT('',#377);
#377 = CARTESIAN_POINT('',(236.9364916731,114.76305796466,
    55.729786425774));
#378 = VERTEX_POINT('',#379);
#379 = CARTESIAN_POINT('',(233.06350832689,114.76305796466,
    55.729786425774));
#380 = CIRCLE('',#381,4.);
#381 = AXIS2_PLACEMENT_3D('',#382,#383,#384);
#382 = CARTESIAN_POINT('',(235.,114.76305796466,59.229786425774));
#383 = DIRECTION('',(0.,-1.,-2.720046410332E-15));
#384 = DIRECTION('',(-0.484122918276,2.38004060904E-15,-0.875));
#385 = ORIENTED_EDGE('',*,*,#386,.T.);
#386 = EDGE_CURVE('',#378,#376,#387,.T.);
#387 = LINE('',#388,#389);
#388 = CARTESIAN_POINT('',(236.9364916731,114.76305796466,
    55.729786425774));
#389 = VECTOR('',#390,1.);
#390 = DIRECTION('',(1.,0.,0.));
#391 = PLANE('',#392);
#392 = AXIS2_PLACEMENT_3D('',#393,#394,#395);
#393 = CARTESIAN_POINT('',(235.,114.76305796466,79.114892199608));
#394 = DIRECTION('',(0.,1.,2.720046410332E-15));
#395 = DIRECTION('',(-1.,0.,0.));
#396 = ADVANCED_FACE('',(#397),#416,.T.);
#397 = FACE_BOUND('',#398,.T.);
#398 = EDGE_LOOP('',(#399,#410));
#399 = ORIENTED_EDGE('',*,*,#400,.F.);
#400 = EDGE_CURVE('',#401,#403,#405,.T.);
#401 = VERTEX_POINT('',#402);
#402 = CARTESIAN_POINT('',(218.37621176371,119.76305796466,
    111.23000552062));
#403 = VERTEX_POINT('',#404);
#404 = CARTESIAN_POINT('',(220.62378823627,119.76305796466,
    111.23000552062));
#405 = CIRCLE('',#406,1.23);
#406 = AXIS2_PLACEMENT_3D('',#407,#408,#409);
#407 = CARTESIAN_POINT('',(219.49999999999,120.26305796466,
    111.23000552062));
#408 = DIRECTION('',(0.,-3.552713678801E-15,1.));
#409 = DIRECTION('',(1.,5.949582204956E-29,2.113716208269E-43));
#410 = ORIENTED_EDGE('',*,*,#411,.F.);
#411 = EDGE_CURVE('',#403,#401,#412,.T.);
#412 = LINE('',#413,#414);
#413 = CARTESIAN_POINT('',(214.00000318884,119.76305796466,
    111.23000552062));
#414 = VECTOR('',#415,1.);
#415 = DIRECTION('',(-1.,0.,0.));
#416 = PLANE('',#417);
#417 = AXIS2_PLACEMENT_3D('',#418,#419,#420);
#418 = CARTESIAN_POINT('',(256.00000381469,114.76305796466,
    111.23000552062));
#419 = DIRECTION('',(0.,3.552713678801E-15,-1.));
#420 = DIRECTION('',(-1.,0.,0.));
#421 = ADVANCED_FACE('',(#422),#497,.T.);
#422 = FACE_BOUND('',#423,.T.);
#423 = EDGE_LOOP('',(#424,#434,#442,#448,#449,#457,#465,#473,#482,#490)
  );
#424 = ORIENTED_EDGE('',*,*,#425,.F.);
#425 = EDGE_CURVE('',#426,#428,#430,.T.);
#426 = VERTEX_POINT('',#427);
#427 = CARTESIAN_POINT('',(255.49999999999,119.76305796466,
    111.23000552062));
#428 = VERTEX_POINT('',#429);
#429 = CARTESIAN_POINT('',(255.49999999999,118.97020234091,
    111.23000552062));
#430 = LINE('',#431,#432);
#431 = CARTESIAN_POINT('',(255.49999999999,133.65948577653,
    111.23000552062));
#432 = VECTOR('',#433,1.);
#433 = DIRECTION('',(6.346830625597E-15,-1.,-3.552713678801E-15));
#434 = ORIENTED_EDGE('',*,*,#435,.F.);
#435 = EDGE_CURVE('',#436,#426,#438,.T.);
#436 = VERTEX_POINT('',#437);
#437 = CARTESIAN_POINT('',(256.00000381469,119.76305796466,
    111.23000552062));
#438 = LINE('',#439,#440);
#439 = CARTESIAN_POINT('',(214.00000318884,119.76305796466,
    111.23000552062));
#440 = VECTOR('',#441,1.);
#441 = DIRECTION('',(-1.,0.,0.));
#442 = ORIENTED_EDGE('',*,*,#443,.F.);
#443 = EDGE_CURVE('',#328,#436,#444,.T.);
#444 = LINE('',#445,#446);
#445 = CARTESIAN_POINT('',(256.00000381469,114.76305796466,
    111.23000552062));
#446 = VECTOR('',#447,1.);
#447 = DIRECTION('',(0.,1.,3.552713678801E-15));
#448 = ORIENTED_EDGE('',*,*,#327,.F.);
#449 = ORIENTED_EDGE('',*,*,#450,.T.);
#450 = EDGE_CURVE('',#320,#451,#453,.T.);
#451 = VERTEX_POINT('',#452);
#452 = CARTESIAN_POINT('',(214.00000318884,119.76305796466,
    111.23000552062));
#453 = LINE('',#454,#455);
#454 = CARTESIAN_POINT('',(214.00000318884,114.76305796466,
    111.23000552062));
#455 = VECTOR('',#456,1.);
#456 = DIRECTION('',(0.,1.,3.552713678801E-15));
#457 = ORIENTED_EDGE('',*,*,#458,.F.);
#458 = EDGE_CURVE('',#459,#451,#461,.T.);
#459 = VERTEX_POINT('',#460);
#460 = CARTESIAN_POINT('',(214.49999996917,119.76305796466,
    111.23000552062));
#461 = LINE('',#462,#463);
#462 = CARTESIAN_POINT('',(214.00000318884,119.76305796466,
    111.23000552062));
#463 = VECTOR('',#464,1.);
#464 = DIRECTION('',(-1.,0.,0.));
#465 = ORIENTED_EDGE('',*,*,#466,.F.);
#466 = EDGE_CURVE('',#467,#459,#469,.T.);
#467 = VERTEX_POINT('',#468);
#468 = CARTESIAN_POINT('',(214.49999996199,118.97020238731,
    111.23000552062));
#469 = LINE('',#470,#471);
#470 = CARTESIAN_POINT('',(214.49999997118,116.86663016473,
    111.23000552062));
#471 = VECTOR('',#472,1.);
#472 = DIRECTION('',(-6.949324709066E-10,1.,3.552713678801E-15));
#473 = ORIENTED_EDGE('',*,*,#474,.F.);
#474 = EDGE_CURVE('',#475,#467,#477,.T.);
#475 = VERTEX_POINT('',#476);
#476 = CARTESIAN_POINT('',(218.20714437625,115.26305796466,
    111.23000552062));
#477 = CIRCLE('',#478,26.5);
#478 = AXIS2_PLACEMENT_3D('',#479,#480,#481);
#479 = CARTESIAN_POINT('',(234.99999999999,135.76305796466,
    111.23000552062));
#480 = DIRECTION('',(-1.972152263053E-31,3.552713678801E-15,-1.));
#481 = DIRECTION('',(-0.633692665047,-0.77358490566,-2.748325676053E-15)
  );
#482 = ORIENTED_EDGE('',*,*,#483,.F.);
#483 = EDGE_CURVE('',#484,#475,#486,.T.);
#484 = VERTEX_POINT('',#485);
#485 = CARTESIAN_POINT('',(251.79285557704,115.2630579264,
    111.23000552062));
#486 = LINE('',#487,#488);
#487 = CARTESIAN_POINT('',(253.89642969615,115.263057924,111.23000552062
    ));
#488 = VECTOR('',#489,1.);
#489 = DIRECTION('',(-1.,1.139044008955E-09,4.046697231371E-24));
#490 = ORIENTED_EDGE('',*,*,#491,.F.);
#491 = EDGE_CURVE('',#428,#484,#492,.T.);
#492 = CIRCLE('',#493,26.5);
#493 = AXIS2_PLACEMENT_3D('',#494,#495,#496);
#494 = CARTESIAN_POINT('',(234.99999999999,135.76305796466,
    111.23000552062));
#495 = DIRECTION('',(-1.972152263053E-31,3.552713678801E-15,-1.));
#496 = DIRECTION('',(0.77358490566,-0.633692665047,-2.251328599268E-15)
  );
#497 = PLANE('',#498);
#498 = AXIS2_PLACEMENT_3D('',#499,#500,#501);
#499 = CARTESIAN_POINT('',(256.00000381469,114.76305796466,
    111.23000552062));
#500 = DIRECTION('',(0.,3.552713678801E-15,-1.));
#501 = DIRECTION('',(-1.,0.,0.));
#502 = ADVANCED_FACE('',(#503),#606,.T.);
#503 = FACE_BOUND('',#504,.T.);
#504 = EDGE_LOOP('',(#505,#515,#523,#529,#530,#538,#546,#552,#553,#561,
    #569,#575,#576,#584,#592,#600));
#505 = ORIENTED_EDGE('',*,*,#506,.F.);
#506 = EDGE_CURVE('',#507,#509,#511,.T.);
#507 = VERTEX_POINT('',#508);
#508 = CARTESIAN_POINT('',(249.37621176372,119.76305796466,
    116.22978642577));
#509 = VERTEX_POINT('',#510);
#510 = CARTESIAN_POINT('',(249.37621176372,119.76305796466,
    111.23000552062));
#511 = LINE('',#512,#513);
#512 = CARTESIAN_POINT('',(249.37621176372,119.76305796466,
    116.22978642577));
#513 = VECTOR('',#514,1.);
#514 = DIRECTION('',(0.,-4.618527782441E-14,-1.));
#515 = ORIENTED_EDGE('',*,*,#516,.F.);
#516 = EDGE_CURVE('',#517,#507,#519,.T.);
#517 = VERTEX_POINT('',#518);
#518 = CARTESIAN_POINT('',(220.62378823627,119.76305796466,
    116.22978642577));
#519 = LINE('',#520,#521);
#520 = CARTESIAN_POINT('',(235.00000173748,119.76305796466,
    116.22978642577));
#521 = VECTOR('',#522,1.);
#522 = DIRECTION('',(1.,4.57660169612E-30,-1.288198855829E-15));
#523 = ORIENTED_EDGE('',*,*,#524,.F.);
#524 = EDGE_CURVE('',#403,#517,#525,.T.);
#525 = LINE('',#526,#527);
#526 = CARTESIAN_POINT('',(220.62378823627,119.76305796466,
    116.22978642577));
#527 = VECTOR('',#528,1.);
#528 = DIRECTION('',(0.,4.618527782441E-14,1.));
#529 = ORIENTED_EDGE('',*,*,#411,.T.);
#530 = ORIENTED_EDGE('',*,*,#531,.F.);
#531 = EDGE_CURVE('',#532,#401,#534,.T.);
#532 = VERTEX_POINT('',#533);
#533 = CARTESIAN_POINT('',(218.37621176371,119.76305796466,
    116.22978642577));
#534 = LINE('',#535,#536);
#535 = CARTESIAN_POINT('',(218.37621176371,119.76305796466,
    116.22978642577));
#536 = VECTOR('',#537,1.);
#537 = DIRECTION('',(0.,-4.618527782441E-14,-1.));
#538 = ORIENTED_EDGE('',*,*,#539,.F.);
#539 = EDGE_CURVE('',#540,#532,#542,.T.);
#540 = VERTEX_POINT('',#541);
#541 = CARTESIAN_POINT('',(214.49999996917,119.76305796466,
    116.22978642577));
#542 = LINE('',#543,#544);
#543 = CARTESIAN_POINT('',(235.00000173748,119.76305796466,
    116.22978642577));
#544 = VECTOR('',#545,1.);
#545 = DIRECTION('',(1.,4.57660169612E-30,-1.288198855829E-15));
#546 = ORIENTED_EDGE('',*,*,#547,.F.);
#547 = EDGE_CURVE('',#459,#540,#548,.T.);
#548 = LINE('',#549,#550);
#549 = CARTESIAN_POINT('',(214.49999996917,119.76305796466,
    114.9798959732));
#550 = VECTOR('',#551,1.);
#551 = DIRECTION('',(3.456454533326E-23,-3.552713678801E-15,1.));
#552 = ORIENTED_EDGE('',*,*,#458,.T.);
#553 = ORIENTED_EDGE('',*,*,#554,.T.);
#554 = EDGE_CURVE('',#451,#555,#557,.T.);
#555 = VERTEX_POINT('',#556);
#556 = CARTESIAN_POINT('',(214.00000318884,119.76305796466,
    116.23000552062));
#557 = LINE('',#558,#559);
#558 = CARTESIAN_POINT('',(214.00000318884,119.76305796466,
    116.23000552062));
#559 = VECTOR('',#560,1.);
#560 = DIRECTION('',(0.,-2.720046410332E-15,1.));
#561 = ORIENTED_EDGE('',*,*,#562,.T.);
#562 = EDGE_CURVE('',#555,#563,#565,.T.);
#563 = VERTEX_POINT('',#564);
#564 = CARTESIAN_POINT('',(256.00000381469,119.76305796466,
    116.23000552062));
#565 = LINE('',#566,#567);
#566 = CARTESIAN_POINT('',(255.00001211185,119.76305796466,
    116.23000552062));
#567 = VECTOR('',#568,1.);
#568 = DIRECTION('',(1.,0.,0.));
#569 = ORIENTED_EDGE('',*,*,#570,.T.);
#570 = EDGE_CURVE('',#563,#436,#571,.T.);
#571 = LINE('',#572,#573);
#572 = CARTESIAN_POINT('',(256.00000381469,119.76305796466,
    111.23000552062));
#573 = VECTOR('',#574,1.);
#574 = DIRECTION('',(0.,2.720046410332E-15,-1.));
#575 = ORIENTED_EDGE('',*,*,#435,.T.);
#576 = ORIENTED_EDGE('',*,*,#577,.F.);
#577 = EDGE_CURVE('',#578,#426,#580,.T.);
#578 = VERTEX_POINT('',#579);
#579 = CARTESIAN_POINT('',(255.49999999999,119.76305796466,
    116.22978642577));
#580 = LINE('',#581,#582);
#581 = CARTESIAN_POINT('',(255.49999999999,119.76305796466,
    114.9798959732));
#582 = VECTOR('',#583,1.);
#583 = DIRECTION('',(-3.156786077282E-28,3.552713678801E-15,-1.));
#584 = ORIENTED_EDGE('',*,*,#585,.F.);
#585 = EDGE_CURVE('',#586,#578,#588,.T.);
#586 = VERTEX_POINT('',#587);
#587 = CARTESIAN_POINT('',(251.62378823627,119.76305796466,
    116.22978642577));
#588 = LINE('',#589,#590);
#589 = CARTESIAN_POINT('',(235.00000173748,119.76305796466,
    116.22978642577));
#590 = VECTOR('',#591,1.);
#591 = DIRECTION('',(1.,4.57660169612E-30,-1.288198855829E-15));
#592 = ORIENTED_EDGE('',*,*,#593,.F.);
#593 = EDGE_CURVE('',#594,#586,#596,.T.);
#594 = VERTEX_POINT('',#595);
#595 = CARTESIAN_POINT('',(251.62378823627,119.76305796466,
    111.23000552062));
#596 = LINE('',#597,#598);
#597 = CARTESIAN_POINT('',(251.62378823627,119.76305796466,
    116.22978642577));
#598 = VECTOR('',#599,1.);
#599 = DIRECTION('',(0.,4.618527782441E-14,1.));
#600 = ORIENTED_EDGE('',*,*,#601,.T.);
#601 = EDGE_CURVE('',#594,#509,#602,.T.);
#602 = LINE('',#603,#604);
#603 = CARTESIAN_POINT('',(214.00000318884,119.76305796466,
    111.23000552062));
#604 = VECTOR('',#605,1.);
#605 = DIRECTION('',(-1.,0.,0.));
#606 = PLANE('',#607);
#607 = AXIS2_PLACEMENT_3D('',#608,#609,#610);
#608 = CARTESIAN_POINT('',(235.00000350177,119.76305796466,
    113.73000552062));
#609 = DIRECTION('',(0.,1.,3.552713678801E-15));
#610 = DIRECTION('',(0.,-3.552713678801E-15,1.));
#611 = ADVANCED_FACE('',(#612),#622,.T.);
#612 = FACE_BOUND('',#613,.T.);
#613 = EDGE_LOOP('',(#614,#621));
#614 = ORIENTED_EDGE('',*,*,#615,.F.);
#615 = EDGE_CURVE('',#509,#594,#616,.T.);
#616 = CIRCLE('',#617,1.23);
#617 = AXIS2_PLACEMENT_3D('',#618,#619,#620);
#618 = CARTESIAN_POINT('',(250.49999999999,120.26305796466,
    111.23000552062));
#619 = DIRECTION('',(0.,-3.552713678801E-15,1.));
#620 = DIRECTION('',(1.,5.949582204956E-29,2.113716208269E-43));
#621 = ORIENTED_EDGE('',*,*,#601,.F.);
#622 = PLANE('',#623);
#623 = AXIS2_PLACEMENT_3D('',#624,#625,#626);
#624 = CARTESIAN_POINT('',(256.00000381469,114.76305796466,
    111.23000552062));
#625 = DIRECTION('',(0.,3.552713678801E-15,-1.));
#626 = DIRECTION('',(-1.,0.,0.));
#627 = ADVANCED_FACE('',(#628),#653,.T.);
#628 = FACE_BOUND('',#629,.T.);
#629 = EDGE_LOOP('',(#630,#640,#646,#647));
#630 = ORIENTED_EDGE('',*,*,#631,.F.);
#631 = EDGE_CURVE('',#632,#634,#636,.T.);
#632 = VERTEX_POINT('',#633);
#633 = CARTESIAN_POINT('',(256.00000381469,114.76305796466,
    116.23000552062));
#634 = VERTEX_POINT('',#635);
#635 = CARTESIAN_POINT('',(214.00000318884,114.76305796466,
    116.23000552062));
#636 = LINE('',#637,#638);
#637 = CARTESIAN_POINT('',(224.50000159442,114.76305796466,
    116.23000552062));
#638 = VECTOR('',#639,1.);
#639 = DIRECTION('',(-1.,0.,0.));
#640 = ORIENTED_EDGE('',*,*,#641,.T.);
#641 = EDGE_CURVE('',#632,#563,#642,.T.);
#642 = LINE('',#643,#644);
#643 = CARTESIAN_POINT('',(256.00000381469,114.76305796466,
    116.23000552062));
#644 = VECTOR('',#645,1.);
#645 = DIRECTION('',(0.,1.,3.552713678801E-15));
#646 = ORIENTED_EDGE('',*,*,#562,.F.);
#647 = ORIENTED_EDGE('',*,*,#648,.F.);
#648 = EDGE_CURVE('',#634,#555,#649,.T.);
#649 = LINE('',#650,#651);
#650 = CARTESIAN_POINT('',(214.00000318884,114.76305796466,
    116.23000552062));
#651 = VECTOR('',#652,1.);
#652 = DIRECTION('',(0.,1.,3.552713678801E-15));
#653 = PLANE('',#654);
#654 = AXIS2_PLACEMENT_3D('',#655,#656,#657);
#655 = CARTESIAN_POINT('',(214.00000318884,114.76305796466,
    116.23000552062));
#656 = DIRECTION('',(0.,-3.552713678801E-15,1.));
#657 = DIRECTION('',(1.,0.,0.));
#658 = ADVANCED_FACE('',(#659),#684,.T.);
#659 = FACE_BOUND('',#660,.T.);
#660 = EDGE_LOOP('',(#661,#662,#670,#678));
#661 = ORIENTED_EDGE('',*,*,#631,.T.);
#662 = ORIENTED_EDGE('',*,*,#663,.T.);
#663 = EDGE_CURVE('',#634,#664,#666,.T.);
#664 = VERTEX_POINT('',#665);
#665 = CARTESIAN_POINT('',(214.00000318884,114.76305796466,
    120.00000178814));
#666 = LINE('',#667,#668);
#667 = CARTESIAN_POINT('',(214.00000318884,114.76305796466,
    59.229786425774));
#668 = VECTOR('',#669,1.);
#669 = DIRECTION('',(0.,-2.720046410332E-15,1.));
#670 = ORIENTED_EDGE('',*,*,#671,.T.);
#671 = EDGE_CURVE('',#664,#672,#674,.T.);
#672 = VERTEX_POINT('',#673);
#673 = CARTESIAN_POINT('',(256.00000381469,114.76305796466,
    120.00000178814));
#674 = LINE('',#675,#676);
#675 = CARTESIAN_POINT('',(214.00000318884,114.76305796466,
    120.00000178814));
#676 = VECTOR('',#677,1.);
#677 = DIRECTION('',(1.,0.,0.));
#678 = ORIENTED_EDGE('',*,*,#679,.F.);
#679 = EDGE_CURVE('',#632,#672,#680,.T.);
#680 = LINE('',#681,#682);
#681 = CARTESIAN_POINT('',(256.00000381469,114.76305796466,
    59.229786425774));
#682 = VECTOR('',#683,1.);
#683 = DIRECTION('',(0.,-2.720046410332E-15,1.));
#684 = PLANE('',#685);
#685 = AXIS2_PLACEMENT_3D('',#686,#687,#688);
#686 = CARTESIAN_POINT('',(235.,114.76305796466,79.114892199608));
#687 = DIRECTION('',(0.,1.,2.720046410332E-15));
#688 = DIRECTION('',(-1.,0.,0.));
#689 = ADVANCED_FACE('',(#690),#715,.T.);
#690 = FACE_BOUND('',#691,.T.);
#691 = EDGE_LOOP('',(#692,#693,#701,#709));
#692 = ORIENTED_EDGE('',*,*,#386,.F.);
#693 = ORIENTED_EDGE('',*,*,#694,.T.);
#694 = EDGE_CURVE('',#378,#695,#697,.T.);
#695 = VERTEX_POINT('',#696);
#696 = CARTESIAN_POINT('',(233.06350832689,99.763057964663,
    55.729786425774));
#697 = LINE('',#698,#699);
#698 = CARTESIAN_POINT('',(233.06350832689,114.76305796466,
    55.729786425774));
#699 = VECTOR('',#700,1.);
#700 = DIRECTION('',(0.,-1.,-2.960594732334E-15));
#701 = ORIENTED_EDGE('',*,*,#702,.F.);
#702 = EDGE_CURVE('',#703,#695,#705,.T.);
#703 = VERTEX_POINT('',#704);
#704 = CARTESIAN_POINT('',(236.9364916731,99.763057964663,
    55.729786425774));
#705 = LINE('',#706,#707);
#706 = CARTESIAN_POINT('',(236.9364916731,99.763057964663,
    55.729786425774));
#707 = VECTOR('',#708,1.);
#708 = DIRECTION('',(-1.,0.,0.));
#709 = ORIENTED_EDGE('',*,*,#710,.F.);
#710 = EDGE_CURVE('',#376,#703,#711,.T.);
#711 = LINE('',#712,#713);
#712 = CARTESIAN_POINT('',(236.9364916731,114.76305796466,
    55.729786425774));
#713 = VECTOR('',#714,1.);
#714 = DIRECTION('',(0.,-1.,-2.960594732334E-15));
#715 = PLANE('',#716);
#716 = AXIS2_PLACEMENT_3D('',#717,#718,#719);
#717 = CARTESIAN_POINT('',(236.9364916731,114.76305796466,
    55.729786425774));
#718 = DIRECTION('',(0.,-2.960594732334E-15,1.));
#719 = DIRECTION('',(-1.,0.,0.));
#720 = ADVANCED_FACE('',(#721),#733,.F.);
#721 = FACE_BOUND('',#722,.F.);
#722 = EDGE_LOOP('',(#723,#724,#731,#732));
#723 = ORIENTED_EDGE('',*,*,#694,.T.);
#724 = ORIENTED_EDGE('',*,*,#725,.T.);
#725 = EDGE_CURVE('',#695,#703,#726,.T.);
#726 = CIRCLE('',#727,4.);
#727 = AXIS2_PLACEMENT_3D('',#728,#729,#730);
#728 = CARTESIAN_POINT('',(235.,99.763057964663,59.229786425774));
#729 = DIRECTION('',(0.,1.,2.720046410332E-15));
#730 = DIRECTION('',(-0.484122918276,2.38004060904E-15,-0.875));
#731 = ORIENTED_EDGE('',*,*,#710,.F.);
#732 = ORIENTED_EDGE('',*,*,#375,.T.);
#733 = CYLINDRICAL_SURFACE('',#734,4.);
#734 = AXIS2_PLACEMENT_3D('',#735,#736,#737);
#735 = CARTESIAN_POINT('',(235.,114.76305796466,59.229786425774));
#736 = DIRECTION('',(0.,-1.,-2.960594732334E-15));
#737 = DIRECTION('',(4.996003610813E-15,-2.960594732334E-15,1.));
#738 = ADVANCED_FACE('',(#739),#765,.T.);
#739 = FACE_BOUND('',#740,.T.);
#740 = EDGE_LOOP('',(#741,#742,#750,#759));
#741 = ORIENTED_EDGE('',*,*,#358,.F.);
#742 = ORIENTED_EDGE('',*,*,#743,.T.);
#743 = EDGE_CURVE('',#351,#744,#746,.T.);
#744 = VERTEX_POINT('',#745);
#745 = CARTESIAN_POINT('',(256.00000381469,99.763057964663,
    59.229786425774));
#746 = LINE('',#747,#748);
#747 = CARTESIAN_POINT('',(256.00000381469,114.76305796466,
    59.229786425774));
#748 = VECTOR('',#749,1.);
#749 = DIRECTION('',(0.,-1.,-2.960594732334E-15));
#750 = ORIENTED_EDGE('',*,*,#751,.F.);
#751 = EDGE_CURVE('',#752,#744,#754,.T.);
#752 = VERTEX_POINT('',#753);
#753 = CARTESIAN_POINT('',(214.00000318884,99.763057964663,
    59.246937196203));
#754 = CIRCLE('',#755,21.000003814697);
#755 = AXIS2_PLACEMENT_3D('',#756,#757,#758);
#756 = CARTESIAN_POINT('',(235.,99.763057964663,59.229786425774));
#757 = DIRECTION('',(0.,-1.,-2.720046410332E-15));
#758 = DIRECTION('',(1.,0.,0.));
#759 = ORIENTED_EDGE('',*,*,#760,.F.);
#760 = EDGE_CURVE('',#359,#752,#761,.T.);
#761 = LINE('',#762,#763);
#762 = CARTESIAN_POINT('',(214.00000318884,114.76305796466,
    59.246937196203));
#763 = VECTOR('',#764,1.);
#764 = DIRECTION('',(0.,-1.,-2.960594732334E-15));
#765 = CYLINDRICAL_SURFACE('',#766,21.000003814697);
#766 = AXIS2_PLACEMENT_3D('',#767,#768,#769);
#767 = CARTESIAN_POINT('',(235.,114.76305796466,59.229786425774));
#768 = DIRECTION('',(0.,-1.,-2.960594732334E-15));
#769 = DIRECTION('',(-4.083516367524E-04,2.960594485493E-15,
    -0.999999916624));
#770 = ADVANCED_FACE('',(#771),#797,.T.);
#771 = FACE_BOUND('',#772,.T.);
#772 = EDGE_LOOP('',(#773,#774,#775,#783,#789,#790,#791,#792,#793,#794,
    #795,#796));
#773 = ORIENTED_EDGE('',*,*,#367,.F.);
#774 = ORIENTED_EDGE('',*,*,#760,.T.);
#775 = ORIENTED_EDGE('',*,*,#776,.F.);
#776 = EDGE_CURVE('',#777,#752,#779,.T.);
#777 = VERTEX_POINT('',#778);
#778 = CARTESIAN_POINT('',(214.00000318884,99.763057964663,
    120.00000178814));
#779 = LINE('',#780,#781);
#780 = CARTESIAN_POINT('',(214.00000318884,99.763057964663,
    59.229786425774));
#781 = VECTOR('',#782,1.);
#782 = DIRECTION('',(0.,2.720046410332E-15,-1.));
#783 = ORIENTED_EDGE('',*,*,#784,.F.);
#784 = EDGE_CURVE('',#664,#777,#785,.T.);
#785 = LINE('',#786,#787);
#786 = CARTESIAN_POINT('',(214.00000318884,114.76305796466,
    120.00000178814));
#787 = VECTOR('',#788,1.);
#788 = DIRECTION('',(0.,-1.,-2.960594732334E-15));
#789 = ORIENTED_EDGE('',*,*,#663,.F.);
#790 = ORIENTED_EDGE('',*,*,#648,.T.);
#791 = ORIENTED_EDGE('',*,*,#554,.F.);
#792 = ORIENTED_EDGE('',*,*,#450,.F.);
#793 = ORIENTED_EDGE('',*,*,#319,.F.);
#794 = ORIENTED_EDGE('',*,*,#47,.F.);
#795 = ORIENTED_EDGE('',*,*,#258,.T.);
#796 = ORIENTED_EDGE('',*,*,#282,.F.);
#797 = PLANE('',#798);
#798 = AXIS2_PLACEMENT_3D('',#799,#800,#801);
#799 = CARTESIAN_POINT('',(214.00000318884,114.76305796466,
    120.00000178814));
#800 = DIRECTION('',(-1.,0.,0.));
#801 = DIRECTION('',(0.,2.720046410332E-15,-1.));
#802 = ADVANCED_FACE('',(#803),#821,.T.);
#803 = FACE_BOUND('',#804,.T.);
#804 = EDGE_LOOP('',(#805,#806,#807,#815));
#805 = ORIENTED_EDGE('',*,*,#671,.F.);
#806 = ORIENTED_EDGE('',*,*,#784,.T.);
#807 = ORIENTED_EDGE('',*,*,#808,.F.);
#808 = EDGE_CURVE('',#809,#777,#811,.T.);
#809 = VERTEX_POINT('',#810);
#810 = CARTESIAN_POINT('',(256.00000381469,99.763057964663,
    120.00000178814));
#811 = LINE('',#812,#813);
#812 = CARTESIAN_POINT('',(214.00000318884,99.763057964663,
    120.00000178814));
#813 = VECTOR('',#814,1.);
#814 = DIRECTION('',(-1.,0.,0.));
#815 = ORIENTED_EDGE('',*,*,#816,.F.);
#816 = EDGE_CURVE('',#672,#809,#817,.T.);
#817 = LINE('',#818,#819);
#818 = CARTESIAN_POINT('',(256.00000381469,114.76305796466,
    120.00000178814));
#819 = VECTOR('',#820,1.);
#820 = DIRECTION('',(0.,-1.,-2.960594732334E-15));
#821 = PLANE('',#822);
#822 = AXIS2_PLACEMENT_3D('',#823,#824,#825);
#823 = CARTESIAN_POINT('',(256.00000381469,114.76305796466,
    120.00000178814));
#824 = DIRECTION('',(0.,-2.960594732334E-15,1.));
#825 = DIRECTION('',(-1.,0.,0.));
#826 = ADVANCED_FACE('',(#827),#846,.T.);
#827 = FACE_BOUND('',#828,.T.);
#828 = EDGE_LOOP('',(#829,#830,#831,#832,#833,#834,#835,#841,#842,#843,
    #844,#845));
#829 = ORIENTED_EDGE('',*,*,#335,.T.);
#830 = ORIENTED_EDGE('',*,*,#443,.T.);
#831 = ORIENTED_EDGE('',*,*,#570,.F.);
#832 = ORIENTED_EDGE('',*,*,#641,.F.);
#833 = ORIENTED_EDGE('',*,*,#679,.T.);
#834 = ORIENTED_EDGE('',*,*,#816,.T.);
#835 = ORIENTED_EDGE('',*,*,#836,.F.);
#836 = EDGE_CURVE('',#744,#809,#837,.T.);
#837 = LINE('',#838,#839);
#838 = CARTESIAN_POINT('',(256.00000381469,99.763057964663,
    59.229786425774));
#839 = VECTOR('',#840,1.);
#840 = DIRECTION('',(0.,-2.720046410332E-15,1.));
#841 = ORIENTED_EDGE('',*,*,#743,.F.);
#842 = ORIENTED_EDGE('',*,*,#350,.T.);
#843 = ORIENTED_EDGE('',*,*,#289,.F.);
#844 = ORIENTED_EDGE('',*,*,#242,.F.);
#845 = ORIENTED_EDGE('',*,*,#31,.F.);
#846 = PLANE('',#847);
#847 = AXIS2_PLACEMENT_3D('',#848,#849,#850);
#848 = CARTESIAN_POINT('',(256.00000381469,114.76305796466,
    59.229786425774));
#849 = DIRECTION('',(1.,0.,0.));
#850 = DIRECTION('',(0.,-2.720046410332E-15,1.));
#851 = ADVANCED_FACE('',(#852,#858),#862,.F.);
#852 = FACE_BOUND('',#853,.T.);
#853 = EDGE_LOOP('',(#854,#855,#856,#857));
#854 = ORIENTED_EDGE('',*,*,#836,.T.);
#855 = ORIENTED_EDGE('',*,*,#808,.T.);
#856 = ORIENTED_EDGE('',*,*,#776,.T.);
#857 = ORIENTED_EDGE('',*,*,#751,.T.);
#858 = FACE_BOUND('',#859,.T.);
#859 = EDGE_LOOP('',(#860,#861));
#860 = ORIENTED_EDGE('',*,*,#725,.T.);
#861 = ORIENTED_EDGE('',*,*,#702,.T.);
#862 = PLANE('',#863);
#863 = AXIS2_PLACEMENT_3D('',#864,#865,#866);
#864 = CARTESIAN_POINT('',(235.,99.763057964663,79.114892199608));
#865 = DIRECTION('',(0.,1.,2.720046410332E-15));
#866 = DIRECTION('',(-1.,0.,0.));
#867 = ADVANCED_FACE('',(#868),#905,.F.);
#868 = FACE_BOUND('',#869,.F.);
#869 = EDGE_LOOP('',(#870,#880,#887,#888,#889,#890,#897,#898));
#870 = ORIENTED_EDGE('',*,*,#871,.T.);
#871 = EDGE_CURVE('',#872,#874,#876,.T.);
#872 = VERTEX_POINT('',#873);
#873 = CARTESIAN_POINT('',(249.26999999999,120.26305796466,
    111.22978642577));
#874 = VERTEX_POINT('',#875);
#875 = CARTESIAN_POINT('',(249.26999999999,120.26305796466,
    116.22978642577));
#876 = LINE('',#877,#878);
#877 = CARTESIAN_POINT('',(249.26999999999,120.26305796466,
    116.22978642577));
#878 = VECTOR('',#879,1.);
#879 = DIRECTION('',(0.,4.618527782441E-14,1.));
#880 = ORIENTED_EDGE('',*,*,#881,.F.);
#881 = EDGE_CURVE('',#586,#874,#882,.T.);
#882 = CIRCLE('',#883,1.23);
#883 = AXIS2_PLACEMENT_3D('',#884,#885,#886);
#884 = CARTESIAN_POINT('',(250.49999999999,120.26305796466,
    116.22978642577));
#885 = DIRECTION('',(1.288198855829E-15,4.679590048795E-14,1.));
#886 = DIRECTION('',(1.,1.12103877146E-44,-1.288198855829E-15));
#887 = ORIENTED_EDGE('',*,*,#593,.F.);
#888 = ORIENTED_EDGE('',*,*,#615,.F.);
#889 = ORIENTED_EDGE('',*,*,#506,.F.);
#890 = ORIENTED_EDGE('',*,*,#891,.F.);
#891 = EDGE_CURVE('',#874,#507,#892,.T.);
#892 = CIRCLE('',#893,1.23);
#893 = AXIS2_PLACEMENT_3D('',#894,#895,#896);
#894 = CARTESIAN_POINT('',(250.49999999999,120.26305796466,
    116.22978642577));
#895 = DIRECTION('',(1.288198855829E-15,4.679590048795E-14,1.));
#896 = DIRECTION('',(1.,1.12103877146E-44,-1.288198855829E-15));
#897 = ORIENTED_EDGE('',*,*,#871,.F.);
#898 = ORIENTED_EDGE('',*,*,#899,.T.);
#899 = EDGE_CURVE('',#872,#872,#900,.T.);
#900 = CIRCLE('',#901,1.23);
#901 = AXIS2_PLACEMENT_3D('',#902,#903,#904);
#902 = CARTESIAN_POINT('',(250.49999999999,120.26305796466,
    111.22978642577));
#903 = DIRECTION('',(1.288198855829E-15,4.679590048795E-14,1.));
#904 = DIRECTION('',(1.,1.12103877146E-44,-1.288198855829E-15));
#905 = CYLINDRICAL_SURFACE('',#906,1.23);
#906 = AXIS2_PLACEMENT_3D('',#907,#908,#909);
#907 = CARTESIAN_POINT('',(250.49999999999,120.26305796466,
    116.22978642577));
#908 = DIRECTION('',(0.,-4.618527782441E-14,-1.));
#909 = DIRECTION('',(1.,5.949582204956E-29,-2.74783107075E-42));
#910 = ADVANCED_FACE('',(#911),#945,.T.);
#911 = FACE_BOUND('',#912,.T.);
#912 = EDGE_LOOP('',(#913,#914,#915,#923,#931,#939));
#913 = ORIENTED_EDGE('',*,*,#577,.T.);
#914 = ORIENTED_EDGE('',*,*,#425,.T.);
#915 = ORIENTED_EDGE('',*,*,#916,.T.);
#916 = EDGE_CURVE('',#428,#917,#919,.T.);
#917 = VERTEX_POINT('',#918);
#918 = CARTESIAN_POINT('',(255.49999999999,118.97020234091,
    111.22978642577));
#919 = LINE('',#920,#921);
#920 = CARTESIAN_POINT('',(255.49999999999,118.97020234091,
    116.22978642577));
#921 = VECTOR('',#922,1.);
#922 = DIRECTION('',(0.,-4.618527782441E-14,-1.));
#923 = ORIENTED_EDGE('',*,*,#924,.F.);
#924 = EDGE_CURVE('',#925,#917,#927,.T.);
#925 = VERTEX_POINT('',#926);
#926 = CARTESIAN_POINT('',(255.49999999999,152.5559135884,
    111.22978642577));
#927 = LINE('',#928,#929);
#928 = CARTESIAN_POINT('',(255.49999999999,152.5559135884,
    111.22978642577));
#929 = VECTOR('',#930,1.);
#930 = DIRECTION('',(6.346830625597E-15,-1.,4.679590048795E-14));
#931 = ORIENTED_EDGE('',*,*,#932,.F.);
#932 = EDGE_CURVE('',#933,#925,#935,.T.);
#933 = VERTEX_POINT('',#934);
#934 = CARTESIAN_POINT('',(255.49999999999,152.5559135884,
    116.22978642577));
#935 = LINE('',#936,#937);
#936 = CARTESIAN_POINT('',(255.49999999999,152.5559135884,
    116.22978642577));
#937 = VECTOR('',#938,1.);
#938 = DIRECTION('',(0.,-4.618527782441E-14,-1.));
#939 = ORIENTED_EDGE('',*,*,#940,.T.);
#940 = EDGE_CURVE('',#933,#578,#941,.T.);
#941 = LINE('',#942,#943);
#942 = CARTESIAN_POINT('',(255.49999999999,152.5559135884,
    116.22978642577));
#943 = VECTOR('',#944,1.);
#944 = DIRECTION('',(6.346830625597E-15,-1.,4.679590048795E-14));
#945 = PLANE('',#946);
#946 = AXIS2_PLACEMENT_3D('',#947,#948,#949);
#947 = CARTESIAN_POINT('',(255.49999999999,152.5559135884,
    116.22978642577));
#948 = DIRECTION('',(1.,6.346830625597E-15,-2.931301357477E-28));
#949 = DIRECTION('',(6.346830625597E-15,-1.,4.679590048795E-14));
#950 = ADVANCED_FACE('',(#951),#970,.T.);
#951 = FACE_BOUND('',#952,.T.);
#952 = EDGE_LOOP('',(#953,#954,#962,#969));
#953 = ORIENTED_EDGE('',*,*,#491,.T.);
#954 = ORIENTED_EDGE('',*,*,#955,.T.);
#955 = EDGE_CURVE('',#484,#956,#958,.T.);
#956 = VERTEX_POINT('',#957);
#957 = CARTESIAN_POINT('',(251.79285557704,115.2630579264,
    111.22978642577));
#958 = LINE('',#959,#960);
#959 = CARTESIAN_POINT('',(251.79285557704,115.2630579264,
    116.22978642577));
#960 = VECTOR('',#961,1.);
#961 = DIRECTION('',(0.,-4.618527782441E-14,-1.));
#962 = ORIENTED_EDGE('',*,*,#963,.F.);
#963 = EDGE_CURVE('',#917,#956,#964,.T.);
#964 = CIRCLE('',#965,26.5);
#965 = AXIS2_PLACEMENT_3D('',#966,#967,#968);
#966 = CARTESIAN_POINT('',(234.99999999999,135.76305796466,
    111.22978642577));
#967 = DIRECTION('',(-1.288198855829E-15,-4.679590048795E-14,-1.));
#968 = DIRECTION('',(0.77358490566,-0.633692665047,2.865768770312E-14));
#969 = ORIENTED_EDGE('',*,*,#916,.F.);
#970 = CYLINDRICAL_SURFACE('',#971,26.5);
#971 = AXIS2_PLACEMENT_3D('',#972,#973,#974);
#972 = CARTESIAN_POINT('',(234.99999999999,135.76305796466,
    116.22978642577));
#973 = DIRECTION('',(0.,-4.618527782441E-14,-1.));
#974 = DIRECTION('',(0.77358490566,-0.633692665047,2.926727179048E-14));
#975 = ADVANCED_FACE('',(#976),#994,.T.);
#976 = FACE_BOUND('',#977,.T.);
#977 = EDGE_LOOP('',(#978,#979,#987,#993));
#978 = ORIENTED_EDGE('',*,*,#483,.T.);
#979 = ORIENTED_EDGE('',*,*,#980,.T.);
#980 = EDGE_CURVE('',#475,#981,#983,.T.);
#981 = VERTEX_POINT('',#982);
#982 = CARTESIAN_POINT('',(218.20714437625,115.26305796466,
    111.22978642577));
#983 = LINE('',#984,#985);
#984 = CARTESIAN_POINT('',(218.20714437625,115.26305796466,
    116.22978642577));
#985 = VECTOR('',#986,1.);
#986 = DIRECTION('',(0.,-4.618527782441E-14,-1.));
#987 = ORIENTED_EDGE('',*,*,#988,.F.);
#988 = EDGE_CURVE('',#956,#981,#989,.T.);
#989 = LINE('',#990,#991);
#990 = CARTESIAN_POINT('',(251.79285557704,115.2630579264,
    111.22978642577));
#991 = VECTOR('',#992,1.);
#992 = DIRECTION('',(-1.,1.139044008955E-09,1.288198802527E-15));
#993 = ORIENTED_EDGE('',*,*,#955,.F.);
#994 = PLANE('',#995);
#995 = AXIS2_PLACEMENT_3D('',#996,#997,#998);
#996 = CARTESIAN_POINT('',(251.79285557704,115.2630579264,
    116.22978642577));
#997 = DIRECTION('',(-1.139044008955E-09,-1.,4.618527782441E-14));
#998 = DIRECTION('',(-1.,1.139044008955E-09,1.288198802527E-15));
#999 = ADVANCED_FACE('',(#1000),#1019,.T.);
#1000 = FACE_BOUND('',#1001,.T.);
#1001 = EDGE_LOOP('',(#1002,#1003,#1011,#1018));
#1002 = ORIENTED_EDGE('',*,*,#474,.T.);
#1003 = ORIENTED_EDGE('',*,*,#1004,.T.);
#1004 = EDGE_CURVE('',#467,#1005,#1007,.T.);
#1005 = VERTEX_POINT('',#1006);
#1006 = CARTESIAN_POINT('',(214.49999996199,118.97020238731,
    111.22978642577));
#1007 = LINE('',#1008,#1009);
#1008 = CARTESIAN_POINT('',(214.49999996199,118.97020238731,
    116.22978642577));
#1009 = VECTOR('',#1010,1.);
#1010 = DIRECTION('',(0.,-4.618527782441E-14,-1.));
#1011 = ORIENTED_EDGE('',*,*,#1012,.F.);
#1012 = EDGE_CURVE('',#981,#1005,#1013,.T.);
#1013 = CIRCLE('',#1014,26.5);
#1014 = AXIS2_PLACEMENT_3D('',#1015,#1016,#1017);
#1015 = CARTESIAN_POINT('',(234.99999999999,135.76305796466,
    111.22978642577));
#1016 = DIRECTION('',(-1.288198855829E-15,-4.679590048795E-14,-1.));
#1017 = DIRECTION('',(-0.633692665047,-0.77358490566,3.701692443033E-14)
  );
#1018 = ORIENTED_EDGE('',*,*,#980,.F.);
#1019 = CYLINDRICAL_SURFACE('',#1020,26.5);
#1020 = AXIS2_PLACEMENT_3D('',#1021,#1022,#1023);
#1021 = CARTESIAN_POINT('',(234.99999999999,135.76305796466,
    116.22978642577));
#1022 = DIRECTION('',(0.,-4.618527782441E-14,-1.));
#1023 = DIRECTION('',(-0.633692665047,-0.77358490566,3.572823378869E-14)
  );
#1024 = ADVANCED_FACE('',(#1025),#1052,.F.);
#1025 = FACE_BOUND('',#1026,.F.);
#1026 = EDGE_LOOP('',(#1027,#1037,#1044,#1045));
#1027 = ORIENTED_EDGE('',*,*,#1028,.T.);
#1028 = EDGE_CURVE('',#1029,#1031,#1033,.T.);
#1029 = VERTEX_POINT('',#1030);
#1030 = CARTESIAN_POINT('',(220.99999999999,135.76305796466,
    111.22978642577));
#1031 = VERTEX_POINT('',#1032);
#1032 = CARTESIAN_POINT('',(220.99999999999,135.76305796466,
    116.22978642577));
#1033 = LINE('',#1034,#1035);
#1034 = CARTESIAN_POINT('',(220.99999999999,135.76305796466,
    116.22978642577));
#1035 = VECTOR('',#1036,1.);
#1036 = DIRECTION('',(0.,4.618527782441E-14,1.));
#1037 = ORIENTED_EDGE('',*,*,#1038,.F.);
#1038 = EDGE_CURVE('',#1031,#1031,#1039,.T.);
#1039 = CIRCLE('',#1040,14.);
#1040 = AXIS2_PLACEMENT_3D('',#1041,#1042,#1043);
#1041 = CARTESIAN_POINT('',(234.99999999999,135.76305796466,
    116.22978642577));
#1042 = DIRECTION('',(1.288198855829E-15,4.679590048795E-14,1.));
#1043 = DIRECTION('',(1.,1.12103877146E-44,-1.288198855829E-15));
#1044 = ORIENTED_EDGE('',*,*,#1028,.F.);
#1045 = ORIENTED_EDGE('',*,*,#1046,.T.);
#1046 = EDGE_CURVE('',#1029,#1029,#1047,.T.);
#1047 = CIRCLE('',#1048,14.);
#1048 = AXIS2_PLACEMENT_3D('',#1049,#1050,#1051);
#1049 = CARTESIAN_POINT('',(234.99999999999,135.76305796466,
    111.22978642577));
#1050 = DIRECTION('',(1.288198855829E-15,4.679590048795E-14,1.));
#1051 = DIRECTION('',(1.,1.12103877146E-44,-1.288198855829E-15));
#1052 = CYLINDRICAL_SURFACE('',#1053,14.);
#1053 = AXIS2_PLACEMENT_3D('',#1054,#1055,#1056);
#1054 = CARTESIAN_POINT('',(234.99999999999,135.76305796466,
    116.22978642577));
#1055 = DIRECTION('',(0.,-4.618527782441E-14,-1.));
#1056 = DIRECTION('',(1.,5.949582204956E-29,-2.74783107075E-42));
#1057 = ADVANCED_FACE('',(#1058),#1085,.F.);
#1058 = FACE_BOUND('',#1059,.F.);
#1059 = EDGE_LOOP('',(#1060,#1070,#1077,#1078));
#1060 = ORIENTED_EDGE('',*,*,#1061,.T.);
#1061 = EDGE_CURVE('',#1062,#1064,#1066,.T.);
#1062 = VERTEX_POINT('',#1063);
#1063 = CARTESIAN_POINT('',(249.26999999999,151.26305796466,
    111.22978642577));
#1064 = VERTEX_POINT('',#1065);
#1065 = CARTESIAN_POINT('',(249.26999999999,151.26305796466,
    116.22978642577));
#1066 = LINE('',#1067,#1068);
#1067 = CARTESIAN_POINT('',(249.26999999999,151.26305796466,
    116.22978642577));
#1068 = VECTOR('',#1069,1.);
#1069 = DIRECTION('',(0.,4.618527782441E-14,1.));
#1070 = ORIENTED_EDGE('',*,*,#1071,.F.);
#1071 = EDGE_CURVE('',#1064,#1064,#1072,.T.);
#1072 = CIRCLE('',#1073,1.23);
#1073 = AXIS2_PLACEMENT_3D('',#1074,#1075,#1076);
#1074 = CARTESIAN_POINT('',(250.49999999999,151.26305796466,
    116.22978642577));
#1075 = DIRECTION('',(1.288198855829E-15,4.679590048795E-14,1.));
#1076 = DIRECTION('',(1.,1.12103877146E-44,-1.288198855829E-15));
#1077 = ORIENTED_EDGE('',*,*,#1061,.F.);
#1078 = ORIENTED_EDGE('',*,*,#1079,.T.);
#1079 = EDGE_CURVE('',#1062,#1062,#1080,.T.);
#1080 = CIRCLE('',#1081,1.23);
#1081 = AXIS2_PLACEMENT_3D('',#1082,#1083,#1084);
#1082 = CARTESIAN_POINT('',(250.49999999999,151.26305796466,
    111.22978642577));
#1083 = DIRECTION('',(1.288198855829E-15,4.679590048795E-14,1.));
#1084 = DIRECTION('',(1.,1.12103877146E-44,-1.288198855829E-15));
#1085 = CYLINDRICAL_SURFACE('',#1086,1.23);
#1086 = AXIS2_PLACEMENT_3D('',#1087,#1088,#1089);
#1087 = CARTESIAN_POINT('',(250.49999999999,151.26305796466,
    116.22978642577));
#1088 = DIRECTION('',(0.,-4.618527782441E-14,-1.));
#1089 = DIRECTION('',(1.,5.949582204956E-29,-2.74783107075E-42));
#1090 = ADVANCED_FACE('',(#1091),#1118,.F.);
#1091 = FACE_BOUND('',#1092,.F.);
#1092 = EDGE_LOOP('',(#1093,#1103,#1110,#1111));
#1093 = ORIENTED_EDGE('',*,*,#1094,.T.);
#1094 = EDGE_CURVE('',#1095,#1097,#1099,.T.);
#1095 = VERTEX_POINT('',#1096);
#1096 = CARTESIAN_POINT('',(218.26999999999,151.26305796466,
    111.22978642577));
#1097 = VERTEX_POINT('',#1098);
#1098 = CARTESIAN_POINT('',(218.26999999999,151.26305796466,
    116.22978642577));
#1099 = LINE('',#1100,#1101);
#1100 = CARTESIAN_POINT('',(218.26999999999,151.26305796466,
    116.22978642577));
#1101 = VECTOR('',#1102,1.);
#1102 = DIRECTION('',(0.,4.618527782441E-14,1.));
#1103 = ORIENTED_EDGE('',*,*,#1104,.F.);
#1104 = EDGE_CURVE('',#1097,#1097,#1105,.T.);
#1105 = CIRCLE('',#1106,1.23);
#1106 = AXIS2_PLACEMENT_3D('',#1107,#1108,#1109);
#1107 = CARTESIAN_POINT('',(219.49999999999,151.26305796466,
    116.22978642577));
#1108 = DIRECTION('',(1.288198855829E-15,4.679590048795E-14,1.));
#1109 = DIRECTION('',(1.,1.12103877146E-44,-1.288198855829E-15));
#1110 = ORIENTED_EDGE('',*,*,#1094,.F.);
#1111 = ORIENTED_EDGE('',*,*,#1112,.T.);
#1112 = EDGE_CURVE('',#1095,#1095,#1113,.T.);
#1113 = CIRCLE('',#1114,1.23);
#1114 = AXIS2_PLACEMENT_3D('',#1115,#1116,#1117);
#1115 = CARTESIAN_POINT('',(219.49999999999,151.26305796466,
    111.22978642577));
#1116 = DIRECTION('',(1.288198855829E-15,4.679590048795E-14,1.));
#1117 = DIRECTION('',(1.,1.12103877146E-44,-1.288198855829E-15));
#1118 = CYLINDRICAL_SURFACE('',#1119,1.23);
#1119 = AXIS2_PLACEMENT_3D('',#1120,#1121,#1122);
#1120 = CARTESIAN_POINT('',(219.49999999999,151.26305796466,
    116.22978642577));
#1121 = DIRECTION('',(0.,-4.618527782441E-14,-1.));
#1122 = DIRECTION('',(1.,5.949582204956E-29,-2.74783107075E-42));
#1123 = ADVANCED_FACE('',(#1124),#1161,.F.);
#1124 = FACE_BOUND('',#1125,.F.);
#1125 = EDGE_LOOP('',(#1126,#1136,#1143,#1144,#1145,#1146,#1153,#1154));
#1126 = ORIENTED_EDGE('',*,*,#1127,.T.);
#1127 = EDGE_CURVE('',#1128,#1130,#1132,.T.);
#1128 = VERTEX_POINT('',#1129);
#1129 = CARTESIAN_POINT('',(218.26999999999,120.26305796466,
    111.22978642577));
#1130 = VERTEX_POINT('',#1131);
#1131 = CARTESIAN_POINT('',(218.26999999999,120.26305796466,
    116.22978642577));
#1132 = LINE('',#1133,#1134);
#1133 = CARTESIAN_POINT('',(218.26999999999,120.26305796466,
    116.22978642577));
#1134 = VECTOR('',#1135,1.);
#1135 = DIRECTION('',(0.,4.618527782441E-14,1.));
#1136 = ORIENTED_EDGE('',*,*,#1137,.F.);
#1137 = EDGE_CURVE('',#517,#1130,#1138,.T.);
#1138 = CIRCLE('',#1139,1.23);
#1139 = AXIS2_PLACEMENT_3D('',#1140,#1141,#1142);
#1140 = CARTESIAN_POINT('',(219.49999999999,120.26305796466,
    116.22978642577));
#1141 = DIRECTION('',(1.288198855829E-15,4.679590048795E-14,1.));
#1142 = DIRECTION('',(1.,1.12103877146E-44,-1.288198855829E-15));
#1143 = ORIENTED_EDGE('',*,*,#524,.F.);
#1144 = ORIENTED_EDGE('',*,*,#400,.F.);
#1145 = ORIENTED_EDGE('',*,*,#531,.F.);
#1146 = ORIENTED_EDGE('',*,*,#1147,.F.);
#1147 = EDGE_CURVE('',#1130,#532,#1148,.T.);
#1148 = CIRCLE('',#1149,1.23);
#1149 = AXIS2_PLACEMENT_3D('',#1150,#1151,#1152);
#1150 = CARTESIAN_POINT('',(219.49999999999,120.26305796466,
    116.22978642577));
#1151 = DIRECTION('',(1.288198855829E-15,4.679590048795E-14,1.));
#1152 = DIRECTION('',(1.,1.12103877146E-44,-1.288198855829E-15));
#1153 = ORIENTED_EDGE('',*,*,#1127,.F.);
#1154 = ORIENTED_EDGE('',*,*,#1155,.T.);
#1155 = EDGE_CURVE('',#1128,#1128,#1156,.T.);
#1156 = CIRCLE('',#1157,1.23);
#1157 = AXIS2_PLACEMENT_3D('',#1158,#1159,#1160);
#1158 = CARTESIAN_POINT('',(219.49999999999,120.26305796466,
    111.22978642577));
#1159 = DIRECTION('',(1.288198855829E-15,4.679590048795E-14,1.));
#1160 = DIRECTION('',(1.,1.12103877146E-44,-1.288198855829E-15));
#1161 = CYLINDRICAL_SURFACE('',#1162,1.23);
#1162 = AXIS2_PLACEMENT_3D('',#1163,#1164,#1165);
#1163 = CARTESIAN_POINT('',(219.49999999999,120.26305796466,
    116.22978642577));
#1164 = DIRECTION('',(0.,-4.618527782441E-14,-1.));
#1165 = DIRECTION('',(1.,5.949582204956E-29,-2.74783107075E-42));
#1166 = ADVANCED_FACE('',(#1167),#1194,.T.);
#1167 = FACE_BOUND('',#1168,.T.);
#1168 = EDGE_LOOP('',(#1169,#1178,#1179,#1188));
#1169 = ORIENTED_EDGE('',*,*,#1170,.T.);
#1170 = EDGE_CURVE('',#1171,#933,#1173,.T.);
#1171 = VERTEX_POINT('',#1172);
#1172 = CARTESIAN_POINT('',(251.7928556233,156.26305796501,
    116.22978642577));
#1173 = CIRCLE('',#1174,26.499999999998);
#1174 = AXIS2_PLACEMENT_3D('',#1175,#1176,#1177);
#1175 = CARTESIAN_POINT('',(234.99999999999,135.76305796466,
    116.22978642577));
#1176 = DIRECTION('',(-1.288198855829E-15,-4.679590048795E-14,-1.));
#1177 = DIRECTION('',(0.633692665031,0.773584905674,-3.701692443093E-14)
  );
#1178 = ORIENTED_EDGE('',*,*,#932,.T.);
#1179 = ORIENTED_EDGE('',*,*,#1180,.F.);
#1180 = EDGE_CURVE('',#1181,#925,#1183,.T.);
#1181 = VERTEX_POINT('',#1182);
#1182 = CARTESIAN_POINT('',(251.7928556233,156.26305796501,
    111.22978642577));
#1183 = CIRCLE('',#1184,26.499999999998);
#1184 = AXIS2_PLACEMENT_3D('',#1185,#1186,#1187);
#1185 = CARTESIAN_POINT('',(234.99999999999,135.76305796466,
    111.22978642577));
#1186 = DIRECTION('',(-1.288198855829E-15,-4.679590048795E-14,-1.));
#1187 = DIRECTION('',(0.633692665031,0.773584905674,-3.701692443093E-14)
  );
#1188 = ORIENTED_EDGE('',*,*,#1189,.F.);
#1189 = EDGE_CURVE('',#1171,#1181,#1190,.T.);
#1190 = LINE('',#1191,#1192);
#1191 = CARTESIAN_POINT('',(251.7928556233,156.26305796501,
    116.22978642577));
#1192 = VECTOR('',#1193,1.);
#1193 = DIRECTION('',(0.,-4.618527782441E-14,-1.));
#1194 = CYLINDRICAL_SURFACE('',#1195,26.499999999998);
#1195 = AXIS2_PLACEMENT_3D('',#1196,#1197,#1198);
#1196 = CARTESIAN_POINT('',(234.99999999999,135.76305796466,
    116.22978642577));
#1197 = DIRECTION('',(0.,-4.618527782441E-14,-1.));
#1198 = DIRECTION('',(0.633692665031,0.773584905674,-3.572823378931E-14)
  );
#1199 = ADVANCED_FACE('',(#1200),#1225,.T.);
#1200 = FACE_BOUND('',#1201,.T.);
#1201 = EDGE_LOOP('',(#1202,#1210,#1211,#1219));
#1202 = ORIENTED_EDGE('',*,*,#1203,.T.);
#1203 = EDGE_CURVE('',#1204,#1171,#1206,.T.);
#1204 = VERTEX_POINT('',#1205);
#1205 = CARTESIAN_POINT('',(218.20714437659,156.26305796494,
    116.22978642577));
#1206 = LINE('',#1207,#1208);
#1207 = CARTESIAN_POINT('',(218.20714437659,156.26305796494,
    116.22978642577));
#1208 = VECTOR('',#1209,1.);
#1209 = DIRECTION('',(1.,2.114023500925E-12,-1.288198855928E-15));
#1210 = ORIENTED_EDGE('',*,*,#1189,.T.);
#1211 = ORIENTED_EDGE('',*,*,#1212,.F.);
#1212 = EDGE_CURVE('',#1213,#1181,#1215,.T.);
#1213 = VERTEX_POINT('',#1214);
#1214 = CARTESIAN_POINT('',(218.20714437659,156.26305796494,
    111.22978642577));
#1215 = LINE('',#1216,#1217);
#1216 = CARTESIAN_POINT('',(218.20714437659,156.26305796494,
    111.22978642577));
#1217 = VECTOR('',#1218,1.);
#1218 = DIRECTION('',(1.,2.114023500925E-12,-1.288198855928E-15));
#1219 = ORIENTED_EDGE('',*,*,#1220,.F.);
#1220 = EDGE_CURVE('',#1204,#1213,#1221,.T.);
#1221 = LINE('',#1222,#1223);
#1222 = CARTESIAN_POINT('',(218.20714437659,156.26305796494,
    116.22978642577));
#1223 = VECTOR('',#1224,1.);
#1224 = DIRECTION('',(0.,-4.618527782441E-14,-1.));
#1225 = PLANE('',#1226);
#1226 = AXIS2_PLACEMENT_3D('',#1227,#1228,#1229);
#1227 = CARTESIAN_POINT('',(218.20714437659,156.26305796494,
    116.22978642577));
#1228 = DIRECTION('',(-2.114023500925E-12,1.,-4.618527782441E-14));
#1229 = DIRECTION('',(1.,2.114023500925E-12,-1.288198855928E-15));
#1230 = ADVANCED_FACE('',(#1231),#1258,.T.);
#1231 = FACE_BOUND('',#1232,.T.);
#1232 = EDGE_LOOP('',(#1233,#1242,#1243,#1252));
#1233 = ORIENTED_EDGE('',*,*,#1234,.T.);
#1234 = EDGE_CURVE('',#1235,#1204,#1237,.T.);
#1235 = VERTEX_POINT('',#1236);
#1236 = CARTESIAN_POINT('',(214.49999994638,152.55591349502,
    116.22978642577));
#1237 = CIRCLE('',#1238,26.499999982301);
#1238 = AXIS2_PLACEMENT_3D('',#1239,#1240,#1241);
#1239 = CARTESIAN_POINT('',(234.99999999999,135.76305796466,
    116.22978642577));
#1240 = DIRECTION('',(-1.288198855829E-15,-4.679590048795E-14,-1.));
#1241 = DIRECTION('',(-0.7735849082,0.633692661946,-2.865768755476E-14)
  );
#1242 = ORIENTED_EDGE('',*,*,#1220,.T.);
#1243 = ORIENTED_EDGE('',*,*,#1244,.F.);
#1244 = EDGE_CURVE('',#1245,#1213,#1247,.T.);
#1245 = VERTEX_POINT('',#1246);
#1246 = CARTESIAN_POINT('',(214.49999994638,152.55591349502,
    111.22978642577));
#1247 = CIRCLE('',#1248,26.499999982301);
#1248 = AXIS2_PLACEMENT_3D('',#1249,#1250,#1251);
#1249 = CARTESIAN_POINT('',(234.99999999999,135.76305796466,
    111.22978642577));
#1250 = DIRECTION('',(-1.288198855829E-15,-4.679590048795E-14,-1.));
#1251 = DIRECTION('',(-0.7735849082,0.633692661946,-2.865768755476E-14)
  );
#1252 = ORIENTED_EDGE('',*,*,#1253,.F.);
#1253 = EDGE_CURVE('',#1235,#1245,#1254,.T.);
#1254 = LINE('',#1255,#1256);
#1255 = CARTESIAN_POINT('',(214.49999994638,152.55591349502,
    116.22978642577));
#1256 = VECTOR('',#1257,1.);
#1257 = DIRECTION('',(0.,-4.618527782441E-14,-1.));
#1258 = CYLINDRICAL_SURFACE('',#1259,26.499999982301);
#1259 = AXIS2_PLACEMENT_3D('',#1260,#1261,#1262);
#1260 = CARTESIAN_POINT('',(234.99999999999,135.76305796466,
    116.22978642577));
#1261 = DIRECTION('',(0.,-4.618527782441E-14,-1.));
#1262 = DIRECTION('',(-0.7735849082,0.633692661946,-2.926727164728E-14)
  );
#1263 = ADVANCED_FACE('',(#1264),#1282,.T.);
#1264 = FACE_BOUND('',#1265,.T.);
#1265 = EDGE_LOOP('',(#1266,#1267,#1273,#1274,#1280,#1281));
#1266 = ORIENTED_EDGE('',*,*,#547,.T.);
#1267 = ORIENTED_EDGE('',*,*,#1268,.T.);
#1268 = EDGE_CURVE('',#540,#1235,#1269,.T.);
#1269 = LINE('',#1270,#1271);
#1270 = CARTESIAN_POINT('',(214.49999996972,118.97020239364,
    116.22978642577));
#1271 = VECTOR('',#1272,1.);
#1272 = DIRECTION('',(-6.949324709066E-10,1.,-4.679590048706E-14));
#1273 = ORIENTED_EDGE('',*,*,#1253,.T.);
#1274 = ORIENTED_EDGE('',*,*,#1275,.F.);
#1275 = EDGE_CURVE('',#1005,#1245,#1276,.T.);
#1276 = LINE('',#1277,#1278);
#1277 = CARTESIAN_POINT('',(214.49999996972,118.97020239364,
    111.22978642577));
#1278 = VECTOR('',#1279,1.);
#1279 = DIRECTION('',(-6.949324709066E-10,1.,-4.679590048706E-14));
#1280 = ORIENTED_EDGE('',*,*,#1004,.F.);
#1281 = ORIENTED_EDGE('',*,*,#466,.T.);
#1282 = PLANE('',#1283);
#1283 = AXIS2_PLACEMENT_3D('',#1284,#1285,#1286);
#1284 = CARTESIAN_POINT('',(214.49999996972,118.97020239364,
    116.22978642577));
#1285 = DIRECTION('',(-1.,-6.949324709066E-10,3.209564923802E-23));
#1286 = DIRECTION('',(-6.949324709066E-10,1.,-4.679590048706E-14));
#1287 = ADVANCED_FACE('',(#1288,#1298,#1301,#1304,#1307,#1310),#1313,.T.
  );
#1288 = FACE_BOUND('',#1289,.T.);
#1289 = EDGE_LOOP('',(#1290,#1291,#1292,#1293,#1294,#1295,#1296,#1297));
#1290 = ORIENTED_EDGE('',*,*,#1012,.T.);
#1291 = ORIENTED_EDGE('',*,*,#1275,.T.);
#1292 = ORIENTED_EDGE('',*,*,#1244,.T.);
#1293 = ORIENTED_EDGE('',*,*,#1212,.T.);
#1294 = ORIENTED_EDGE('',*,*,#1180,.T.);
#1295 = ORIENTED_EDGE('',*,*,#924,.T.);
#1296 = ORIENTED_EDGE('',*,*,#963,.T.);
#1297 = ORIENTED_EDGE('',*,*,#988,.T.);
#1298 = FACE_BOUND('',#1299,.T.);
#1299 = EDGE_LOOP('',(#1300));
#1300 = ORIENTED_EDGE('',*,*,#1155,.T.);
#1301 = FACE_BOUND('',#1302,.T.);
#1302 = EDGE_LOOP('',(#1303));
#1303 = ORIENTED_EDGE('',*,*,#1112,.T.);
#1304 = FACE_BOUND('',#1305,.T.);
#1305 = EDGE_LOOP('',(#1306));
#1306 = ORIENTED_EDGE('',*,*,#1079,.T.);
#1307 = FACE_BOUND('',#1308,.T.);
#1308 = EDGE_LOOP('',(#1309));
#1309 = ORIENTED_EDGE('',*,*,#899,.T.);
#1310 = FACE_BOUND('',#1311,.T.);
#1311 = EDGE_LOOP('',(#1312));
#1312 = ORIENTED_EDGE('',*,*,#1046,.T.);
#1313 = PLANE('',#1314);
#1314 = AXIS2_PLACEMENT_3D('',#1315,#1316,#1317);
#1315 = CARTESIAN_POINT('',(234.99999997319,135.76305794571,
    111.22978642577));
#1316 = DIRECTION('',(-1.288198855829E-15,-4.679590048795E-14,-1.));
#1317 = DIRECTION('',(1.,-1.905765911482E-43,-1.288198855829E-15));
#1318 = ADVANCED_FACE('',(#1319,#1333,#1336,#1339),#1342,.F.);
#1319 = FACE_BOUND('',#1320,.T.);
#1320 = EDGE_LOOP('',(#1321,#1322,#1323,#1324,#1325,#1326,#1327,#1328,
    #1329,#1330,#1331,#1332));
#1321 = ORIENTED_EDGE('',*,*,#516,.T.);
#1322 = ORIENTED_EDGE('',*,*,#891,.F.);
#1323 = ORIENTED_EDGE('',*,*,#881,.F.);
#1324 = ORIENTED_EDGE('',*,*,#585,.T.);
#1325 = ORIENTED_EDGE('',*,*,#940,.F.);
#1326 = ORIENTED_EDGE('',*,*,#1170,.F.);
#1327 = ORIENTED_EDGE('',*,*,#1203,.F.);
#1328 = ORIENTED_EDGE('',*,*,#1234,.F.);
#1329 = ORIENTED_EDGE('',*,*,#1268,.F.);
#1330 = ORIENTED_EDGE('',*,*,#539,.T.);
#1331 = ORIENTED_EDGE('',*,*,#1147,.F.);
#1332 = ORIENTED_EDGE('',*,*,#1137,.F.);
#1333 = FACE_BOUND('',#1334,.T.);
#1334 = EDGE_LOOP('',(#1335));
#1335 = ORIENTED_EDGE('',*,*,#1104,.F.);
#1336 = FACE_BOUND('',#1337,.T.);
#1337 = EDGE_LOOP('',(#1338));
#1338 = ORIENTED_EDGE('',*,*,#1071,.F.);
#1339 = FACE_BOUND('',#1340,.T.);
#1340 = EDGE_LOOP('',(#1341));
#1341 = ORIENTED_EDGE('',*,*,#1038,.F.);
#1342 = PLANE('',#1343);
#1343 = AXIS2_PLACEMENT_3D('',#1344,#1345,#1346);
#1344 = CARTESIAN_POINT('',(234.99999997319,135.76305794571,
    116.22978642577));
#1345 = DIRECTION('',(-1.288198855829E-15,-4.679590048795E-14,-1.));
#1346 = DIRECTION('',(1.,-1.905765911482E-43,-1.288198855829E-15));
#1347 = ( GEOMETRIC_REPRESENTATION_CONTEXT(3) 
GLOBAL_UNCERTAINTY_ASSIGNED_CONTEXT((#1351)) 
GLOBAL_UNIT_ASSIGNED_CONTEXT((#1348,#1349,#1350)) REPRESENTATION_CONTEXT
('Context #1','3D Context with UNIT and UNCERTAINTY') );
#1348 = ( LENGTH_UNIT() NAMED_UNIT(*) SI_UNIT(.MILLI.,.METRE.) );
#1349 = ( NAMED_UNIT(*) PLANE_ANGLE_UNIT() SI_UNIT($,.RADIAN.) );
#1350 = ( NAMED_UNIT(*) SI_UNIT($,.STERADIAN.) SOLID_ANGLE_UNIT() );
#1351 = UNCERTAINTY_MEASURE_WITH_UNIT(LENGTH_MEASURE(5.E-07),#1348,
  'distance_accuracy_value','confusion accuracy');
#1352 = PRODUCT_RELATED_PRODUCT_CATEGORY('part',$,(#7));
#1353 = MECHANICAL_DESIGN_GEOMETRIC_PRESENTATION_REPRESENTATION('',(
    #1354),#1347);
#1354 = STYLED_ITEM('color',(#1355),#15);
#1355 = PRESENTATION_STYLE_ASSIGNMENT((#1356,#1362));
#1356 = SURFACE_STYLE_USAGE(.BOTH.,#1357);
#1357 = SURFACE_SIDE_STYLE('',(#1358));
#1358 = SURFACE_STYLE_FILL_AREA(#1359);
#1359 = FILL_AREA_STYLE('',(#1360));
#1360 = FILL_AREA_STYLE_COLOUR('',#1361);
#1361 = COLOUR_RGB('',0.627451011593,0.627451011593,0.627451011593);
#1362 = CURVE_STYLE('',#1363,POSITIVE_LENGTH_MEASURE(0.1),#1364);
#1363 = DRAUGHTING_PRE_DEFINED_CURVE_FONT('continuous');
#1364 = COLOUR_RGB('',9.803921802644E-02,9.803921802644E-02,
  9.803921802644E-02);
ENDSEC;
END-ISO-10303-21;
