ISO-10303-21;
HEADER;
FILE_DESCRIPTION(('FreeCAD Model'),'2;1');
FILE_NAME('Open CASCADE Shape Model','2026-08-20T22:01:01',('Author'),(
    ''),'Open CASCADE STEP processor 7.8','FreeCAD','Unknown');
FILE_SCHEMA(('AUTOMOTIVE_DESIGN { 1 0 10303 214 1 1 1 1 }'));
ENDSEC;
DATA;
#1 = APPLICATION_PROTOCOL_DEFINITION('international standard',
  'automotive_design',2000,#2);
#2 = APPLICATION_CONTEXT(
  'core data for automotive mechanical design processes');
#3 = SHAPE_DEFINITION_REPRESENTATION(#4,#10);
#4 = PRODUCT_DEFINITION_SHAPE('','',#5);
#5 = PRODUCT_DEFINITION('design','',#6,#9);
#6 = PRODUCT_DEFINITION_FORMATION('','',#7);
#7 = PRODUCT('COMPOUND007','COMPOUND007','',(#8));
#8 = PRODUCT_CONTEXT('',#2,'mechanical');
#9 = PRODUCT_DEFINITION_CONTEXT('part definition',#2,'design');
#10 = ADVANCED_BREP_SHAPE_REPRESENTATION('',(#11,#15),#964);
#11 = AXIS2_PLACEMENT_3D('',#12,#13,#14);
#12 = CARTESIAN_POINT('',(0.,0.,0.));
#13 = DIRECTION('',(0.,0.,1.));
#14 = DIRECTION('',(1.,0.,-0.));
#15 = MANIFOLD_SOLID_BREP('',#16);
#16 = CLOSED_SHELL('',(#17,#57,#81,#91,#131,#162,#352,#384,#416,#437,
    #462,#487,#512,#537,#562,#593,#618,#642,#667,#691,#709,#734,#758,
    #783,#807,#832,#856,#881,#905,#923));
#17 = ADVANCED_FACE('',(#18),#52,.F.);
#18 = FACE_BOUND('',#19,.T.);
#19 = EDGE_LOOP('',(#20,#30,#38,#46));
#20 = ORIENTED_EDGE('',*,*,#21,.F.);
#21 = EDGE_CURVE('',#22,#24,#26,.T.);
#22 = VERTEX_POINT('',#23);
#23 = CARTESIAN_POINT('',(63.010925591364,182.53016179855,
    139.57066068901));
#24 = VERTEX_POINT('',#25);
#25 = CARTESIAN_POINT('',(63.010925591364,182.53016179855,
    136.42933931099));
#26 = LINE('',#27,#28);
#27 = CARTESIAN_POINT('',(63.010925591364,182.53016179855,
    127.99004557084));
#28 = VECTOR('',#29,1.);
#29 = DIRECTION('',(1.4347497549E-14,-2.261923089856E-14,-1.));
#30 = ORIENTED_EDGE('',*,*,#31,.F.);
#31 = EDGE_CURVE('',#32,#22,#34,.T.);
#32 = VERTEX_POINT('',#33);
#33 = CARTESIAN_POINT('',(83.838087389923,182.53016179856,
    139.57066068901));
#34 = LINE('',#35,#36);
#35 = CARTESIAN_POINT('',(83.838087389923,182.53016179856,
    139.57066068901));
#36 = VECTOR('',#37,1.);
#37 = DIRECTION('',(-1.,-6.206881096426E-14,-2.07356829502E-16));
#38 = ORIENTED_EDGE('',*,*,#39,.T.);
#39 = EDGE_CURVE('',#32,#40,#42,.T.);
#40 = VERTEX_POINT('',#41);
#41 = CARTESIAN_POINT('',(83.838087389923,182.53016179856,
    136.42933931099));
#42 = LINE('',#43,#44);
#43 = CARTESIAN_POINT('',(83.838087389923,182.53016179856,
    139.57066068901));
#44 = VECTOR('',#45,1.);
#45 = DIRECTION('',(2.220446049289E-16,-2.261923089856E-14,-1.));
#46 = ORIENTED_EDGE('',*,*,#47,.T.);
#47 = EDGE_CURVE('',#40,#24,#48,.T.);
#48 = LINE('',#49,#50);
#49 = CARTESIAN_POINT('',(83.838087389923,182.53016179856,
    136.42933931099));
#50 = VECTOR('',#51,1.);
#51 = DIRECTION('',(-1.,-6.206881096426E-14,-2.07356829502E-16));
#52 = PLANE('',#53);
#53 = AXIS2_PLACEMENT_3D('',#54,#55,#56);
#54 = CARTESIAN_POINT('',(83.838087389923,182.53016179856,
    136.42933931099));
#55 = DIRECTION('',(6.206881096426E-14,-1.,2.261923089856E-14));
#56 = DIRECTION('',(-2.220446049289E-16,2.261923089856E-14,1.));
#57 = ADVANCED_FACE('',(#58),#76,.F.);
#58 = FACE_BOUND('',#59,.F.);
#59 = EDGE_LOOP('',(#60,#61,#68,#69));
#60 = ORIENTED_EDGE('',*,*,#31,.F.);
#61 = ORIENTED_EDGE('',*,*,#62,.F.);
#62 = EDGE_CURVE('',#40,#32,#63,.T.);
#63 = CIRCLE('',#64,2.5);
#64 = AXIS2_PLACEMENT_3D('',#65,#66,#67);
#65 = CARTESIAN_POINT('',(83.838087389923,184.47516179856,138.));
#66 = DIRECTION('',(1.,6.201983371311E-14,2.220446049275E-16));
#67 = DIRECTION('',(4.839093332167E-14,-0.778,-0.628264275604));
#68 = ORIENTED_EDGE('',*,*,#47,.T.);
#69 = ORIENTED_EDGE('',*,*,#70,.T.);
#70 = EDGE_CURVE('',#24,#22,#71,.T.);
#71 = CIRCLE('',#72,2.5);
#72 = AXIS2_PLACEMENT_3D('',#73,#74,#75);
#73 = CARTESIAN_POINT('',(63.01092559136,184.47516179855,138.));
#74 = DIRECTION('',(1.,-2.2546067577E-13,1.4347497549E-14));
#75 = DIRECTION('',(-1.663943855947E-13,-0.778,-0.628264275604));
#76 = CYLINDRICAL_SURFACE('',#77,2.5);
#77 = AXIS2_PLACEMENT_3D('',#78,#79,#80);
#78 = CARTESIAN_POINT('',(83.838087389923,184.47516179856,138.));
#79 = DIRECTION('',(-1.,-6.206881096426E-14,-2.07356829502E-16));
#80 = DIRECTION('',(-6.206881096426E-14,1.,-2.281508315605E-14));
#81 = ADVANCED_FACE('',(#82),#86,.F.);
#82 = FACE_BOUND('',#83,.T.);
#83 = EDGE_LOOP('',(#84,#85));
#84 = ORIENTED_EDGE('',*,*,#39,.F.);
#85 = ORIENTED_EDGE('',*,*,#62,.F.);
#86 = PLANE('',#87);
#87 = AXIS2_PLACEMENT_3D('',#88,#89,#90);
#88 = CARTESIAN_POINT('',(83.838087389923,184.75266179856,138.));
#89 = DIRECTION('',(1.,6.201983371311E-14,2.220446049275E-16));
#90 = DIRECTION('',(-6.201983371311E-14,1.,0.));
#91 = ADVANCED_FACE('',(#92),#126,.T.);
#92 = FACE_BOUND('',#93,.T.);
#93 = EDGE_LOOP('',(#94,#104,#112,#120));
#94 = ORIENTED_EDGE('',*,*,#95,.F.);
#95 = EDGE_CURVE('',#96,#98,#100,.T.);
#96 = VERTEX_POINT('',#97);
#97 = CARTESIAN_POINT('',(89.010925591369,200.24214138813,
    119.55075183069));
#98 = VERTEX_POINT('',#99);
#99 = CARTESIAN_POINT('',(89.010925591361,166.6563549505,119.55075183069
    ));
#100 = LINE('',#101,#102);
#101 = CARTESIAN_POINT('',(89.010925591364,175.0528015599,
    119.55075183069));
#102 = VECTOR('',#103,1.);
#103 = DIRECTION('',(-2.258408841587E-13,-1.,4.143907439413E-14));
#104 = ORIENTED_EDGE('',*,*,#105,.T.);
#105 = EDGE_CURVE('',#96,#106,#108,.T.);
#106 = VERTEX_POINT('',#107);
#107 = CARTESIAN_POINT('',(89.01092559137,200.24214138812,
    159.55075183069));
#108 = LINE('',#109,#110);
#109 = CARTESIAN_POINT('',(89.01092559137,200.24214138812,
    119.55075183069));
#110 = VECTOR('',#111,1.);
#111 = DIRECTION('',(0.,0.,1.));
#112 = ORIENTED_EDGE('',*,*,#113,.F.);
#113 = EDGE_CURVE('',#114,#106,#116,.T.);
#114 = VERTEX_POINT('',#115);
#115 = CARTESIAN_POINT('',(89.010925591363,166.6563549505,
    159.55075183069));
#116 = LINE('',#117,#118);
#117 = CARTESIAN_POINT('',(89.010925591363,166.6563549505,
    159.55075183069));
#118 = VECTOR('',#119,1.);
#119 = DIRECTION('',(2.258408841587E-13,1.,0.));
#120 = ORIENTED_EDGE('',*,*,#121,.F.);
#121 = EDGE_CURVE('',#98,#114,#122,.T.);
#122 = LINE('',#123,#124);
#123 = CARTESIAN_POINT('',(89.010925591363,166.6563549505,
    119.55075183069));
#124 = VECTOR('',#125,1.);
#125 = DIRECTION('',(0.,0.,1.));
#126 = PLANE('',#127);
#127 = AXIS2_PLACEMENT_3D('',#128,#129,#130);
#128 = CARTESIAN_POINT('',(89.010925591363,166.6563549505,
    119.55075183069));
#129 = DIRECTION('',(1.,-2.258408841587E-13,0.));
#130 = DIRECTION('',(2.258408841587E-13,1.,0.));
#131 = ADVANCED_FACE('',(#132),#157,.T.);
#132 = FACE_BOUND('',#133,.T.);
#133 = EDGE_LOOP('',(#134,#135,#143,#151));
#134 = ORIENTED_EDGE('',*,*,#113,.T.);
#135 = ORIENTED_EDGE('',*,*,#136,.T.);
#136 = EDGE_CURVE('',#106,#137,#139,.T.);
#137 = VERTEX_POINT('',#138);
#138 = CARTESIAN_POINT('',(63.01092559137,200.24214138813,
    159.55075183069));
#139 = LINE('',#140,#141);
#140 = CARTESIAN_POINT('',(89.01092559137,200.24214138812,
    159.55075183069));
#141 = VECTOR('',#142,1.);
#142 = DIRECTION('',(-1.,2.2546067577E-13,0.));
#143 = ORIENTED_EDGE('',*,*,#144,.T.);
#144 = EDGE_CURVE('',#137,#145,#147,.T.);
#145 = VERTEX_POINT('',#146);
#146 = CARTESIAN_POINT('',(63.010925591363,166.6563549505,
    159.55075183069));
#147 = LINE('',#148,#149);
#148 = CARTESIAN_POINT('',(63.01092559137,200.24214138813,
    159.55075183069));
#149 = VECTOR('',#150,1.);
#150 = DIRECTION('',(-2.258408841587E-13,-1.,0.));
#151 = ORIENTED_EDGE('',*,*,#152,.T.);
#152 = EDGE_CURVE('',#145,#114,#153,.T.);
#153 = LINE('',#154,#155);
#154 = CARTESIAN_POINT('',(63.010925591363,166.6563549505,
    159.55075183069));
#155 = VECTOR('',#156,1.);
#156 = DIRECTION('',(1.,-2.2546067577E-13,0.));
#157 = PLANE('',#158);
#158 = AXIS2_PLACEMENT_3D('',#159,#160,#161);
#159 = CARTESIAN_POINT('',(76.010925591366,183.44924816931,
    159.55075183069));
#160 = DIRECTION('',(0.,0.,1.));
#161 = DIRECTION('',(1.,0.,-0.));
#162 = ADVANCED_FACE('',(#163,#292,#303,#314,#325,#336),#347,.F.);
#163 = FACE_BOUND('',#164,.T.);
#164 = EDGE_LOOP('',(#165,#166,#175,#183,#192,#200,#209,#217,#226,#234,
    #243,#251,#260,#268,#277,#285));
#165 = ORIENTED_EDGE('',*,*,#95,.T.);
#166 = ORIENTED_EDGE('',*,*,#167,.F.);
#167 = EDGE_CURVE('',#168,#98,#170,.T.);
#168 = VERTEX_POINT('',#169);
#169 = CARTESIAN_POINT('',(89.157372200768,166.30280155991,
    119.55075183069));
#170 = CIRCLE('',#171,0.5);
#171 = AXIS2_PLACEMENT_3D('',#172,#173,#174);
#172 = CARTESIAN_POINT('',(89.510925591361,166.6563549505,
    119.55075183069));
#173 = DIRECTION('',(1.325328735646E-14,-4.143907439413E-14,-1.));
#174 = DIRECTION('',(-0.707106781187,-0.707106781186,1.993036114741E-14)
  );
#175 = ORIENTED_EDGE('',*,*,#176,.F.);
#176 = EDGE_CURVE('',#177,#168,#179,.T.);
#177 = VERTEX_POINT('',#178);
#178 = CARTESIAN_POINT('',(92.864478981953,162.59569477872,
    119.55075183069));
#179 = LINE('',#180,#181);
#180 = CARTESIAN_POINT('',(92.864478981953,162.59569477872,
    119.55075183069));
#181 = VECTOR('',#182,1.);
#182 = DIRECTION('',(-0.707106781186,0.707106781187,-3.867333987296E-14)
  );
#183 = ORIENTED_EDGE('',*,*,#184,.F.);
#184 = EDGE_CURVE('',#185,#177,#187,.T.);
#185 = VERTEX_POINT('',#186);
#186 = CARTESIAN_POINT('',(93.218032372547,162.44924816931,
    119.55075183069));
#187 = CIRCLE('',#188,0.5);
#188 = AXIS2_PLACEMENT_3D('',#189,#190,#191);
#189 = CARTESIAN_POINT('',(93.218032372547,162.94924816931,
    119.55075183069));
#190 = DIRECTION('',(1.325328735646E-14,-4.143907439413E-14,-1.));
#191 = DIRECTION('',(-2.486899575161E-13,-1.,4.143907439413E-14));
#192 = ORIENTED_EDGE('',*,*,#193,.F.);
#193 = EDGE_CURVE('',#194,#185,#196,.T.);
#194 = VERTEX_POINT('',#195);
#195 = CARTESIAN_POINT('',(126.80381881017,162.44924816931,
    119.55075183069));
#196 = LINE('',#197,#198);
#197 = CARTESIAN_POINT('',(126.80381881017,162.44924816931,
    119.55075183069));
#198 = VECTOR('',#199,1.);
#199 = DIRECTION('',(-1.,2.263697855268E-13,-1.325328735647E-14));
#200 = ORIENTED_EDGE('',*,*,#201,.F.);
#201 = EDGE_CURVE('',#202,#194,#204,.T.);
#202 = VERTEX_POINT('',#203);
#203 = CARTESIAN_POINT('',(127.15737220076,162.59569477871,
    119.55075183069));
#204 = CIRCLE('',#205,0.5);
#205 = AXIS2_PLACEMENT_3D('',#206,#207,#208);
#206 = CARTESIAN_POINT('',(126.80381881017,162.94924816931,
    119.55075183069));
#207 = DIRECTION('',(1.325328735646E-14,-4.143907439413E-14,-1.));
#208 = DIRECTION('',(0.707106781186,-0.707106781187,3.867333987296E-14)
  );
#209 = ORIENTED_EDGE('',*,*,#210,.F.);
#210 = EDGE_CURVE('',#211,#202,#213,.T.);
#211 = VERTEX_POINT('',#212);
#212 = CARTESIAN_POINT('',(130.86447898195,166.3028015599,
    119.55075183069));
#213 = LINE('',#214,#215);
#214 = CARTESIAN_POINT('',(130.86447898195,166.3028015599,
    119.55075183069));
#215 = VECTOR('',#216,1.);
#216 = DIRECTION('',(-0.707106781187,-0.707106781186,1.993036114741E-14)
  );
#217 = ORIENTED_EDGE('',*,*,#218,.F.);
#218 = EDGE_CURVE('',#219,#211,#221,.T.);
#219 = VERTEX_POINT('',#220);
#220 = CARTESIAN_POINT('',(131.01092559136,166.65635495049,
    119.55075183069));
#221 = CIRCLE('',#222,0.5);
#222 = AXIS2_PLACEMENT_3D('',#223,#224,#225);
#223 = CARTESIAN_POINT('',(130.51092559136,166.65635495049,
    119.55075183069));
#224 = DIRECTION('',(1.325328735646E-14,-4.143907439413E-14,-1.));
#225 = DIRECTION('',(1.,-2.13162820728E-13,1.325328735647E-14));
#226 = ORIENTED_EDGE('',*,*,#227,.F.);
#227 = EDGE_CURVE('',#228,#219,#230,.T.);
#228 = VERTEX_POINT('',#229);
#229 = CARTESIAN_POINT('',(131.01092559136,200.24214138812,
    119.55075183069));
#230 = LINE('',#231,#232);
#231 = CARTESIAN_POINT('',(131.01092559136,200.24214138812,
    119.55075183069));
#232 = VECTOR('',#233,1.);
#233 = DIRECTION('',(-2.258408841587E-13,-1.,4.143907439413E-14));
#234 = ORIENTED_EDGE('',*,*,#235,.F.);
#235 = EDGE_CURVE('',#236,#228,#238,.T.);
#236 = VERTEX_POINT('',#237);
#237 = CARTESIAN_POINT('',(130.86447898196,200.59569477871,
    119.55075183069));
#238 = CIRCLE('',#239,0.5);
#239 = AXIS2_PLACEMENT_3D('',#240,#241,#242);
#240 = CARTESIAN_POINT('',(130.51092559136,200.24214138812,
    119.55075183069));
#241 = DIRECTION('',(1.325328735646E-14,-4.143907439413E-14,-1.));
#242 = DIRECTION('',(0.707106781187,0.707106781186,-1.993036114741E-14)
  );
#243 = ORIENTED_EDGE('',*,*,#244,.F.);
#244 = EDGE_CURVE('',#245,#236,#247,.T.);
#245 = VERTEX_POINT('',#246);
#246 = CARTESIAN_POINT('',(127.15737220077,204.3028015599,
    119.55075183069));
#247 = LINE('',#248,#249);
#248 = CARTESIAN_POINT('',(127.15737220077,204.3028015599,
    119.55075183069));
#249 = VECTOR('',#250,1.);
#250 = DIRECTION('',(0.707106781186,-0.707106781187,3.867333987296E-14)
  );
#251 = ORIENTED_EDGE('',*,*,#252,.F.);
#252 = EDGE_CURVE('',#253,#245,#255,.T.);
#253 = VERTEX_POINT('',#254);
#254 = CARTESIAN_POINT('',(126.80381881018,204.44924816931,
    119.55075183069));
#255 = CIRCLE('',#256,0.5);
#256 = AXIS2_PLACEMENT_3D('',#257,#258,#259);
#257 = CARTESIAN_POINT('',(126.80381881018,203.94924816931,
    119.55075183069));
#258 = DIRECTION('',(1.325328735646E-14,-4.143907439413E-14,-1.));
#259 = DIRECTION('',(2.486899575161E-13,1.,-4.143907439413E-14));
#260 = ORIENTED_EDGE('',*,*,#261,.F.);
#261 = EDGE_CURVE('',#262,#253,#264,.T.);
#262 = VERTEX_POINT('',#263);
#263 = CARTESIAN_POINT('',(93.218032372556,204.44924816931,
    119.55075183069));
#264 = LINE('',#265,#266);
#265 = CARTESIAN_POINT('',(93.218032372556,204.44924816931,
    119.55075183069));
#266 = VECTOR('',#267,1.);
#267 = DIRECTION('',(1.,-2.263697855268E-13,1.325328735647E-14));
#268 = ORIENTED_EDGE('',*,*,#269,.F.);
#269 = EDGE_CURVE('',#270,#262,#272,.T.);
#270 = VERTEX_POINT('',#271);
#271 = CARTESIAN_POINT('',(92.864478981963,204.30280155991,
    119.55075183069));
#272 = CIRCLE('',#273,0.5);
#273 = AXIS2_PLACEMENT_3D('',#274,#275,#276);
#274 = CARTESIAN_POINT('',(93.218032372556,203.94924816931,
    119.55075183069));
#275 = DIRECTION('',(1.325328735646E-14,-4.143907439413E-14,-1.));
#276 = DIRECTION('',(-0.707106781186,0.707106781187,-3.867333987296E-14)
  );
#277 = ORIENTED_EDGE('',*,*,#278,.F.);
#278 = EDGE_CURVE('',#279,#270,#281,.T.);
#279 = VERTEX_POINT('',#280);
#280 = CARTESIAN_POINT('',(89.157372200775,200.59569477872,
    119.55075183069));
#281 = LINE('',#282,#283);
#282 = CARTESIAN_POINT('',(89.157372200775,200.59569477872,
    119.55075183069));
#283 = VECTOR('',#284,1.);
#284 = DIRECTION('',(0.707106781187,0.707106781186,-1.993036114741E-14)
  );
#285 = ORIENTED_EDGE('',*,*,#286,.F.);
#286 = EDGE_CURVE('',#96,#279,#287,.T.);
#287 = CIRCLE('',#288,0.5);
#288 = AXIS2_PLACEMENT_3D('',#289,#290,#291);
#289 = CARTESIAN_POINT('',(89.510925591369,200.24214138813,
    119.55075183069));
#290 = DIRECTION('',(1.325328735646E-14,-4.143907439413E-14,-1.));
#291 = DIRECTION('',(-1.,2.13162820728E-13,-1.325328735647E-14));
#292 = FACE_BOUND('',#293,.T.);
#293 = EDGE_LOOP('',(#294));
#294 = ORIENTED_EDGE('',*,*,#295,.F.);
#295 = EDGE_CURVE('',#296,#296,#298,.T.);
#296 = VERTEX_POINT('',#297);
#297 = CARTESIAN_POINT('',(124.28142559136,198.94924816931,
    119.55075183069));
#298 = CIRCLE('',#299,1.2295);
#299 = AXIS2_PLACEMENT_3D('',#300,#301,#302);
#300 = CARTESIAN_POINT('',(125.51092559136,198.94924816931,
    119.55075183069));
#301 = DIRECTION('',(-1.325328735646E-14,4.143907439413E-14,1.));
#302 = DIRECTION('',(1.,-8.968310171679E-44,1.325328735646E-14));
#303 = FACE_BOUND('',#304,.T.);
#304 = EDGE_LOOP('',(#305));
#305 = ORIENTED_EDGE('',*,*,#306,.F.);
#306 = EDGE_CURVE('',#307,#307,#309,.T.);
#307 = VERTEX_POINT('',#308);
#308 = CARTESIAN_POINT('',(124.28142559136,167.94924816931,
    119.55075183069));
#309 = CIRCLE('',#310,1.2295);
#310 = AXIS2_PLACEMENT_3D('',#311,#312,#313);
#311 = CARTESIAN_POINT('',(125.51092559136,167.94924816931,
    119.55075183069));
#312 = DIRECTION('',(-1.325328735646E-14,4.143907439413E-14,1.));
#313 = DIRECTION('',(1.,-8.968310171679E-44,1.325328735646E-14));
#314 = FACE_BOUND('',#315,.T.);
#315 = EDGE_LOOP('',(#316));
#316 = ORIENTED_EDGE('',*,*,#317,.F.);
#317 = EDGE_CURVE('',#318,#318,#320,.T.);
#318 = VERTEX_POINT('',#319);
#319 = CARTESIAN_POINT('',(99.010925591365,183.44924816931,
    119.55075183069));
#320 = CIRCLE('',#321,11.);
#321 = AXIS2_PLACEMENT_3D('',#322,#323,#324);
#322 = CARTESIAN_POINT('',(110.01092559136,183.44924816931,
    119.55075183069));
#323 = DIRECTION('',(-1.325328735646E-14,4.143907439413E-14,1.));
#324 = DIRECTION('',(1.,4.035739577255E-42,1.325328735646E-14));
#325 = FACE_BOUND('',#326,.T.);
#326 = EDGE_LOOP('',(#327));
#327 = ORIENTED_EDGE('',*,*,#328,.F.);
#328 = EDGE_CURVE('',#329,#329,#331,.T.);
#329 = VERTEX_POINT('',#330);
#330 = CARTESIAN_POINT('',(93.281425591361,167.94924816931,
    119.55075183069));
#331 = CIRCLE('',#332,1.2295);
#332 = AXIS2_PLACEMENT_3D('',#333,#334,#335);
#333 = CARTESIAN_POINT('',(94.510925591361,167.94924816931,
    119.55075183069));
#334 = DIRECTION('',(-1.325328735646E-14,4.143907439413E-14,1.));
#335 = DIRECTION('',(1.,-8.968310171679E-44,1.325328735646E-14));
#336 = FACE_BOUND('',#337,.T.);
#337 = EDGE_LOOP('',(#338));
#338 = ORIENTED_EDGE('',*,*,#339,.F.);
#339 = EDGE_CURVE('',#340,#340,#342,.T.);
#340 = VERTEX_POINT('',#341);
#341 = CARTESIAN_POINT('',(93.281425591368,198.94924816931,
    119.55075183069));
#342 = CIRCLE('',#343,1.2295);
#343 = AXIS2_PLACEMENT_3D('',#344,#345,#346);
#344 = CARTESIAN_POINT('',(94.510925591368,198.94924816931,
    119.55075183069));
#345 = DIRECTION('',(-1.325328735646E-14,4.143907439413E-14,1.));
#346 = DIRECTION('',(1.,-8.968310171679E-44,1.325328735646E-14));
#347 = PLANE('',#348);
#348 = AXIS2_PLACEMENT_3D('',#349,#350,#351);
#349 = CARTESIAN_POINT('',(110.01092559136,183.44924816931,
    119.55075183069));
#350 = DIRECTION('',(1.325328735646E-14,-4.143907439413E-14,-1.));
#351 = DIRECTION('',(1.,-2.089616270001E-41,1.325328735646E-14));
#352 = ADVANCED_FACE('',(#353),#379,.T.);
#353 = FACE_BOUND('',#354,.T.);
#354 = EDGE_LOOP('',(#355,#363,#364,#365,#373));
#355 = ORIENTED_EDGE('',*,*,#356,.F.);
#356 = EDGE_CURVE('',#98,#357,#359,.T.);
#357 = VERTEX_POINT('',#358);
#358 = CARTESIAN_POINT('',(89.010925591361,166.6563549505,
    114.55075183069));
#359 = LINE('',#360,#361);
#360 = CARTESIAN_POINT('',(89.010925591361,166.6563549505,
    119.55075183069));
#361 = VECTOR('',#362,1.);
#362 = DIRECTION('',(1.42108547152E-14,-4.263256414561E-14,-1.));
#363 = ORIENTED_EDGE('',*,*,#121,.T.);
#364 = ORIENTED_EDGE('',*,*,#152,.F.);
#365 = ORIENTED_EDGE('',*,*,#366,.F.);
#366 = EDGE_CURVE('',#367,#145,#369,.T.);
#367 = VERTEX_POINT('',#368);
#368 = CARTESIAN_POINT('',(63.010925591361,166.65635495051,
    114.55075183069));
#369 = LINE('',#370,#371);
#370 = CARTESIAN_POINT('',(63.010925591361,166.65635495051,
    119.55075183069));
#371 = VECTOR('',#372,1.);
#372 = DIRECTION('',(-1.42108547152E-14,4.263256414561E-14,1.));
#373 = ORIENTED_EDGE('',*,*,#374,.F.);
#374 = EDGE_CURVE('',#357,#367,#375,.T.);
#375 = LINE('',#376,#377);
#376 = CARTESIAN_POINT('',(89.010925591361,166.6563549505,
    114.55075183069));
#377 = VECTOR('',#378,1.);
#378 = DIRECTION('',(-1.,2.2546067577E-13,-1.4347497549E-14));
#379 = PLANE('',#380);
#380 = AXIS2_PLACEMENT_3D('',#381,#382,#383);
#381 = CARTESIAN_POINT('',(89.010925591361,166.6563549505,
    114.55075183069));
#382 = DIRECTION('',(-2.2546067577E-13,-1.,4.26325641456E-14));
#383 = DIRECTION('',(-1.42108547152E-14,4.263256414561E-14,1.));
#384 = ADVANCED_FACE('',(#385),#411,.T.);
#385 = FACE_BOUND('',#386,.T.);
#386 = EDGE_LOOP('',(#387,#395,#403,#409,#410));
#387 = ORIENTED_EDGE('',*,*,#388,.T.);
#388 = EDGE_CURVE('',#96,#389,#391,.T.);
#389 = VERTEX_POINT('',#390);
#390 = CARTESIAN_POINT('',(89.010925591369,200.24214138813,
    114.55075183069));
#391 = LINE('',#392,#393);
#392 = CARTESIAN_POINT('',(89.010925591369,200.24214138813,
    119.55075183069));
#393 = VECTOR('',#394,1.);
#394 = DIRECTION('',(1.42108547152E-14,-4.263256414561E-14,-1.));
#395 = ORIENTED_EDGE('',*,*,#396,.T.);
#396 = EDGE_CURVE('',#389,#397,#399,.T.);
#397 = VERTEX_POINT('',#398);
#398 = CARTESIAN_POINT('',(63.010925591369,200.24214138813,
    114.55075183069));
#399 = LINE('',#400,#401);
#400 = CARTESIAN_POINT('',(89.010925591369,200.24214138813,
    114.55075183069));
#401 = VECTOR('',#402,1.);
#402 = DIRECTION('',(-1.,2.2546067577E-13,-1.4347497549E-14));
#403 = ORIENTED_EDGE('',*,*,#404,.T.);
#404 = EDGE_CURVE('',#397,#137,#405,.T.);
#405 = LINE('',#406,#407);
#406 = CARTESIAN_POINT('',(63.01092559137,200.24214138813,
    119.55075183069));
#407 = VECTOR('',#408,1.);
#408 = DIRECTION('',(0.,0.,1.));
#409 = ORIENTED_EDGE('',*,*,#136,.F.);
#410 = ORIENTED_EDGE('',*,*,#105,.F.);
#411 = PLANE('',#412);
#412 = AXIS2_PLACEMENT_3D('',#413,#414,#415);
#413 = CARTESIAN_POINT('',(89.010925591369,200.24214138813,
    119.55075183069));
#414 = DIRECTION('',(2.2546067577E-13,1.,-4.26325641456E-14));
#415 = DIRECTION('',(1.42108547152E-14,-4.263256414561E-14,-1.));
#416 = ADVANCED_FACE('',(#417,#428),#432,.T.);
#417 = FACE_BOUND('',#418,.T.);
#418 = EDGE_LOOP('',(#419,#420,#426,#427));
#419 = ORIENTED_EDGE('',*,*,#404,.F.);
#420 = ORIENTED_EDGE('',*,*,#421,.T.);
#421 = EDGE_CURVE('',#397,#367,#422,.T.);
#422 = LINE('',#423,#424);
#423 = CARTESIAN_POINT('',(63.010925591361,166.65635495051,
    114.55075183069));
#424 = VECTOR('',#425,1.);
#425 = DIRECTION('',(-2.258408841587E-13,-1.,4.143907439413E-14));
#426 = ORIENTED_EDGE('',*,*,#366,.T.);
#427 = ORIENTED_EDGE('',*,*,#144,.F.);
#428 = FACE_BOUND('',#429,.T.);
#429 = EDGE_LOOP('',(#430,#431));
#430 = ORIENTED_EDGE('',*,*,#70,.T.);
#431 = ORIENTED_EDGE('',*,*,#21,.T.);
#432 = PLANE('',#433);
#433 = AXIS2_PLACEMENT_3D('',#434,#435,#436);
#434 = CARTESIAN_POINT('',(63.010925591361,166.65635495051,
    119.55075183069));
#435 = DIRECTION('',(-1.,2.2546067577E-13,-1.4347497549E-14));
#436 = DIRECTION('',(-1.4347497549E-14,0.,1.));
#437 = ADVANCED_FACE('',(#438),#457,.F.);
#438 = FACE_BOUND('',#439,.F.);
#439 = EDGE_LOOP('',(#440,#448,#449,#450));
#440 = ORIENTED_EDGE('',*,*,#441,.T.);
#441 = EDGE_CURVE('',#442,#296,#444,.T.);
#442 = VERTEX_POINT('',#443);
#443 = CARTESIAN_POINT('',(124.28142559136,198.94924816931,
    114.55075183069));
#444 = LINE('',#445,#446);
#445 = CARTESIAN_POINT('',(124.28142559136,198.94924816931,
    119.55075183069));
#446 = VECTOR('',#447,1.);
#447 = DIRECTION('',(-1.42108547152E-14,4.263256414561E-14,1.));
#448 = ORIENTED_EDGE('',*,*,#295,.F.);
#449 = ORIENTED_EDGE('',*,*,#441,.F.);
#450 = ORIENTED_EDGE('',*,*,#451,.T.);
#451 = EDGE_CURVE('',#442,#442,#452,.T.);
#452 = CIRCLE('',#453,1.2295);
#453 = AXIS2_PLACEMENT_3D('',#454,#455,#456);
#454 = CARTESIAN_POINT('',(125.51092559136,198.94924816931,
    114.55075183069));
#455 = DIRECTION('',(-1.325328735646E-14,4.143907439413E-14,1.));
#456 = DIRECTION('',(1.,-8.968310171679E-44,1.325328735646E-14));
#457 = CYLINDRICAL_SURFACE('',#458,1.2295);
#458 = AXIS2_PLACEMENT_3D('',#459,#460,#461);
#459 = CARTESIAN_POINT('',(125.51092559136,198.94924816931,
    119.55075183069));
#460 = DIRECTION('',(1.42108547152E-14,-4.263256414561E-14,-1.));
#461 = DIRECTION('',(1.,4.082355184519E-29,1.42108547152E-14));
#462 = ADVANCED_FACE('',(#463),#482,.F.);
#463 = FACE_BOUND('',#464,.F.);
#464 = EDGE_LOOP('',(#465,#473,#474,#475));
#465 = ORIENTED_EDGE('',*,*,#466,.T.);
#466 = EDGE_CURVE('',#467,#307,#469,.T.);
#467 = VERTEX_POINT('',#468);
#468 = CARTESIAN_POINT('',(124.28142559136,167.94924816931,
    114.55075183069));
#469 = LINE('',#470,#471);
#470 = CARTESIAN_POINT('',(124.28142559136,167.94924816931,
    119.55075183069));
#471 = VECTOR('',#472,1.);
#472 = DIRECTION('',(-1.42108547152E-14,4.263256414561E-14,1.));
#473 = ORIENTED_EDGE('',*,*,#306,.F.);
#474 = ORIENTED_EDGE('',*,*,#466,.F.);
#475 = ORIENTED_EDGE('',*,*,#476,.T.);
#476 = EDGE_CURVE('',#467,#467,#477,.T.);
#477 = CIRCLE('',#478,1.2295);
#478 = AXIS2_PLACEMENT_3D('',#479,#480,#481);
#479 = CARTESIAN_POINT('',(125.51092559136,167.94924816931,
    114.55075183069));
#480 = DIRECTION('',(-1.325328735646E-14,4.143907439413E-14,1.));
#481 = DIRECTION('',(1.,-8.968310171679E-44,1.325328735646E-14));
#482 = CYLINDRICAL_SURFACE('',#483,1.2295);
#483 = AXIS2_PLACEMENT_3D('',#484,#485,#486);
#484 = CARTESIAN_POINT('',(125.51092559136,167.94924816931,
    119.55075183069));
#485 = DIRECTION('',(1.42108547152E-14,-4.263256414561E-14,-1.));
#486 = DIRECTION('',(1.,4.082355184519E-29,1.42108547152E-14));
#487 = ADVANCED_FACE('',(#488),#507,.F.);
#488 = FACE_BOUND('',#489,.F.);
#489 = EDGE_LOOP('',(#490,#498,#499,#500));
#490 = ORIENTED_EDGE('',*,*,#491,.T.);
#491 = EDGE_CURVE('',#492,#318,#494,.T.);
#492 = VERTEX_POINT('',#493);
#493 = CARTESIAN_POINT('',(99.010925591365,183.44924816931,
    114.55075183069));
#494 = LINE('',#495,#496);
#495 = CARTESIAN_POINT('',(99.010925591365,183.44924816931,
    119.55075183069));
#496 = VECTOR('',#497,1.);
#497 = DIRECTION('',(-1.42108547152E-14,4.263256414561E-14,1.));
#498 = ORIENTED_EDGE('',*,*,#317,.F.);
#499 = ORIENTED_EDGE('',*,*,#491,.F.);
#500 = ORIENTED_EDGE('',*,*,#501,.T.);
#501 = EDGE_CURVE('',#492,#492,#502,.T.);
#502 = CIRCLE('',#503,11.);
#503 = AXIS2_PLACEMENT_3D('',#504,#505,#506);
#504 = CARTESIAN_POINT('',(110.01092559136,183.44924816931,
    114.55075183069));
#505 = DIRECTION('',(-1.325328735646E-14,4.143907439413E-14,1.));
#506 = DIRECTION('',(1.,4.035739577255E-42,1.325328735646E-14));
#507 = CYLINDRICAL_SURFACE('',#508,11.);
#508 = AXIS2_PLACEMENT_3D('',#509,#510,#511);
#509 = CARTESIAN_POINT('',(110.01092559136,183.44924816931,
    119.55075183069));
#510 = DIRECTION('',(1.42108547152E-14,-4.263256414561E-14,-1.));
#511 = DIRECTION('',(1.,4.082355184519E-29,1.42108547152E-14));
#512 = ADVANCED_FACE('',(#513),#532,.F.);
#513 = FACE_BOUND('',#514,.F.);
#514 = EDGE_LOOP('',(#515,#523,#524,#525));
#515 = ORIENTED_EDGE('',*,*,#516,.T.);
#516 = EDGE_CURVE('',#517,#329,#519,.T.);
#517 = VERTEX_POINT('',#518);
#518 = CARTESIAN_POINT('',(93.281425591361,167.94924816931,
    114.55075183069));
#519 = LINE('',#520,#521);
#520 = CARTESIAN_POINT('',(93.281425591361,167.94924816931,
    119.55075183069));
#521 = VECTOR('',#522,1.);
#522 = DIRECTION('',(-1.42108547152E-14,4.263256414561E-14,1.));
#523 = ORIENTED_EDGE('',*,*,#328,.F.);
#524 = ORIENTED_EDGE('',*,*,#516,.F.);
#525 = ORIENTED_EDGE('',*,*,#526,.T.);
#526 = EDGE_CURVE('',#517,#517,#527,.T.);
#527 = CIRCLE('',#528,1.2295);
#528 = AXIS2_PLACEMENT_3D('',#529,#530,#531);
#529 = CARTESIAN_POINT('',(94.510925591361,167.94924816931,
    114.55075183069));
#530 = DIRECTION('',(-1.325328735646E-14,4.143907439413E-14,1.));
#531 = DIRECTION('',(1.,-8.968310171679E-44,1.325328735646E-14));
#532 = CYLINDRICAL_SURFACE('',#533,1.2295);
#533 = AXIS2_PLACEMENT_3D('',#534,#535,#536);
#534 = CARTESIAN_POINT('',(94.510925591361,167.94924816931,
    119.55075183069));
#535 = DIRECTION('',(1.42108547152E-14,-4.263256414561E-14,-1.));
#536 = DIRECTION('',(1.,4.082355184519E-29,1.42108547152E-14));
#537 = ADVANCED_FACE('',(#538),#557,.F.);
#538 = FACE_BOUND('',#539,.F.);
#539 = EDGE_LOOP('',(#540,#548,#549,#550));
#540 = ORIENTED_EDGE('',*,*,#541,.T.);
#541 = EDGE_CURVE('',#542,#340,#544,.T.);
#542 = VERTEX_POINT('',#543);
#543 = CARTESIAN_POINT('',(93.281425591368,198.94924816931,
    114.55075183069));
#544 = LINE('',#545,#546);
#545 = CARTESIAN_POINT('',(93.281425591368,198.94924816931,
    119.55075183069));
#546 = VECTOR('',#547,1.);
#547 = DIRECTION('',(-1.42108547152E-14,4.263256414561E-14,1.));
#548 = ORIENTED_EDGE('',*,*,#339,.F.);
#549 = ORIENTED_EDGE('',*,*,#541,.F.);
#550 = ORIENTED_EDGE('',*,*,#551,.T.);
#551 = EDGE_CURVE('',#542,#542,#552,.T.);
#552 = CIRCLE('',#553,1.2295);
#553 = AXIS2_PLACEMENT_3D('',#554,#555,#556);
#554 = CARTESIAN_POINT('',(94.510925591368,198.94924816931,
    114.55075183069));
#555 = DIRECTION('',(-1.325328735646E-14,4.143907439413E-14,1.));
#556 = DIRECTION('',(1.,-8.968310171679E-44,1.325328735646E-14));
#557 = CYLINDRICAL_SURFACE('',#558,1.2295);
#558 = AXIS2_PLACEMENT_3D('',#559,#560,#561);
#559 = CARTESIAN_POINT('',(94.510925591368,198.94924816931,
    119.55075183069));
#560 = DIRECTION('',(1.42108547152E-14,-4.263256414561E-14,-1.));
#561 = DIRECTION('',(1.,4.082355184519E-29,1.42108547152E-14));
#562 = ADVANCED_FACE('',(#563),#588,.T.);
#563 = FACE_BOUND('',#564,.T.);
#564 = EDGE_LOOP('',(#565,#566,#574,#582));
#565 = ORIENTED_EDGE('',*,*,#244,.T.);
#566 = ORIENTED_EDGE('',*,*,#567,.T.);
#567 = EDGE_CURVE('',#236,#568,#570,.T.);
#568 = VERTEX_POINT('',#569);
#569 = CARTESIAN_POINT('',(130.86447898196,200.59569477871,
    114.55075183069));
#570 = LINE('',#571,#572);
#571 = CARTESIAN_POINT('',(130.86447898196,200.59569477871,
    119.55075183069));
#572 = VECTOR('',#573,1.);
#573 = DIRECTION('',(1.42108547152E-14,-4.263256414561E-14,-1.));
#574 = ORIENTED_EDGE('',*,*,#575,.F.);
#575 = EDGE_CURVE('',#576,#568,#578,.T.);
#576 = VERTEX_POINT('',#577);
#577 = CARTESIAN_POINT('',(127.15737220077,204.3028015599,
    114.55075183069));
#578 = LINE('',#579,#580);
#579 = CARTESIAN_POINT('',(127.15737220077,204.3028015599,
    114.55075183069));
#580 = VECTOR('',#581,1.);
#581 = DIRECTION('',(0.707106781186,-0.707106781187,3.867333987296E-14)
  );
#582 = ORIENTED_EDGE('',*,*,#583,.F.);
#583 = EDGE_CURVE('',#245,#576,#584,.T.);
#584 = LINE('',#585,#586);
#585 = CARTESIAN_POINT('',(127.15737220077,204.3028015599,
    119.55075183069));
#586 = VECTOR('',#587,1.);
#587 = DIRECTION('',(1.42108547152E-14,-4.263256414561E-14,-1.));
#588 = PLANE('',#589);
#589 = AXIS2_PLACEMENT_3D('',#590,#591,#592);
#590 = CARTESIAN_POINT('',(127.15737220077,204.3028015599,
    119.55075183069));
#591 = DIRECTION('',(0.707106781187,0.707106781186,-2.009718347114E-14)
  );
#592 = DIRECTION('',(0.707106781186,-0.707106781187,3.867333987296E-14)
  );
#593 = ADVANCED_FACE('',(#594),#613,.T.);
#594 = FACE_BOUND('',#595,.T.);
#595 = EDGE_LOOP('',(#596,#597,#598,#607));
#596 = ORIENTED_EDGE('',*,*,#252,.T.);
#597 = ORIENTED_EDGE('',*,*,#583,.T.);
#598 = ORIENTED_EDGE('',*,*,#599,.F.);
#599 = EDGE_CURVE('',#600,#576,#602,.T.);
#600 = VERTEX_POINT('',#601);
#601 = CARTESIAN_POINT('',(126.80381881018,204.44924816931,
    114.55075183069));
#602 = CIRCLE('',#603,0.5);
#603 = AXIS2_PLACEMENT_3D('',#604,#605,#606);
#604 = CARTESIAN_POINT('',(126.80381881018,203.94924816931,
    114.55075183069));
#605 = DIRECTION('',(1.325328735646E-14,-4.143907439413E-14,-1.));
#606 = DIRECTION('',(2.486899575161E-13,1.,-4.143907439413E-14));
#607 = ORIENTED_EDGE('',*,*,#608,.F.);
#608 = EDGE_CURVE('',#253,#600,#609,.T.);
#609 = LINE('',#610,#611);
#610 = CARTESIAN_POINT('',(126.80381881018,204.44924816931,
    119.55075183069));
#611 = VECTOR('',#612,1.);
#612 = DIRECTION('',(1.42108547152E-14,-4.263256414561E-14,-1.));
#613 = CYLINDRICAL_SURFACE('',#614,0.5);
#614 = AXIS2_PLACEMENT_3D('',#615,#616,#617);
#615 = CARTESIAN_POINT('',(126.80381881018,203.94924816931,
    119.55075183069));
#616 = DIRECTION('',(1.42108547152E-14,-4.263256414561E-14,-1.));
#617 = DIRECTION('',(2.486899575161E-13,1.,-4.26325641456E-14));
#618 = ADVANCED_FACE('',(#619),#637,.T.);
#619 = FACE_BOUND('',#620,.T.);
#620 = EDGE_LOOP('',(#621,#622,#623,#631));
#621 = ORIENTED_EDGE('',*,*,#261,.T.);
#622 = ORIENTED_EDGE('',*,*,#608,.T.);
#623 = ORIENTED_EDGE('',*,*,#624,.F.);
#624 = EDGE_CURVE('',#625,#600,#627,.T.);
#625 = VERTEX_POINT('',#626);
#626 = CARTESIAN_POINT('',(93.218032372556,204.44924816931,
    114.55075183069));
#627 = LINE('',#628,#629);
#628 = CARTESIAN_POINT('',(93.218032372556,204.44924816931,
    114.55075183069));
#629 = VECTOR('',#630,1.);
#630 = DIRECTION('',(1.,-2.263697855268E-13,1.325328735647E-14));
#631 = ORIENTED_EDGE('',*,*,#632,.F.);
#632 = EDGE_CURVE('',#262,#625,#633,.T.);
#633 = LINE('',#634,#635);
#634 = CARTESIAN_POINT('',(93.218032372556,204.44924816931,
    119.55075183069));
#635 = VECTOR('',#636,1.);
#636 = DIRECTION('',(1.42108547152E-14,-4.263256414561E-14,-1.));
#637 = PLANE('',#638);
#638 = AXIS2_PLACEMENT_3D('',#639,#640,#641);
#639 = CARTESIAN_POINT('',(93.218032372556,204.44924816931,
    119.55075183069));
#640 = DIRECTION('',(2.263697855268E-13,1.,-4.26325641456E-14));
#641 = DIRECTION('',(1.,-2.263697855268E-13,1.325328735647E-14));
#642 = ADVANCED_FACE('',(#643),#662,.T.);
#643 = FACE_BOUND('',#644,.T.);
#644 = EDGE_LOOP('',(#645,#646,#647,#656));
#645 = ORIENTED_EDGE('',*,*,#269,.T.);
#646 = ORIENTED_EDGE('',*,*,#632,.T.);
#647 = ORIENTED_EDGE('',*,*,#648,.F.);
#648 = EDGE_CURVE('',#649,#625,#651,.T.);
#649 = VERTEX_POINT('',#650);
#650 = CARTESIAN_POINT('',(92.864478981963,204.30280155991,
    114.55075183069));
#651 = CIRCLE('',#652,0.5);
#652 = AXIS2_PLACEMENT_3D('',#653,#654,#655);
#653 = CARTESIAN_POINT('',(93.218032372556,203.94924816931,
    114.55075183069));
#654 = DIRECTION('',(1.325328735646E-14,-4.143907439413E-14,-1.));
#655 = DIRECTION('',(-0.707106781186,0.707106781187,-3.867333987296E-14)
  );
#656 = ORIENTED_EDGE('',*,*,#657,.F.);
#657 = EDGE_CURVE('',#270,#649,#658,.T.);
#658 = LINE('',#659,#660);
#659 = CARTESIAN_POINT('',(92.864478981963,204.30280155991,
    119.55075183069));
#660 = VECTOR('',#661,1.);
#661 = DIRECTION('',(1.42108547152E-14,-4.263256414561E-14,-1.));
#662 = CYLINDRICAL_SURFACE('',#663,0.5);
#663 = AXIS2_PLACEMENT_3D('',#664,#665,#666);
#664 = CARTESIAN_POINT('',(93.218032372556,203.94924816931,
    119.55075183069));
#665 = DIRECTION('',(1.42108547152E-14,-4.263256414561E-14,-1.));
#666 = DIRECTION('',(-0.707106781186,0.707106781187,-4.019436694231E-14)
  );
#667 = ADVANCED_FACE('',(#668),#686,.T.);
#668 = FACE_BOUND('',#669,.T.);
#669 = EDGE_LOOP('',(#670,#671,#672,#680));
#670 = ORIENTED_EDGE('',*,*,#278,.T.);
#671 = ORIENTED_EDGE('',*,*,#657,.T.);
#672 = ORIENTED_EDGE('',*,*,#673,.F.);
#673 = EDGE_CURVE('',#674,#649,#676,.T.);
#674 = VERTEX_POINT('',#675);
#675 = CARTESIAN_POINT('',(89.157372200775,200.59569477872,
    114.55075183069));
#676 = LINE('',#677,#678);
#677 = CARTESIAN_POINT('',(89.157372200775,200.59569477872,
    114.55075183069));
#678 = VECTOR('',#679,1.);
#679 = DIRECTION('',(0.707106781187,0.707106781186,-1.993036114741E-14)
  );
#680 = ORIENTED_EDGE('',*,*,#681,.F.);
#681 = EDGE_CURVE('',#279,#674,#682,.T.);
#682 = LINE('',#683,#684);
#683 = CARTESIAN_POINT('',(89.157372200775,200.59569477872,
    119.55075183069));
#684 = VECTOR('',#685,1.);
#685 = DIRECTION('',(1.42108547152E-14,-4.263256414561E-14,-1.));
#686 = PLANE('',#687);
#687 = AXIS2_PLACEMENT_3D('',#688,#689,#690);
#688 = CARTESIAN_POINT('',(89.157372200775,200.59569477872,
    119.55075183069));
#689 = DIRECTION('',(-0.707106781186,0.707106781187,-4.019436694231E-14)
  );
#690 = DIRECTION('',(0.707106781187,0.707106781186,-1.993036114741E-14)
  );
#691 = ADVANCED_FACE('',(#692),#704,.T.);
#692 = FACE_BOUND('',#693,.T.);
#693 = EDGE_LOOP('',(#694,#695,#696,#703));
#694 = ORIENTED_EDGE('',*,*,#286,.T.);
#695 = ORIENTED_EDGE('',*,*,#681,.T.);
#696 = ORIENTED_EDGE('',*,*,#697,.F.);
#697 = EDGE_CURVE('',#389,#674,#698,.T.);
#698 = CIRCLE('',#699,0.5);
#699 = AXIS2_PLACEMENT_3D('',#700,#701,#702);
#700 = CARTESIAN_POINT('',(89.510925591369,200.24214138813,
    114.55075183069));
#701 = DIRECTION('',(1.325328735646E-14,-4.143907439413E-14,-1.));
#702 = DIRECTION('',(-1.,2.13162820728E-13,-1.325328735647E-14));
#703 = ORIENTED_EDGE('',*,*,#388,.F.);
#704 = CYLINDRICAL_SURFACE('',#705,0.5);
#705 = AXIS2_PLACEMENT_3D('',#706,#707,#708);
#706 = CARTESIAN_POINT('',(89.510925591369,200.24214138813,
    119.55075183069));
#707 = DIRECTION('',(1.42108547152E-14,-4.263256414561E-14,-1.));
#708 = DIRECTION('',(-1.,2.13162820728E-13,-1.421085471521E-14));
#709 = ADVANCED_FACE('',(#710),#729,.T.);
#710 = FACE_BOUND('',#711,.T.);
#711 = EDGE_LOOP('',(#712,#713,#714,#723));
#712 = ORIENTED_EDGE('',*,*,#167,.T.);
#713 = ORIENTED_EDGE('',*,*,#356,.T.);
#714 = ORIENTED_EDGE('',*,*,#715,.F.);
#715 = EDGE_CURVE('',#716,#357,#718,.T.);
#716 = VERTEX_POINT('',#717);
#717 = CARTESIAN_POINT('',(89.157372200768,166.30280155991,
    114.55075183069));
#718 = CIRCLE('',#719,0.5);
#719 = AXIS2_PLACEMENT_3D('',#720,#721,#722);
#720 = CARTESIAN_POINT('',(89.510925591361,166.6563549505,
    114.55075183069));
#721 = DIRECTION('',(1.325328735646E-14,-4.143907439413E-14,-1.));
#722 = DIRECTION('',(-0.707106781187,-0.707106781186,1.993036114741E-14)
  );
#723 = ORIENTED_EDGE('',*,*,#724,.F.);
#724 = EDGE_CURVE('',#168,#716,#725,.T.);
#725 = LINE('',#726,#727);
#726 = CARTESIAN_POINT('',(89.157372200768,166.30280155991,
    119.55075183069));
#727 = VECTOR('',#728,1.);
#728 = DIRECTION('',(1.42108547152E-14,-4.263256414561E-14,-1.));
#729 = CYLINDRICAL_SURFACE('',#730,0.5);
#730 = AXIS2_PLACEMENT_3D('',#731,#732,#733);
#731 = CARTESIAN_POINT('',(89.510925591361,166.6563549505,
    119.55075183069));
#732 = DIRECTION('',(1.42108547152E-14,-4.263256414561E-14,-1.));
#733 = DIRECTION('',(-0.707106781187,-0.707106781186,2.009718347114E-14)
  );
#734 = ADVANCED_FACE('',(#735),#753,.T.);
#735 = FACE_BOUND('',#736,.T.);
#736 = EDGE_LOOP('',(#737,#738,#739,#747));
#737 = ORIENTED_EDGE('',*,*,#176,.T.);
#738 = ORIENTED_EDGE('',*,*,#724,.T.);
#739 = ORIENTED_EDGE('',*,*,#740,.F.);
#740 = EDGE_CURVE('',#741,#716,#743,.T.);
#741 = VERTEX_POINT('',#742);
#742 = CARTESIAN_POINT('',(92.864478981953,162.59569477872,
    114.55075183069));
#743 = LINE('',#744,#745);
#744 = CARTESIAN_POINT('',(92.864478981953,162.59569477872,
    114.55075183069));
#745 = VECTOR('',#746,1.);
#746 = DIRECTION('',(-0.707106781186,0.707106781187,-3.867333987296E-14)
  );
#747 = ORIENTED_EDGE('',*,*,#748,.F.);
#748 = EDGE_CURVE('',#177,#741,#749,.T.);
#749 = LINE('',#750,#751);
#750 = CARTESIAN_POINT('',(92.864478981953,162.59569477872,
    119.55075183069));
#751 = VECTOR('',#752,1.);
#752 = DIRECTION('',(1.42108547152E-14,-4.263256414561E-14,-1.));
#753 = PLANE('',#754);
#754 = AXIS2_PLACEMENT_3D('',#755,#756,#757);
#755 = CARTESIAN_POINT('',(92.864478981953,162.59569477872,
    119.55075183069));
#756 = DIRECTION('',(-0.707106781187,-0.707106781186,2.009718347114E-14)
  );
#757 = DIRECTION('',(-0.707106781186,0.707106781187,-3.867333987296E-14)
  );
#758 = ADVANCED_FACE('',(#759),#778,.T.);
#759 = FACE_BOUND('',#760,.T.);
#760 = EDGE_LOOP('',(#761,#762,#763,#772));
#761 = ORIENTED_EDGE('',*,*,#184,.T.);
#762 = ORIENTED_EDGE('',*,*,#748,.T.);
#763 = ORIENTED_EDGE('',*,*,#764,.F.);
#764 = EDGE_CURVE('',#765,#741,#767,.T.);
#765 = VERTEX_POINT('',#766);
#766 = CARTESIAN_POINT('',(93.218032372547,162.44924816931,
    114.55075183069));
#767 = CIRCLE('',#768,0.5);
#768 = AXIS2_PLACEMENT_3D('',#769,#770,#771);
#769 = CARTESIAN_POINT('',(93.218032372547,162.94924816931,
    114.55075183069));
#770 = DIRECTION('',(1.325328735646E-14,-4.143907439413E-14,-1.));
#771 = DIRECTION('',(-2.486899575161E-13,-1.,4.143907439413E-14));
#772 = ORIENTED_EDGE('',*,*,#773,.F.);
#773 = EDGE_CURVE('',#185,#765,#774,.T.);
#774 = LINE('',#775,#776);
#775 = CARTESIAN_POINT('',(93.218032372547,162.44924816931,
    119.55075183069));
#776 = VECTOR('',#777,1.);
#777 = DIRECTION('',(1.42108547152E-14,-4.263256414561E-14,-1.));
#778 = CYLINDRICAL_SURFACE('',#779,0.5);
#779 = AXIS2_PLACEMENT_3D('',#780,#781,#782);
#780 = CARTESIAN_POINT('',(93.218032372547,162.94924816931,
    119.55075183069));
#781 = DIRECTION('',(1.42108547152E-14,-4.263256414561E-14,-1.));
#782 = DIRECTION('',(-2.486899575161E-13,-1.,4.26325641456E-14));
#783 = ADVANCED_FACE('',(#784),#802,.T.);
#784 = FACE_BOUND('',#785,.T.);
#785 = EDGE_LOOP('',(#786,#787,#788,#796));
#786 = ORIENTED_EDGE('',*,*,#193,.T.);
#787 = ORIENTED_EDGE('',*,*,#773,.T.);
#788 = ORIENTED_EDGE('',*,*,#789,.F.);
#789 = EDGE_CURVE('',#790,#765,#792,.T.);
#790 = VERTEX_POINT('',#791);
#791 = CARTESIAN_POINT('',(126.80381881017,162.44924816931,
    114.55075183069));
#792 = LINE('',#793,#794);
#793 = CARTESIAN_POINT('',(126.80381881017,162.44924816931,
    114.55075183069));
#794 = VECTOR('',#795,1.);
#795 = DIRECTION('',(-1.,2.263697855268E-13,-1.325328735647E-14));
#796 = ORIENTED_EDGE('',*,*,#797,.F.);
#797 = EDGE_CURVE('',#194,#790,#798,.T.);
#798 = LINE('',#799,#800);
#799 = CARTESIAN_POINT('',(126.80381881017,162.44924816931,
    119.55075183069));
#800 = VECTOR('',#801,1.);
#801 = DIRECTION('',(1.42108547152E-14,-4.263256414561E-14,-1.));
#802 = PLANE('',#803);
#803 = AXIS2_PLACEMENT_3D('',#804,#805,#806);
#804 = CARTESIAN_POINT('',(126.80381881017,162.44924816931,
    119.55075183069));
#805 = DIRECTION('',(-2.263697855268E-13,-1.,4.26325641456E-14));
#806 = DIRECTION('',(-1.,2.263697855268E-13,-1.325328735647E-14));
#807 = ADVANCED_FACE('',(#808),#827,.T.);
#808 = FACE_BOUND('',#809,.T.);
#809 = EDGE_LOOP('',(#810,#811,#812,#821));
#810 = ORIENTED_EDGE('',*,*,#201,.T.);
#811 = ORIENTED_EDGE('',*,*,#797,.T.);
#812 = ORIENTED_EDGE('',*,*,#813,.F.);
#813 = EDGE_CURVE('',#814,#790,#816,.T.);
#814 = VERTEX_POINT('',#815);
#815 = CARTESIAN_POINT('',(127.15737220076,162.59569477871,
    114.55075183069));
#816 = CIRCLE('',#817,0.5);
#817 = AXIS2_PLACEMENT_3D('',#818,#819,#820);
#818 = CARTESIAN_POINT('',(126.80381881017,162.94924816931,
    114.55075183069));
#819 = DIRECTION('',(1.325328735646E-14,-4.143907439413E-14,-1.));
#820 = DIRECTION('',(0.707106781186,-0.707106781187,3.867333987296E-14)
  );
#821 = ORIENTED_EDGE('',*,*,#822,.F.);
#822 = EDGE_CURVE('',#202,#814,#823,.T.);
#823 = LINE('',#824,#825);
#824 = CARTESIAN_POINT('',(127.15737220076,162.59569477871,
    119.55075183069));
#825 = VECTOR('',#826,1.);
#826 = DIRECTION('',(1.42108547152E-14,-4.263256414561E-14,-1.));
#827 = CYLINDRICAL_SURFACE('',#828,0.5);
#828 = AXIS2_PLACEMENT_3D('',#829,#830,#831);
#829 = CARTESIAN_POINT('',(126.80381881017,162.94924816931,
    119.55075183069));
#830 = DIRECTION('',(1.42108547152E-14,-4.263256414561E-14,-1.));
#831 = DIRECTION('',(0.707106781186,-0.707106781187,4.019436694231E-14)
  );
#832 = ADVANCED_FACE('',(#833),#851,.T.);
#833 = FACE_BOUND('',#834,.T.);
#834 = EDGE_LOOP('',(#835,#836,#837,#845));
#835 = ORIENTED_EDGE('',*,*,#210,.T.);
#836 = ORIENTED_EDGE('',*,*,#822,.T.);
#837 = ORIENTED_EDGE('',*,*,#838,.F.);
#838 = EDGE_CURVE('',#839,#814,#841,.T.);
#839 = VERTEX_POINT('',#840);
#840 = CARTESIAN_POINT('',(130.86447898195,166.3028015599,
    114.55075183069));
#841 = LINE('',#842,#843);
#842 = CARTESIAN_POINT('',(130.86447898195,166.3028015599,
    114.55075183069));
#843 = VECTOR('',#844,1.);
#844 = DIRECTION('',(-0.707106781187,-0.707106781186,1.993036114741E-14)
  );
#845 = ORIENTED_EDGE('',*,*,#846,.F.);
#846 = EDGE_CURVE('',#211,#839,#847,.T.);
#847 = LINE('',#848,#849);
#848 = CARTESIAN_POINT('',(130.86447898195,166.3028015599,
    119.55075183069));
#849 = VECTOR('',#850,1.);
#850 = DIRECTION('',(1.42108547152E-14,-4.263256414561E-14,-1.));
#851 = PLANE('',#852);
#852 = AXIS2_PLACEMENT_3D('',#853,#854,#855);
#853 = CARTESIAN_POINT('',(130.86447898195,166.3028015599,
    119.55075183069));
#854 = DIRECTION('',(0.707106781186,-0.707106781187,4.019436694231E-14)
  );
#855 = DIRECTION('',(-0.707106781187,-0.707106781186,1.993036114741E-14)
  );
#856 = ADVANCED_FACE('',(#857),#876,.T.);
#857 = FACE_BOUND('',#858,.T.);
#858 = EDGE_LOOP('',(#859,#860,#861,#870));
#859 = ORIENTED_EDGE('',*,*,#218,.T.);
#860 = ORIENTED_EDGE('',*,*,#846,.T.);
#861 = ORIENTED_EDGE('',*,*,#862,.F.);
#862 = EDGE_CURVE('',#863,#839,#865,.T.);
#863 = VERTEX_POINT('',#864);
#864 = CARTESIAN_POINT('',(131.01092559136,166.65635495049,
    114.55075183069));
#865 = CIRCLE('',#866,0.5);
#866 = AXIS2_PLACEMENT_3D('',#867,#868,#869);
#867 = CARTESIAN_POINT('',(130.51092559136,166.65635495049,
    114.55075183069));
#868 = DIRECTION('',(1.325328735646E-14,-4.143907439413E-14,-1.));
#869 = DIRECTION('',(1.,-2.13162820728E-13,1.325328735647E-14));
#870 = ORIENTED_EDGE('',*,*,#871,.F.);
#871 = EDGE_CURVE('',#219,#863,#872,.T.);
#872 = LINE('',#873,#874);
#873 = CARTESIAN_POINT('',(131.01092559136,166.65635495049,
    119.55075183069));
#874 = VECTOR('',#875,1.);
#875 = DIRECTION('',(1.42108547152E-14,-4.263256414561E-14,-1.));
#876 = CYLINDRICAL_SURFACE('',#877,0.5);
#877 = AXIS2_PLACEMENT_3D('',#878,#879,#880);
#878 = CARTESIAN_POINT('',(130.51092559136,166.65635495049,
    119.55075183069));
#879 = DIRECTION('',(1.42108547152E-14,-4.263256414561E-14,-1.));
#880 = DIRECTION('',(1.,-2.13162820728E-13,1.421085471521E-14));
#881 = ADVANCED_FACE('',(#882),#900,.T.);
#882 = FACE_BOUND('',#883,.T.);
#883 = EDGE_LOOP('',(#884,#885,#886,#894));
#884 = ORIENTED_EDGE('',*,*,#227,.T.);
#885 = ORIENTED_EDGE('',*,*,#871,.T.);
#886 = ORIENTED_EDGE('',*,*,#887,.F.);
#887 = EDGE_CURVE('',#888,#863,#890,.T.);
#888 = VERTEX_POINT('',#889);
#889 = CARTESIAN_POINT('',(131.01092559136,200.24214138812,
    114.55075183069));
#890 = LINE('',#891,#892);
#891 = CARTESIAN_POINT('',(131.01092559136,200.24214138812,
    114.55075183069));
#892 = VECTOR('',#893,1.);
#893 = DIRECTION('',(-2.258408841587E-13,-1.,4.143907439413E-14));
#894 = ORIENTED_EDGE('',*,*,#895,.F.);
#895 = EDGE_CURVE('',#228,#888,#896,.T.);
#896 = LINE('',#897,#898);
#897 = CARTESIAN_POINT('',(131.01092559136,200.24214138812,
    119.55075183069));
#898 = VECTOR('',#899,1.);
#899 = DIRECTION('',(1.42108547152E-14,-4.263256414561E-14,-1.));
#900 = PLANE('',#901);
#901 = AXIS2_PLACEMENT_3D('',#902,#903,#904);
#902 = CARTESIAN_POINT('',(131.01092559136,200.24214138812,
    119.55075183069));
#903 = DIRECTION('',(1.,-2.258408841587E-13,1.421085471521E-14));
#904 = DIRECTION('',(-2.258408841587E-13,-1.,4.143907439413E-14));
#905 = ADVANCED_FACE('',(#906),#918,.T.);
#906 = FACE_BOUND('',#907,.T.);
#907 = EDGE_LOOP('',(#908,#909,#910,#917));
#908 = ORIENTED_EDGE('',*,*,#235,.T.);
#909 = ORIENTED_EDGE('',*,*,#895,.T.);
#910 = ORIENTED_EDGE('',*,*,#911,.F.);
#911 = EDGE_CURVE('',#568,#888,#912,.T.);
#912 = CIRCLE('',#913,0.5);
#913 = AXIS2_PLACEMENT_3D('',#914,#915,#916);
#914 = CARTESIAN_POINT('',(130.51092559136,200.24214138812,
    114.55075183069));
#915 = DIRECTION('',(1.325328735646E-14,-4.143907439413E-14,-1.));
#916 = DIRECTION('',(0.707106781187,0.707106781186,-1.993036114741E-14)
  );
#917 = ORIENTED_EDGE('',*,*,#567,.F.);
#918 = CYLINDRICAL_SURFACE('',#919,0.5);
#919 = AXIS2_PLACEMENT_3D('',#920,#921,#922);
#920 = CARTESIAN_POINT('',(130.51092559136,200.24214138812,
    119.55075183069));
#921 = DIRECTION('',(1.42108547152E-14,-4.263256414561E-14,-1.));
#922 = DIRECTION('',(0.707106781187,0.707106781186,-2.009718347114E-14)
  );
#923 = ADVANCED_FACE('',(#924,#944,#947,#950,#953,#956),#959,.T.);
#924 = FACE_BOUND('',#925,.T.);
#925 = EDGE_LOOP('',(#926,#927,#928,#929,#930,#931,#932,#933,#934,#935,
    #936,#937,#938,#939,#940,#941,#942,#943));
#926 = ORIENTED_EDGE('',*,*,#911,.T.);
#927 = ORIENTED_EDGE('',*,*,#887,.T.);
#928 = ORIENTED_EDGE('',*,*,#862,.T.);
#929 = ORIENTED_EDGE('',*,*,#838,.T.);
#930 = ORIENTED_EDGE('',*,*,#813,.T.);
#931 = ORIENTED_EDGE('',*,*,#789,.T.);
#932 = ORIENTED_EDGE('',*,*,#764,.T.);
#933 = ORIENTED_EDGE('',*,*,#740,.T.);
#934 = ORIENTED_EDGE('',*,*,#715,.T.);
#935 = ORIENTED_EDGE('',*,*,#374,.T.);
#936 = ORIENTED_EDGE('',*,*,#421,.F.);
#937 = ORIENTED_EDGE('',*,*,#396,.F.);
#938 = ORIENTED_EDGE('',*,*,#697,.T.);
#939 = ORIENTED_EDGE('',*,*,#673,.T.);
#940 = ORIENTED_EDGE('',*,*,#648,.T.);
#941 = ORIENTED_EDGE('',*,*,#624,.T.);
#942 = ORIENTED_EDGE('',*,*,#599,.T.);
#943 = ORIENTED_EDGE('',*,*,#575,.T.);
#944 = FACE_BOUND('',#945,.T.);
#945 = EDGE_LOOP('',(#946));
#946 = ORIENTED_EDGE('',*,*,#551,.T.);
#947 = FACE_BOUND('',#948,.T.);
#948 = EDGE_LOOP('',(#949));
#949 = ORIENTED_EDGE('',*,*,#526,.T.);
#950 = FACE_BOUND('',#951,.T.);
#951 = EDGE_LOOP('',(#952));
#952 = ORIENTED_EDGE('',*,*,#501,.T.);
#953 = FACE_BOUND('',#954,.T.);
#954 = EDGE_LOOP('',(#955));
#955 = ORIENTED_EDGE('',*,*,#476,.T.);
#956 = FACE_BOUND('',#957,.T.);
#957 = EDGE_LOOP('',(#958));
#958 = ORIENTED_EDGE('',*,*,#451,.T.);
#959 = PLANE('',#960);
#960 = AXIS2_PLACEMENT_3D('',#961,#962,#963);
#961 = CARTESIAN_POINT('',(110.01092559136,183.44924816931,
    114.55075183069));
#962 = DIRECTION('',(1.325328735646E-14,-4.143907439413E-14,-1.));
#963 = DIRECTION('',(1.,-2.089616270001E-41,1.325328735646E-14));
#964 = ( GEOMETRIC_REPRESENTATION_CONTEXT(3) 
GLOBAL_UNCERTAINTY_ASSIGNED_CONTEXT((#968)) GLOBAL_UNIT_ASSIGNED_CONTEXT
((#965,#966,#967)) REPRESENTATION_CONTEXT('Context #1',
  '3D Context with UNIT and UNCERTAINTY') );
#965 = ( LENGTH_UNIT() NAMED_UNIT(*) SI_UNIT(.MILLI.,.METRE.) );
#966 = ( NAMED_UNIT(*) PLANE_ANGLE_UNIT() SI_UNIT($,.RADIAN.) );
#967 = ( NAMED_UNIT(*) SI_UNIT($,.STERADIAN.) SOLID_ANGLE_UNIT() );
#968 = UNCERTAINTY_MEASURE_WITH_UNIT(LENGTH_MEASURE(1.E-07),#965,
  'distance_accuracy_value','confusion accuracy');
#969 = PRODUCT_RELATED_PRODUCT_CATEGORY('part',$,(#7));
#970 = MECHANICAL_DESIGN_GEOMETRIC_PRESENTATION_REPRESENTATION('',(#971)
  ,#964);
#971 = STYLED_ITEM('color',(#972),#15);
#972 = PRESENTATION_STYLE_ASSIGNMENT((#973,#979));
#973 = SURFACE_STYLE_USAGE(.BOTH.,#974);
#974 = SURFACE_SIDE_STYLE('',(#975));
#975 = SURFACE_STYLE_FILL_AREA(#976);
#976 = FILL_AREA_STYLE('',(#977));
#977 = FILL_AREA_STYLE_COLOUR('',#978);
#978 = COLOUR_RGB('',0.627451011593,0.627451011593,0.627451011593);
#979 = CURVE_STYLE('',#980,POSITIVE_LENGTH_MEASURE(0.1),#981);
#980 = DRAUGHTING_PRE_DEFINED_CURVE_FONT('continuous');
#981 = COLOUR_RGB('',9.803921802644E-02,9.803921802644E-02,
  9.803921802644E-02);
ENDSEC;
END-ISO-10303-21;
