ISO-10303-21;
HEADER;
FILE_DESCRIPTION(('FreeCAD Model'),'2;1');
FILE_NAME('Open CASCADE Shape Model','2026-08-20T22:01:11',('Author'),(
    ''),'Open CASCADE STEP processor 7.8','FreeCAD','Unknown');
FILE_SCHEMA(('AUTOMOTIVE_DESIGN { 1 0 10303 214 1 1 1 1 }'));
ENDSEC;
DATA;
#1 = APPLICATION_PROTOCOL_DEFINITION('international standard',
  'automotive_design',2000,#2);
#2 = APPLICATION_CONTEXT(
  'core data for automotive mechanical design processes');
#3 = SHAPE_DEFINITION_REPRESENTATION(#4,#10);
#4 = PRODUCT_DEFINITION_SHAPE('','',#5);
#5 = PRODUCT_DEFINITION('design','',#6,#9);
#6 = PRODUCT_DEFINITION_FORMATION('','',#7);
#7 = PRODUCT('COMPOUND008','COMPOUND008','',(#8));
#8 = PRODUCT_CONTEXT('',#2,'mechanical');
#9 = PRODUCT_DEFINITION_CONTEXT('part definition',#2,'design');
#10 = ADVANCED_BREP_SHAPE_REPRESENTATION('',(#11,#15),#1393);
#11 = AXIS2_PLACEMENT_3D('',#12,#13,#14);
#12 = CARTESIAN_POINT('',(0.,0.,0.));
#13 = DIRECTION('',(0.,0.,1.));
#14 = DIRECTION('',(1.,0.,-0.));
#15 = MANIFOLD_SOLID_BREP('',#16);
#16 = CLOSED_SHELL('',(#17,#57,#81,#91,#135,#166,#471,#504,#537,#554,
    #833,#1098,#1123,#1148,#1173,#1198,#1229,#1253,#1270,#1294,#1318,
    #1342,#1359));
#17 = ADVANCED_FACE('',(#18),#52,.F.);
#18 = FACE_BOUND('',#19,.T.);
#19 = EDGE_LOOP('',(#20,#30,#38,#46));
#20 = ORIENTED_EDGE('',*,*,#21,.F.);
#21 = EDGE_CURVE('',#22,#24,#26,.T.);
#22 = VERTEX_POINT('',#23);
#23 = CARTESIAN_POINT('',(111.95592559136,185.01990885832,
    114.54271372701));
#24 = VERTEX_POINT('',#25);
#25 = CARTESIAN_POINT('',(111.95592559136,181.8785874803,114.54271372701
    ));
#26 = LINE('',#27,#28);
#27 = CARTESIAN_POINT('',(111.95592559136,174.96784713075,
    114.54271372701));
#28 = VECTOR('',#29,1.);
#29 = DIRECTION('',(-2.20537501261E-13,-1.,-1.808092147889E-28));
#30 = ORIENTED_EDGE('',*,*,#31,.F.);
#31 = EDGE_CURVE('',#32,#22,#34,.T.);
#32 = VERTEX_POINT('',#33);
#33 = CARTESIAN_POINT('',(111.95592559136,185.01990885832,
    95.198751830691));
#34 = LINE('',#35,#36);
#35 = CARTESIAN_POINT('',(111.95592559136,185.01990885832,
    95.198751830691));
#36 = VECTOR('',#37,1.);
#37 = DIRECTION('',(-1.317298330342E-14,4.151485647138E-14,1.));
#38 = ORIENTED_EDGE('',*,*,#39,.T.);
#39 = EDGE_CURVE('',#32,#40,#42,.T.);
#40 = VERTEX_POINT('',#41);
#41 = CARTESIAN_POINT('',(111.95592559136,181.8785874803,95.198751830691
    ));
#42 = LINE('',#43,#44);
#43 = CARTESIAN_POINT('',(111.95592559136,185.01990885832,
    95.198751830691));
#44 = VECTOR('',#45,1.);
#45 = DIRECTION('',(-2.20537501261E-13,-1.,4.143907439413E-14));
#46 = ORIENTED_EDGE('',*,*,#47,.T.);
#47 = EDGE_CURVE('',#40,#24,#48,.T.);
#48 = LINE('',#49,#50);
#49 = CARTESIAN_POINT('',(111.95592559136,181.8785874803,95.198751830691
    ));
#50 = VECTOR('',#51,1.);
#51 = DIRECTION('',(-1.317298330342E-14,4.151485647138E-14,1.));
#52 = PLANE('',#53);
#53 = AXIS2_PLACEMENT_3D('',#54,#55,#56);
#54 = CARTESIAN_POINT('',(111.95592559136,181.8785874803,95.198751830691
    ));
#55 = DIRECTION('',(1.,-2.20537501261E-13,1.317298330343E-14));
#56 = DIRECTION('',(2.20537501261E-13,1.,-4.143907439413E-14));
#57 = ADVANCED_FACE('',(#58),#76,.F.);
#58 = FACE_BOUND('',#59,.F.);
#59 = EDGE_LOOP('',(#60,#61,#68,#69));
#60 = ORIENTED_EDGE('',*,*,#31,.F.);
#61 = ORIENTED_EDGE('',*,*,#62,.F.);
#62 = EDGE_CURVE('',#40,#32,#63,.T.);
#63 = CIRCLE('',#64,2.5);
#64 = AXIS2_PLACEMENT_3D('',#65,#66,#67);
#65 = CARTESIAN_POINT('',(110.01092559136,183.44924816931,
    95.198751830691));
#66 = DIRECTION('',(1.325328735646E-14,-4.143907439413E-14,-1.));
#67 = DIRECTION('',(0.778,-0.628264275604,3.634574761926E-14));
#68 = ORIENTED_EDGE('',*,*,#47,.T.);
#69 = ORIENTED_EDGE('',*,*,#70,.T.);
#70 = EDGE_CURVE('',#24,#22,#71,.T.);
#71 = CIRCLE('',#72,2.5);
#72 = AXIS2_PLACEMENT_3D('',#73,#74,#75);
#73 = CARTESIAN_POINT('',(110.01092559136,183.44924816931,
    114.54271372701));
#74 = DIRECTION('',(8.198570028001E-16,-4.930380657631E-32,-1.));
#75 = DIRECTION('',(0.778,-0.628264275604,6.378487481784E-16));
#76 = CYLINDRICAL_SURFACE('',#77,2.5);
#77 = AXIS2_PLACEMENT_3D('',#78,#79,#80);
#78 = CARTESIAN_POINT('',(110.01092559136,183.44924816931,
    95.198751830691));
#79 = DIRECTION('',(-1.317298330342E-14,4.151485647138E-14,1.));
#80 = DIRECTION('',(-1.,2.267630527797E-13,-1.317298330343E-14));
#81 = ADVANCED_FACE('',(#82),#86,.F.);
#82 = FACE_BOUND('',#83,.T.);
#83 = EDGE_LOOP('',(#84,#85));
#84 = ORIENTED_EDGE('',*,*,#39,.F.);
#85 = ORIENTED_EDGE('',*,*,#62,.F.);
#86 = PLANE('',#87);
#87 = AXIS2_PLACEMENT_3D('',#88,#89,#90);
#88 = CARTESIAN_POINT('',(109.73342559136,183.44924816931,
    95.198751830691));
#89 = DIRECTION('',(1.325328735646E-14,-4.143907439413E-14,-1.));
#90 = DIRECTION('',(1.,-3.587324068672E-43,1.325328735646E-14));
#91 = ADVANCED_FACE('',(#92,#126),#130,.T.);
#92 = FACE_BOUND('',#93,.T.);
#93 = EDGE_LOOP('',(#94,#104,#112,#120));
#94 = ORIENTED_EDGE('',*,*,#95,.F.);
#95 = EDGE_CURVE('',#96,#98,#100,.T.);
#96 = VERTEX_POINT('',#97);
#97 = CARTESIAN_POINT('',(157.18577438714,201.94289321881,
    114.54271372701));
#98 = VERTEX_POINT('',#99);
#99 = CARTESIAN_POINT('',(157.18577438714,168.05710678118,
    114.54271372701));
#100 = LINE('',#101,#102);
#101 = CARTESIAN_POINT('',(157.18577438714,176.52855339059,
    114.54271372701));
#102 = VECTOR('',#103,1.);
#103 = DIRECTION('',(2.22044604925E-16,-1.,1.820448242818E-31));
#104 = ORIENTED_EDGE('',*,*,#105,.T.);
#105 = EDGE_CURVE('',#96,#106,#108,.T.);
#106 = VERTEX_POINT('',#107);
#107 = CARTESIAN_POINT('',(92.185774387143,201.94289321881,
    114.54271372701));
#108 = LINE('',#109,#110);
#109 = CARTESIAN_POINT('',(157.18577438714,201.94289321881,
    114.54271372701));
#110 = VECTOR('',#111,1.);
#111 = DIRECTION('',(-1.,5.465713352001E-16,-8.198570028001E-16));
#112 = ORIENTED_EDGE('',*,*,#113,.F.);
#113 = EDGE_CURVE('',#114,#106,#116,.T.);
#114 = VERTEX_POINT('',#115);
#115 = CARTESIAN_POINT('',(92.185774387143,168.05710678118,
    114.54271372701));
#116 = LINE('',#117,#118);
#117 = CARTESIAN_POINT('',(92.185774387143,168.05710678118,
    114.54271372701));
#118 = VECTOR('',#119,1.);
#119 = DIRECTION('',(0.,1.,0.));
#120 = ORIENTED_EDGE('',*,*,#121,.F.);
#121 = EDGE_CURVE('',#98,#114,#122,.T.);
#122 = LINE('',#123,#124);
#123 = CARTESIAN_POINT('',(157.18577438714,168.05710678118,
    114.54271372701));
#124 = VECTOR('',#125,1.);
#125 = DIRECTION('',(-1.,5.465713352001E-16,-8.198570028001E-16));
#126 = FACE_BOUND('',#127,.T.);
#127 = EDGE_LOOP('',(#128,#129));
#128 = ORIENTED_EDGE('',*,*,#70,.T.);
#129 = ORIENTED_EDGE('',*,*,#21,.T.);
#130 = PLANE('',#131);
#131 = AXIS2_PLACEMENT_3D('',#132,#133,#134);
#132 = CARTESIAN_POINT('',(157.18577438714,168.05710678118,
    114.54271372701));
#133 = DIRECTION('',(-8.198570028001E-16,0.,1.));
#134 = DIRECTION('',(0.,1.,0.));
#135 = ADVANCED_FACE('',(#136),#161,.T.);
#136 = FACE_BOUND('',#137,.T.);
#137 = EDGE_LOOP('',(#138,#139,#147,#155));
#138 = ORIENTED_EDGE('',*,*,#113,.T.);
#139 = ORIENTED_EDGE('',*,*,#140,.T.);
#140 = EDGE_CURVE('',#106,#141,#143,.T.);
#141 = VERTEX_POINT('',#142);
#142 = CARTESIAN_POINT('',(92.185774387143,201.94289321881,
    95.164044389652));
#143 = LINE('',#144,#145);
#144 = CARTESIAN_POINT('',(92.185774387143,201.94289321881,
    117.16404438965));
#145 = VECTOR('',#146,1.);
#146 = DIRECTION('',(8.074349270001E-16,0.,-1.));
#147 = ORIENTED_EDGE('',*,*,#148,.T.);
#148 = EDGE_CURVE('',#141,#149,#151,.T.);
#149 = VERTEX_POINT('',#150);
#150 = CARTESIAN_POINT('',(92.185774387143,168.05710678118,
    95.164044389652));
#151 = LINE('',#152,#153);
#152 = CARTESIAN_POINT('',(92.185774387143,201.94289321881,
    95.164044389652));
#153 = VECTOR('',#154,1.);
#154 = DIRECTION('',(-5.242188616959E-16,-1.,0.));
#155 = ORIENTED_EDGE('',*,*,#156,.T.);
#156 = EDGE_CURVE('',#149,#114,#157,.T.);
#157 = LINE('',#158,#159);
#158 = CARTESIAN_POINT('',(92.185774387143,168.05710678118,
    95.164044389652));
#159 = VECTOR('',#160,1.);
#160 = DIRECTION('',(-4.636598830662E-44,0.,1.));
#161 = PLANE('',#162);
#162 = AXIS2_PLACEMENT_3D('',#163,#164,#165);
#163 = CARTESIAN_POINT('',(92.185774387143,185.,104.85337905833));
#164 = DIRECTION('',(-1.,5.465713352001E-16,-8.198570028001E-16));
#165 = DIRECTION('',(-8.198570028001E-16,0.,1.));
#166 = ADVANCED_FACE('',(#167,#240,#422,#433,#444,#455),#466,.F.);
#167 = FACE_BOUND('',#168,.T.);
#168 = EDGE_LOOP('',(#169,#170,#178,#186,#194,#202,#210,#218,#226,#234)
  );
#169 = ORIENTED_EDGE('',*,*,#95,.T.);
#170 = ORIENTED_EDGE('',*,*,#171,.F.);
#171 = EDGE_CURVE('',#172,#98,#174,.T.);
#172 = VERTEX_POINT('',#173);
#173 = CARTESIAN_POINT('',(157.18577438714,168.05710678118,
    117.16404438965));
#174 = LINE('',#175,#176);
#175 = CARTESIAN_POINT('',(157.18577438714,168.05710678118,
    117.16404438965));
#176 = VECTOR('',#177,1.);
#177 = DIRECTION('',(1.0496654051E-14,0.,-1.));
#178 = ORIENTED_EDGE('',*,*,#179,.F.);
#179 = EDGE_CURVE('',#180,#172,#182,.T.);
#180 = VERTEX_POINT('',#181);
#181 = CARTESIAN_POINT('',(157.18577438714,164.35,120.87115117084));
#182 = LINE('',#183,#184);
#183 = CARTESIAN_POINT('',(157.18577438714,164.35,120.87115117084));
#184 = VECTOR('',#185,1.);
#185 = DIRECTION('',(8.076163084355E-15,0.707106781187,-0.707106781187)
  );
#186 = ORIENTED_EDGE('',*,*,#187,.F.);
#187 = EDGE_CURVE('',#188,#180,#190,.T.);
#188 = VERTEX_POINT('',#189);
#189 = CARTESIAN_POINT('',(157.18577438714,164.35,154.75693760846));
#190 = LINE('',#191,#192);
#191 = CARTESIAN_POINT('',(157.18577438714,164.35,154.75693760846));
#192 = VECTOR('',#193,1.);
#193 = DIRECTION('',(1.164346397076E-14,2.585368357345E-30,-1.));
#194 = ORIENTED_EDGE('',*,*,#195,.F.);
#195 = EDGE_CURVE('',#196,#188,#198,.T.);
#196 = VERTEX_POINT('',#197);
#197 = CARTESIAN_POINT('',(157.18577438714,168.05710678118,
    158.46404438965));
#198 = LINE('',#199,#200);
#199 = CARTESIAN_POINT('',(157.18577438714,168.05710678118,
    158.46404438965));
#200 = VECTOR('',#201,1.);
#201 = DIRECTION('',(8.390181576092E-15,-0.707106781187,-0.707106781187)
  );
#202 = ORIENTED_EDGE('',*,*,#203,.F.);
#203 = EDGE_CURVE('',#204,#196,#206,.T.);
#204 = VERTEX_POINT('',#205);
#205 = CARTESIAN_POINT('',(157.18577438714,201.94289321881,
    158.46404438965));
#206 = LINE('',#207,#208);
#207 = CARTESIAN_POINT('',(157.18577438714,201.94289321881,
    158.46404438965));
#208 = VECTOR('',#209,1.);
#209 = DIRECTION('',(2.22044604925E-16,-1.,2.025314186719E-46));
#210 = ORIENTED_EDGE('',*,*,#211,.F.);
#211 = EDGE_CURVE('',#212,#204,#214,.T.);
#212 = VERTEX_POINT('',#213);
#213 = CARTESIAN_POINT('',(157.18577438714,205.65,154.75693760846));
#214 = LINE('',#215,#216);
#215 = CARTESIAN_POINT('',(157.18577438714,205.65,154.75693760846));
#216 = VECTOR('',#217,1.);
#217 = DIRECTION('',(-8.076163084355E-15,-0.707106781187,0.707106781187)
  );
#218 = ORIENTED_EDGE('',*,*,#219,.F.);
#219 = EDGE_CURVE('',#220,#212,#222,.T.);
#220 = VERTEX_POINT('',#221);
#221 = CARTESIAN_POINT('',(157.18577438714,205.65,120.87115117084));
#222 = LINE('',#223,#224);
#223 = CARTESIAN_POINT('',(157.18577438714,205.65,120.87115117084));
#224 = VECTOR('',#225,1.);
#225 = DIRECTION('',(-1.216768283245E-14,-2.701768327385E-30,1.));
#226 = ORIENTED_EDGE('',*,*,#227,.F.);
#227 = EDGE_CURVE('',#228,#220,#230,.T.);
#228 = VERTEX_POINT('',#229);
#229 = CARTESIAN_POINT('',(157.18577438714,201.94289321881,
    117.16404438965));
#230 = LINE('',#231,#232);
#231 = CARTESIAN_POINT('',(157.18577438714,201.94289321881,
    117.16404438965));
#232 = VECTOR('',#233,1.);
#233 = DIRECTION('',(-5.00189512769E-15,0.707106781187,0.707106781187));
#234 = ORIENTED_EDGE('',*,*,#235,.T.);
#235 = EDGE_CURVE('',#228,#96,#236,.T.);
#236 = LINE('',#237,#238);
#237 = CARTESIAN_POINT('',(157.18577438714,201.94289321881,
    117.16404438965));
#238 = VECTOR('',#239,1.);
#239 = DIRECTION('',(1.0496654051E-14,0.,-1.));
#240 = FACE_BOUND('',#241,.T.);
#241 = EDGE_LOOP('',(#242,#334));
#242 = ORIENTED_EDGE('',*,*,#243,.F.);
#243 = EDGE_CURVE('',#244,#246,#248,.T.);
#244 = VERTEX_POINT('',#245);
#245 = CARTESIAN_POINT('',(157.18577438714,185.,126.31404438965));
#246 = VERTEX_POINT('',#247);
#247 = CARTESIAN_POINT('',(157.18577438714,185.,149.31404438965));
#248 = B_SPLINE_CURVE_WITH_KNOTS('',3,(#249,#250,#251,#252,#253,#254,
    #255,#256,#257,#258,#259,#260,#261,#262,#263,#264,#265,#266,#267,
    #268,#269,#270,#271,#272,#273,#274,#275,#276,#277,#278,#279,#280,
    #281,#282,#283,#284,#285,#286,#287,#288,#289,#290,#291,#292,#293,
    #294,#295,#296,#297,#298,#299,#300,#301,#302,#303,#304,#305,#306,
    #307,#308,#309,#310,#311,#312,#313,#314,#315,#316,#317,#318,#319,
    #320,#321,#322,#323,#324,#325,#326,#327,#328,#329,#330,#331,#332,
    #333),.UNSPECIFIED.,.F.,.F.,(4,3,3,3,3,3,3,3,3,3,3,3,3,3,3,3,3,3,3,3
    ,3,3,3,3,3,3,3,3,4),(0.,6.0546875E-02,6.25E-02,0.12109375,0.125,
    0.1796875,0.1875,0.25,0.3046875,0.3125,0.37109375,0.375,0.435546875,
    0.4375,0.5,0.560546875,0.5625,0.62109375,0.625,0.6796875,0.6875,0.75
    ,0.8046875,0.8125,0.87109375,0.875,0.935546875,0.9375,1.),
  .UNSPECIFIED.);
#249 = CARTESIAN_POINT('',(157.18577438714,185.,126.31404438965));
#250 = CARTESIAN_POINT('',(157.18577438714,184.31875688907,
    126.31404438965));
#251 = CARTESIAN_POINT('',(157.18577438714,183.64285727164,
    126.37410393009));
#252 = CARTESIAN_POINT('',(157.18577438714,182.97230077314,
    126.49422089719));
#253 = CARTESIAN_POINT('',(157.18577438714,182.95066991835,
    126.49809563806));
#254 = CARTESIAN_POINT('',(157.18577438714,182.93033514634,
    126.50179414513));
#255 = CARTESIAN_POINT('',(157.18577438714,182.90742508593,
    126.50603367244));
#256 = CARTESIAN_POINT('',(157.18577438714,182.22012327362,
    126.63321949164));
#257 = CARTESIAN_POINT('',(157.18577438714,181.55007351563,
    126.82148559681));
#258 = CARTESIAN_POINT('',(157.18577438714,180.89724459944,
    127.07079658252));
#259 = CARTESIAN_POINT('',(157.18577438714,180.8537226717,127.0874173149
    ));
#260 = CARTESIAN_POINT('',(157.18577438714,180.81205811015,
    127.10360787957));
#261 = CARTESIAN_POINT('',(157.18577438714,180.766911589,127.12148081928
    ));
#262 = CARTESIAN_POINT('',(157.18577438713,180.13486029297,
    127.37170197528));
#263 = CARTESIAN_POINT('',(157.18577438714,179.53022136504,
    127.67539115104));
#264 = CARTESIAN_POINT('',(157.18577438714,178.95284608401,
    128.03233035189));
#265 = CARTESIAN_POINT('',(157.18577438714,178.87036390101,
    128.0833216663));
#266 = CARTESIAN_POINT('',(157.18577438716,178.79011527749,
    128.13431993656));
#267 = CARTESIAN_POINT('',(157.18577438715,178.7070900713,
    128.18859942958));
#268 = CARTESIAN_POINT('',(157.18577438712,178.04288842175,
    128.62283537372));
#269 = CARTESIAN_POINT('',(157.18577438813,177.42942363318,
    129.12121733826));
#270 = CARTESIAN_POINT('',(157.18577438744,176.86828427776,
    129.68232866741));
#271 = CARTESIAN_POINT('',(157.18577438684,176.37728734176,
    130.17330108042));
#272 = CARTESIAN_POINT('',(157.18577438714,175.9347891647,
    130.70400896882));
#273 = CARTESIAN_POINT('',(157.18577438714,175.54053249985,
    131.27428333792));
#274 = CARTESIAN_POINT('',(157.18577438714,175.48421011916,
    131.35575110493));
#275 = CARTESIAN_POINT('',(157.18577438716,175.42769562682,
    131.43985298111));
#276 = CARTESIAN_POINT('',(157.18577438715,175.37455494356,
    131.52113439795));
#277 = CARTESIAN_POINT('',(157.18577438712,174.9759998191,
    132.13074502427));
#278 = CARTESIAN_POINT('',(157.18577438714,174.63848257145,
    132.77231276999));
#279 = CARTESIAN_POINT('',(157.18577438714,174.36192536555,
    133.44582391213));
#280 = CARTESIAN_POINT('',(157.18577438714,174.34348821849,
    133.49072465494));
#281 = CARTESIAN_POINT('',(157.18577438714,174.3245889736,133.5376296911
    ));
#282 = CARTESIAN_POINT('',(157.18577438714,174.30743636518,
    133.58095595314));
#283 = CARTESIAN_POINT('',(157.18577438713,174.0415709347,
    134.25251301469));
#284 = CARTESIAN_POINT('',(157.18577438714,173.84071320093,
    134.94309615877));
#285 = CARTESIAN_POINT('',(157.18577438714,173.70492536949,
    135.65273499162));
#286 = CARTESIAN_POINT('',(157.18577438714,173.70054511686,
    135.67562656688));
#287 = CARTESIAN_POINT('',(157.18577438714,173.69598700415,
    135.69986614819));
#288 = CARTESIAN_POINT('',(157.18577438714,173.6919892266,
    135.72146946519));
#289 = CARTESIAN_POINT('',(157.18577438714,173.5640603452,
    136.41277560916));
#290 = CARTESIAN_POINT('',(157.18577438792,173.50003242225,
    137.1110019189));
#291 = CARTESIAN_POINT('',(157.18577438739,173.50001595375,
    137.81404438965));
#292 = CARTESIAN_POINT('',(157.18577438688,173.49999999989,
    138.49511678319));
#293 = CARTESIAN_POINT('',(157.18577438714,173.56002909173,139.171011696
    ));
#294 = CARTESIAN_POINT('',(157.18577438714,173.68017362362,
    139.84172768947));
#295 = CARTESIAN_POINT('',(157.18577438714,173.68404925368,
    139.86336368925));
#296 = CARTESIAN_POINT('',(157.18577438714,173.68774975548,
    139.8837092433));
#297 = CARTESIAN_POINT('',(157.18577438714,173.69198928279,
    139.90661930371));
#298 = CARTESIAN_POINT('',(157.18577438714,173.81917510198,
    140.59392111602));
#299 = CARTESIAN_POINT('',(157.18577438714,174.00744120716,141.263970874
    ));
#300 = CARTESIAN_POINT('',(157.18577438714,174.25675219286,
    141.9167997902));
#301 = CARTESIAN_POINT('',(157.18577438714,174.27337292524,
    141.96032171795));
#302 = CARTESIAN_POINT('',(157.18577438714,174.28956348991,
    142.0019862795));
#303 = CARTESIAN_POINT('',(157.18577438714,174.30743642963,
    142.04713280064));
#304 = CARTESIAN_POINT('',(157.18577438713,174.55765758563,
    142.67918409667));
#305 = CARTESIAN_POINT('',(157.18577438714,174.86134676138,
    143.2838230246));
#306 = CARTESIAN_POINT('',(157.18577438714,175.21828596224,
    143.86119830563));
#307 = CARTESIAN_POINT('',(157.18577438714,175.26927727665,
    143.94368048864));
#308 = CARTESIAN_POINT('',(157.18577438716,175.32027554691,
    144.02392911215));
#309 = CARTESIAN_POINT('',(157.18577438715,175.37455503993,
    144.10695431834));
#310 = CARTESIAN_POINT('',(157.18577438712,175.80879098406,
    144.77115596789));
#311 = CARTESIAN_POINT('',(157.18577438813,176.30717294861,
    145.38462075647));
#312 = CARTESIAN_POINT('',(157.18577438744,176.86828427776,
    145.94576011189));
#313 = CARTESIAN_POINT('',(157.18577438684,177.35925669076,
    146.43675704788));
#314 = CARTESIAN_POINT('',(157.18577438714,177.88996457916,
    146.87925522494));
#315 = CARTESIAN_POINT('',(157.18577438714,178.46023894826,
    147.27351188979));
#316 = CARTESIAN_POINT('',(157.18577438714,178.54170671528,
    147.32983427048));
#317 = CARTESIAN_POINT('',(157.18577438716,178.62580859146,
    147.38634876282));
#318 = CARTESIAN_POINT('',(157.18577438715,178.7070900083,
    147.43948944608));
#319 = CARTESIAN_POINT('',(157.18577438712,179.31670063462,
    147.83804457055));
#320 = CARTESIAN_POINT('',(157.18577438714,179.95826838033,
    148.17556181819));
#321 = CARTESIAN_POINT('',(157.18577438714,180.63177952247,
    148.4521190241));
#322 = CARTESIAN_POINT('',(157.18577438714,180.67668026528,
    148.47055617116));
#323 = CARTESIAN_POINT('',(157.18577438714,180.72358530145,
    148.48945541605));
#324 = CARTESIAN_POINT('',(157.18577438714,180.76691156349,
    148.50660802447));
#325 = CARTESIAN_POINT('',(157.18577438713,181.43846862504,
    148.77247345495));
#326 = CARTESIAN_POINT('',(157.18577438714,182.12905176912,
    148.97333118872));
#327 = CARTESIAN_POINT('',(157.18577438714,182.83869060197,
    149.10911902016));
#328 = CARTESIAN_POINT('',(157.18577438714,182.86158217722,
    149.11349927279));
#329 = CARTESIAN_POINT('',(157.18577438714,182.88581627932,
    149.1180563713));
#330 = CARTESIAN_POINT('',(157.18577438714,182.90742507558,
    149.1220551628));
#331 = CARTESIAN_POINT('',(157.18577438714,183.59890655591,
    149.25001649088));
#332 = CARTESIAN_POINT('',(157.18577438714,184.29642576439,
    149.31404438965));
#333 = CARTESIAN_POINT('',(157.18577438714,185.,149.31404438965));
#334 = ORIENTED_EDGE('',*,*,#335,.F.);
#335 = EDGE_CURVE('',#246,#244,#336,.T.);
#336 = B_SPLINE_CURVE_WITH_KNOTS('',3,(#337,#338,#339,#340,#341,#342,
    #343,#344,#345,#346,#347,#348,#349,#350,#351,#352,#353,#354,#355,
    #356,#357,#358,#359,#360,#361,#362,#363,#364,#365,#366,#367,#368,
    #369,#370,#371,#372,#373,#374,#375,#376,#377,#378,#379,#380,#381,
    #382,#383,#384,#385,#386,#387,#388,#389,#390,#391,#392,#393,#394,
    #395,#396,#397,#398,#399,#400,#401,#402,#403,#404,#405,#406,#407,
    #408,#409,#410,#411,#412,#413,#414,#415,#416,#417,#418,#419,#420,
    #421),.UNSPECIFIED.,.F.,.F.,(4,3,3,3,3,3,3,3,3,3,3,3,3,3,3,3,3,3,3,3
    ,3,3,3,3,3,3,3,3,4),(0.,6.0546875E-02,6.25E-02,0.12109375,0.125,
    0.1796875,0.1875,0.25,0.3046875,0.3125,0.37109375,0.375,0.435546875,
    0.4375,0.5,0.560546875,0.5625,0.62109375,0.625,0.6796875,0.6875,0.75
    ,0.8046875,0.8125,0.87109375,0.875,0.935546875,0.9375,1.),
  .UNSPECIFIED.);
#337 = CARTESIAN_POINT('',(157.18577438714,185.,149.31404438965));
#338 = CARTESIAN_POINT('',(157.18577438714,185.68124311093,
    149.31404438965));
#339 = CARTESIAN_POINT('',(157.18577438714,186.35714272836,
    149.25398484921));
#340 = CARTESIAN_POINT('',(157.18577438714,187.02769922685,
    149.13386788211));
#341 = CARTESIAN_POINT('',(157.18577438714,187.04933008164,
    149.12999314123));
#342 = CARTESIAN_POINT('',(157.18577438714,187.06966485365,
    149.12629463417));
#343 = CARTESIAN_POINT('',(157.18577438714,187.09257491406,
    149.12205510686));
#344 = CARTESIAN_POINT('',(157.18577438714,187.77987672638,
    148.99486928766));
#345 = CARTESIAN_POINT('',(157.18577438714,188.44992648436,
    148.80660318248));
#346 = CARTESIAN_POINT('',(157.18577438714,189.10275540055,
    148.55729219678));
#347 = CARTESIAN_POINT('',(157.18577438714,189.1462773283,148.5406714644
    ));
#348 = CARTESIAN_POINT('',(157.18577438714,189.18794188985,
    148.52448089973));
#349 = CARTESIAN_POINT('',(157.18577438714,189.23308841099,
    148.50660796002));
#350 = CARTESIAN_POINT('',(157.18577438713,189.86513970702,
    148.25638680402));
#351 = CARTESIAN_POINT('',(157.18577438714,190.46977863495,
    147.95269762826));
#352 = CARTESIAN_POINT('',(157.18577438714,191.04715391598,
    147.5957584274));
#353 = CARTESIAN_POINT('',(157.18577438714,191.12963609898,
    147.54476711299));
#354 = CARTESIAN_POINT('',(157.18577438716,191.2098847225,
    147.49376884273));
#355 = CARTESIAN_POINT('',(157.18577438715,191.29290992869,
    147.43948934972));
#356 = CARTESIAN_POINT('',(157.18577438712,191.95711157823,
    147.00525340558));
#357 = CARTESIAN_POINT('',(157.18577438813,192.57057636682,
    146.50687144103));
#358 = CARTESIAN_POINT('',(157.18577438744,193.13171572223,
    145.94576011189));
#359 = CARTESIAN_POINT('',(157.18577438684,193.62271265822,
    145.45478769889));
#360 = CARTESIAN_POINT('',(157.18577438714,194.06521083528,
    144.92407981049));
#361 = CARTESIAN_POINT('',(157.18577438714,194.45946750013,
    144.35380544139));
#362 = CARTESIAN_POINT('',(157.18577438714,194.51578988083,
    144.27233767437));
#363 = CARTESIAN_POINT('',(157.18577438716,194.57230437316,
    144.18823579819));
#364 = CARTESIAN_POINT('',(157.18577438715,194.62544505643,
    144.10695438135));
#365 = CARTESIAN_POINT('',(157.18577438712,195.0240001809,
    143.49734375501));
#366 = CARTESIAN_POINT('',(157.18577438714,195.36151742855,
    142.85577600929));
#367 = CARTESIAN_POINT('',(157.18577438714,195.63807463445,
    142.18226486717));
#368 = CARTESIAN_POINT('',(157.18577438714,195.65651178151,
    142.13736412436));
#369 = CARTESIAN_POINT('',(157.18577438714,195.67541102639,
    142.0904590882));
#370 = CARTESIAN_POINT('',(157.18577438714,195.69256363481,
    142.04713282616));
#371 = CARTESIAN_POINT('',(157.18577438713,195.95842906531,
    141.37557576458));
#372 = CARTESIAN_POINT('',(157.18577438714,196.15928679907,
    140.6849926205));
#373 = CARTESIAN_POINT('',(157.18577438714,196.29507463051,
    139.97535378767));
#374 = CARTESIAN_POINT('',(157.18577438714,196.29945488313,
    139.95246221242));
#375 = CARTESIAN_POINT('',(157.18577438714,196.30401299585,
    139.92822263111));
#376 = CARTESIAN_POINT('',(157.18577438714,196.30801077339,
    139.90661931411));
#377 = CARTESIAN_POINT('',(157.18577438714,196.4359396548,
    139.21531317013));
#378 = CARTESIAN_POINT('',(157.18577438792,196.49996757774,
    138.51708686041));
#379 = CARTESIAN_POINT('',(157.18577438739,196.49998404624,
    137.81404438965));
#380 = CARTESIAN_POINT('',(157.18577438688,196.5000000001,137.1329719961
    ));
#381 = CARTESIAN_POINT('',(157.18577438714,196.43997090826,
    136.45707708329));
#382 = CARTESIAN_POINT('',(157.18577438714,196.31982637637,
    135.78636108983));
#383 = CARTESIAN_POINT('',(157.18577438714,196.31595074631,
    135.76472509004));
#384 = CARTESIAN_POINT('',(157.18577438714,196.31225024451,135.744379536
    ));
#385 = CARTESIAN_POINT('',(157.18577438714,196.30801071721,
    135.72146947559));
#386 = CARTESIAN_POINT('',(157.18577438714,196.180824898,135.03416766326
    ));
#387 = CARTESIAN_POINT('',(157.18577438714,195.99255879282,
    134.36411790527));
#388 = CARTESIAN_POINT('',(157.18577438714,195.74324780713,
    133.71128898909));
#389 = CARTESIAN_POINT('',(157.18577438714,195.72662707475,
    133.66776706135));
#390 = CARTESIAN_POINT('',(157.18577438714,195.71043651008,
    133.6261024998));
#391 = CARTESIAN_POINT('',(157.18577438714,195.69256357036,
    133.58095597865));
#392 = CARTESIAN_POINT('',(157.18577438713,195.44234241436,
    132.94890468261));
#393 = CARTESIAN_POINT('',(157.18577438714,195.1386532386,
    132.34426575468));
#394 = CARTESIAN_POINT('',(157.18577438714,194.78171403775,
    131.76689047366));
#395 = CARTESIAN_POINT('',(157.18577438714,194.73072272334,
    131.68440829066));
#396 = CARTESIAN_POINT('',(157.18577438716,194.67972445308,
    131.60415966715));
#397 = CARTESIAN_POINT('',(157.18577438715,194.62544496006,
    131.52113446095));
#398 = CARTESIAN_POINT('',(157.18577438712,194.19120901592,
    130.85693281141));
#399 = CARTESIAN_POINT('',(157.18577438813,193.69282705139,
    130.24346802283));
#400 = CARTESIAN_POINT('',(157.18577438744,193.13171572223,
    129.68232866741));
#401 = CARTESIAN_POINT('',(157.18577438684,192.64074330923,
    129.19133173141));
#402 = CARTESIAN_POINT('',(157.18577438714,192.11003542083,
    128.74883355435));
#403 = CARTESIAN_POINT('',(157.18577438714,191.53976105173,
    128.35457688951));
#404 = CARTESIAN_POINT('',(157.18577438714,191.45829328471,
    128.29825450882));
#405 = CARTESIAN_POINT('',(157.18577438716,191.37419140854,
    128.24174001648));
#406 = CARTESIAN_POINT('',(157.18577438715,191.29290999169,
    128.18859933322));
#407 = CARTESIAN_POINT('',(157.18577438712,190.68329936535,
    127.79004420874));
#408 = CARTESIAN_POINT('',(157.18577438714,190.04173161963,
    127.45252696109));
#409 = CARTESIAN_POINT('',(157.18577438714,189.36822047751,
    127.1759697552));
#410 = CARTESIAN_POINT('',(157.18577438714,189.32331973471,
    127.15753260814));
#411 = CARTESIAN_POINT('',(157.18577438714,189.27641469854,
    127.13863336325));
#412 = CARTESIAN_POINT('',(157.18577438714,189.23308843651,
    127.12148075483));
#413 = CARTESIAN_POINT('',(157.18577438713,188.56153137493,
    126.85561532434));
#414 = CARTESIAN_POINT('',(157.18577438714,187.87094823085,
    126.65475759057));
#415 = CARTESIAN_POINT('',(157.18577438714,187.16130939802,
    126.51896975914));
#416 = CARTESIAN_POINT('',(157.18577438714,187.13841782276,
    126.51458950651));
#417 = CARTESIAN_POINT('',(157.18577438714,187.11418372067,126.510032408
    ));
#418 = CARTESIAN_POINT('',(157.18577438714,187.09257492441,
    126.5060336165));
#419 = CARTESIAN_POINT('',(157.18577438714,186.40109344408,
    126.37807228842));
#420 = CARTESIAN_POINT('',(157.18577438714,185.7035742356,
    126.31404438965));
#421 = CARTESIAN_POINT('',(157.18577438714,185.,126.31404438965));
#422 = FACE_BOUND('',#423,.T.);
#423 = EDGE_LOOP('',(#424));
#424 = ORIENTED_EDGE('',*,*,#425,.F.);
#425 = EDGE_CURVE('',#426,#426,#428,.T.);
#426 = VERTEX_POINT('',#427);
#427 = CARTESIAN_POINT('',(157.18577438714,199.25,153.31404438965));
#428 = CIRCLE('',#429,1.25);
#429 = AXIS2_PLACEMENT_3D('',#430,#431,#432);
#430 = CARTESIAN_POINT('',(157.18577438714,200.5,153.31404438965));
#431 = DIRECTION('',(-1.,-2.22044604925E-16,-1.164346397076E-14));
#432 = DIRECTION('',(-2.22044604925E-16,1.,-3.503246160812E-46));
#433 = FACE_BOUND('',#434,.T.);
#434 = EDGE_LOOP('',(#435));
#435 = ORIENTED_EDGE('',*,*,#436,.F.);
#436 = EDGE_CURVE('',#437,#437,#439,.T.);
#437 = VERTEX_POINT('',#438);
#438 = CARTESIAN_POINT('',(157.18577438714,199.25,122.31404438965));
#439 = CIRCLE('',#440,1.25);
#440 = AXIS2_PLACEMENT_3D('',#441,#442,#443);
#441 = CARTESIAN_POINT('',(157.18577438714,200.5,122.31404438965));
#442 = DIRECTION('',(-1.,-2.22044604925E-16,-1.164346397076E-14));
#443 = DIRECTION('',(-2.22044604925E-16,1.,-3.503246160812E-46));
#444 = FACE_BOUND('',#445,.T.);
#445 = EDGE_LOOP('',(#446));
#446 = ORIENTED_EDGE('',*,*,#447,.F.);
#447 = EDGE_CURVE('',#448,#448,#450,.T.);
#448 = VERTEX_POINT('',#449);
#449 = CARTESIAN_POINT('',(157.18577438714,168.25,153.31404438965));
#450 = CIRCLE('',#451,1.25);
#451 = AXIS2_PLACEMENT_3D('',#452,#453,#454);
#452 = CARTESIAN_POINT('',(157.18577438714,169.5,153.31404438965));
#453 = DIRECTION('',(-1.,-2.22044604925E-16,-1.164346397076E-14));
#454 = DIRECTION('',(-2.22044604925E-16,1.,-3.503246160812E-46));
#455 = FACE_BOUND('',#456,.T.);
#456 = EDGE_LOOP('',(#457));
#457 = ORIENTED_EDGE('',*,*,#458,.F.);
#458 = EDGE_CURVE('',#459,#459,#461,.T.);
#459 = VERTEX_POINT('',#460);
#460 = CARTESIAN_POINT('',(157.18577438714,168.25,122.31404438965));
#461 = CIRCLE('',#462,1.25);
#462 = AXIS2_PLACEMENT_3D('',#463,#464,#465);
#463 = CARTESIAN_POINT('',(157.18577438714,169.5,122.31404438965));
#464 = DIRECTION('',(-1.,-2.22044604925E-16,-1.164346397076E-14));
#465 = DIRECTION('',(-2.22044604925E-16,1.,-3.503246160812E-46));
#466 = PLANE('',#467);
#467 = AXIS2_PLACEMENT_3D('',#468,#469,#470);
#468 = CARTESIAN_POINT('',(157.18577438714,185.,137.81404438965));
#469 = DIRECTION('',(1.,2.22044604925E-16,1.164346397076E-14));
#470 = DIRECTION('',(-2.22044604925E-16,1.,2.136980158095E-44));
#471 = ADVANCED_FACE('',(#472),#499,.T.);
#472 = FACE_BOUND('',#473,.T.);
#473 = EDGE_LOOP('',(#474,#482,#483,#484,#485,#493));
#474 = ORIENTED_EDGE('',*,*,#475,.F.);
#475 = EDGE_CURVE('',#172,#476,#478,.T.);
#476 = VERTEX_POINT('',#477);
#477 = CARTESIAN_POINT('',(162.18577438714,168.05710678118,
    117.16404438965));
#478 = LINE('',#479,#480);
#479 = CARTESIAN_POINT('',(157.18577438714,168.05710678118,
    117.16404438965));
#480 = VECTOR('',#481,1.);
#481 = DIRECTION('',(1.,0.,1.06581410364E-14));
#482 = ORIENTED_EDGE('',*,*,#171,.T.);
#483 = ORIENTED_EDGE('',*,*,#121,.T.);
#484 = ORIENTED_EDGE('',*,*,#156,.F.);
#485 = ORIENTED_EDGE('',*,*,#486,.F.);
#486 = EDGE_CURVE('',#487,#149,#489,.T.);
#487 = VERTEX_POINT('',#488);
#488 = CARTESIAN_POINT('',(162.18577438714,168.05710678118,
    95.164044389654));
#489 = LINE('',#490,#491);
#490 = CARTESIAN_POINT('',(157.18577438714,168.05710678118,
    95.164044389654));
#491 = VECTOR('',#492,1.);
#492 = DIRECTION('',(-1.,0.,-1.06581410364E-14));
#493 = ORIENTED_EDGE('',*,*,#494,.F.);
#494 = EDGE_CURVE('',#476,#487,#495,.T.);
#495 = LINE('',#496,#497);
#496 = CARTESIAN_POINT('',(162.18577438714,168.05710678118,
    117.16404438965));
#497 = VECTOR('',#498,1.);
#498 = DIRECTION('',(1.0496654051E-14,0.,-1.));
#499 = PLANE('',#500);
#500 = AXIS2_PLACEMENT_3D('',#501,#502,#503);
#501 = CARTESIAN_POINT('',(162.18577438714,168.05710678118,
    117.16404438965));
#502 = DIRECTION('',(0.,-1.,0.));
#503 = DIRECTION('',(-1.,-0.,-1.06581410364E-14));
#504 = ADVANCED_FACE('',(#505),#532,.T.);
#505 = FACE_BOUND('',#506,.T.);
#506 = EDGE_LOOP('',(#507,#515,#523,#529,#530,#531));
#507 = ORIENTED_EDGE('',*,*,#508,.T.);
#508 = EDGE_CURVE('',#228,#509,#511,.T.);
#509 = VERTEX_POINT('',#510);
#510 = CARTESIAN_POINT('',(162.18577438714,201.94289321881,
    117.16404438965));
#511 = LINE('',#512,#513);
#512 = CARTESIAN_POINT('',(157.18577438714,201.94289321881,
    117.16404438965));
#513 = VECTOR('',#514,1.);
#514 = DIRECTION('',(1.,0.,1.06581410364E-14));
#515 = ORIENTED_EDGE('',*,*,#516,.T.);
#516 = EDGE_CURVE('',#509,#517,#519,.T.);
#517 = VERTEX_POINT('',#518);
#518 = CARTESIAN_POINT('',(162.18577438714,201.94289321881,
    95.164044389654));
#519 = LINE('',#520,#521);
#520 = CARTESIAN_POINT('',(162.18577438714,201.94289321881,
    117.16404438965));
#521 = VECTOR('',#522,1.);
#522 = DIRECTION('',(1.0496654051E-14,0.,-1.));
#523 = ORIENTED_EDGE('',*,*,#524,.T.);
#524 = EDGE_CURVE('',#517,#141,#525,.T.);
#525 = LINE('',#526,#527);
#526 = CARTESIAN_POINT('',(157.18577438714,201.94289321881,
    95.164044389652));
#527 = VECTOR('',#528,1.);
#528 = DIRECTION('',(-1.,5.465713352001E-16,-8.198570028001E-16));
#529 = ORIENTED_EDGE('',*,*,#140,.F.);
#530 = ORIENTED_EDGE('',*,*,#105,.F.);
#531 = ORIENTED_EDGE('',*,*,#235,.F.);
#532 = PLANE('',#533);
#533 = AXIS2_PLACEMENT_3D('',#534,#535,#536);
#534 = CARTESIAN_POINT('',(157.18577438714,201.94289321881,
    117.16404438965));
#535 = DIRECTION('',(0.,1.,0.));
#536 = DIRECTION('',(1.,-0.,1.06581410364E-14));
#537 = ADVANCED_FACE('',(#538),#549,.T.);
#538 = FACE_BOUND('',#539,.T.);
#539 = EDGE_LOOP('',(#540,#541,#547,#548));
#540 = ORIENTED_EDGE('',*,*,#524,.F.);
#541 = ORIENTED_EDGE('',*,*,#542,.T.);
#542 = EDGE_CURVE('',#517,#487,#543,.T.);
#543 = LINE('',#544,#545);
#544 = CARTESIAN_POINT('',(162.18577438714,168.05710678118,
    95.164044389654));
#545 = VECTOR('',#546,1.);
#546 = DIRECTION('',(2.22044604925E-16,-1.,2.764893320853E-45));
#547 = ORIENTED_EDGE('',*,*,#486,.T.);
#548 = ORIENTED_EDGE('',*,*,#148,.F.);
#549 = PLANE('',#550);
#550 = AXIS2_PLACEMENT_3D('',#551,#552,#553);
#551 = CARTESIAN_POINT('',(157.18577438714,168.05710678118,
    95.164044389654));
#552 = DIRECTION('',(1.0496654051E-14,0.,-1.));
#553 = DIRECTION('',(-1.,0.,-1.0496654051E-14));
#554 = ADVANCED_FACE('',(#555),#662,.T.);
#555 = FACE_BOUND('',#556,.T.);
#556 = EDGE_LOOP('',(#557,#558,#566,#656));
#557 = ORIENTED_EDGE('',*,*,#335,.T.);
#558 = ORIENTED_EDGE('',*,*,#559,.T.);
#559 = EDGE_CURVE('',#244,#560,#562,.T.);
#560 = VERTEX_POINT('',#561);
#561 = CARTESIAN_POINT('',(162.18577438714,185.,126.31404438965));
#562 = LINE('',#563,#564);
#563 = CARTESIAN_POINT('',(157.18577438714,185.,126.31404438965));
#564 = VECTOR('',#565,1.);
#565 = DIRECTION('',(1.,0.,1.06581410364E-14));
#566 = ORIENTED_EDGE('',*,*,#567,.F.);
#567 = EDGE_CURVE('',#568,#560,#570,.T.);
#568 = VERTEX_POINT('',#569);
#569 = CARTESIAN_POINT('',(162.18577438714,185.,149.31404438965));
#570 = B_SPLINE_CURVE_WITH_KNOTS('',3,(#571,#572,#573,#574,#575,#576,
    #577,#578,#579,#580,#581,#582,#583,#584,#585,#586,#587,#588,#589,
    #590,#591,#592,#593,#594,#595,#596,#597,#598,#599,#600,#601,#602,
    #603,#604,#605,#606,#607,#608,#609,#610,#611,#612,#613,#614,#615,
    #616,#617,#618,#619,#620,#621,#622,#623,#624,#625,#626,#627,#628,
    #629,#630,#631,#632,#633,#634,#635,#636,#637,#638,#639,#640,#641,
    #642,#643,#644,#645,#646,#647,#648,#649,#650,#651,#652,#653,#654,
    #655),.UNSPECIFIED.,.F.,.F.,(4,3,3,3,3,3,3,3,3,3,3,3,3,3,3,3,3,3,3,3
    ,3,3,3,3,3,3,3,3,4),(0.,6.0546875E-02,6.25E-02,0.12109375,0.125,
    0.1796875,0.1875,0.25,0.3046875,0.3125,0.37109375,0.375,0.435546875,
    0.4375,0.5,0.560546875,0.5625,0.62109375,0.625,0.6796875,0.6875,0.75
    ,0.8046875,0.8125,0.87109375,0.875,0.935546875,0.9375,1.),
  .UNSPECIFIED.);
#571 = CARTESIAN_POINT('',(162.18577438714,185.,149.31404438965));
#572 = CARTESIAN_POINT('',(162.18577438714,185.68124311093,
    149.31404438965));
#573 = CARTESIAN_POINT('',(162.18577438714,186.35714272836,
    149.25398484921));
#574 = CARTESIAN_POINT('',(162.18577438714,187.02769922685,
    149.13386788211));
#575 = CARTESIAN_POINT('',(162.18577438714,187.04933008164,
    149.12999314124));
#576 = CARTESIAN_POINT('',(162.18577438714,187.06966485365,
    149.12629463417));
#577 = CARTESIAN_POINT('',(162.18577438714,187.09257491406,
    149.12205510686));
#578 = CARTESIAN_POINT('',(162.18577438714,187.77987672638,
    148.99486928766));
#579 = CARTESIAN_POINT('',(162.18577438714,188.44992648436,
    148.80660318248));
#580 = CARTESIAN_POINT('',(162.18577438714,189.10275540055,
    148.55729219678));
#581 = CARTESIAN_POINT('',(162.18577438714,189.1462773283,148.5406714644
    ));
#582 = CARTESIAN_POINT('',(162.18577438714,189.18794188985,
    148.52448089973));
#583 = CARTESIAN_POINT('',(162.18577438714,189.23308841099,
    148.50660796002));
#584 = CARTESIAN_POINT('',(162.18577438713,189.86513970702,
    148.25638680402));
#585 = CARTESIAN_POINT('',(162.18577438714,190.46977863495,
    147.95269762826));
#586 = CARTESIAN_POINT('',(162.18577438714,191.04715391598,
    147.5957584274));
#587 = CARTESIAN_POINT('',(162.18577438714,191.12963609898,147.544767113
    ));
#588 = CARTESIAN_POINT('',(162.18577438716,191.2098847225,
    147.49376884273));
#589 = CARTESIAN_POINT('',(162.18577438715,191.29290992869,
    147.43948934972));
#590 = CARTESIAN_POINT('',(162.18577438712,191.95711157823,
    147.00525340558));
#591 = CARTESIAN_POINT('',(162.18577438813,192.57057636682,
    146.50687144103));
#592 = CARTESIAN_POINT('',(162.18577438744,193.13171572223,
    145.94576011189));
#593 = CARTESIAN_POINT('',(162.18577438684,193.62271265822,
    145.45478769889));
#594 = CARTESIAN_POINT('',(162.18577438714,194.06521083528,
    144.92407981049));
#595 = CARTESIAN_POINT('',(162.18577438714,194.45946750013,
    144.35380544139));
#596 = CARTESIAN_POINT('',(162.18577438714,194.51578988083,
    144.27233767437));
#597 = CARTESIAN_POINT('',(162.18577438716,194.57230437316,
    144.18823579819));
#598 = CARTESIAN_POINT('',(162.18577438715,194.62544505643,
    144.10695438135));
#599 = CARTESIAN_POINT('',(162.18577438712,195.0240001809,
    143.49734375501));
#600 = CARTESIAN_POINT('',(162.18577438714,195.36151742855,
    142.85577600929));
#601 = CARTESIAN_POINT('',(162.18577438714,195.63807463445,
    142.18226486717));
#602 = CARTESIAN_POINT('',(162.18577438714,195.65651178151,
    142.13736412436));
#603 = CARTESIAN_POINT('',(162.18577438714,195.67541102639,
    142.0904590882));
#604 = CARTESIAN_POINT('',(162.18577438714,195.69256363481,
    142.04713282616));
#605 = CARTESIAN_POINT('',(162.18577438713,195.95842906531,
    141.37557576458));
#606 = CARTESIAN_POINT('',(162.18577438714,196.15928679907,
    140.6849926205));
#607 = CARTESIAN_POINT('',(162.18577438714,196.29507463051,
    139.97535378767));
#608 = CARTESIAN_POINT('',(162.18577438714,196.29945488313,
    139.95246221242));
#609 = CARTESIAN_POINT('',(162.18577438714,196.30401299585,
    139.92822263111));
#610 = CARTESIAN_POINT('',(162.18577438714,196.30801077339,
    139.90661931411));
#611 = CARTESIAN_POINT('',(162.18577438714,196.4359396548,
    139.21531317013));
#612 = CARTESIAN_POINT('',(162.18577438792,196.49996757774,
    138.51708686041));
#613 = CARTESIAN_POINT('',(162.18577438739,196.49998404624,
    137.81404438965));
#614 = CARTESIAN_POINT('',(162.18577438688,196.5000000001,137.1329719961
    ));
#615 = CARTESIAN_POINT('',(162.18577438714,196.43997090826,
    136.45707708329));
#616 = CARTESIAN_POINT('',(162.18577438714,196.31982637637,
    135.78636108983));
#617 = CARTESIAN_POINT('',(162.18577438714,196.31595074631,
    135.76472509004));
#618 = CARTESIAN_POINT('',(162.18577438714,196.31225024451,135.744379536
    ));
#619 = CARTESIAN_POINT('',(162.18577438714,196.30801071721,
    135.72146947559));
#620 = CARTESIAN_POINT('',(162.18577438714,196.180824898,135.03416766326
    ));
#621 = CARTESIAN_POINT('',(162.18577438714,195.99255879282,
    134.36411790527));
#622 = CARTESIAN_POINT('',(162.18577438714,195.74324780713,
    133.71128898909));
#623 = CARTESIAN_POINT('',(162.18577438714,195.72662707475,
    133.66776706135));
#624 = CARTESIAN_POINT('',(162.18577438714,195.71043651008,
    133.6261024998));
#625 = CARTESIAN_POINT('',(162.18577438714,195.69256357036,
    133.58095597865));
#626 = CARTESIAN_POINT('',(162.18577438713,195.44234241436,
    132.94890468261));
#627 = CARTESIAN_POINT('',(162.18577438714,195.1386532386,
    132.34426575468));
#628 = CARTESIAN_POINT('',(162.18577438714,194.78171403775,
    131.76689047366));
#629 = CARTESIAN_POINT('',(162.18577438714,194.73072272334,
    131.68440829066));
#630 = CARTESIAN_POINT('',(162.18577438716,194.67972445308,
    131.60415966715));
#631 = CARTESIAN_POINT('',(162.18577438715,194.62544496006,
    131.52113446095));
#632 = CARTESIAN_POINT('',(162.18577438712,194.19120901592,
    130.85693281141));
#633 = CARTESIAN_POINT('',(162.18577438813,193.69282705139,
    130.24346802283));
#634 = CARTESIAN_POINT('',(162.18577438744,193.13171572223,
    129.68232866741));
#635 = CARTESIAN_POINT('',(162.18577438684,192.64074330923,
    129.19133173141));
#636 = CARTESIAN_POINT('',(162.18577438714,192.11003542083,
    128.74883355435));
#637 = CARTESIAN_POINT('',(162.18577438714,191.53976105173,
    128.35457688951));
#638 = CARTESIAN_POINT('',(162.18577438714,191.45829328471,
    128.29825450882));
#639 = CARTESIAN_POINT('',(162.18577438716,191.37419140854,
    128.24174001648));
#640 = CARTESIAN_POINT('',(162.18577438715,191.29290999169,
    128.18859933322));
#641 = CARTESIAN_POINT('',(162.18577438712,190.68329936535,
    127.79004420874));
#642 = CARTESIAN_POINT('',(162.18577438714,190.04173161963,
    127.45252696109));
#643 = CARTESIAN_POINT('',(162.18577438714,189.36822047751,
    127.1759697552));
#644 = CARTESIAN_POINT('',(162.18577438714,189.32331973471,
    127.15753260814));
#645 = CARTESIAN_POINT('',(162.18577438714,189.27641469854,
    127.13863336325));
#646 = CARTESIAN_POINT('',(162.18577438714,189.23308843651,
    127.12148075483));
#647 = CARTESIAN_POINT('',(162.18577438713,188.56153137493,
    126.85561532434));
#648 = CARTESIAN_POINT('',(162.18577438714,187.87094823085,
    126.65475759057));
#649 = CARTESIAN_POINT('',(162.18577438714,187.16130939802,
    126.51896975914));
#650 = CARTESIAN_POINT('',(162.18577438714,187.13841782276,
    126.51458950651));
#651 = CARTESIAN_POINT('',(162.18577438714,187.11418372067,126.510032408
    ));
#652 = CARTESIAN_POINT('',(162.18577438714,187.09257492441,
    126.5060336165));
#653 = CARTESIAN_POINT('',(162.18577438714,186.40109344408,
    126.37807228842));
#654 = CARTESIAN_POINT('',(162.18577438714,185.7035742356,
    126.31404438965));
#655 = CARTESIAN_POINT('',(162.18577438714,185.,126.31404438965));
#656 = ORIENTED_EDGE('',*,*,#657,.F.);
#657 = EDGE_CURVE('',#246,#568,#658,.T.);
#658 = LINE('',#659,#660);
#659 = CARTESIAN_POINT('',(157.18577438714,185.,149.31404438965));
#660 = VECTOR('',#661,1.);
#661 = DIRECTION('',(1.,0.,1.06581410364E-14));
#662 = B_SPLINE_SURFACE_WITH_KNOTS('',3,1,(
    (#663,#664)
    ,(#665,#666)
    ,(#667,#668)
    ,(#669,#670)
    ,(#671,#672)
    ,(#673,#674)
    ,(#675,#676)
    ,(#677,#678)
    ,(#679,#680)
    ,(#681,#682)
    ,(#683,#684)
    ,(#685,#686)
    ,(#687,#688)
    ,(#689,#690)
    ,(#691,#692)
    ,(#693,#694)
    ,(#695,#696)
    ,(#697,#698)
    ,(#699,#700)
    ,(#701,#702)
    ,(#703,#704)
    ,(#705,#706)
    ,(#707,#708)
    ,(#709,#710)
    ,(#711,#712)
    ,(#713,#714)
    ,(#715,#716)
    ,(#717,#718)
    ,(#719,#720)
    ,(#721,#722)
    ,(#723,#724)
    ,(#725,#726)
    ,(#727,#728)
    ,(#729,#730)
    ,(#731,#732)
    ,(#733,#734)
    ,(#735,#736)
    ,(#737,#738)
    ,(#739,#740)
    ,(#741,#742)
    ,(#743,#744)
    ,(#745,#746)
    ,(#747,#748)
    ,(#749,#750)
    ,(#751,#752)
    ,(#753,#754)
    ,(#755,#756)
    ,(#757,#758)
    ,(#759,#760)
    ,(#761,#762)
    ,(#763,#764)
    ,(#765,#766)
    ,(#767,#768)
    ,(#769,#770)
    ,(#771,#772)
    ,(#773,#774)
    ,(#775,#776)
    ,(#777,#778)
    ,(#779,#780)
    ,(#781,#782)
    ,(#783,#784)
    ,(#785,#786)
    ,(#787,#788)
    ,(#789,#790)
    ,(#791,#792)
    ,(#793,#794)
    ,(#795,#796)
    ,(#797,#798)
    ,(#799,#800)
    ,(#801,#802)
    ,(#803,#804)
    ,(#805,#806)
    ,(#807,#808)
    ,(#809,#810)
    ,(#811,#812)
    ,(#813,#814)
    ,(#815,#816)
    ,(#817,#818)
    ,(#819,#820)
    ,(#821,#822)
    ,(#823,#824)
    ,(#825,#826)
    ,(#827,#828)
    ,(#829,#830)
    ,(#831,#832
    )),.UNSPECIFIED.,.F.,.F.,.F.,(4,3,3,3,3,3,3,3,3,3,3,3,3,3,3,3,3,3,3,
    3,3,3,3,3,3,3,3,3,4),(2,2),(0.,6.0546875E-02,6.25E-02,0.12109375,
    0.125,0.1796875,0.1875,0.25,0.3046875,0.3125,0.37109375,0.375,
    0.435546875,0.4375,0.5,0.560546875,0.5625,0.62109375,0.625,0.6796875
    ,0.6875,0.75,0.8046875,0.8125,0.87109375,0.875,0.935546875,0.9375,1.
    ),(0.,0.5),.UNSPECIFIED.);
#663 = CARTESIAN_POINT('',(157.18577438714,185.,149.31404438965));
#664 = CARTESIAN_POINT('',(162.18577438714,185.,149.31404438965));
#665 = CARTESIAN_POINT('',(157.18577438714,185.68124311093,
    149.31404438965));
#666 = CARTESIAN_POINT('',(162.18577438714,185.68124311093,
    149.31404438965));
#667 = CARTESIAN_POINT('',(157.18577438714,186.35714272836,
    149.25398484921));
#668 = CARTESIAN_POINT('',(162.18577438714,186.35714272836,
    149.25398484921));
#669 = CARTESIAN_POINT('',(157.18577438714,187.02769922685,
    149.13386788211));
#670 = CARTESIAN_POINT('',(162.18577438714,187.02769922685,
    149.13386788211));
#671 = CARTESIAN_POINT('',(157.18577438714,187.04933008164,
    149.12999314123));
#672 = CARTESIAN_POINT('',(162.18577438714,187.04933008164,
    149.12999314124));
#673 = CARTESIAN_POINT('',(157.18577438714,187.06966485365,
    149.12629463417));
#674 = CARTESIAN_POINT('',(162.18577438714,187.06966485365,
    149.12629463417));
#675 = CARTESIAN_POINT('',(157.18577438714,187.09257491406,
    149.12205510686));
#676 = CARTESIAN_POINT('',(162.18577438714,187.09257491406,
    149.12205510686));
#677 = CARTESIAN_POINT('',(157.18577438714,187.77987672638,
    148.99486928766));
#678 = CARTESIAN_POINT('',(162.18577438714,187.77987672638,
    148.99486928766));
#679 = CARTESIAN_POINT('',(157.18577438714,188.44992648436,
    148.80660318248));
#680 = CARTESIAN_POINT('',(162.18577438714,188.44992648436,
    148.80660318248));
#681 = CARTESIAN_POINT('',(157.18577438714,189.10275540055,
    148.55729219678));
#682 = CARTESIAN_POINT('',(162.18577438714,189.10275540055,
    148.55729219678));
#683 = CARTESIAN_POINT('',(157.18577438714,189.1462773283,148.5406714644
    ));
#684 = CARTESIAN_POINT('',(162.18577438714,189.1462773283,148.5406714644
    ));
#685 = CARTESIAN_POINT('',(157.18577438714,189.18794188985,
    148.52448089973));
#686 = CARTESIAN_POINT('',(162.18577438714,189.18794188985,
    148.52448089973));
#687 = CARTESIAN_POINT('',(157.18577438714,189.23308841099,
    148.50660796002));
#688 = CARTESIAN_POINT('',(162.18577438714,189.23308841099,
    148.50660796002));
#689 = CARTESIAN_POINT('',(157.18577438713,189.86513970702,
    148.25638680402));
#690 = CARTESIAN_POINT('',(162.18577438713,189.86513970702,
    148.25638680402));
#691 = CARTESIAN_POINT('',(157.18577438714,190.46977863495,
    147.95269762826));
#692 = CARTESIAN_POINT('',(162.18577438714,190.46977863495,
    147.95269762826));
#693 = CARTESIAN_POINT('',(157.18577438714,191.04715391598,
    147.5957584274));
#694 = CARTESIAN_POINT('',(162.18577438714,191.04715391598,
    147.5957584274));
#695 = CARTESIAN_POINT('',(157.18577438714,191.12963609898,
    147.54476711299));
#696 = CARTESIAN_POINT('',(162.18577438714,191.12963609898,147.544767113
    ));
#697 = CARTESIAN_POINT('',(157.18577438716,191.2098847225,
    147.49376884273));
#698 = CARTESIAN_POINT('',(162.18577438716,191.2098847225,
    147.49376884273));
#699 = CARTESIAN_POINT('',(157.18577438715,191.29290992869,
    147.43948934972));
#700 = CARTESIAN_POINT('',(162.18577438715,191.29290992869,
    147.43948934972));
#701 = CARTESIAN_POINT('',(157.18577438712,191.95711157823,
    147.00525340558));
#702 = CARTESIAN_POINT('',(162.18577438712,191.95711157823,
    147.00525340558));
#703 = CARTESIAN_POINT('',(157.18577438813,192.57057636682,
    146.50687144103));
#704 = CARTESIAN_POINT('',(162.18577438813,192.57057636682,
    146.50687144103));
#705 = CARTESIAN_POINT('',(157.18577438744,193.13171572223,
    145.94576011189));
#706 = CARTESIAN_POINT('',(162.18577438744,193.13171572223,
    145.94576011189));
#707 = CARTESIAN_POINT('',(157.18577438684,193.62271265822,
    145.45478769889));
#708 = CARTESIAN_POINT('',(162.18577438684,193.62271265822,
    145.45478769889));
#709 = CARTESIAN_POINT('',(157.18577438714,194.06521083528,
    144.92407981049));
#710 = CARTESIAN_POINT('',(162.18577438714,194.06521083528,
    144.92407981049));
#711 = CARTESIAN_POINT('',(157.18577438714,194.45946750013,
    144.35380544139));
#712 = CARTESIAN_POINT('',(162.18577438714,194.45946750013,
    144.35380544139));
#713 = CARTESIAN_POINT('',(157.18577438714,194.51578988083,
    144.27233767437));
#714 = CARTESIAN_POINT('',(162.18577438714,194.51578988083,
    144.27233767437));
#715 = CARTESIAN_POINT('',(157.18577438716,194.57230437316,
    144.18823579819));
#716 = CARTESIAN_POINT('',(162.18577438716,194.57230437316,
    144.18823579819));
#717 = CARTESIAN_POINT('',(157.18577438715,194.62544505643,
    144.10695438135));
#718 = CARTESIAN_POINT('',(162.18577438715,194.62544505643,
    144.10695438135));
#719 = CARTESIAN_POINT('',(157.18577438712,195.0240001809,
    143.49734375501));
#720 = CARTESIAN_POINT('',(162.18577438712,195.0240001809,
    143.49734375501));
#721 = CARTESIAN_POINT('',(157.18577438714,195.36151742855,
    142.85577600929));
#722 = CARTESIAN_POINT('',(162.18577438714,195.36151742855,
    142.85577600929));
#723 = CARTESIAN_POINT('',(157.18577438714,195.63807463445,
    142.18226486717));
#724 = CARTESIAN_POINT('',(162.18577438714,195.63807463445,
    142.18226486717));
#725 = CARTESIAN_POINT('',(157.18577438714,195.65651178151,
    142.13736412436));
#726 = CARTESIAN_POINT('',(162.18577438714,195.65651178151,
    142.13736412436));
#727 = CARTESIAN_POINT('',(157.18577438714,195.67541102639,
    142.0904590882));
#728 = CARTESIAN_POINT('',(162.18577438714,195.67541102639,
    142.0904590882));
#729 = CARTESIAN_POINT('',(157.18577438714,195.69256363481,
    142.04713282616));
#730 = CARTESIAN_POINT('',(162.18577438714,195.69256363481,
    142.04713282616));
#731 = CARTESIAN_POINT('',(157.18577438713,195.95842906531,
    141.37557576458));
#732 = CARTESIAN_POINT('',(162.18577438713,195.95842906531,
    141.37557576458));
#733 = CARTESIAN_POINT('',(157.18577438714,196.15928679907,
    140.6849926205));
#734 = CARTESIAN_POINT('',(162.18577438714,196.15928679907,
    140.6849926205));
#735 = CARTESIAN_POINT('',(157.18577438714,196.29507463051,
    139.97535378767));
#736 = CARTESIAN_POINT('',(162.18577438714,196.29507463051,
    139.97535378767));
#737 = CARTESIAN_POINT('',(157.18577438714,196.29945488313,
    139.95246221242));
#738 = CARTESIAN_POINT('',(162.18577438714,196.29945488313,
    139.95246221242));
#739 = CARTESIAN_POINT('',(157.18577438714,196.30401299585,
    139.92822263111));
#740 = CARTESIAN_POINT('',(162.18577438714,196.30401299585,
    139.92822263111));
#741 = CARTESIAN_POINT('',(157.18577438714,196.30801077339,
    139.90661931411));
#742 = CARTESIAN_POINT('',(162.18577438714,196.30801077339,
    139.90661931411));
#743 = CARTESIAN_POINT('',(157.18577438714,196.4359396548,
    139.21531317013));
#744 = CARTESIAN_POINT('',(162.18577438714,196.4359396548,
    139.21531317013));
#745 = CARTESIAN_POINT('',(157.18577438792,196.49996757774,
    138.51708686041));
#746 = CARTESIAN_POINT('',(162.18577438792,196.49996757774,
    138.51708686041));
#747 = CARTESIAN_POINT('',(157.18577438739,196.49998404624,
    137.81404438965));
#748 = CARTESIAN_POINT('',(162.18577438739,196.49998404624,
    137.81404438965));
#749 = CARTESIAN_POINT('',(157.18577438688,196.5000000001,137.1329719961
    ));
#750 = CARTESIAN_POINT('',(162.18577438688,196.5000000001,137.1329719961
    ));
#751 = CARTESIAN_POINT('',(157.18577438714,196.43997090826,
    136.45707708329));
#752 = CARTESIAN_POINT('',(162.18577438714,196.43997090826,
    136.45707708329));
#753 = CARTESIAN_POINT('',(157.18577438714,196.31982637637,
    135.78636108983));
#754 = CARTESIAN_POINT('',(162.18577438714,196.31982637637,
    135.78636108983));
#755 = CARTESIAN_POINT('',(157.18577438714,196.31595074631,
    135.76472509004));
#756 = CARTESIAN_POINT('',(162.18577438714,196.31595074631,
    135.76472509004));
#757 = CARTESIAN_POINT('',(157.18577438714,196.31225024451,135.744379536
    ));
#758 = CARTESIAN_POINT('',(162.18577438714,196.31225024451,135.744379536
    ));
#759 = CARTESIAN_POINT('',(157.18577438714,196.30801071721,
    135.72146947559));
#760 = CARTESIAN_POINT('',(162.18577438714,196.30801071721,
    135.72146947559));
#761 = CARTESIAN_POINT('',(157.18577438714,196.180824898,135.03416766326
    ));
#762 = CARTESIAN_POINT('',(162.18577438714,196.180824898,135.03416766326
    ));
#763 = CARTESIAN_POINT('',(157.18577438714,195.99255879282,
    134.36411790527));
#764 = CARTESIAN_POINT('',(162.18577438714,195.99255879282,
    134.36411790527));
#765 = CARTESIAN_POINT('',(157.18577438714,195.74324780713,
    133.71128898909));
#766 = CARTESIAN_POINT('',(162.18577438714,195.74324780713,
    133.71128898909));
#767 = CARTESIAN_POINT('',(157.18577438714,195.72662707475,
    133.66776706135));
#768 = CARTESIAN_POINT('',(162.18577438714,195.72662707475,
    133.66776706135));
#769 = CARTESIAN_POINT('',(157.18577438714,195.71043651008,
    133.6261024998));
#770 = CARTESIAN_POINT('',(162.18577438714,195.71043651008,
    133.6261024998));
#771 = CARTESIAN_POINT('',(157.18577438714,195.69256357036,
    133.58095597865));
#772 = CARTESIAN_POINT('',(162.18577438714,195.69256357036,
    133.58095597865));
#773 = CARTESIAN_POINT('',(157.18577438713,195.44234241436,
    132.94890468261));
#774 = CARTESIAN_POINT('',(162.18577438713,195.44234241436,
    132.94890468261));
#775 = CARTESIAN_POINT('',(157.18577438714,195.1386532386,
    132.34426575468));
#776 = CARTESIAN_POINT('',(162.18577438714,195.1386532386,
    132.34426575468));
#777 = CARTESIAN_POINT('',(157.18577438714,194.78171403775,
    131.76689047366));
#778 = CARTESIAN_POINT('',(162.18577438714,194.78171403775,
    131.76689047366));
#779 = CARTESIAN_POINT('',(157.18577438714,194.73072272334,
    131.68440829066));
#780 = CARTESIAN_POINT('',(162.18577438714,194.73072272334,
    131.68440829066));
#781 = CARTESIAN_POINT('',(157.18577438716,194.67972445308,
    131.60415966715));
#782 = CARTESIAN_POINT('',(162.18577438716,194.67972445308,
    131.60415966715));
#783 = CARTESIAN_POINT('',(157.18577438715,194.62544496006,
    131.52113446095));
#784 = CARTESIAN_POINT('',(162.18577438715,194.62544496006,
    131.52113446095));
#785 = CARTESIAN_POINT('',(157.18577438712,194.19120901592,
    130.85693281141));
#786 = CARTESIAN_POINT('',(162.18577438712,194.19120901592,
    130.85693281141));
#787 = CARTESIAN_POINT('',(157.18577438813,193.69282705139,
    130.24346802283));
#788 = CARTESIAN_POINT('',(162.18577438813,193.69282705139,
    130.24346802283));
#789 = CARTESIAN_POINT('',(157.18577438744,193.13171572223,
    129.68232866741));
#790 = CARTESIAN_POINT('',(162.18577438744,193.13171572223,
    129.68232866741));
#791 = CARTESIAN_POINT('',(157.18577438684,192.64074330923,
    129.19133173141));
#792 = CARTESIAN_POINT('',(162.18577438684,192.64074330923,
    129.19133173141));
#793 = CARTESIAN_POINT('',(157.18577438714,192.11003542083,
    128.74883355435));
#794 = CARTESIAN_POINT('',(162.18577438714,192.11003542083,
    128.74883355435));
#795 = CARTESIAN_POINT('',(157.18577438714,191.53976105173,
    128.35457688951));
#796 = CARTESIAN_POINT('',(162.18577438714,191.53976105173,
    128.35457688951));
#797 = CARTESIAN_POINT('',(157.18577438714,191.45829328471,
    128.29825450882));
#798 = CARTESIAN_POINT('',(162.18577438714,191.45829328471,
    128.29825450882));
#799 = CARTESIAN_POINT('',(157.18577438716,191.37419140854,
    128.24174001648));
#800 = CARTESIAN_POINT('',(162.18577438716,191.37419140854,
    128.24174001648));
#801 = CARTESIAN_POINT('',(157.18577438715,191.29290999169,
    128.18859933322));
#802 = CARTESIAN_POINT('',(162.18577438715,191.29290999169,
    128.18859933322));
#803 = CARTESIAN_POINT('',(157.18577438712,190.68329936535,
    127.79004420874));
#804 = CARTESIAN_POINT('',(162.18577438712,190.68329936535,
    127.79004420874));
#805 = CARTESIAN_POINT('',(157.18577438714,190.04173161963,
    127.45252696109));
#806 = CARTESIAN_POINT('',(162.18577438714,190.04173161963,
    127.45252696109));
#807 = CARTESIAN_POINT('',(157.18577438714,189.36822047751,
    127.1759697552));
#808 = CARTESIAN_POINT('',(162.18577438714,189.36822047751,
    127.1759697552));
#809 = CARTESIAN_POINT('',(157.18577438714,189.32331973471,
    127.15753260814));
#810 = CARTESIAN_POINT('',(162.18577438714,189.32331973471,
    127.15753260814));
#811 = CARTESIAN_POINT('',(157.18577438714,189.27641469854,
    127.13863336325));
#812 = CARTESIAN_POINT('',(162.18577438714,189.27641469854,
    127.13863336325));
#813 = CARTESIAN_POINT('',(157.18577438714,189.23308843651,
    127.12148075483));
#814 = CARTESIAN_POINT('',(162.18577438714,189.23308843651,
    127.12148075483));
#815 = CARTESIAN_POINT('',(157.18577438713,188.56153137493,
    126.85561532434));
#816 = CARTESIAN_POINT('',(162.18577438713,188.56153137493,
    126.85561532434));
#817 = CARTESIAN_POINT('',(157.18577438714,187.87094823085,
    126.65475759057));
#818 = CARTESIAN_POINT('',(162.18577438714,187.87094823085,
    126.65475759057));
#819 = CARTESIAN_POINT('',(157.18577438714,187.16130939802,
    126.51896975914));
#820 = CARTESIAN_POINT('',(162.18577438714,187.16130939802,
    126.51896975914));
#821 = CARTESIAN_POINT('',(157.18577438714,187.13841782276,
    126.51458950651));
#822 = CARTESIAN_POINT('',(162.18577438714,187.13841782276,
    126.51458950651));
#823 = CARTESIAN_POINT('',(157.18577438714,187.11418372067,126.510032408
    ));
#824 = CARTESIAN_POINT('',(162.18577438714,187.11418372067,126.510032408
    ));
#825 = CARTESIAN_POINT('',(157.18577438714,187.09257492441,
    126.5060336165));
#826 = CARTESIAN_POINT('',(162.18577438714,187.09257492441,
    126.5060336165));
#827 = CARTESIAN_POINT('',(157.18577438714,186.40109344408,
    126.37807228842));
#828 = CARTESIAN_POINT('',(162.18577438714,186.40109344408,
    126.37807228842));
#829 = CARTESIAN_POINT('',(157.18577438714,185.7035742356,
    126.31404438965));
#830 = CARTESIAN_POINT('',(162.18577438714,185.7035742356,
    126.31404438965));
#831 = CARTESIAN_POINT('',(157.18577438714,185.,126.31404438965));
#832 = CARTESIAN_POINT('',(162.18577438714,185.,126.31404438965));
#833 = ADVANCED_FACE('',(#834),#927,.T.);
#834 = FACE_BOUND('',#835,.T.);
#835 = EDGE_LOOP('',(#836,#837,#838,#926));
#836 = ORIENTED_EDGE('',*,*,#243,.T.);
#837 = ORIENTED_EDGE('',*,*,#657,.T.);
#838 = ORIENTED_EDGE('',*,*,#839,.F.);
#839 = EDGE_CURVE('',#560,#568,#840,.T.);
#840 = B_SPLINE_CURVE_WITH_KNOTS('',3,(#841,#842,#843,#844,#845,#846,
    #847,#848,#849,#850,#851,#852,#853,#854,#855,#856,#857,#858,#859,
    #860,#861,#862,#863,#864,#865,#866,#867,#868,#869,#870,#871,#872,
    #873,#874,#875,#876,#877,#878,#879,#880,#881,#882,#883,#884,#885,
    #886,#887,#888,#889,#890,#891,#892,#893,#894,#895,#896,#897,#898,
    #899,#900,#901,#902,#903,#904,#905,#906,#907,#908,#909,#910,#911,
    #912,#913,#914,#915,#916,#917,#918,#919,#920,#921,#922,#923,#924,
    #925),.UNSPECIFIED.,.F.,.F.,(4,3,3,3,3,3,3,3,3,3,3,3,3,3,3,3,3,3,3,3
    ,3,3,3,3,3,3,3,3,4),(0.,6.0546875E-02,6.25E-02,0.12109375,0.125,
    0.1796875,0.1875,0.25,0.3046875,0.3125,0.37109375,0.375,0.435546875,
    0.4375,0.5,0.560546875,0.5625,0.62109375,0.625,0.6796875,0.6875,0.75
    ,0.8046875,0.8125,0.87109375,0.875,0.935546875,0.9375,1.),
  .UNSPECIFIED.);
#841 = CARTESIAN_POINT('',(162.18577438714,185.,126.31404438965));
#842 = CARTESIAN_POINT('',(162.18577438714,184.31875688907,
    126.31404438965));
#843 = CARTESIAN_POINT('',(162.18577438714,183.64285727164,
    126.37410393009));
#844 = CARTESIAN_POINT('',(162.18577438714,182.97230077314,
    126.49422089719));
#845 = CARTESIAN_POINT('',(162.18577438714,182.95066991835,
    126.49809563806));
#846 = CARTESIAN_POINT('',(162.18577438714,182.93033514634,
    126.50179414513));
#847 = CARTESIAN_POINT('',(162.18577438714,182.90742508593,
    126.50603367244));
#848 = CARTESIAN_POINT('',(162.18577438714,182.22012327362,
    126.63321949164));
#849 = CARTESIAN_POINT('',(162.18577438714,181.55007351563,
    126.82148559681));
#850 = CARTESIAN_POINT('',(162.18577438714,180.89724459944,
    127.07079658252));
#851 = CARTESIAN_POINT('',(162.18577438714,180.8537226717,127.0874173149
    ));
#852 = CARTESIAN_POINT('',(162.18577438714,180.81205811015,
    127.10360787957));
#853 = CARTESIAN_POINT('',(162.18577438714,180.766911589,127.12148081928
    ));
#854 = CARTESIAN_POINT('',(162.18577438713,180.13486029297,
    127.37170197528));
#855 = CARTESIAN_POINT('',(162.18577438714,179.53022136504,
    127.67539115104));
#856 = CARTESIAN_POINT('',(162.18577438714,178.95284608401,
    128.03233035189));
#857 = CARTESIAN_POINT('',(162.18577438714,178.87036390101,
    128.0833216663));
#858 = CARTESIAN_POINT('',(162.18577438716,178.79011527749,
    128.13431993656));
#859 = CARTESIAN_POINT('',(162.18577438715,178.7070900713,
    128.18859942958));
#860 = CARTESIAN_POINT('',(162.18577438712,178.04288842175,
    128.62283537372));
#861 = CARTESIAN_POINT('',(162.18577438813,177.42942363318,
    129.12121733826));
#862 = CARTESIAN_POINT('',(162.18577438744,176.86828427776,
    129.68232866741));
#863 = CARTESIAN_POINT('',(162.18577438684,176.37728734176,
    130.17330108042));
#864 = CARTESIAN_POINT('',(162.18577438714,175.9347891647,
    130.70400896882));
#865 = CARTESIAN_POINT('',(162.18577438714,175.54053249985,
    131.27428333792));
#866 = CARTESIAN_POINT('',(162.18577438714,175.48421011916,
    131.35575110493));
#867 = CARTESIAN_POINT('',(162.18577438716,175.42769562682,
    131.43985298111));
#868 = CARTESIAN_POINT('',(162.18577438715,175.37455494356,
    131.52113439795));
#869 = CARTESIAN_POINT('',(162.18577438712,174.9759998191,
    132.13074502427));
#870 = CARTESIAN_POINT('',(162.18577438714,174.63848257145,
    132.77231276999));
#871 = CARTESIAN_POINT('',(162.18577438714,174.36192536555,
    133.44582391213));
#872 = CARTESIAN_POINT('',(162.18577438714,174.34348821849,
    133.49072465494));
#873 = CARTESIAN_POINT('',(162.18577438714,174.3245889736,133.5376296911
    ));
#874 = CARTESIAN_POINT('',(162.18577438714,174.30743636518,
    133.58095595314));
#875 = CARTESIAN_POINT('',(162.18577438713,174.0415709347,
    134.25251301469));
#876 = CARTESIAN_POINT('',(162.18577438714,173.84071320093,
    134.94309615877));
#877 = CARTESIAN_POINT('',(162.18577438714,173.70492536949,
    135.65273499162));
#878 = CARTESIAN_POINT('',(162.18577438714,173.70054511686,
    135.67562656688));
#879 = CARTESIAN_POINT('',(162.18577438714,173.69598700415,
    135.69986614819));
#880 = CARTESIAN_POINT('',(162.18577438714,173.6919892266,
    135.72146946519));
#881 = CARTESIAN_POINT('',(162.18577438714,173.5640603452,
    136.41277560916));
#882 = CARTESIAN_POINT('',(162.18577438792,173.50003242225,
    137.1110019189));
#883 = CARTESIAN_POINT('',(162.18577438739,173.50001595375,
    137.81404438965));
#884 = CARTESIAN_POINT('',(162.18577438688,173.49999999989,
    138.49511678319));
#885 = CARTESIAN_POINT('',(162.18577438714,173.56002909173,139.171011696
    ));
#886 = CARTESIAN_POINT('',(162.18577438714,173.68017362362,
    139.84172768947));
#887 = CARTESIAN_POINT('',(162.18577438714,173.68404925368,
    139.86336368926));
#888 = CARTESIAN_POINT('',(162.18577438714,173.68774975548,
    139.8837092433));
#889 = CARTESIAN_POINT('',(162.18577438714,173.69198928279,
    139.90661930371));
#890 = CARTESIAN_POINT('',(162.18577438714,173.81917510198,
    140.59392111602));
#891 = CARTESIAN_POINT('',(162.18577438714,174.00744120716,141.263970874
    ));
#892 = CARTESIAN_POINT('',(162.18577438714,174.25675219286,
    141.9167997902));
#893 = CARTESIAN_POINT('',(162.18577438714,174.27337292524,
    141.96032171795));
#894 = CARTESIAN_POINT('',(162.18577438714,174.28956348991,
    142.0019862795));
#895 = CARTESIAN_POINT('',(162.18577438714,174.30743642963,
    142.04713280064));
#896 = CARTESIAN_POINT('',(162.18577438713,174.55765758563,
    142.67918409667));
#897 = CARTESIAN_POINT('',(162.18577438714,174.86134676138,
    143.2838230246));
#898 = CARTESIAN_POINT('',(162.18577438714,175.21828596224,
    143.86119830563));
#899 = CARTESIAN_POINT('',(162.18577438714,175.26927727665,
    143.94368048864));
#900 = CARTESIAN_POINT('',(162.18577438716,175.32027554691,
    144.02392911215));
#901 = CARTESIAN_POINT('',(162.18577438715,175.37455503993,
    144.10695431834));
#902 = CARTESIAN_POINT('',(162.18577438712,175.80879098406,
    144.77115596789));
#903 = CARTESIAN_POINT('',(162.18577438813,176.30717294861,
    145.38462075647));
#904 = CARTESIAN_POINT('',(162.18577438744,176.86828427776,
    145.94576011189));
#905 = CARTESIAN_POINT('',(162.18577438684,177.35925669076,
    146.43675704788));
#906 = CARTESIAN_POINT('',(162.18577438714,177.88996457916,
    146.87925522494));
#907 = CARTESIAN_POINT('',(162.18577438714,178.46023894826,
    147.27351188979));
#908 = CARTESIAN_POINT('',(162.18577438714,178.54170671528,
    147.32983427048));
#909 = CARTESIAN_POINT('',(162.18577438716,178.62580859146,
    147.38634876282));
#910 = CARTESIAN_POINT('',(162.18577438715,178.7070900083,
    147.43948944608));
#911 = CARTESIAN_POINT('',(162.18577438712,179.31670063462,
    147.83804457055));
#912 = CARTESIAN_POINT('',(162.18577438714,179.95826838033,
    148.17556181819));
#913 = CARTESIAN_POINT('',(162.18577438714,180.63177952247,
    148.4521190241));
#914 = CARTESIAN_POINT('',(162.18577438714,180.67668026528,
    148.47055617116));
#915 = CARTESIAN_POINT('',(162.18577438714,180.72358530145,
    148.48945541605));
#916 = CARTESIAN_POINT('',(162.18577438714,180.76691156349,
    148.50660802447));
#917 = CARTESIAN_POINT('',(162.18577438713,181.43846862504,
    148.77247345495));
#918 = CARTESIAN_POINT('',(162.18577438714,182.12905176912,
    148.97333118872));
#919 = CARTESIAN_POINT('',(162.18577438714,182.83869060197,
    149.10911902016));
#920 = CARTESIAN_POINT('',(162.18577438714,182.86158217722,
    149.11349927279));
#921 = CARTESIAN_POINT('',(162.18577438714,182.88581627932,
    149.1180563713));
#922 = CARTESIAN_POINT('',(162.18577438714,182.90742507558,
    149.1220551628));
#923 = CARTESIAN_POINT('',(162.18577438714,183.59890655591,
    149.25001649088));
#924 = CARTESIAN_POINT('',(162.18577438714,184.29642576439,
    149.31404438965));
#925 = CARTESIAN_POINT('',(162.18577438714,185.,149.31404438965));
#926 = ORIENTED_EDGE('',*,*,#559,.F.);
#927 = B_SPLINE_SURFACE_WITH_KNOTS('',3,1,(
    (#928,#929)
    ,(#930,#931)
    ,(#932,#933)
    ,(#934,#935)
    ,(#936,#937)
    ,(#938,#939)
    ,(#940,#941)
    ,(#942,#943)
    ,(#944,#945)
    ,(#946,#947)
    ,(#948,#949)
    ,(#950,#951)
    ,(#952,#953)
    ,(#954,#955)
    ,(#956,#957)
    ,(#958,#959)
    ,(#960,#961)
    ,(#962,#963)
    ,(#964,#965)
    ,(#966,#967)
    ,(#968,#969)
    ,(#970,#971)
    ,(#972,#973)
    ,(#974,#975)
    ,(#976,#977)
    ,(#978,#979)
    ,(#980,#981)
    ,(#982,#983)
    ,(#984,#985)
    ,(#986,#987)
    ,(#988,#989)
    ,(#990,#991)
    ,(#992,#993)
    ,(#994,#995)
    ,(#996,#997)
    ,(#998,#999)
    ,(#1000,#1001)
    ,(#1002,#1003)
    ,(#1004,#1005)
    ,(#1006,#1007)
    ,(#1008,#1009)
    ,(#1010,#1011)
    ,(#1012,#1013)
    ,(#1014,#1015)
    ,(#1016,#1017)
    ,(#1018,#1019)
    ,(#1020,#1021)
    ,(#1022,#1023)
    ,(#1024,#1025)
    ,(#1026,#1027)
    ,(#1028,#1029)
    ,(#1030,#1031)
    ,(#1032,#1033)
    ,(#1034,#1035)
    ,(#1036,#1037)
    ,(#1038,#1039)
    ,(#1040,#1041)
    ,(#1042,#1043)
    ,(#1044,#1045)
    ,(#1046,#1047)
    ,(#1048,#1049)
    ,(#1050,#1051)
    ,(#1052,#1053)
    ,(#1054,#1055)
    ,(#1056,#1057)
    ,(#1058,#1059)
    ,(#1060,#1061)
    ,(#1062,#1063)
    ,(#1064,#1065)
    ,(#1066,#1067)
    ,(#1068,#1069)
    ,(#1070,#1071)
    ,(#1072,#1073)
    ,(#1074,#1075)
    ,(#1076,#1077)
    ,(#1078,#1079)
    ,(#1080,#1081)
    ,(#1082,#1083)
    ,(#1084,#1085)
    ,(#1086,#1087)
    ,(#1088,#1089)
    ,(#1090,#1091)
    ,(#1092,#1093)
    ,(#1094,#1095)
    ,(#1096,#1097
    )),.UNSPECIFIED.,.F.,.F.,.F.,(4,3,3,3,3,3,3,3,3,3,3,3,3,3,3,3,3,3,3,
    3,3,3,3,3,3,3,3,3,4),(2,2),(0.,6.0546875E-02,6.25E-02,0.12109375,
    0.125,0.1796875,0.1875,0.25,0.3046875,0.3125,0.37109375,0.375,
    0.435546875,0.4375,0.5,0.560546875,0.5625,0.62109375,0.625,0.6796875
    ,0.6875,0.75,0.8046875,0.8125,0.87109375,0.875,0.935546875,0.9375,1.
    ),(0.,0.5),.UNSPECIFIED.);
#928 = CARTESIAN_POINT('',(157.18577438714,185.,126.31404438965));
#929 = CARTESIAN_POINT('',(162.18577438714,185.,126.31404438965));
#930 = CARTESIAN_POINT('',(157.18577438714,184.31875688907,
    126.31404438965));
#931 = CARTESIAN_POINT('',(162.18577438714,184.31875688907,
    126.31404438965));
#932 = CARTESIAN_POINT('',(157.18577438714,183.64285727164,
    126.37410393009));
#933 = CARTESIAN_POINT('',(162.18577438714,183.64285727164,
    126.37410393009));
#934 = CARTESIAN_POINT('',(157.18577438714,182.97230077314,
    126.49422089719));
#935 = CARTESIAN_POINT('',(162.18577438714,182.97230077314,
    126.49422089719));
#936 = CARTESIAN_POINT('',(157.18577438714,182.95066991835,
    126.49809563806));
#937 = CARTESIAN_POINT('',(162.18577438714,182.95066991835,
    126.49809563806));
#938 = CARTESIAN_POINT('',(157.18577438714,182.93033514634,
    126.50179414513));
#939 = CARTESIAN_POINT('',(162.18577438714,182.93033514634,
    126.50179414513));
#940 = CARTESIAN_POINT('',(157.18577438714,182.90742508593,
    126.50603367244));
#941 = CARTESIAN_POINT('',(162.18577438714,182.90742508593,
    126.50603367244));
#942 = CARTESIAN_POINT('',(157.18577438714,182.22012327362,
    126.63321949164));
#943 = CARTESIAN_POINT('',(162.18577438714,182.22012327362,
    126.63321949164));
#944 = CARTESIAN_POINT('',(157.18577438714,181.55007351563,
    126.82148559681));
#945 = CARTESIAN_POINT('',(162.18577438714,181.55007351563,
    126.82148559681));
#946 = CARTESIAN_POINT('',(157.18577438714,180.89724459944,
    127.07079658252));
#947 = CARTESIAN_POINT('',(162.18577438714,180.89724459944,
    127.07079658252));
#948 = CARTESIAN_POINT('',(157.18577438714,180.8537226717,127.0874173149
    ));
#949 = CARTESIAN_POINT('',(162.18577438714,180.8537226717,127.0874173149
    ));
#950 = CARTESIAN_POINT('',(157.18577438714,180.81205811015,
    127.10360787957));
#951 = CARTESIAN_POINT('',(162.18577438714,180.81205811015,
    127.10360787957));
#952 = CARTESIAN_POINT('',(157.18577438714,180.766911589,127.12148081928
    ));
#953 = CARTESIAN_POINT('',(162.18577438714,180.766911589,127.12148081928
    ));
#954 = CARTESIAN_POINT('',(157.18577438713,180.13486029297,
    127.37170197528));
#955 = CARTESIAN_POINT('',(162.18577438713,180.13486029297,
    127.37170197528));
#956 = CARTESIAN_POINT('',(157.18577438714,179.53022136504,
    127.67539115104));
#957 = CARTESIAN_POINT('',(162.18577438714,179.53022136504,
    127.67539115104));
#958 = CARTESIAN_POINT('',(157.18577438714,178.95284608401,
    128.03233035189));
#959 = CARTESIAN_POINT('',(162.18577438714,178.95284608401,
    128.03233035189));
#960 = CARTESIAN_POINT('',(157.18577438714,178.87036390101,
    128.0833216663));
#961 = CARTESIAN_POINT('',(162.18577438714,178.87036390101,
    128.0833216663));
#962 = CARTESIAN_POINT('',(157.18577438716,178.79011527749,
    128.13431993656));
#963 = CARTESIAN_POINT('',(162.18577438716,178.79011527749,
    128.13431993656));
#964 = CARTESIAN_POINT('',(157.18577438715,178.7070900713,
    128.18859942958));
#965 = CARTESIAN_POINT('',(162.18577438715,178.7070900713,
    128.18859942958));
#966 = CARTESIAN_POINT('',(157.18577438712,178.04288842175,
    128.62283537372));
#967 = CARTESIAN_POINT('',(162.18577438712,178.04288842175,
    128.62283537372));
#968 = CARTESIAN_POINT('',(157.18577438813,177.42942363318,
    129.12121733826));
#969 = CARTESIAN_POINT('',(162.18577438813,177.42942363318,
    129.12121733826));
#970 = CARTESIAN_POINT('',(157.18577438744,176.86828427776,
    129.68232866741));
#971 = CARTESIAN_POINT('',(162.18577438744,176.86828427776,
    129.68232866741));
#972 = CARTESIAN_POINT('',(157.18577438684,176.37728734176,
    130.17330108042));
#973 = CARTESIAN_POINT('',(162.18577438684,176.37728734176,
    130.17330108042));
#974 = CARTESIAN_POINT('',(157.18577438714,175.9347891647,
    130.70400896882));
#975 = CARTESIAN_POINT('',(162.18577438714,175.9347891647,
    130.70400896882));
#976 = CARTESIAN_POINT('',(157.18577438714,175.54053249985,
    131.27428333792));
#977 = CARTESIAN_POINT('',(162.18577438714,175.54053249985,
    131.27428333792));
#978 = CARTESIAN_POINT('',(157.18577438714,175.48421011916,
    131.35575110493));
#979 = CARTESIAN_POINT('',(162.18577438714,175.48421011916,
    131.35575110493));
#980 = CARTESIAN_POINT('',(157.18577438716,175.42769562682,
    131.43985298111));
#981 = CARTESIAN_POINT('',(162.18577438716,175.42769562682,
    131.43985298111));
#982 = CARTESIAN_POINT('',(157.18577438715,175.37455494356,
    131.52113439795));
#983 = CARTESIAN_POINT('',(162.18577438715,175.37455494356,
    131.52113439795));
#984 = CARTESIAN_POINT('',(157.18577438712,174.9759998191,
    132.13074502427));
#985 = CARTESIAN_POINT('',(162.18577438712,174.9759998191,
    132.13074502427));
#986 = CARTESIAN_POINT('',(157.18577438714,174.63848257145,
    132.77231276999));
#987 = CARTESIAN_POINT('',(162.18577438714,174.63848257145,
    132.77231276999));
#988 = CARTESIAN_POINT('',(157.18577438714,174.36192536555,
    133.44582391213));
#989 = CARTESIAN_POINT('',(162.18577438714,174.36192536555,
    133.44582391213));
#990 = CARTESIAN_POINT('',(157.18577438714,174.34348821849,
    133.49072465494));
#991 = CARTESIAN_POINT('',(162.18577438714,174.34348821849,
    133.49072465494));
#992 = CARTESIAN_POINT('',(157.18577438714,174.3245889736,133.5376296911
    ));
#993 = CARTESIAN_POINT('',(162.18577438714,174.3245889736,133.5376296911
    ));
#994 = CARTESIAN_POINT('',(157.18577438714,174.30743636518,
    133.58095595314));
#995 = CARTESIAN_POINT('',(162.18577438714,174.30743636518,
    133.58095595314));
#996 = CARTESIAN_POINT('',(157.18577438713,174.0415709347,
    134.25251301469));
#997 = CARTESIAN_POINT('',(162.18577438713,174.0415709347,
    134.25251301469));
#998 = CARTESIAN_POINT('',(157.18577438714,173.84071320093,
    134.94309615877));
#999 = CARTESIAN_POINT('',(162.18577438714,173.84071320093,
    134.94309615877));
#1000 = CARTESIAN_POINT('',(157.18577438714,173.70492536949,
    135.65273499162));
#1001 = CARTESIAN_POINT('',(162.18577438714,173.70492536949,
    135.65273499162));
#1002 = CARTESIAN_POINT('',(157.18577438714,173.70054511686,
    135.67562656688));
#1003 = CARTESIAN_POINT('',(162.18577438714,173.70054511686,
    135.67562656688));
#1004 = CARTESIAN_POINT('',(157.18577438714,173.69598700415,
    135.69986614819));
#1005 = CARTESIAN_POINT('',(162.18577438714,173.69598700415,
    135.69986614819));
#1006 = CARTESIAN_POINT('',(157.18577438714,173.6919892266,
    135.72146946519));
#1007 = CARTESIAN_POINT('',(162.18577438714,173.6919892266,
    135.72146946519));
#1008 = CARTESIAN_POINT('',(157.18577438714,173.5640603452,
    136.41277560916));
#1009 = CARTESIAN_POINT('',(162.18577438714,173.5640603452,
    136.41277560916));
#1010 = CARTESIAN_POINT('',(157.18577438792,173.50003242225,
    137.1110019189));
#1011 = CARTESIAN_POINT('',(162.18577438792,173.50003242225,
    137.1110019189));
#1012 = CARTESIAN_POINT('',(157.18577438739,173.50001595375,
    137.81404438965));
#1013 = CARTESIAN_POINT('',(162.18577438739,173.50001595375,
    137.81404438965));
#1014 = CARTESIAN_POINT('',(157.18577438688,173.49999999989,
    138.49511678319));
#1015 = CARTESIAN_POINT('',(162.18577438688,173.49999999989,
    138.49511678319));
#1016 = CARTESIAN_POINT('',(157.18577438714,173.56002909173,
    139.171011696));
#1017 = CARTESIAN_POINT('',(162.18577438714,173.56002909173,
    139.171011696));
#1018 = CARTESIAN_POINT('',(157.18577438714,173.68017362362,
    139.84172768947));
#1019 = CARTESIAN_POINT('',(162.18577438714,173.68017362362,
    139.84172768947));
#1020 = CARTESIAN_POINT('',(157.18577438714,173.68404925368,
    139.86336368925));
#1021 = CARTESIAN_POINT('',(162.18577438714,173.68404925368,
    139.86336368926));
#1022 = CARTESIAN_POINT('',(157.18577438714,173.68774975548,
    139.8837092433));
#1023 = CARTESIAN_POINT('',(162.18577438714,173.68774975548,
    139.8837092433));
#1024 = CARTESIAN_POINT('',(157.18577438714,173.69198928279,
    139.90661930371));
#1025 = CARTESIAN_POINT('',(162.18577438714,173.69198928279,
    139.90661930371));
#1026 = CARTESIAN_POINT('',(157.18577438714,173.81917510198,
    140.59392111602));
#1027 = CARTESIAN_POINT('',(162.18577438714,173.81917510198,
    140.59392111602));
#1028 = CARTESIAN_POINT('',(157.18577438714,174.00744120716,
    141.263970874));
#1029 = CARTESIAN_POINT('',(162.18577438714,174.00744120716,
    141.263970874));
#1030 = CARTESIAN_POINT('',(157.18577438714,174.25675219286,
    141.9167997902));
#1031 = CARTESIAN_POINT('',(162.18577438714,174.25675219286,
    141.9167997902));
#1032 = CARTESIAN_POINT('',(157.18577438714,174.27337292524,
    141.96032171795));
#1033 = CARTESIAN_POINT('',(162.18577438714,174.27337292524,
    141.96032171795));
#1034 = CARTESIAN_POINT('',(157.18577438714,174.28956348991,
    142.0019862795));
#1035 = CARTESIAN_POINT('',(162.18577438714,174.28956348991,
    142.0019862795));
#1036 = CARTESIAN_POINT('',(157.18577438714,174.30743642963,
    142.04713280064));
#1037 = CARTESIAN_POINT('',(162.18577438714,174.30743642963,
    142.04713280064));
#1038 = CARTESIAN_POINT('',(157.18577438713,174.55765758563,
    142.67918409667));
#1039 = CARTESIAN_POINT('',(162.18577438713,174.55765758563,
    142.67918409667));
#1040 = CARTESIAN_POINT('',(157.18577438714,174.86134676138,
    143.2838230246));
#1041 = CARTESIAN_POINT('',(162.18577438714,174.86134676138,
    143.2838230246));
#1042 = CARTESIAN_POINT('',(157.18577438714,175.21828596224,
    143.86119830563));
#1043 = CARTESIAN_POINT('',(162.18577438714,175.21828596224,
    143.86119830563));
#1044 = CARTESIAN_POINT('',(157.18577438714,175.26927727665,
    143.94368048864));
#1045 = CARTESIAN_POINT('',(162.18577438714,175.26927727665,
    143.94368048864));
#1046 = CARTESIAN_POINT('',(157.18577438716,175.32027554691,
    144.02392911215));
#1047 = CARTESIAN_POINT('',(162.18577438716,175.32027554691,
    144.02392911215));
#1048 = CARTESIAN_POINT('',(157.18577438715,175.37455503993,
    144.10695431834));
#1049 = CARTESIAN_POINT('',(162.18577438715,175.37455503993,
    144.10695431834));
#1050 = CARTESIAN_POINT('',(157.18577438712,175.80879098406,
    144.77115596789));
#1051 = CARTESIAN_POINT('',(162.18577438712,175.80879098406,
    144.77115596789));
#1052 = CARTESIAN_POINT('',(157.18577438813,176.30717294861,
    145.38462075647));
#1053 = CARTESIAN_POINT('',(162.18577438813,176.30717294861,
    145.38462075647));
#1054 = CARTESIAN_POINT('',(157.18577438744,176.86828427776,
    145.94576011189));
#1055 = CARTESIAN_POINT('',(162.18577438744,176.86828427776,
    145.94576011189));
#1056 = CARTESIAN_POINT('',(157.18577438684,177.35925669076,
    146.43675704788));
#1057 = CARTESIAN_POINT('',(162.18577438684,177.35925669076,
    146.43675704788));
#1058 = CARTESIAN_POINT('',(157.18577438714,177.88996457916,
    146.87925522494));
#1059 = CARTESIAN_POINT('',(162.18577438714,177.88996457916,
    146.87925522494));
#1060 = CARTESIAN_POINT('',(157.18577438714,178.46023894826,
    147.27351188979));
#1061 = CARTESIAN_POINT('',(162.18577438714,178.46023894826,
    147.27351188979));
#1062 = CARTESIAN_POINT('',(157.18577438714,178.54170671528,
    147.32983427048));
#1063 = CARTESIAN_POINT('',(162.18577438714,178.54170671528,
    147.32983427048));
#1064 = CARTESIAN_POINT('',(157.18577438716,178.62580859146,
    147.38634876282));
#1065 = CARTESIAN_POINT('',(162.18577438716,178.62580859146,
    147.38634876282));
#1066 = CARTESIAN_POINT('',(157.18577438715,178.7070900083,
    147.43948944608));
#1067 = CARTESIAN_POINT('',(162.18577438715,178.7070900083,
    147.43948944608));
#1068 = CARTESIAN_POINT('',(157.18577438712,179.31670063462,
    147.83804457055));
#1069 = CARTESIAN_POINT('',(162.18577438712,179.31670063462,
    147.83804457055));
#1070 = CARTESIAN_POINT('',(157.18577438714,179.95826838033,
    148.17556181819));
#1071 = CARTESIAN_POINT('',(162.18577438714,179.95826838033,
    148.17556181819));
#1072 = CARTESIAN_POINT('',(157.18577438714,180.63177952247,
    148.4521190241));
#1073 = CARTESIAN_POINT('',(162.18577438714,180.63177952247,
    148.4521190241));
#1074 = CARTESIAN_POINT('',(157.18577438714,180.67668026528,
    148.47055617116));
#1075 = CARTESIAN_POINT('',(162.18577438714,180.67668026528,
    148.47055617116));
#1076 = CARTESIAN_POINT('',(157.18577438714,180.72358530145,
    148.48945541605));
#1077 = CARTESIAN_POINT('',(162.18577438714,180.72358530145,
    148.48945541605));
#1078 = CARTESIAN_POINT('',(157.18577438714,180.76691156349,
    148.50660802447));
#1079 = CARTESIAN_POINT('',(162.18577438714,180.76691156349,
    148.50660802447));
#1080 = CARTESIAN_POINT('',(157.18577438713,181.43846862504,
    148.77247345495));
#1081 = CARTESIAN_POINT('',(162.18577438713,181.43846862504,
    148.77247345495));
#1082 = CARTESIAN_POINT('',(157.18577438714,182.12905176912,
    148.97333118872));
#1083 = CARTESIAN_POINT('',(162.18577438714,182.12905176912,
    148.97333118872));
#1084 = CARTESIAN_POINT('',(157.18577438714,182.83869060197,
    149.10911902016));
#1085 = CARTESIAN_POINT('',(162.18577438714,182.83869060197,
    149.10911902016));
#1086 = CARTESIAN_POINT('',(157.18577438714,182.86158217722,
    149.11349927279));
#1087 = CARTESIAN_POINT('',(162.18577438714,182.86158217722,
    149.11349927279));
#1088 = CARTESIAN_POINT('',(157.18577438714,182.88581627932,
    149.1180563713));
#1089 = CARTESIAN_POINT('',(162.18577438714,182.88581627932,
    149.1180563713));
#1090 = CARTESIAN_POINT('',(157.18577438714,182.90742507558,
    149.1220551628));
#1091 = CARTESIAN_POINT('',(162.18577438714,182.90742507558,
    149.1220551628));
#1092 = CARTESIAN_POINT('',(157.18577438714,183.59890655591,
    149.25001649088));
#1093 = CARTESIAN_POINT('',(162.18577438714,183.59890655591,
    149.25001649088));
#1094 = CARTESIAN_POINT('',(157.18577438714,184.29642576439,
    149.31404438965));
#1095 = CARTESIAN_POINT('',(162.18577438714,184.29642576439,
    149.31404438965));
#1096 = CARTESIAN_POINT('',(157.18577438714,185.,149.31404438965));
#1097 = CARTESIAN_POINT('',(162.18577438714,185.,149.31404438965));
#1098 = ADVANCED_FACE('',(#1099),#1118,.F.);
#1099 = FACE_BOUND('',#1100,.F.);
#1100 = EDGE_LOOP('',(#1101,#1109,#1110,#1111));
#1101 = ORIENTED_EDGE('',*,*,#1102,.T.);
#1102 = EDGE_CURVE('',#1103,#426,#1105,.T.);
#1103 = VERTEX_POINT('',#1104);
#1104 = CARTESIAN_POINT('',(162.18577438714,199.25,153.31404438965));
#1105 = LINE('',#1106,#1107);
#1106 = CARTESIAN_POINT('',(157.18577438714,199.25,153.31404438965));
#1107 = VECTOR('',#1108,1.);
#1108 = DIRECTION('',(-1.,0.,-1.06581410364E-14));
#1109 = ORIENTED_EDGE('',*,*,#425,.F.);
#1110 = ORIENTED_EDGE('',*,*,#1102,.F.);
#1111 = ORIENTED_EDGE('',*,*,#1112,.T.);
#1112 = EDGE_CURVE('',#1103,#1103,#1113,.T.);
#1113 = CIRCLE('',#1114,1.25);
#1114 = AXIS2_PLACEMENT_3D('',#1115,#1116,#1117);
#1115 = CARTESIAN_POINT('',(162.18577438714,200.5,153.31404438965));
#1116 = DIRECTION('',(-1.,-2.22044604925E-16,-1.164346397076E-14));
#1117 = DIRECTION('',(-2.22044604925E-16,1.,-3.503246160812E-46));
#1118 = CYLINDRICAL_SURFACE('',#1119,1.25);
#1119 = AXIS2_PLACEMENT_3D('',#1120,#1121,#1122);
#1120 = CARTESIAN_POINT('',(157.18577438714,200.5,153.31404438965));
#1121 = DIRECTION('',(1.,0.,1.06581410364E-14));
#1122 = DIRECTION('',(-2.522337235785E-44,1.,2.366582715663E-30));
#1123 = ADVANCED_FACE('',(#1124),#1143,.F.);
#1124 = FACE_BOUND('',#1125,.F.);
#1125 = EDGE_LOOP('',(#1126,#1134,#1135,#1136));
#1126 = ORIENTED_EDGE('',*,*,#1127,.T.);
#1127 = EDGE_CURVE('',#1128,#437,#1130,.T.);
#1128 = VERTEX_POINT('',#1129);
#1129 = CARTESIAN_POINT('',(162.18577438714,199.25,122.31404438965));
#1130 = LINE('',#1131,#1132);
#1131 = CARTESIAN_POINT('',(157.18577438714,199.25,122.31404438965));
#1132 = VECTOR('',#1133,1.);
#1133 = DIRECTION('',(-1.,0.,-1.06581410364E-14));
#1134 = ORIENTED_EDGE('',*,*,#436,.F.);
#1135 = ORIENTED_EDGE('',*,*,#1127,.F.);
#1136 = ORIENTED_EDGE('',*,*,#1137,.T.);
#1137 = EDGE_CURVE('',#1128,#1128,#1138,.T.);
#1138 = CIRCLE('',#1139,1.25);
#1139 = AXIS2_PLACEMENT_3D('',#1140,#1141,#1142);
#1140 = CARTESIAN_POINT('',(162.18577438714,200.5,122.31404438965));
#1141 = DIRECTION('',(-1.,-2.22044604925E-16,-1.164346397076E-14));
#1142 = DIRECTION('',(-2.22044604925E-16,1.,-3.503246160812E-46));
#1143 = CYLINDRICAL_SURFACE('',#1144,1.25);
#1144 = AXIS2_PLACEMENT_3D('',#1145,#1146,#1147);
#1145 = CARTESIAN_POINT('',(157.18577438714,200.5,122.31404438965));
#1146 = DIRECTION('',(1.,0.,1.06581410364E-14));
#1147 = DIRECTION('',(-2.522337235785E-44,1.,2.366582715663E-30));
#1148 = ADVANCED_FACE('',(#1149),#1168,.F.);
#1149 = FACE_BOUND('',#1150,.F.);
#1150 = EDGE_LOOP('',(#1151,#1159,#1160,#1161));
#1151 = ORIENTED_EDGE('',*,*,#1152,.T.);
#1152 = EDGE_CURVE('',#1153,#448,#1155,.T.);
#1153 = VERTEX_POINT('',#1154);
#1154 = CARTESIAN_POINT('',(162.18577438714,168.25,153.31404438965));
#1155 = LINE('',#1156,#1157);
#1156 = CARTESIAN_POINT('',(157.18577438714,168.25,153.31404438965));
#1157 = VECTOR('',#1158,1.);
#1158 = DIRECTION('',(-1.,0.,-1.06581410364E-14));
#1159 = ORIENTED_EDGE('',*,*,#447,.F.);
#1160 = ORIENTED_EDGE('',*,*,#1152,.F.);
#1161 = ORIENTED_EDGE('',*,*,#1162,.T.);
#1162 = EDGE_CURVE('',#1153,#1153,#1163,.T.);
#1163 = CIRCLE('',#1164,1.25);
#1164 = AXIS2_PLACEMENT_3D('',#1165,#1166,#1167);
#1165 = CARTESIAN_POINT('',(162.18577438714,169.5,153.31404438965));
#1166 = DIRECTION('',(-1.,-2.22044604925E-16,-1.164346397076E-14));
#1167 = DIRECTION('',(-2.22044604925E-16,1.,-3.503246160812E-46));
#1168 = CYLINDRICAL_SURFACE('',#1169,1.25);
#1169 = AXIS2_PLACEMENT_3D('',#1170,#1171,#1172);
#1170 = CARTESIAN_POINT('',(157.18577438714,169.5,153.31404438965));
#1171 = DIRECTION('',(1.,0.,1.06581410364E-14));
#1172 = DIRECTION('',(-2.522337235785E-44,1.,2.366582715663E-30));
#1173 = ADVANCED_FACE('',(#1174),#1193,.F.);
#1174 = FACE_BOUND('',#1175,.F.);
#1175 = EDGE_LOOP('',(#1176,#1184,#1185,#1186));
#1176 = ORIENTED_EDGE('',*,*,#1177,.T.);
#1177 = EDGE_CURVE('',#1178,#459,#1180,.T.);
#1178 = VERTEX_POINT('',#1179);
#1179 = CARTESIAN_POINT('',(162.18577438714,168.25,122.31404438965));
#1180 = LINE('',#1181,#1182);
#1181 = CARTESIAN_POINT('',(157.18577438714,168.25,122.31404438965));
#1182 = VECTOR('',#1183,1.);
#1183 = DIRECTION('',(-1.,0.,-1.06581410364E-14));
#1184 = ORIENTED_EDGE('',*,*,#458,.F.);
#1185 = ORIENTED_EDGE('',*,*,#1177,.F.);
#1186 = ORIENTED_EDGE('',*,*,#1187,.T.);
#1187 = EDGE_CURVE('',#1178,#1178,#1188,.T.);
#1188 = CIRCLE('',#1189,1.25);
#1189 = AXIS2_PLACEMENT_3D('',#1190,#1191,#1192);
#1190 = CARTESIAN_POINT('',(162.18577438714,169.5,122.31404438965));
#1191 = DIRECTION('',(-1.,-2.22044604925E-16,-1.164346397076E-14));
#1192 = DIRECTION('',(-2.22044604925E-16,1.,-3.503246160812E-46));
#1193 = CYLINDRICAL_SURFACE('',#1194,1.25);
#1194 = AXIS2_PLACEMENT_3D('',#1195,#1196,#1197);
#1195 = CARTESIAN_POINT('',(157.18577438714,169.5,122.31404438965));
#1196 = DIRECTION('',(1.,0.,1.06581410364E-14));
#1197 = DIRECTION('',(-2.522337235785E-44,1.,2.366582715663E-30));
#1198 = ADVANCED_FACE('',(#1199),#1224,.T.);
#1199 = FACE_BOUND('',#1200,.T.);
#1200 = EDGE_LOOP('',(#1201,#1202,#1210,#1218));
#1201 = ORIENTED_EDGE('',*,*,#211,.T.);
#1202 = ORIENTED_EDGE('',*,*,#1203,.T.);
#1203 = EDGE_CURVE('',#204,#1204,#1206,.T.);
#1204 = VERTEX_POINT('',#1205);
#1205 = CARTESIAN_POINT('',(162.18577438714,201.94289321881,
    158.46404438965));
#1206 = LINE('',#1207,#1208);
#1207 = CARTESIAN_POINT('',(157.18577438714,201.94289321881,
    158.46404438965));
#1208 = VECTOR('',#1209,1.);
#1209 = DIRECTION('',(1.,0.,1.06581410364E-14));
#1210 = ORIENTED_EDGE('',*,*,#1211,.F.);
#1211 = EDGE_CURVE('',#1212,#1204,#1214,.T.);
#1212 = VERTEX_POINT('',#1213);
#1213 = CARTESIAN_POINT('',(162.18577438714,205.65,154.75693760846));
#1214 = LINE('',#1215,#1216);
#1215 = CARTESIAN_POINT('',(162.18577438714,205.65,154.75693760846));
#1216 = VECTOR('',#1217,1.);
#1217 = DIRECTION('',(-8.076163084355E-15,-0.707106781187,0.707106781187
    ));
#1218 = ORIENTED_EDGE('',*,*,#1219,.F.);
#1219 = EDGE_CURVE('',#212,#1212,#1220,.T.);
#1220 = LINE('',#1221,#1222);
#1221 = CARTESIAN_POINT('',(157.18577438714,205.65,154.75693760846));
#1222 = VECTOR('',#1223,1.);
#1223 = DIRECTION('',(1.,0.,1.06581410364E-14));
#1224 = PLANE('',#1225);
#1225 = AXIS2_PLACEMENT_3D('',#1226,#1227,#1228);
#1226 = CARTESIAN_POINT('',(157.18577438714,205.65,154.75693760846));
#1227 = DIRECTION('',(-7.536443801682E-15,0.707106781187,0.707106781187)
  );
#1228 = DIRECTION('',(-8.076163084355E-15,-0.707106781187,0.707106781187
    ));
#1229 = ADVANCED_FACE('',(#1230),#1248,.T.);
#1230 = FACE_BOUND('',#1231,.T.);
#1231 = EDGE_LOOP('',(#1232,#1233,#1234,#1242));
#1232 = ORIENTED_EDGE('',*,*,#219,.T.);
#1233 = ORIENTED_EDGE('',*,*,#1219,.T.);
#1234 = ORIENTED_EDGE('',*,*,#1235,.F.);
#1235 = EDGE_CURVE('',#1236,#1212,#1238,.T.);
#1236 = VERTEX_POINT('',#1237);
#1237 = CARTESIAN_POINT('',(162.18577438714,205.65,120.87115117084));
#1238 = LINE('',#1239,#1240);
#1239 = CARTESIAN_POINT('',(162.18577438714,205.65,120.87115117084));
#1240 = VECTOR('',#1241,1.);
#1241 = DIRECTION('',(-1.216768283245E-14,-2.701768327385E-30,1.));
#1242 = ORIENTED_EDGE('',*,*,#1243,.F.);
#1243 = EDGE_CURVE('',#220,#1236,#1244,.T.);
#1244 = LINE('',#1245,#1246);
#1245 = CARTESIAN_POINT('',(157.18577438714,205.65,120.87115117084));
#1246 = VECTOR('',#1247,1.);
#1247 = DIRECTION('',(1.,0.,1.06581410364E-14));
#1248 = PLANE('',#1249);
#1249 = AXIS2_PLACEMENT_3D('',#1250,#1251,#1252);
#1250 = CARTESIAN_POINT('',(157.18577438714,205.65,120.87115117084));
#1251 = DIRECTION('',(-2.879582788095E-44,1.,2.701768327385E-30));
#1252 = DIRECTION('',(-1.216768283245E-14,-2.701768327385E-30,1.));
#1253 = ADVANCED_FACE('',(#1254),#1265,.T.);
#1254 = FACE_BOUND('',#1255,.T.);
#1255 = EDGE_LOOP('',(#1256,#1257,#1258,#1264));
#1256 = ORIENTED_EDGE('',*,*,#227,.T.);
#1257 = ORIENTED_EDGE('',*,*,#1243,.T.);
#1258 = ORIENTED_EDGE('',*,*,#1259,.F.);
#1259 = EDGE_CURVE('',#509,#1236,#1260,.T.);
#1260 = LINE('',#1261,#1262);
#1261 = CARTESIAN_POINT('',(162.18577438714,201.94289321881,
    117.16404438965));
#1262 = VECTOR('',#1263,1.);
#1263 = DIRECTION('',(-5.00189512769E-15,0.707106781187,0.707106781187)
  );
#1264 = ORIENTED_EDGE('',*,*,#508,.F.);
#1265 = PLANE('',#1266);
#1266 = AXIS2_PLACEMENT_3D('',#1267,#1268,#1269);
#1267 = CARTESIAN_POINT('',(157.18577438714,201.94289321881,
    117.16404438965));
#1268 = DIRECTION('',(7.536443801682E-15,0.707106781187,-0.707106781187)
  );
#1269 = DIRECTION('',(-5.00189512769E-15,0.707106781187,0.707106781187)
  );
#1270 = ADVANCED_FACE('',(#1271),#1289,.T.);
#1271 = FACE_BOUND('',#1272,.T.);
#1272 = EDGE_LOOP('',(#1273,#1274,#1275,#1283));
#1273 = ORIENTED_EDGE('',*,*,#179,.T.);
#1274 = ORIENTED_EDGE('',*,*,#475,.T.);
#1275 = ORIENTED_EDGE('',*,*,#1276,.F.);
#1276 = EDGE_CURVE('',#1277,#476,#1279,.T.);
#1277 = VERTEX_POINT('',#1278);
#1278 = CARTESIAN_POINT('',(162.18577438714,164.35,120.87115117084));
#1279 = LINE('',#1280,#1281);
#1280 = CARTESIAN_POINT('',(162.18577438714,164.35,120.87115117084));
#1281 = VECTOR('',#1282,1.);
#1282 = DIRECTION('',(8.076163084355E-15,0.707106781187,-0.707106781187)
  );
#1283 = ORIENTED_EDGE('',*,*,#1284,.F.);
#1284 = EDGE_CURVE('',#180,#1277,#1285,.T.);
#1285 = LINE('',#1286,#1287);
#1286 = CARTESIAN_POINT('',(157.18577438714,164.35,120.87115117084));
#1287 = VECTOR('',#1288,1.);
#1288 = DIRECTION('',(1.,0.,1.06581410364E-14));
#1289 = PLANE('',#1290);
#1290 = AXIS2_PLACEMENT_3D('',#1291,#1292,#1293);
#1291 = CARTESIAN_POINT('',(157.18577438714,164.35,120.87115117084));
#1292 = DIRECTION('',(7.536443801682E-15,-0.707106781187,-0.707106781187
    ));
#1293 = DIRECTION('',(8.076163084355E-15,0.707106781187,-0.707106781187)
  );
#1294 = ADVANCED_FACE('',(#1295),#1313,.T.);
#1295 = FACE_BOUND('',#1296,.T.);
#1296 = EDGE_LOOP('',(#1297,#1298,#1299,#1307));
#1297 = ORIENTED_EDGE('',*,*,#187,.T.);
#1298 = ORIENTED_EDGE('',*,*,#1284,.T.);
#1299 = ORIENTED_EDGE('',*,*,#1300,.F.);
#1300 = EDGE_CURVE('',#1301,#1277,#1303,.T.);
#1301 = VERTEX_POINT('',#1302);
#1302 = CARTESIAN_POINT('',(162.18577438714,164.35,154.75693760846));
#1303 = LINE('',#1304,#1305);
#1304 = CARTESIAN_POINT('',(162.18577438714,164.35,154.75693760846));
#1305 = VECTOR('',#1306,1.);
#1306 = DIRECTION('',(1.164346397076E-14,2.585368357345E-30,-1.));
#1307 = ORIENTED_EDGE('',*,*,#1308,.F.);
#1308 = EDGE_CURVE('',#188,#1301,#1309,.T.);
#1309 = LINE('',#1310,#1311);
#1310 = CARTESIAN_POINT('',(157.18577438714,164.35,154.75693760846));
#1311 = VECTOR('',#1312,1.);
#1312 = DIRECTION('',(1.,0.,1.06581410364E-14));
#1313 = PLANE('',#1314);
#1314 = AXIS2_PLACEMENT_3D('',#1315,#1316,#1317);
#1315 = CARTESIAN_POINT('',(157.18577438714,164.35,154.75693760846));
#1316 = DIRECTION('',(2.755522058364E-44,-1.,-2.585368357345E-30));
#1317 = DIRECTION('',(1.164346397076E-14,2.585368357345E-30,-1.));
#1318 = ADVANCED_FACE('',(#1319),#1337,.T.);
#1319 = FACE_BOUND('',#1320,.T.);
#1320 = EDGE_LOOP('',(#1321,#1322,#1323,#1331));
#1321 = ORIENTED_EDGE('',*,*,#195,.T.);
#1322 = ORIENTED_EDGE('',*,*,#1308,.T.);
#1323 = ORIENTED_EDGE('',*,*,#1324,.F.);
#1324 = EDGE_CURVE('',#1325,#1301,#1327,.T.);
#1325 = VERTEX_POINT('',#1326);
#1326 = CARTESIAN_POINT('',(162.18577438714,168.05710678118,
    158.46404438965));
#1327 = LINE('',#1328,#1329);
#1328 = CARTESIAN_POINT('',(162.18577438714,168.05710678118,
    158.46404438965));
#1329 = VECTOR('',#1330,1.);
#1330 = DIRECTION('',(8.390181576092E-15,-0.707106781187,-0.707106781187
    ));
#1331 = ORIENTED_EDGE('',*,*,#1332,.F.);
#1332 = EDGE_CURVE('',#196,#1325,#1333,.T.);
#1333 = LINE('',#1334,#1335);
#1334 = CARTESIAN_POINT('',(157.18577438714,168.05710678118,
    158.46404438965));
#1335 = VECTOR('',#1336,1.);
#1336 = DIRECTION('',(1.,0.,1.06581410364E-14));
#1337 = PLANE('',#1338);
#1338 = AXIS2_PLACEMENT_3D('',#1339,#1340,#1341);
#1339 = CARTESIAN_POINT('',(157.18577438714,168.05710678118,
    158.46404438965));
#1340 = DIRECTION('',(-7.536443801682E-15,-0.707106781187,0.707106781187
    ));
#1341 = DIRECTION('',(8.390181576092E-15,-0.707106781187,-0.707106781187
    ));
#1342 = ADVANCED_FACE('',(#1343),#1354,.T.);
#1343 = FACE_BOUND('',#1344,.T.);
#1344 = EDGE_LOOP('',(#1345,#1346,#1347,#1353));
#1345 = ORIENTED_EDGE('',*,*,#203,.T.);
#1346 = ORIENTED_EDGE('',*,*,#1332,.T.);
#1347 = ORIENTED_EDGE('',*,*,#1348,.F.);
#1348 = EDGE_CURVE('',#1204,#1325,#1349,.T.);
#1349 = LINE('',#1350,#1351);
#1350 = CARTESIAN_POINT('',(162.18577438714,201.94289321881,
    158.46404438965));
#1351 = VECTOR('',#1352,1.);
#1352 = DIRECTION('',(2.22044604925E-16,-1.,2.025314186719E-46));
#1353 = ORIENTED_EDGE('',*,*,#1203,.F.);
#1354 = PLANE('',#1355);
#1355 = AXIS2_PLACEMENT_3D('',#1356,#1357,#1358);
#1356 = CARTESIAN_POINT('',(157.18577438714,201.94289321881,
    158.46404438965));
#1357 = DIRECTION('',(-1.06581410364E-14,-2.366582715663E-30,1.));
#1358 = DIRECTION('',(2.22044604925E-16,-1.,-8.407790785949E-45));
#1359 = ADVANCED_FACE('',(#1360,#1372,#1375,#1378,#1381,#1384),#1388,.T.
  );
#1360 = FACE_BOUND('',#1361,.T.);
#1361 = EDGE_LOOP('',(#1362,#1363,#1364,#1365,#1366,#1367,#1368,#1369,
    #1370,#1371));
#1362 = ORIENTED_EDGE('',*,*,#1348,.T.);
#1363 = ORIENTED_EDGE('',*,*,#1324,.T.);
#1364 = ORIENTED_EDGE('',*,*,#1300,.T.);
#1365 = ORIENTED_EDGE('',*,*,#1276,.T.);
#1366 = ORIENTED_EDGE('',*,*,#494,.T.);
#1367 = ORIENTED_EDGE('',*,*,#542,.F.);
#1368 = ORIENTED_EDGE('',*,*,#516,.F.);
#1369 = ORIENTED_EDGE('',*,*,#1259,.T.);
#1370 = ORIENTED_EDGE('',*,*,#1235,.T.);
#1371 = ORIENTED_EDGE('',*,*,#1211,.T.);
#1372 = FACE_BOUND('',#1373,.T.);
#1373 = EDGE_LOOP('',(#1374));
#1374 = ORIENTED_EDGE('',*,*,#1187,.T.);
#1375 = FACE_BOUND('',#1376,.T.);
#1376 = EDGE_LOOP('',(#1377));
#1377 = ORIENTED_EDGE('',*,*,#1162,.T.);
#1378 = FACE_BOUND('',#1379,.T.);
#1379 = EDGE_LOOP('',(#1380));
#1380 = ORIENTED_EDGE('',*,*,#1137,.T.);
#1381 = FACE_BOUND('',#1382,.T.);
#1382 = EDGE_LOOP('',(#1383));
#1383 = ORIENTED_EDGE('',*,*,#1112,.T.);
#1384 = FACE_BOUND('',#1385,.T.);
#1385 = EDGE_LOOP('',(#1386,#1387));
#1386 = ORIENTED_EDGE('',*,*,#839,.T.);
#1387 = ORIENTED_EDGE('',*,*,#567,.T.);
#1388 = PLANE('',#1389);
#1389 = AXIS2_PLACEMENT_3D('',#1390,#1391,#1392);
#1390 = CARTESIAN_POINT('',(162.18577438714,185.,137.81404438965));
#1391 = DIRECTION('',(1.,2.22044604925E-16,1.164346397076E-14));
#1392 = DIRECTION('',(-2.22044604925E-16,1.,2.136980158095E-44));
#1393 = ( GEOMETRIC_REPRESENTATION_CONTEXT(3) 
GLOBAL_UNCERTAINTY_ASSIGNED_CONTEXT((#1397)) 
GLOBAL_UNIT_ASSIGNED_CONTEXT((#1394,#1395,#1396)) REPRESENTATION_CONTEXT
('Context #1','3D Context with UNIT and UNCERTAINTY') );
#1394 = ( LENGTH_UNIT() NAMED_UNIT(*) SI_UNIT(.MILLI.,.METRE.) );
#1395 = ( NAMED_UNIT(*) PLANE_ANGLE_UNIT() SI_UNIT($,.RADIAN.) );
#1396 = ( NAMED_UNIT(*) SI_UNIT($,.STERADIAN.) SOLID_ANGLE_UNIT() );
#1397 = UNCERTAINTY_MEASURE_WITH_UNIT(LENGTH_MEASURE(1.E-07),#1394,
  'distance_accuracy_value','confusion accuracy');
#1398 = PRODUCT_RELATED_PRODUCT_CATEGORY('part',$,(#7));
#1399 = MECHANICAL_DESIGN_GEOMETRIC_PRESENTATION_REPRESENTATION('',(
    #1400),#1393);
#1400 = STYLED_ITEM('color',(#1401),#15);
#1401 = PRESENTATION_STYLE_ASSIGNMENT((#1402,#1408));
#1402 = SURFACE_STYLE_USAGE(.BOTH.,#1403);
#1403 = SURFACE_SIDE_STYLE('',(#1404));
#1404 = SURFACE_STYLE_FILL_AREA(#1405);
#1405 = FILL_AREA_STYLE('',(#1406));
#1406 = FILL_AREA_STYLE_COLOUR('',#1407);
#1407 = COLOUR_RGB('',0.627451011593,0.627451011593,0.627451011593);
#1408 = CURVE_STYLE('',#1409,POSITIVE_LENGTH_MEASURE(0.1),#1410);
#1409 = DRAUGHTING_PRE_DEFINED_CURVE_FONT('continuous');
#1410 = COLOUR_RGB('',9.803921802644E-02,9.803921802644E-02,
  9.803921802644E-02);
ENDSEC;
END-ISO-10303-21;
