ISO-10303-21;
HEADER;
FILE_DESCRIPTION(('FreeCAD Model'),'2;1');
FILE_NAME('Open CASCADE Shape Model','2026-08-20T21:59:37',('Author'),(
    ''),'Open CASCADE STEP processor 7.8','FreeCAD','Unknown');
FILE_SCHEMA(('AUTOMOTIVE_DESIGN { 1 0 10303 214 1 1 1 1 }'));
ENDSEC;
DATA;
#1 = APPLICATION_PROTOCOL_DEFINITION('international standard',
  'automotive_design',2000,#2);
#2 = APPLICATION_CONTEXT(
  'core data for automotive mechanical design processes');
#3 = SHAPE_DEFINITION_REPRESENTATION(#4,#10);
#4 = PRODUCT_DEFINITION_SHAPE('','',#5);
#5 = PRODUCT_DEFINITION('design','',#6,#9);
#6 = PRODUCT_DEFINITION_FORMATION('','',#7);
#7 = PRODUCT('COMPOUND001','COMPOUND001','',(#8));
#8 = PRODUCT_CONTEXT('',#2,'mechanical');
#9 = PRODUCT_DEFINITION_CONTEXT('part definition',#2,'design');
#10 = ADVANCED_BREP_SHAPE_REPRESENTATION('',(#11,#15),#1032);
#11 = AXIS2_PLACEMENT_3D('',#12,#13,#14);
#12 = CARTESIAN_POINT('',(0.,0.,0.));
#13 = DIRECTION('',(0.,0.,1.));
#14 = DIRECTION('',(1.,0.,-0.));
#15 = MANIFOLD_SOLID_BREP('',#16);
#16 = CLOSED_SHELL('',(#17,#50,#83,#116,#149,#182,#215,#248,#281,#321,
    #352,#388,#427,#479,#510,#534,#574,#597,#627,#667,#746,#790,#819,
    #842,#867,#880,#905,#930,#955,#980,#1005));
#17 = ADVANCED_FACE('',(#18),#45,.F.);
#18 = FACE_BOUND('',#19,.F.);
#19 = EDGE_LOOP('',(#20,#30,#37,#38));
#20 = ORIENTED_EDGE('',*,*,#21,.T.);
#21 = EDGE_CURVE('',#22,#24,#26,.T.);
#22 = VERTEX_POINT('',#23);
#23 = CARTESIAN_POINT('',(203.0013721636,4.520457044767,3.000000014901)
  );
#24 = VERTEX_POINT('',#25);
#25 = CARTESIAN_POINT('',(203.0000122114,-1.7763568394E-14,
    3.000000014901));
#26 = LINE('',#27,#28);
#27 = CARTESIAN_POINT('',(203.0013721636,4.520457044767,3.000000014901)
  );
#28 = VECTOR('',#29,1.);
#29 = DIRECTION('',(-3.008439458674E-04,-0.999999954746,0.));
#30 = ORIENTED_EDGE('',*,*,#31,.T.);
#31 = EDGE_CURVE('',#24,#24,#32,.T.);
#32 = CIRCLE('',#33,2.000000090507);
#33 = AXIS2_PLACEMENT_3D('',#34,#35,#36);
#34 = CARTESIAN_POINT('',(203.0000122114,-1.7763568394E-14,
    1.000000014901));
#35 = DIRECTION('',(-0.,1.,0.));
#36 = DIRECTION('',(1.,0.,0.));
#37 = ORIENTED_EDGE('',*,*,#21,.F.);
#38 = ORIENTED_EDGE('',*,*,#39,.T.);
#39 = EDGE_CURVE('',#22,#22,#40,.T.);
#40 = CIRCLE('',#41,2.);
#41 = AXIS2_PLACEMENT_3D('',#42,#43,#44);
#42 = CARTESIAN_POINT('',(203.0013721636,4.520457044723,1.000000014901)
  );
#43 = DIRECTION('',(-3.008439460855E-04,-0.999999954746,0.));
#44 = DIRECTION('',(-0.,0.,-1.));
#45 = CYLINDRICAL_SURFACE('',#46,2.);
#46 = AXIS2_PLACEMENT_3D('',#47,#48,#49);
#47 = CARTESIAN_POINT('',(203.0013721636,4.520457044767,1.000000014901)
  );
#48 = DIRECTION('',(-3.008439458674E-04,-0.999999954746,0.));
#49 = DIRECTION('',(-0.,0.,-1.));
#50 = ADVANCED_FACE('',(#51),#78,.F.);
#51 = FACE_BOUND('',#52,.F.);
#52 = EDGE_LOOP('',(#53,#63,#70,#71));
#53 = ORIENTED_EDGE('',*,*,#54,.T.);
#54 = EDGE_CURVE('',#55,#57,#59,.T.);
#55 = VERTEX_POINT('',#56);
#56 = CARTESIAN_POINT('',(268.00137019069,4.500902187994,3.000000014901)
  );
#57 = VERTEX_POINT('',#58);
#58 = CARTESIAN_POINT('',(268.00001612146,-1.7763568394E-14,
    3.000000014901));
#59 = LINE('',#60,#61);
#60 = CARTESIAN_POINT('',(268.00137019069,4.500902187994,3.000000014901)
  );
#61 = VECTOR('',#62,1.);
#62 = DIRECTION('',(-3.008439458674E-04,-0.999999954746,0.));
#63 = ORIENTED_EDGE('',*,*,#64,.T.);
#64 = EDGE_CURVE('',#57,#57,#65,.T.);
#65 = CIRCLE('',#66,2.000000090507);
#66 = AXIS2_PLACEMENT_3D('',#67,#68,#69);
#67 = CARTESIAN_POINT('',(268.00001612146,-1.7763568394E-14,
    1.000000014901));
#68 = DIRECTION('',(-0.,1.,0.));
#69 = DIRECTION('',(1.,0.,0.));
#70 = ORIENTED_EDGE('',*,*,#54,.F.);
#71 = ORIENTED_EDGE('',*,*,#72,.T.);
#72 = EDGE_CURVE('',#55,#55,#73,.T.);
#73 = CIRCLE('',#74,2.);
#74 = AXIS2_PLACEMENT_3D('',#75,#76,#77);
#75 = CARTESIAN_POINT('',(268.00137019069,4.500902187951,1.000000014901)
  );
#76 = DIRECTION('',(-3.008439460855E-04,-0.999999954746,0.));
#77 = DIRECTION('',(-0.,0.,-1.));
#78 = CYLINDRICAL_SURFACE('',#79,2.);
#79 = AXIS2_PLACEMENT_3D('',#80,#81,#82);
#80 = CARTESIAN_POINT('',(268.00137019069,4.500902187994,1.000000014901)
  );
#81 = DIRECTION('',(-3.008439458674E-04,-0.999999954746,0.));
#82 = DIRECTION('',(-0.,0.,-1.));
#83 = ADVANCED_FACE('',(#84),#111,.F.);
#84 = FACE_BOUND('',#85,.F.);
#85 = EDGE_LOOP('',(#86,#96,#103,#104));
#86 = ORIENTED_EDGE('',*,*,#87,.T.);
#87 = EDGE_CURVE('',#88,#90,#92,.T.);
#88 = VERTEX_POINT('',#89);
#89 = CARTESIAN_POINT('',(203.0013721636,4.520457044767,21.000000283122)
  );
#90 = VERTEX_POINT('',#91);
#91 = CARTESIAN_POINT('',(203.0000122114,-1.7763568394E-14,
    21.000000283122));
#92 = LINE('',#93,#94);
#93 = CARTESIAN_POINT('',(203.0013721636,4.520457044767,21.000000283122)
  );
#94 = VECTOR('',#95,1.);
#95 = DIRECTION('',(-3.008439458674E-04,-0.999999954746,0.));
#96 = ORIENTED_EDGE('',*,*,#97,.T.);
#97 = EDGE_CURVE('',#90,#90,#98,.T.);
#98 = CIRCLE('',#99,2.000000090507);
#99 = AXIS2_PLACEMENT_3D('',#100,#101,#102);
#100 = CARTESIAN_POINT('',(203.0000122114,-1.7763568394E-14,
    19.000000283122));
#101 = DIRECTION('',(-0.,1.,0.));
#102 = DIRECTION('',(1.,0.,0.));
#103 = ORIENTED_EDGE('',*,*,#87,.F.);
#104 = ORIENTED_EDGE('',*,*,#105,.T.);
#105 = EDGE_CURVE('',#88,#88,#106,.T.);
#106 = CIRCLE('',#107,2.);
#107 = AXIS2_PLACEMENT_3D('',#108,#109,#110);
#108 = CARTESIAN_POINT('',(203.0013721636,4.520457044723,19.000000283122
    ));
#109 = DIRECTION('',(-3.008439460855E-04,-0.999999954746,0.));
#110 = DIRECTION('',(-0.,0.,-1.));
#111 = CYLINDRICAL_SURFACE('',#112,2.);
#112 = AXIS2_PLACEMENT_3D('',#113,#114,#115);
#113 = CARTESIAN_POINT('',(203.0013721636,4.520457044767,19.000000283122
    ));
#114 = DIRECTION('',(-3.008439458674E-04,-0.999999954746,0.));
#115 = DIRECTION('',(-0.,0.,-1.));
#116 = ADVANCED_FACE('',(#117),#144,.F.);
#117 = FACE_BOUND('',#118,.F.);
#118 = EDGE_LOOP('',(#119,#129,#136,#137));
#119 = ORIENTED_EDGE('',*,*,#120,.T.);
#120 = EDGE_CURVE('',#121,#123,#125,.T.);
#121 = VERTEX_POINT('',#122);
#122 = CARTESIAN_POINT('',(268.00137019069,4.500902187994,
    21.000000283122));
#123 = VERTEX_POINT('',#124);
#124 = CARTESIAN_POINT('',(268.00001612146,-1.7763568394E-14,
    21.000000283122));
#125 = LINE('',#126,#127);
#126 = CARTESIAN_POINT('',(268.00137019069,4.500902187994,
    21.000000283122));
#127 = VECTOR('',#128,1.);
#128 = DIRECTION('',(-3.008439458674E-04,-0.999999954746,0.));
#129 = ORIENTED_EDGE('',*,*,#130,.T.);
#130 = EDGE_CURVE('',#123,#123,#131,.T.);
#131 = CIRCLE('',#132,2.000000090507);
#132 = AXIS2_PLACEMENT_3D('',#133,#134,#135);
#133 = CARTESIAN_POINT('',(268.00001612146,-1.7763568394E-14,
    19.000000283122));
#134 = DIRECTION('',(-0.,1.,0.));
#135 = DIRECTION('',(1.,0.,0.));
#136 = ORIENTED_EDGE('',*,*,#120,.F.);
#137 = ORIENTED_EDGE('',*,*,#138,.T.);
#138 = EDGE_CURVE('',#121,#121,#139,.T.);
#139 = CIRCLE('',#140,2.);
#140 = AXIS2_PLACEMENT_3D('',#141,#142,#143);
#141 = CARTESIAN_POINT('',(268.00137019069,4.500902187951,
    19.000000283122));
#142 = DIRECTION('',(-3.008439460855E-04,-0.999999954746,0.));
#143 = DIRECTION('',(-0.,0.,-1.));
#144 = CYLINDRICAL_SURFACE('',#145,2.);
#145 = AXIS2_PLACEMENT_3D('',#146,#147,#148);
#146 = CARTESIAN_POINT('',(268.00137019069,4.500902187994,
    19.000000283122));
#147 = DIRECTION('',(-3.008439458674E-04,-0.999999954746,0.));
#148 = DIRECTION('',(-0.,0.,-1.));
#149 = ADVANCED_FACE('',(#150),#177,.F.);
#150 = FACE_BOUND('',#151,.F.);
#151 = EDGE_LOOP('',(#152,#162,#169,#170));
#152 = ORIENTED_EDGE('',*,*,#153,.T.);
#153 = EDGE_CURVE('',#154,#156,#158,.T.);
#154 = VERTEX_POINT('',#155);
#155 = CARTESIAN_POINT('',(269.65063661331,4.5,99.855607615173));
#156 = VERTEX_POINT('',#157);
#157 = CARTESIAN_POINT('',(269.65063661331,-1.7763568394E-14,
    99.855607615173));
#158 = LINE('',#159,#160);
#159 = CARTESIAN_POINT('',(269.65063661331,4.5,99.855607615173));
#160 = VECTOR('',#161,1.);
#161 = DIRECTION('',(0.,-1.,0.));
#162 = ORIENTED_EDGE('',*,*,#163,.T.);
#163 = EDGE_CURVE('',#156,#156,#164,.T.);
#164 = CIRCLE('',#165,2.);
#165 = AXIS2_PLACEMENT_3D('',#166,#167,#168);
#166 = CARTESIAN_POINT('',(267.65063661331,-1.7763568394E-14,
    99.855607615173));
#167 = DIRECTION('',(0.,1.,0.));
#168 = DIRECTION('',(-1.,0.,0.));
#169 = ORIENTED_EDGE('',*,*,#153,.F.);
#170 = ORIENTED_EDGE('',*,*,#171,.T.);
#171 = EDGE_CURVE('',#154,#154,#172,.T.);
#172 = CIRCLE('',#173,2.);
#173 = AXIS2_PLACEMENT_3D('',#174,#175,#176);
#174 = CARTESIAN_POINT('',(267.65063661331,4.5,99.855607615173));
#175 = DIRECTION('',(0.,-1.,0.));
#176 = DIRECTION('',(-1.,0.,0.));
#177 = CYLINDRICAL_SURFACE('',#178,2.);
#178 = AXIS2_PLACEMENT_3D('',#179,#180,#181);
#179 = CARTESIAN_POINT('',(267.65063661331,4.5,99.855607615173));
#180 = DIRECTION('',(0.,-1.,0.));
#181 = DIRECTION('',(-1.,0.,0.));
#182 = ADVANCED_FACE('',(#183),#210,.F.);
#183 = FACE_BOUND('',#184,.F.);
#184 = EDGE_LOOP('',(#185,#195,#202,#203));
#185 = ORIENTED_EDGE('',*,*,#186,.T.);
#186 = EDGE_CURVE('',#187,#189,#191,.T.);
#187 = VERTEX_POINT('',#188);
#188 = CARTESIAN_POINT('',(204.90986796924,4.5,99.855607615173));
#189 = VERTEX_POINT('',#190);
#190 = CARTESIAN_POINT('',(204.90986796924,-1.7763568394E-14,
    99.855607615173));
#191 = LINE('',#192,#193);
#192 = CARTESIAN_POINT('',(204.90986796924,4.5,99.855607615173));
#193 = VECTOR('',#194,1.);
#194 = DIRECTION('',(0.,-1.,0.));
#195 = ORIENTED_EDGE('',*,*,#196,.T.);
#196 = EDGE_CURVE('',#189,#189,#197,.T.);
#197 = CIRCLE('',#198,2.);
#198 = AXIS2_PLACEMENT_3D('',#199,#200,#201);
#199 = CARTESIAN_POINT('',(202.90986796924,-1.7763568394E-14,
    99.855607615173));
#200 = DIRECTION('',(0.,1.,0.));
#201 = DIRECTION('',(-1.,0.,0.));
#202 = ORIENTED_EDGE('',*,*,#186,.F.);
#203 = ORIENTED_EDGE('',*,*,#204,.T.);
#204 = EDGE_CURVE('',#187,#187,#205,.T.);
#205 = CIRCLE('',#206,2.);
#206 = AXIS2_PLACEMENT_3D('',#207,#208,#209);
#207 = CARTESIAN_POINT('',(202.90986796924,4.5,99.855607615173));
#208 = DIRECTION('',(0.,-1.,0.));
#209 = DIRECTION('',(-1.,0.,0.));
#210 = CYLINDRICAL_SURFACE('',#211,2.);
#211 = AXIS2_PLACEMENT_3D('',#212,#213,#214);
#212 = CARTESIAN_POINT('',(202.90986796924,4.5,99.855607615173));
#213 = DIRECTION('',(0.,-1.,0.));
#214 = DIRECTION('',(-1.,0.,0.));
#215 = ADVANCED_FACE('',(#216),#243,.F.);
#216 = FACE_BOUND('',#217,.F.);
#217 = EDGE_LOOP('',(#218,#228,#235,#236));
#218 = ORIENTED_EDGE('',*,*,#219,.T.);
#219 = EDGE_CURVE('',#220,#222,#224,.T.);
#220 = VERTEX_POINT('',#221);
#221 = CARTESIAN_POINT('',(269.65063661331,4.5,116.51572239269));
#222 = VERTEX_POINT('',#223);
#223 = CARTESIAN_POINT('',(269.65063661331,-1.7763568394E-14,
    116.51572239269));
#224 = LINE('',#225,#226);
#225 = CARTESIAN_POINT('',(269.65063661331,4.5,116.51572239269));
#226 = VECTOR('',#227,1.);
#227 = DIRECTION('',(0.,-1.,0.));
#228 = ORIENTED_EDGE('',*,*,#229,.T.);
#229 = EDGE_CURVE('',#222,#222,#230,.T.);
#230 = CIRCLE('',#231,2.);
#231 = AXIS2_PLACEMENT_3D('',#232,#233,#234);
#232 = CARTESIAN_POINT('',(267.65063661331,-1.7763568394E-14,
    116.51572239269));
#233 = DIRECTION('',(0.,1.,0.));
#234 = DIRECTION('',(-1.,0.,0.));
#235 = ORIENTED_EDGE('',*,*,#219,.F.);
#236 = ORIENTED_EDGE('',*,*,#237,.T.);
#237 = EDGE_CURVE('',#220,#220,#238,.T.);
#238 = CIRCLE('',#239,2.);
#239 = AXIS2_PLACEMENT_3D('',#240,#241,#242);
#240 = CARTESIAN_POINT('',(267.65063661331,4.5,116.51572239269));
#241 = DIRECTION('',(0.,-1.,0.));
#242 = DIRECTION('',(-1.,0.,0.));
#243 = CYLINDRICAL_SURFACE('',#244,2.);
#244 = AXIS2_PLACEMENT_3D('',#245,#246,#247);
#245 = CARTESIAN_POINT('',(267.65063661331,4.5,116.51572239269));
#246 = DIRECTION('',(0.,-1.,0.));
#247 = DIRECTION('',(-1.,0.,0.));
#248 = ADVANCED_FACE('',(#249),#276,.F.);
#249 = FACE_BOUND('',#250,.F.);
#250 = EDGE_LOOP('',(#251,#261,#268,#269));
#251 = ORIENTED_EDGE('',*,*,#252,.T.);
#252 = EDGE_CURVE('',#253,#255,#257,.T.);
#253 = VERTEX_POINT('',#254);
#254 = CARTESIAN_POINT('',(204.90986796924,4.5,116.47384608697));
#255 = VERTEX_POINT('',#256);
#256 = CARTESIAN_POINT('',(204.90986796924,-1.7763568394E-14,
    116.47384608697));
#257 = LINE('',#258,#259);
#258 = CARTESIAN_POINT('',(204.90986796924,4.5,116.47384608697));
#259 = VECTOR('',#260,1.);
#260 = DIRECTION('',(0.,-1.,0.));
#261 = ORIENTED_EDGE('',*,*,#262,.T.);
#262 = EDGE_CURVE('',#255,#255,#263,.T.);
#263 = CIRCLE('',#264,2.);
#264 = AXIS2_PLACEMENT_3D('',#265,#266,#267);
#265 = CARTESIAN_POINT('',(202.90986796924,-1.7763568394E-14,
    116.47384608697));
#266 = DIRECTION('',(0.,1.,0.));
#267 = DIRECTION('',(-1.,0.,0.));
#268 = ORIENTED_EDGE('',*,*,#252,.F.);
#269 = ORIENTED_EDGE('',*,*,#270,.T.);
#270 = EDGE_CURVE('',#253,#253,#271,.T.);
#271 = CIRCLE('',#272,2.);
#272 = AXIS2_PLACEMENT_3D('',#273,#274,#275);
#273 = CARTESIAN_POINT('',(202.90986796924,4.5,116.47384608697));
#274 = DIRECTION('',(0.,-1.,0.));
#275 = DIRECTION('',(-1.,0.,0.));
#276 = CYLINDRICAL_SURFACE('',#277,2.);
#277 = AXIS2_PLACEMENT_3D('',#278,#279,#280);
#278 = CARTESIAN_POINT('',(202.90986796924,4.5,116.47384608697));
#279 = DIRECTION('',(0.,-1.,0.));
#280 = DIRECTION('',(-1.,0.,0.));
#281 = ADVANCED_FACE('',(#282),#316,.T.);
#282 = FACE_BOUND('',#283,.T.);
#283 = EDGE_LOOP('',(#284,#294,#302,#310));
#284 = ORIENTED_EDGE('',*,*,#285,.T.);
#285 = EDGE_CURVE('',#286,#288,#290,.T.);
#286 = VERTEX_POINT('',#287);
#287 = CARTESIAN_POINT('',(199.00000315904,4.521660832418,
    -1.799999448657));
#288 = VERTEX_POINT('',#289);
#289 = CARTESIAN_POINT('',(271.00000403821,4.500000067055,
    -1.799999448657));
#290 = LINE('',#291,#292);
#291 = CARTESIAN_POINT('',(199.00000315904,4.521660832418,
    -1.799999448657));
#292 = VECTOR('',#293,1.);
#293 = DIRECTION('',(0.999999954746,-3.008439460855E-04,0.));
#294 = ORIENTED_EDGE('',*,*,#295,.T.);
#295 = EDGE_CURVE('',#288,#296,#298,.T.);
#296 = VERTEX_POINT('',#297);
#297 = CARTESIAN_POINT('',(271.00000315904,-1.7763568394E-14,
    -1.799999448657));
#298 = LINE('',#299,#300);
#299 = CARTESIAN_POINT('',(271.00000403821,4.500000067055,
    -1.799999448657));
#300 = VECTOR('',#301,1.);
#301 = DIRECTION('',(-1.953707724489E-07,-1.,0.));
#302 = ORIENTED_EDGE('',*,*,#303,.T.);
#303 = EDGE_CURVE('',#296,#304,#306,.T.);
#304 = VERTEX_POINT('',#305);
#305 = CARTESIAN_POINT('',(199.00000315904,-1.7763568394E-14,
    -1.799999448657));
#306 = LINE('',#307,#308);
#307 = CARTESIAN_POINT('',(271.00000315904,-1.7763568394E-14,
    -1.799999448657));
#308 = VECTOR('',#309,1.);
#309 = DIRECTION('',(-1.,0.,0.));
#310 = ORIENTED_EDGE('',*,*,#311,.T.);
#311 = EDGE_CURVE('',#304,#286,#312,.T.);
#312 = LINE('',#313,#314);
#313 = CARTESIAN_POINT('',(199.00000315904,-1.7763568394E-14,
    -1.799999448657));
#314 = VECTOR('',#315,1.);
#315 = DIRECTION('',(0.,1.,0.));
#316 = PLANE('',#317);
#317 = AXIS2_PLACEMENT_3D('',#318,#319,#320);
#318 = CARTESIAN_POINT('',(235.00000359863,2.260830416209,
    -1.799999448657));
#319 = DIRECTION('',(0.,0.,-1.));
#320 = DIRECTION('',(-1.,0.,0.));
#321 = ADVANCED_FACE('',(#322),#347,.T.);
#322 = FACE_BOUND('',#323,.T.);
#323 = EDGE_LOOP('',(#324,#334,#340,#341));
#324 = ORIENTED_EDGE('',*,*,#325,.T.);
#325 = EDGE_CURVE('',#326,#328,#330,.T.);
#326 = VERTEX_POINT('',#327);
#327 = CARTESIAN_POINT('',(271.00000403821,4.500000067055,
    23.200000551343));
#328 = VERTEX_POINT('',#329);
#329 = CARTESIAN_POINT('',(271.00000315904,-1.7763568394E-14,
    23.200000551343));
#330 = LINE('',#331,#332);
#331 = CARTESIAN_POINT('',(271.00000315904,97.,23.200000551343));
#332 = VECTOR('',#333,1.);
#333 = DIRECTION('',(0.,-1.,0.));
#334 = ORIENTED_EDGE('',*,*,#335,.T.);
#335 = EDGE_CURVE('',#328,#296,#336,.T.);
#336 = LINE('',#337,#338);
#337 = CARTESIAN_POINT('',(271.00000315904,-1.7763568394E-14,
    23.200000551343));
#338 = VECTOR('',#339,1.);
#339 = DIRECTION('',(0.,0.,-1.));
#340 = ORIENTED_EDGE('',*,*,#295,.F.);
#341 = ORIENTED_EDGE('',*,*,#342,.F.);
#342 = EDGE_CURVE('',#326,#288,#343,.T.);
#343 = LINE('',#344,#345);
#344 = CARTESIAN_POINT('',(271.00000403821,4.500000067055,
    23.200000551343));
#345 = VECTOR('',#346,1.);
#346 = DIRECTION('',(0.,0.,-1.));
#347 = PLANE('',#348);
#348 = AXIS2_PLACEMENT_3D('',#349,#350,#351);
#349 = CARTESIAN_POINT('',(271.00000403821,4.500000067055,
    23.200000551343));
#350 = DIRECTION('',(1.,-1.953707724489E-07,0.));
#351 = DIRECTION('',(-1.953707724489E-07,-1.,0.));
#352 = ADVANCED_FACE('',(#353,#371,#374,#377,#380),#383,.T.);
#353 = FACE_BOUND('',#354,.T.);
#354 = EDGE_LOOP('',(#355,#363,#364,#365));
#355 = ORIENTED_EDGE('',*,*,#356,.F.);
#356 = EDGE_CURVE('',#326,#357,#359,.T.);
#357 = VERTEX_POINT('',#358);
#358 = CARTESIAN_POINT('',(199.00000315904,4.521660832418,
    23.200000551343));
#359 = LINE('',#360,#361);
#360 = CARTESIAN_POINT('',(231.98639024263,4.511737077112,
    23.200000551343));
#361 = VECTOR('',#362,1.);
#362 = DIRECTION('',(-0.999999954746,3.008439460855E-04,0.));
#363 = ORIENTED_EDGE('',*,*,#342,.T.);
#364 = ORIENTED_EDGE('',*,*,#285,.F.);
#365 = ORIENTED_EDGE('',*,*,#366,.F.);
#366 = EDGE_CURVE('',#357,#286,#367,.T.);
#367 = LINE('',#368,#369);
#368 = CARTESIAN_POINT('',(199.00000315904,4.521660832418,
    23.200000551343));
#369 = VECTOR('',#370,1.);
#370 = DIRECTION('',(0.,0.,-1.));
#371 = FACE_BOUND('',#372,.T.);
#372 = EDGE_LOOP('',(#373));
#373 = ORIENTED_EDGE('',*,*,#39,.T.);
#374 = FACE_BOUND('',#375,.T.);
#375 = EDGE_LOOP('',(#376));
#376 = ORIENTED_EDGE('',*,*,#72,.T.);
#377 = FACE_BOUND('',#378,.T.);
#378 = EDGE_LOOP('',(#379));
#379 = ORIENTED_EDGE('',*,*,#105,.T.);
#380 = FACE_BOUND('',#381,.T.);
#381 = EDGE_LOOP('',(#382));
#382 = ORIENTED_EDGE('',*,*,#138,.T.);
#383 = PLANE('',#384);
#384 = AXIS2_PLACEMENT_3D('',#385,#386,#387);
#385 = CARTESIAN_POINT('',(199.00000315904,4.521660832418,
    23.200000551343));
#386 = DIRECTION('',(3.008439460855E-04,0.999999954746,0.));
#387 = DIRECTION('',(0.999999954746,-3.008439460855E-04,0.));
#388 = ADVANCED_FACE('',(#389),#422,.T.);
#389 = FACE_BOUND('',#390,.T.);
#390 = EDGE_LOOP('',(#391,#392,#400,#408,#416));
#391 = ORIENTED_EDGE('',*,*,#356,.T.);
#392 = ORIENTED_EDGE('',*,*,#393,.F.);
#393 = EDGE_CURVE('',#394,#357,#396,.T.);
#394 = VERTEX_POINT('',#395);
#395 = CARTESIAN_POINT('',(199.00000315904,97.,23.200000551343));
#396 = LINE('',#397,#398);
#397 = CARTESIAN_POINT('',(199.00000315904,97.,23.200000551343));
#398 = VECTOR('',#399,1.);
#399 = DIRECTION('',(0.,-1.,0.));
#400 = ORIENTED_EDGE('',*,*,#401,.T.);
#401 = EDGE_CURVE('',#394,#402,#404,.T.);
#402 = VERTEX_POINT('',#403);
#403 = CARTESIAN_POINT('',(271.00000315904,97.,23.200000551343));
#404 = LINE('',#405,#406);
#405 = CARTESIAN_POINT('',(265.00000315904,97.,23.200000551343));
#406 = VECTOR('',#407,1.);
#407 = DIRECTION('',(1.,0.,0.));
#408 = ORIENTED_EDGE('',*,*,#409,.T.);
#409 = EDGE_CURVE('',#402,#410,#412,.T.);
#410 = VERTEX_POINT('',#411);
#411 = CARTESIAN_POINT('',(271.00000315904,95.,23.200000551343));
#412 = LINE('',#413,#414);
#413 = CARTESIAN_POINT('',(271.00000315904,95.,23.200000551343));
#414 = VECTOR('',#415,1.);
#415 = DIRECTION('',(0.,-1.,0.));
#416 = ORIENTED_EDGE('',*,*,#417,.T.);
#417 = EDGE_CURVE('',#410,#326,#418,.T.);
#418 = LINE('',#419,#420);
#419 = CARTESIAN_POINT('',(271.00000315904,97.,23.200000551343));
#420 = VECTOR('',#421,1.);
#421 = DIRECTION('',(0.,-1.,0.));
#422 = PLANE('',#423);
#423 = AXIS2_PLACEMENT_3D('',#424,#425,#426);
#424 = CARTESIAN_POINT('',(265.00000315904,95.,23.200000551343));
#425 = DIRECTION('',(0.,0.,-1.));
#426 = DIRECTION('',(-1.,0.,0.));
#427 = ADVANCED_FACE('',(#428,#462,#465,#468,#471),#474,.T.);
#428 = FACE_BOUND('',#429,.T.);
#429 = EDGE_LOOP('',(#430,#440,#448,#456));
#430 = ORIENTED_EDGE('',*,*,#431,.F.);
#431 = EDGE_CURVE('',#432,#434,#436,.T.);
#432 = VERTEX_POINT('',#433);
#433 = CARTESIAN_POINT('',(199.00000315904,4.5,95.200000551343));
#434 = VERTEX_POINT('',#435);
#435 = CARTESIAN_POINT('',(271.00000315904,4.5,95.200000551343));
#436 = LINE('',#437,#438);
#437 = CARTESIAN_POINT('',(238.00000315904,4.5,95.200000551343));
#438 = VECTOR('',#439,1.);
#439 = DIRECTION('',(1.,0.,0.));
#440 = ORIENTED_EDGE('',*,*,#441,.T.);
#441 = EDGE_CURVE('',#432,#442,#444,.T.);
#442 = VERTEX_POINT('',#443);
#443 = CARTESIAN_POINT('',(199.00000315904,4.5,120.20000055134));
#444 = LINE('',#445,#446);
#445 = CARTESIAN_POINT('',(199.00000315904,4.5,95.200000551343));
#446 = VECTOR('',#447,1.);
#447 = DIRECTION('',(0.,0.,1.));
#448 = ORIENTED_EDGE('',*,*,#449,.F.);
#449 = EDGE_CURVE('',#450,#442,#452,.T.);
#450 = VERTEX_POINT('',#451);
#451 = CARTESIAN_POINT('',(271.00000315904,4.5,120.20000055134));
#452 = LINE('',#453,#454);
#453 = CARTESIAN_POINT('',(271.00000315904,4.5,120.20000055134));
#454 = VECTOR('',#455,1.);
#455 = DIRECTION('',(-1.,0.,0.));
#456 = ORIENTED_EDGE('',*,*,#457,.F.);
#457 = EDGE_CURVE('',#434,#450,#458,.T.);
#458 = LINE('',#459,#460);
#459 = CARTESIAN_POINT('',(271.00000315904,4.5,95.200000551343));
#460 = VECTOR('',#461,1.);
#461 = DIRECTION('',(0.,0.,1.));
#462 = FACE_BOUND('',#463,.T.);
#463 = EDGE_LOOP('',(#464));
#464 = ORIENTED_EDGE('',*,*,#171,.T.);
#465 = FACE_BOUND('',#466,.T.);
#466 = EDGE_LOOP('',(#467));
#467 = ORIENTED_EDGE('',*,*,#204,.T.);
#468 = FACE_BOUND('',#469,.T.);
#469 = EDGE_LOOP('',(#470));
#470 = ORIENTED_EDGE('',*,*,#237,.T.);
#471 = FACE_BOUND('',#472,.T.);
#472 = EDGE_LOOP('',(#473));
#473 = ORIENTED_EDGE('',*,*,#270,.T.);
#474 = PLANE('',#475);
#475 = AXIS2_PLACEMENT_3D('',#476,#477,#478);
#476 = CARTESIAN_POINT('',(271.00000315904,4.5,95.200000551343));
#477 = DIRECTION('',(0.,1.,0.));
#478 = DIRECTION('',(-1.,0.,0.));
#479 = ADVANCED_FACE('',(#480),#505,.T.);
#480 = FACE_BOUND('',#481,.T.);
#481 = EDGE_LOOP('',(#482,#490,#491,#499));
#482 = ORIENTED_EDGE('',*,*,#483,.F.);
#483 = EDGE_CURVE('',#434,#484,#486,.T.);
#484 = VERTEX_POINT('',#485);
#485 = CARTESIAN_POINT('',(271.00000315904,-1.7763568394E-14,
    95.200000551343));
#486 = LINE('',#487,#488);
#487 = CARTESIAN_POINT('',(271.00000315904,97.,95.200000551343));
#488 = VECTOR('',#489,1.);
#489 = DIRECTION('',(0.,-1.,0.));
#490 = ORIENTED_EDGE('',*,*,#457,.T.);
#491 = ORIENTED_EDGE('',*,*,#492,.F.);
#492 = EDGE_CURVE('',#493,#450,#495,.T.);
#493 = VERTEX_POINT('',#494);
#494 = CARTESIAN_POINT('',(271.00000315904,-1.7763568394E-14,
    120.20000055134));
#495 = LINE('',#496,#497);
#496 = CARTESIAN_POINT('',(271.00000315904,-1.7763568394E-14,
    120.20000055134));
#497 = VECTOR('',#498,1.);
#498 = DIRECTION('',(0.,1.,0.));
#499 = ORIENTED_EDGE('',*,*,#500,.F.);
#500 = EDGE_CURVE('',#484,#493,#501,.T.);
#501 = LINE('',#502,#503);
#502 = CARTESIAN_POINT('',(271.00000315904,-1.7763568394E-14,
    95.200000551343));
#503 = VECTOR('',#504,1.);
#504 = DIRECTION('',(0.,0.,1.));
#505 = PLANE('',#506);
#506 = AXIS2_PLACEMENT_3D('',#507,#508,#509);
#507 = CARTESIAN_POINT('',(271.00000315904,-1.7763568394E-14,
    95.200000551343));
#508 = DIRECTION('',(1.,0.,0.));
#509 = DIRECTION('',(-0.,1.,0.));
#510 = ADVANCED_FACE('',(#511),#529,.T.);
#511 = FACE_BOUND('',#512,.T.);
#512 = EDGE_LOOP('',(#513,#521,#522,#523));
#513 = ORIENTED_EDGE('',*,*,#514,.T.);
#514 = EDGE_CURVE('',#515,#493,#517,.T.);
#515 = VERTEX_POINT('',#516);
#516 = CARTESIAN_POINT('',(199.00000315904,-1.7763568394E-14,
    120.20000055134));
#517 = LINE('',#518,#519);
#518 = CARTESIAN_POINT('',(199.00000315904,-1.7763568394E-14,
    120.20000055134));
#519 = VECTOR('',#520,1.);
#520 = DIRECTION('',(1.,0.,0.));
#521 = ORIENTED_EDGE('',*,*,#492,.T.);
#522 = ORIENTED_EDGE('',*,*,#449,.T.);
#523 = ORIENTED_EDGE('',*,*,#524,.T.);
#524 = EDGE_CURVE('',#442,#515,#525,.T.);
#525 = LINE('',#526,#527);
#526 = CARTESIAN_POINT('',(199.00000315904,4.5,120.20000055134));
#527 = VECTOR('',#528,1.);
#528 = DIRECTION('',(0.,-1.,0.));
#529 = PLANE('',#530);
#530 = AXIS2_PLACEMENT_3D('',#531,#532,#533);
#531 = CARTESIAN_POINT('',(235.00000315904,2.25,120.20000055134));
#532 = DIRECTION('',(0.,0.,1.));
#533 = DIRECTION('',(1.,0.,-0.));
#534 = ADVANCED_FACE('',(#535),#569,.T.);
#535 = FACE_BOUND('',#536,.T.);
#536 = EDGE_LOOP('',(#537,#547,#555,#563));
#537 = ORIENTED_EDGE('',*,*,#538,.F.);
#538 = EDGE_CURVE('',#539,#541,#543,.T.);
#539 = VERTEX_POINT('',#540);
#540 = CARTESIAN_POINT('',(199.00000315904,95.,30.000000447035));
#541 = VERTEX_POINT('',#542);
#542 = CARTESIAN_POINT('',(271.00000315904,95.,30.000000447035));
#543 = LINE('',#544,#545);
#544 = CARTESIAN_POINT('',(253.00000359863,95.,30.000000447035));
#545 = VECTOR('',#546,1.);
#546 = DIRECTION('',(1.,0.,0.));
#547 = ORIENTED_EDGE('',*,*,#548,.T.);
#548 = EDGE_CURVE('',#539,#549,#551,.T.);
#549 = VERTEX_POINT('',#550);
#550 = CARTESIAN_POINT('',(199.00000315904,-1.7763568394E-14,
    30.000000447035));
#551 = LINE('',#552,#553);
#552 = CARTESIAN_POINT('',(199.00000315904,97.,30.000000447035));
#553 = VECTOR('',#554,1.);
#554 = DIRECTION('',(0.,-1.,0.));
#555 = ORIENTED_EDGE('',*,*,#556,.F.);
#556 = EDGE_CURVE('',#557,#549,#559,.T.);
#557 = VERTEX_POINT('',#558);
#558 = CARTESIAN_POINT('',(271.00000403821,-1.7763568394E-14,
    30.000000447035));
#559 = LINE('',#560,#561);
#560 = CARTESIAN_POINT('',(271.00000403821,-1.7763568394E-14,
    30.000000447035));
#561 = VECTOR('',#562,1.);
#562 = DIRECTION('',(-1.,0.,0.));
#563 = ORIENTED_EDGE('',*,*,#564,.F.);
#564 = EDGE_CURVE('',#541,#557,#565,.T.);
#565 = LINE('',#566,#567);
#566 = CARTESIAN_POINT('',(271.00000403821,97.,30.000000447035));
#567 = VECTOR('',#568,1.);
#568 = DIRECTION('',(0.,-1.,0.));
#569 = PLANE('',#570);
#570 = AXIS2_PLACEMENT_3D('',#571,#572,#573);
#571 = CARTESIAN_POINT('',(271.00000403821,97.,30.000000447035));
#572 = DIRECTION('',(0.,0.,1.));
#573 = DIRECTION('',(-1.,0.,0.));
#574 = ADVANCED_FACE('',(#575),#592,.T.);
#575 = FACE_BOUND('',#576,.T.);
#576 = EDGE_LOOP('',(#577,#583,#584,#590,#591));
#577 = ORIENTED_EDGE('',*,*,#578,.T.);
#578 = EDGE_CURVE('',#410,#541,#579,.T.);
#579 = LINE('',#580,#581);
#580 = CARTESIAN_POINT('',(271.00000315904,95.,89.200000551343));
#581 = VECTOR('',#582,1.);
#582 = DIRECTION('',(0.,0.,1.));
#583 = ORIENTED_EDGE('',*,*,#564,.T.);
#584 = ORIENTED_EDGE('',*,*,#585,.F.);
#585 = EDGE_CURVE('',#328,#557,#586,.T.);
#586 = LINE('',#587,#588);
#587 = CARTESIAN_POINT('',(271.00000403821,-1.7763568394E-14,
    30.000000447035));
#588 = VECTOR('',#589,1.);
#589 = DIRECTION('',(1.292894856774E-07,0.,1.));
#590 = ORIENTED_EDGE('',*,*,#325,.F.);
#591 = ORIENTED_EDGE('',*,*,#417,.F.);
#592 = PLANE('',#593);
#593 = AXIS2_PLACEMENT_3D('',#594,#595,#596);
#594 = CARTESIAN_POINT('',(271.00000315904,97.,23.200000551343));
#595 = DIRECTION('',(1.,0.,-1.292894856774E-07));
#596 = DIRECTION('',(1.292894856774E-07,0.,1.));
#597 = ADVANCED_FACE('',(#598,#610,#613,#616,#619),#622,.T.);
#598 = FACE_BOUND('',#599,.T.);
#599 = EDGE_LOOP('',(#600,#601,#602,#608,#609));
#600 = ORIENTED_EDGE('',*,*,#585,.T.);
#601 = ORIENTED_EDGE('',*,*,#556,.T.);
#602 = ORIENTED_EDGE('',*,*,#603,.T.);
#603 = EDGE_CURVE('',#549,#304,#604,.T.);
#604 = LINE('',#605,#606);
#605 = CARTESIAN_POINT('',(199.00000315904,-1.7763568394E-14,
    23.200000551343));
#606 = VECTOR('',#607,1.);
#607 = DIRECTION('',(0.,0.,-1.));
#608 = ORIENTED_EDGE('',*,*,#303,.F.);
#609 = ORIENTED_EDGE('',*,*,#335,.F.);
#610 = FACE_BOUND('',#611,.T.);
#611 = EDGE_LOOP('',(#612));
#612 = ORIENTED_EDGE('',*,*,#31,.T.);
#613 = FACE_BOUND('',#614,.T.);
#614 = EDGE_LOOP('',(#615));
#615 = ORIENTED_EDGE('',*,*,#64,.T.);
#616 = FACE_BOUND('',#617,.T.);
#617 = EDGE_LOOP('',(#618));
#618 = ORIENTED_EDGE('',*,*,#97,.T.);
#619 = FACE_BOUND('',#620,.T.);
#620 = EDGE_LOOP('',(#621));
#621 = ORIENTED_EDGE('',*,*,#130,.T.);
#622 = PLANE('',#623);
#623 = AXIS2_PLACEMENT_3D('',#624,#625,#626);
#624 = CARTESIAN_POINT('',(235.00000359863,-1.7763568394E-14,
    26.600000499189));
#625 = DIRECTION('',(0.,-1.,0.));
#626 = DIRECTION('',(0.,0.,-1.));
#627 = ADVANCED_FACE('',(#628),#662,.T.);
#628 = FACE_BOUND('',#629,.T.);
#629 = EDGE_LOOP('',(#630,#638,#646,#654,#660,#661));
#630 = ORIENTED_EDGE('',*,*,#631,.F.);
#631 = EDGE_CURVE('',#632,#402,#634,.T.);
#632 = VERTEX_POINT('',#633);
#633 = CARTESIAN_POINT('',(271.00000315904,97.,95.200000551343));
#634 = LINE('',#635,#636);
#635 = CARTESIAN_POINT('',(271.00000315904,97.,29.200000551343));
#636 = VECTOR('',#637,1.);
#637 = DIRECTION('',(0.,0.,-1.));
#638 = ORIENTED_EDGE('',*,*,#639,.F.);
#639 = EDGE_CURVE('',#640,#632,#642,.T.);
#640 = VERTEX_POINT('',#641);
#641 = CARTESIAN_POINT('',(271.00000315904,95.,95.200000551343));
#642 = LINE('',#643,#644);
#643 = CARTESIAN_POINT('',(271.00000315904,95.,95.200000551343));
#644 = VECTOR('',#645,1.);
#645 = DIRECTION('',(0.,1.,0.));
#646 = ORIENTED_EDGE('',*,*,#647,.F.);
#647 = EDGE_CURVE('',#648,#640,#650,.T.);
#648 = VERTEX_POINT('',#649);
#649 = CARTESIAN_POINT('',(271.00000403821,95.,89.000001326203));
#650 = LINE('',#651,#652);
#651 = CARTESIAN_POINT('',(271.00000315904,95.,89.200000551343));
#652 = VECTOR('',#653,1.);
#653 = DIRECTION('',(0.,0.,1.));
#654 = ORIENTED_EDGE('',*,*,#655,.F.);
#655 = EDGE_CURVE('',#541,#648,#656,.T.);
#656 = LINE('',#657,#658);
#657 = CARTESIAN_POINT('',(271.00000315904,95.,89.200000551343));
#658 = VECTOR('',#659,1.);
#659 = DIRECTION('',(0.,0.,1.));
#660 = ORIENTED_EDGE('',*,*,#578,.F.);
#661 = ORIENTED_EDGE('',*,*,#409,.F.);
#662 = PLANE('',#663);
#663 = AXIS2_PLACEMENT_3D('',#664,#665,#666);
#664 = CARTESIAN_POINT('',(271.00000315904,95.,89.200000551343));
#665 = DIRECTION('',(1.,0.,0.));
#666 = DIRECTION('',(0.,0.,-1.));
#667 = ADVANCED_FACE('',(#668,#686,#697,#708,#719,#730),#741,.T.);
#668 = FACE_BOUND('',#669,.T.);
#669 = EDGE_LOOP('',(#670,#678,#684,#685));
#670 = ORIENTED_EDGE('',*,*,#671,.T.);
#671 = EDGE_CURVE('',#394,#672,#674,.T.);
#672 = VERTEX_POINT('',#673);
#673 = CARTESIAN_POINT('',(199.00000315904,97.,95.200000551343));
#674 = LINE('',#675,#676);
#675 = CARTESIAN_POINT('',(199.00000315904,97.,89.200000551343));
#676 = VECTOR('',#677,1.);
#677 = DIRECTION('',(0.,0.,1.));
#678 = ORIENTED_EDGE('',*,*,#679,.F.);
#679 = EDGE_CURVE('',#632,#672,#680,.T.);
#680 = LINE('',#681,#682);
#681 = CARTESIAN_POINT('',(205.00000315904,97.,95.200000551343));
#682 = VECTOR('',#683,1.);
#683 = DIRECTION('',(-1.,0.,0.));
#684 = ORIENTED_EDGE('',*,*,#631,.T.);
#685 = ORIENTED_EDGE('',*,*,#401,.F.);
#686 = FACE_BOUND('',#687,.T.);
#687 = EDGE_LOOP('',(#688));
#688 = ORIENTED_EDGE('',*,*,#689,.T.);
#689 = EDGE_CURVE('',#690,#690,#692,.T.);
#690 = VERTEX_POINT('',#691);
#691 = CARTESIAN_POINT('',(246.,97.,59.229786425774));
#692 = CIRCLE('',#693,11.);
#693 = AXIS2_PLACEMENT_3D('',#694,#695,#696);
#694 = CARTESIAN_POINT('',(235.,97.,59.229786425774));
#695 = DIRECTION('',(0.,-1.,0.));
#696 = DIRECTION('',(-1.,0.,0.));
#697 = FACE_BOUND('',#698,.T.);
#698 = EDGE_LOOP('',(#699));
#699 = ORIENTED_EDGE('',*,*,#700,.T.);
#700 = EDGE_CURVE('',#701,#701,#703,.T.);
#701 = VERTEX_POINT('',#702);
#702 = CARTESIAN_POINT('',(236.3,97.,73.229786425774));
#703 = CIRCLE('',#704,1.3);
#704 = AXIS2_PLACEMENT_3D('',#705,#706,#707);
#705 = CARTESIAN_POINT('',(235.,97.,73.229786425774));
#706 = DIRECTION('',(0.,-1.,0.));
#707 = DIRECTION('',(-1.,0.,0.));
#708 = FACE_BOUND('',#709,.T.);
#709 = EDGE_LOOP('',(#710));
#710 = ORIENTED_EDGE('',*,*,#711,.T.);
#711 = EDGE_CURVE('',#712,#712,#714,.T.);
#712 = VERTEX_POINT('',#713);
#713 = CARTESIAN_POINT('',(250.3,97.,59.229786425774));
#714 = CIRCLE('',#715,1.3);
#715 = AXIS2_PLACEMENT_3D('',#716,#717,#718);
#716 = CARTESIAN_POINT('',(249.,97.,59.229786425774));
#717 = DIRECTION('',(0.,-1.,0.));
#718 = DIRECTION('',(-1.,0.,0.));
#719 = FACE_BOUND('',#720,.T.);
#720 = EDGE_LOOP('',(#721));
#721 = ORIENTED_EDGE('',*,*,#722,.T.);
#722 = EDGE_CURVE('',#723,#723,#725,.T.);
#723 = VERTEX_POINT('',#724);
#724 = CARTESIAN_POINT('',(222.3,97.,59.229786425774));
#725 = CIRCLE('',#726,1.3);
#726 = AXIS2_PLACEMENT_3D('',#727,#728,#729);
#727 = CARTESIAN_POINT('',(221.,97.,59.229786425774));
#728 = DIRECTION('',(0.,-1.,0.));
#729 = DIRECTION('',(-1.,0.,0.));
#730 = FACE_BOUND('',#731,.T.);
#731 = EDGE_LOOP('',(#732));
#732 = ORIENTED_EDGE('',*,*,#733,.T.);
#733 = EDGE_CURVE('',#734,#734,#736,.T.);
#734 = VERTEX_POINT('',#735);
#735 = CARTESIAN_POINT('',(236.3,97.,45.229786425774));
#736 = CIRCLE('',#737,1.3);
#737 = AXIS2_PLACEMENT_3D('',#738,#739,#740);
#738 = CARTESIAN_POINT('',(235.,97.,45.229786425774));
#739 = DIRECTION('',(0.,-1.,0.));
#740 = DIRECTION('',(-1.,0.,0.));
#741 = PLANE('',#742);
#742 = AXIS2_PLACEMENT_3D('',#743,#744,#745);
#743 = CARTESIAN_POINT('',(235.00000315904,97.,59.200000551343));
#744 = DIRECTION('',(0.,1.,0.));
#745 = DIRECTION('',(0.,-0.,1.));
#746 = ADVANCED_FACE('',(#747),#785,.T.);
#747 = FACE_BOUND('',#748,.T.);
#748 = EDGE_LOOP('',(#749,#757,#765,#771,#772,#773,#779,#780,#781,#782,
    #783,#784));
#749 = ORIENTED_EDGE('',*,*,#750,.F.);
#750 = EDGE_CURVE('',#751,#539,#753,.T.);
#751 = VERTEX_POINT('',#752);
#752 = CARTESIAN_POINT('',(199.00000315904,95.,89.000001326203));
#753 = LINE('',#754,#755);
#754 = CARTESIAN_POINT('',(199.00000315904,95.,29.200000551343));
#755 = VECTOR('',#756,1.);
#756 = DIRECTION('',(0.,0.,-1.));
#757 = ORIENTED_EDGE('',*,*,#758,.T.);
#758 = EDGE_CURVE('',#751,#759,#761,.T.);
#759 = VERTEX_POINT('',#760);
#760 = CARTESIAN_POINT('',(199.00000315904,-1.7763568394E-14,
    89.000001326203));
#761 = LINE('',#762,#763);
#762 = CARTESIAN_POINT('',(199.00000315904,97.,89.000001326203));
#763 = VECTOR('',#764,1.);
#764 = DIRECTION('',(0.,-1.,0.));
#765 = ORIENTED_EDGE('',*,*,#766,.T.);
#766 = EDGE_CURVE('',#759,#515,#767,.T.);
#767 = LINE('',#768,#769);
#768 = CARTESIAN_POINT('',(199.00000315904,-1.7763568394E-14,
    95.200000551343));
#769 = VECTOR('',#770,1.);
#770 = DIRECTION('',(0.,0.,1.));
#771 = ORIENTED_EDGE('',*,*,#524,.F.);
#772 = ORIENTED_EDGE('',*,*,#441,.F.);
#773 = ORIENTED_EDGE('',*,*,#774,.F.);
#774 = EDGE_CURVE('',#672,#432,#775,.T.);
#775 = LINE('',#776,#777);
#776 = CARTESIAN_POINT('',(199.00000315904,95.,95.200000551343));
#777 = VECTOR('',#778,1.);
#778 = DIRECTION('',(0.,-1.,0.));
#779 = ORIENTED_EDGE('',*,*,#671,.F.);
#780 = ORIENTED_EDGE('',*,*,#393,.T.);
#781 = ORIENTED_EDGE('',*,*,#366,.T.);
#782 = ORIENTED_EDGE('',*,*,#311,.F.);
#783 = ORIENTED_EDGE('',*,*,#603,.F.);
#784 = ORIENTED_EDGE('',*,*,#548,.F.);
#785 = PLANE('',#786);
#786 = AXIS2_PLACEMENT_3D('',#787,#788,#789);
#787 = CARTESIAN_POINT('',(199.00000315904,95.,29.200000551343));
#788 = DIRECTION('',(-1.,0.,0.));
#789 = DIRECTION('',(0.,0.,1.));
#790 = ADVANCED_FACE('',(#791),#814,.T.);
#791 = FACE_BOUND('',#792,.T.);
#792 = EDGE_LOOP('',(#793,#799,#807,#813));
#793 = ORIENTED_EDGE('',*,*,#794,.F.);
#794 = EDGE_CURVE('',#648,#751,#795,.T.);
#795 = LINE('',#796,#797);
#796 = CARTESIAN_POINT('',(217.00000315904,95.,89.000001326203));
#797 = VECTOR('',#798,1.);
#798 = DIRECTION('',(-1.,0.,0.));
#799 = ORIENTED_EDGE('',*,*,#800,.T.);
#800 = EDGE_CURVE('',#648,#801,#803,.T.);
#801 = VERTEX_POINT('',#802);
#802 = CARTESIAN_POINT('',(271.00000403821,-1.7763568394E-14,
    89.000001326203));
#803 = LINE('',#804,#805);
#804 = CARTESIAN_POINT('',(271.00000403821,97.,89.000001326203));
#805 = VECTOR('',#806,1.);
#806 = DIRECTION('',(0.,-1.,0.));
#807 = ORIENTED_EDGE('',*,*,#808,.F.);
#808 = EDGE_CURVE('',#759,#801,#809,.T.);
#809 = LINE('',#810,#811);
#810 = CARTESIAN_POINT('',(271.00000403821,-1.7763568394E-14,
    89.000001326203));
#811 = VECTOR('',#812,1.);
#812 = DIRECTION('',(1.,0.,0.));
#813 = ORIENTED_EDGE('',*,*,#758,.F.);
#814 = PLANE('',#815);
#815 = AXIS2_PLACEMENT_3D('',#816,#817,#818);
#816 = CARTESIAN_POINT('',(199.00000315904,97.,89.000001326203));
#817 = DIRECTION('',(0.,0.,-1.));
#818 = DIRECTION('',(1.,0.,0.));
#819 = ADVANCED_FACE('',(#820),#837,.T.);
#820 = FACE_BOUND('',#821,.T.);
#821 = EDGE_LOOP('',(#822,#823,#829,#830,#836));
#822 = ORIENTED_EDGE('',*,*,#647,.T.);
#823 = ORIENTED_EDGE('',*,*,#824,.T.);
#824 = EDGE_CURVE('',#640,#434,#825,.T.);
#825 = LINE('',#826,#827);
#826 = CARTESIAN_POINT('',(271.00000315904,97.,95.200000551343));
#827 = VECTOR('',#828,1.);
#828 = DIRECTION('',(0.,-1.,0.));
#829 = ORIENTED_EDGE('',*,*,#483,.T.);
#830 = ORIENTED_EDGE('',*,*,#831,.F.);
#831 = EDGE_CURVE('',#801,#484,#832,.T.);
#832 = LINE('',#833,#834);
#833 = CARTESIAN_POINT('',(271.00000403821,-1.7763568394E-14,
    89.000001326203));
#834 = VECTOR('',#835,1.);
#835 = DIRECTION('',(-1.41801386935E-07,0.,1.));
#836 = ORIENTED_EDGE('',*,*,#800,.F.);
#837 = PLANE('',#838);
#838 = AXIS2_PLACEMENT_3D('',#839,#840,#841);
#839 = CARTESIAN_POINT('',(271.00000403821,97.,89.000001326203));
#840 = DIRECTION('',(1.,0.,1.41801386935E-07));
#841 = DIRECTION('',(-1.41801386935E-07,0.,1.));
#842 = ADVANCED_FACE('',(#843,#850,#853,#856,#859),#862,.T.);
#843 = FACE_BOUND('',#844,.T.);
#844 = EDGE_LOOP('',(#845,#846,#847,#848,#849));
#845 = ORIENTED_EDGE('',*,*,#808,.T.);
#846 = ORIENTED_EDGE('',*,*,#831,.T.);
#847 = ORIENTED_EDGE('',*,*,#500,.T.);
#848 = ORIENTED_EDGE('',*,*,#514,.F.);
#849 = ORIENTED_EDGE('',*,*,#766,.F.);
#850 = FACE_BOUND('',#851,.T.);
#851 = EDGE_LOOP('',(#852));
#852 = ORIENTED_EDGE('',*,*,#163,.T.);
#853 = FACE_BOUND('',#854,.T.);
#854 = EDGE_LOOP('',(#855));
#855 = ORIENTED_EDGE('',*,*,#196,.T.);
#856 = FACE_BOUND('',#857,.T.);
#857 = EDGE_LOOP('',(#858));
#858 = ORIENTED_EDGE('',*,*,#229,.T.);
#859 = FACE_BOUND('',#860,.T.);
#860 = EDGE_LOOP('',(#861));
#861 = ORIENTED_EDGE('',*,*,#262,.T.);
#862 = PLANE('',#863);
#863 = AXIS2_PLACEMENT_3D('',#864,#865,#866);
#864 = CARTESIAN_POINT('',(235.00000359863,-1.7763568394E-14,
    92.100000938773));
#865 = DIRECTION('',(0.,-1.,0.));
#866 = DIRECTION('',(0.,0.,-1.));
#867 = ADVANCED_FACE('',(#868),#875,.T.);
#868 = FACE_BOUND('',#869,.T.);
#869 = EDGE_LOOP('',(#870,#871,#872,#873,#874));
#870 = ORIENTED_EDGE('',*,*,#431,.T.);
#871 = ORIENTED_EDGE('',*,*,#824,.F.);
#872 = ORIENTED_EDGE('',*,*,#639,.T.);
#873 = ORIENTED_EDGE('',*,*,#679,.T.);
#874 = ORIENTED_EDGE('',*,*,#774,.T.);
#875 = PLANE('',#876);
#876 = AXIS2_PLACEMENT_3D('',#877,#878,#879);
#877 = CARTESIAN_POINT('',(205.00000315904,95.,95.200000551343));
#878 = DIRECTION('',(0.,0.,1.));
#879 = DIRECTION('',(1.,0.,-0.));
#880 = ADVANCED_FACE('',(#881),#900,.F.);
#881 = FACE_BOUND('',#882,.F.);
#882 = EDGE_LOOP('',(#883,#891,#892,#893));
#883 = ORIENTED_EDGE('',*,*,#884,.T.);
#884 = EDGE_CURVE('',#885,#734,#887,.T.);
#885 = VERTEX_POINT('',#886);
#886 = CARTESIAN_POINT('',(236.3,95.,45.229786425774));
#887 = LINE('',#888,#889);
#888 = CARTESIAN_POINT('',(236.3,94.763057964663,45.229786425774));
#889 = VECTOR('',#890,1.);
#890 = DIRECTION('',(0.,1.,2.22044604925E-15));
#891 = ORIENTED_EDGE('',*,*,#733,.T.);
#892 = ORIENTED_EDGE('',*,*,#884,.F.);
#893 = ORIENTED_EDGE('',*,*,#894,.T.);
#894 = EDGE_CURVE('',#885,#885,#895,.T.);
#895 = CIRCLE('',#896,1.3);
#896 = AXIS2_PLACEMENT_3D('',#897,#898,#899);
#897 = CARTESIAN_POINT('',(235.,95.,45.229786425774));
#898 = DIRECTION('',(0.,1.,0.));
#899 = DIRECTION('',(-1.,0.,0.));
#900 = CYLINDRICAL_SURFACE('',#901,1.3);
#901 = AXIS2_PLACEMENT_3D('',#902,#903,#904);
#902 = CARTESIAN_POINT('',(235.,94.763057964663,45.229786425774));
#903 = DIRECTION('',(0.,1.,2.22044604925E-15));
#904 = DIRECTION('',(-1.,0.,0.));
#905 = ADVANCED_FACE('',(#906),#925,.F.);
#906 = FACE_BOUND('',#907,.F.);
#907 = EDGE_LOOP('',(#908,#916,#917,#918));
#908 = ORIENTED_EDGE('',*,*,#909,.T.);
#909 = EDGE_CURVE('',#910,#723,#912,.T.);
#910 = VERTEX_POINT('',#911);
#911 = CARTESIAN_POINT('',(222.3,95.,59.229786425774));
#912 = LINE('',#913,#914);
#913 = CARTESIAN_POINT('',(222.3,94.763057964663,59.229786425774));
#914 = VECTOR('',#915,1.);
#915 = DIRECTION('',(0.,1.,2.22044604925E-15));
#916 = ORIENTED_EDGE('',*,*,#722,.T.);
#917 = ORIENTED_EDGE('',*,*,#909,.F.);
#918 = ORIENTED_EDGE('',*,*,#919,.T.);
#919 = EDGE_CURVE('',#910,#910,#920,.T.);
#920 = CIRCLE('',#921,1.3);
#921 = AXIS2_PLACEMENT_3D('',#922,#923,#924);
#922 = CARTESIAN_POINT('',(221.,95.,59.229786425774));
#923 = DIRECTION('',(0.,1.,0.));
#924 = DIRECTION('',(-1.,0.,0.));
#925 = CYLINDRICAL_SURFACE('',#926,1.3);
#926 = AXIS2_PLACEMENT_3D('',#927,#928,#929);
#927 = CARTESIAN_POINT('',(221.,94.763057964663,59.229786425774));
#928 = DIRECTION('',(0.,1.,2.22044604925E-15));
#929 = DIRECTION('',(-1.,0.,0.));
#930 = ADVANCED_FACE('',(#931),#950,.F.);
#931 = FACE_BOUND('',#932,.F.);
#932 = EDGE_LOOP('',(#933,#941,#942,#943));
#933 = ORIENTED_EDGE('',*,*,#934,.T.);
#934 = EDGE_CURVE('',#935,#712,#937,.T.);
#935 = VERTEX_POINT('',#936);
#936 = CARTESIAN_POINT('',(250.3,95.,59.229786425774));
#937 = LINE('',#938,#939);
#938 = CARTESIAN_POINT('',(250.3,94.763057964663,59.229786425774));
#939 = VECTOR('',#940,1.);
#940 = DIRECTION('',(0.,1.,2.22044604925E-15));
#941 = ORIENTED_EDGE('',*,*,#711,.T.);
#942 = ORIENTED_EDGE('',*,*,#934,.F.);
#943 = ORIENTED_EDGE('',*,*,#944,.T.);
#944 = EDGE_CURVE('',#935,#935,#945,.T.);
#945 = CIRCLE('',#946,1.3);
#946 = AXIS2_PLACEMENT_3D('',#947,#948,#949);
#947 = CARTESIAN_POINT('',(249.,95.,59.229786425774));
#948 = DIRECTION('',(0.,1.,0.));
#949 = DIRECTION('',(-1.,0.,0.));
#950 = CYLINDRICAL_SURFACE('',#951,1.3);
#951 = AXIS2_PLACEMENT_3D('',#952,#953,#954);
#952 = CARTESIAN_POINT('',(249.,94.763057964663,59.229786425774));
#953 = DIRECTION('',(0.,1.,2.22044604925E-15));
#954 = DIRECTION('',(-1.,0.,0.));
#955 = ADVANCED_FACE('',(#956),#975,.F.);
#956 = FACE_BOUND('',#957,.F.);
#957 = EDGE_LOOP('',(#958,#966,#967,#968));
#958 = ORIENTED_EDGE('',*,*,#959,.T.);
#959 = EDGE_CURVE('',#960,#701,#962,.T.);
#960 = VERTEX_POINT('',#961);
#961 = CARTESIAN_POINT('',(236.3,95.,73.229786425774));
#962 = LINE('',#963,#964);
#963 = CARTESIAN_POINT('',(236.3,94.763057964663,73.229786425774));
#964 = VECTOR('',#965,1.);
#965 = DIRECTION('',(0.,1.,2.22044604925E-15));
#966 = ORIENTED_EDGE('',*,*,#700,.T.);
#967 = ORIENTED_EDGE('',*,*,#959,.F.);
#968 = ORIENTED_EDGE('',*,*,#969,.T.);
#969 = EDGE_CURVE('',#960,#960,#970,.T.);
#970 = CIRCLE('',#971,1.3);
#971 = AXIS2_PLACEMENT_3D('',#972,#973,#974);
#972 = CARTESIAN_POINT('',(235.,95.,73.229786425774));
#973 = DIRECTION('',(0.,1.,0.));
#974 = DIRECTION('',(-1.,0.,0.));
#975 = CYLINDRICAL_SURFACE('',#976,1.3);
#976 = AXIS2_PLACEMENT_3D('',#977,#978,#979);
#977 = CARTESIAN_POINT('',(235.,94.763057964663,73.229786425774));
#978 = DIRECTION('',(0.,1.,2.22044604925E-15));
#979 = DIRECTION('',(-1.,0.,0.));
#980 = ADVANCED_FACE('',(#981),#1000,.F.);
#981 = FACE_BOUND('',#982,.F.);
#982 = EDGE_LOOP('',(#983,#991,#992,#993));
#983 = ORIENTED_EDGE('',*,*,#984,.T.);
#984 = EDGE_CURVE('',#985,#690,#987,.T.);
#985 = VERTEX_POINT('',#986);
#986 = CARTESIAN_POINT('',(246.,95.,59.229786425774));
#987 = LINE('',#988,#989);
#988 = CARTESIAN_POINT('',(246.,94.763057964663,59.229786425774));
#989 = VECTOR('',#990,1.);
#990 = DIRECTION('',(0.,1.,2.22044604925E-15));
#991 = ORIENTED_EDGE('',*,*,#689,.T.);
#992 = ORIENTED_EDGE('',*,*,#984,.F.);
#993 = ORIENTED_EDGE('',*,*,#994,.T.);
#994 = EDGE_CURVE('',#985,#985,#995,.T.);
#995 = CIRCLE('',#996,11.);
#996 = AXIS2_PLACEMENT_3D('',#997,#998,#999);
#997 = CARTESIAN_POINT('',(235.,95.,59.229786425774));
#998 = DIRECTION('',(0.,1.,0.));
#999 = DIRECTION('',(-1.,0.,0.));
#1000 = CYLINDRICAL_SURFACE('',#1001,11.);
#1001 = AXIS2_PLACEMENT_3D('',#1002,#1003,#1004);
#1002 = CARTESIAN_POINT('',(235.,94.763057964663,59.229786425774));
#1003 = DIRECTION('',(0.,1.,2.22044604925E-15));
#1004 = DIRECTION('',(-1.,0.,0.));
#1005 = ADVANCED_FACE('',(#1006,#1012,#1015,#1018,#1021,#1024),#1027,.F.
  );
#1006 = FACE_BOUND('',#1007,.T.);
#1007 = EDGE_LOOP('',(#1008,#1009,#1010,#1011));
#1008 = ORIENTED_EDGE('',*,*,#538,.T.);
#1009 = ORIENTED_EDGE('',*,*,#655,.T.);
#1010 = ORIENTED_EDGE('',*,*,#794,.T.);
#1011 = ORIENTED_EDGE('',*,*,#750,.T.);
#1012 = FACE_BOUND('',#1013,.T.);
#1013 = EDGE_LOOP('',(#1014));
#1014 = ORIENTED_EDGE('',*,*,#994,.T.);
#1015 = FACE_BOUND('',#1016,.T.);
#1016 = EDGE_LOOP('',(#1017));
#1017 = ORIENTED_EDGE('',*,*,#969,.T.);
#1018 = FACE_BOUND('',#1019,.T.);
#1019 = EDGE_LOOP('',(#1020));
#1020 = ORIENTED_EDGE('',*,*,#944,.T.);
#1021 = FACE_BOUND('',#1022,.T.);
#1022 = EDGE_LOOP('',(#1023));
#1023 = ORIENTED_EDGE('',*,*,#919,.T.);
#1024 = FACE_BOUND('',#1025,.T.);
#1025 = EDGE_LOOP('',(#1026));
#1026 = ORIENTED_EDGE('',*,*,#894,.T.);
#1027 = PLANE('',#1028);
#1028 = AXIS2_PLACEMENT_3D('',#1029,#1030,#1031);
#1029 = CARTESIAN_POINT('',(235.00000315904,95.,59.200000551343));
#1030 = DIRECTION('',(0.,1.,0.));
#1031 = DIRECTION('',(1.,0.,0.));
#1032 = ( GEOMETRIC_REPRESENTATION_CONTEXT(3) 
GLOBAL_UNCERTAINTY_ASSIGNED_CONTEXT((#1036)) 
GLOBAL_UNIT_ASSIGNED_CONTEXT((#1033,#1034,#1035)) REPRESENTATION_CONTEXT
('Context #1','3D Context with UNIT and UNCERTAINTY') );
#1033 = ( LENGTH_UNIT() NAMED_UNIT(*) SI_UNIT(.MILLI.,.METRE.) );
#1034 = ( NAMED_UNIT(*) PLANE_ANGLE_UNIT() SI_UNIT($,.RADIAN.) );
#1035 = ( NAMED_UNIT(*) SI_UNIT($,.STERADIAN.) SOLID_ANGLE_UNIT() );
#1036 = UNCERTAINTY_MEASURE_WITH_UNIT(LENGTH_MEASURE(5.E-05),#1033,
  'distance_accuracy_value','confusion accuracy');
#1037 = PRODUCT_RELATED_PRODUCT_CATEGORY('part',$,(#7));
#1038 = MECHANICAL_DESIGN_GEOMETRIC_PRESENTATION_REPRESENTATION('',(
    #1039),#1032);
#1039 = STYLED_ITEM('color',(#1040),#15);
#1040 = PRESENTATION_STYLE_ASSIGNMENT((#1041,#1047));
#1041 = SURFACE_STYLE_USAGE(.BOTH.,#1042);
#1042 = SURFACE_SIDE_STYLE('',(#1043));
#1043 = SURFACE_STYLE_FILL_AREA(#1044);
#1044 = FILL_AREA_STYLE('',(#1045));
#1045 = FILL_AREA_STYLE_COLOUR('',#1046);
#1046 = COLOUR_RGB('',0.627451011593,0.627451011593,0.627451011593);
#1047 = CURVE_STYLE('',#1048,POSITIVE_LENGTH_MEASURE(0.1),#1049);
#1048 = DRAUGHTING_PRE_DEFINED_CURVE_FONT('continuous');
#1049 = COLOUR_RGB('',9.803921802644E-02,9.803921802644E-02,
  9.803921802644E-02);
ENDSEC;
END-ISO-10303-21;
