ISO-10303-21;
HEADER;
FILE_DESCRIPTION(('FreeCAD Model'),'2;1');
FILE_NAME('Open CASCADE Shape Model','2026-08-20T22:00:42',('Author'),(
    ''),'Open CASCADE STEP processor 7.8','FreeCAD','Unknown');
FILE_SCHEMA(('AUTOMOTIVE_DESIGN { 1 0 10303 214 1 1 1 1 }'));
ENDSEC;
DATA;
#1 = APPLICATION_PROTOCOL_DEFINITION('international standard',
  'automotive_design',2000,#2);
#2 = APPLICATION_CONTEXT(
  'core data for automotive mechanical design processes');
#3 = SHAPE_DEFINITION_REPRESENTATION(#4,#10);
#4 = PRODUCT_DEFINITION_SHAPE('','',#5);
#5 = PRODUCT_DEFINITION('design','',#6,#9);
#6 = PRODUCT_DEFINITION_FORMATION('','',#7);
#7 = PRODUCT('COMPOUND005','COMPOUND005','',(#8));
#8 = PRODUCT_CONTEXT('',#2,'mechanical');
#9 = PRODUCT_DEFINITION_CONTEXT('part definition',#2,'design');
#10 = ADVANCED_BREP_SHAPE_REPRESENTATION('',(#11,#15),#632);
#11 = AXIS2_PLACEMENT_3D('',#12,#13,#14);
#12 = CARTESIAN_POINT('',(0.,0.,0.));
#13 = DIRECTION('',(0.,0.,1.));
#14 = DIRECTION('',(1.,0.,-0.));
#15 = MANIFOLD_SOLID_BREP('',#16);
#16 = CLOSED_SHELL('',(#17,#57,#88,#226,#259,#292,#309,#334,#359,#384,
    #409,#434,#465,#490,#514,#539,#563,#581,#599));
#17 = ADVANCED_FACE('',(#18),#52,.T.);
#18 = FACE_BOUND('',#19,.T.);
#19 = EDGE_LOOP('',(#20,#30,#38,#46));
#20 = ORIENTED_EDGE('',*,*,#21,.F.);
#21 = EDGE_CURVE('',#22,#24,#26,.T.);
#22 = VERTEX_POINT('',#23);
#23 = CARTESIAN_POINT('',(26.250000298023,114.29490826091,76.46672846111
    ));
#24 = VERTEX_POINT('',#25);
#25 = CARTESIAN_POINT('',(53.75000089407,114.29490826091,76.46672846111)
  );
#26 = LINE('',#27,#28);
#27 = CARTESIAN_POINT('',(46.875000745058,114.29490826091,76.46672846111
    ));
#28 = VECTOR('',#29,1.);
#29 = DIRECTION('',(1.,0.,-1.165734175919E-15));
#30 = ORIENTED_EDGE('',*,*,#31,.T.);
#31 = EDGE_CURVE('',#22,#32,#34,.T.);
#32 = VERTEX_POINT('',#33);
#33 = CARTESIAN_POINT('',(26.250000298023,114.29490826091,
    146.46672846111));
#34 = LINE('',#35,#36);
#35 = CARTESIAN_POINT('',(26.250000298023,114.29490826091,76.46672846111
    ));
#36 = VECTOR('',#37,1.);
#37 = DIRECTION('',(0.,0.,1.));
#38 = ORIENTED_EDGE('',*,*,#39,.F.);
#39 = EDGE_CURVE('',#40,#32,#42,.T.);
#40 = VERTEX_POINT('',#41);
#41 = CARTESIAN_POINT('',(53.75000089407,114.29490826091,146.46672846111
    ));
#42 = LINE('',#43,#44);
#43 = CARTESIAN_POINT('',(26.250000298023,114.29490826091,
    146.46672846111));
#44 = VECTOR('',#45,1.);
#45 = DIRECTION('',(-1.,0.,0.));
#46 = ORIENTED_EDGE('',*,*,#47,.F.);
#47 = EDGE_CURVE('',#24,#40,#48,.T.);
#48 = LINE('',#49,#50);
#49 = CARTESIAN_POINT('',(53.75000089407,114.29490826091,76.46672846111)
  );
#50 = VECTOR('',#51,1.);
#51 = DIRECTION('',(0.,0.,1.));
#52 = PLANE('',#53);
#53 = AXIS2_PLACEMENT_3D('',#54,#55,#56);
#54 = CARTESIAN_POINT('',(53.75000089407,114.29490826091,76.46672846111)
  );
#55 = DIRECTION('',(0.,1.,0.));
#56 = DIRECTION('',(-1.,0.,0.));
#57 = ADVANCED_FACE('',(#58),#83,.T.);
#58 = FACE_BOUND('',#59,.T.);
#59 = EDGE_LOOP('',(#60,#61,#69,#77));
#60 = ORIENTED_EDGE('',*,*,#39,.T.);
#61 = ORIENTED_EDGE('',*,*,#62,.T.);
#62 = EDGE_CURVE('',#32,#63,#65,.T.);
#63 = VERTEX_POINT('',#64);
#64 = CARTESIAN_POINT('',(26.250000298023,107.00000171363,
    146.46672846111));
#65 = LINE('',#66,#67);
#66 = CARTESIAN_POINT('',(26.250000298023,114.29490826091,
    146.46672846111));
#67 = VECTOR('',#68,1.);
#68 = DIRECTION('',(0.,-1.,0.));
#69 = ORIENTED_EDGE('',*,*,#70,.T.);
#70 = EDGE_CURVE('',#63,#71,#73,.T.);
#71 = VERTEX_POINT('',#72);
#72 = CARTESIAN_POINT('',(53.75000089407,107.00000171363,146.46672846111
    ));
#73 = LINE('',#74,#75);
#74 = CARTESIAN_POINT('',(53.75000089407,107.00000171363,146.46672846111
    ));
#75 = VECTOR('',#76,1.);
#76 = DIRECTION('',(1.,0.,0.));
#77 = ORIENTED_EDGE('',*,*,#78,.T.);
#78 = EDGE_CURVE('',#71,#40,#79,.T.);
#79 = LINE('',#80,#81);
#80 = CARTESIAN_POINT('',(53.75000089407,114.29490826091,146.46672846111
    ));
#81 = VECTOR('',#82,1.);
#82 = DIRECTION('',(0.,1.,0.));
#83 = PLANE('',#84);
#84 = AXIS2_PLACEMENT_3D('',#85,#86,#87);
#85 = CARTESIAN_POINT('',(40.000000596046,110.64745498727,
    146.46672846111));
#86 = DIRECTION('',(0.,0.,1.));
#87 = DIRECTION('',(1.,0.,-0.));
#88 = ADVANCED_FACE('',(#89,#166,#177,#188,#199,#210),#221,.F.);
#89 = FACE_BOUND('',#90,.T.);
#90 = EDGE_LOOP('',(#91,#92,#100,#109,#117,#126,#134,#143,#151,#160));
#91 = ORIENTED_EDGE('',*,*,#21,.T.);
#92 = ORIENTED_EDGE('',*,*,#93,.F.);
#93 = EDGE_CURVE('',#94,#24,#96,.T.);
#94 = VERTEX_POINT('',#95);
#95 = CARTESIAN_POINT('',(53.75000089407,115.00000171363,76.46672846111)
  );
#96 = LINE('',#97,#98);
#97 = CARTESIAN_POINT('',(53.75000089407,115.00000171363,76.46672846111)
  );
#98 = VECTOR('',#99,1.);
#99 = DIRECTION('',(0.,-1.,-3.330669073875E-15));
#100 = ORIENTED_EDGE('',*,*,#101,.T.);
#101 = EDGE_CURVE('',#94,#102,#104,.T.);
#102 = VERTEX_POINT('',#103);
#103 = CARTESIAN_POINT('',(60.00000089407,121.25000171363,76.46672846111
    ));
#104 = CIRCLE('',#105,6.25);
#105 = AXIS2_PLACEMENT_3D('',#106,#107,#108);
#106 = CARTESIAN_POINT('',(53.75000089407,121.25000171363,76.46672846111
    ));
#107 = DIRECTION('',(1.165734175919E-15,-3.011479954296E-15,1.));
#108 = DIRECTION('',(1.,-3.231174267785E-27,-1.165734175919E-15));
#109 = ORIENTED_EDGE('',*,*,#110,.T.);
#110 = EDGE_CURVE('',#102,#111,#113,.T.);
#111 = VERTEX_POINT('',#112);
#112 = CARTESIAN_POINT('',(60.00000089407,148.75000230968,76.46672846111
    ));
#113 = LINE('',#114,#115);
#114 = CARTESIAN_POINT('',(60.00000089407,149.00000222027,76.46672846111
    ));
#115 = VECTOR('',#116,1.);
#116 = DIRECTION('',(3.234684852888E-27,1.,3.011479954296E-15));
#117 = ORIENTED_EDGE('',*,*,#118,.T.);
#118 = EDGE_CURVE('',#111,#119,#121,.T.);
#119 = VERTEX_POINT('',#120);
#120 = CARTESIAN_POINT('',(53.75000089407,155.00000230968,76.46672846111
    ));
#121 = CIRCLE('',#122,6.25);
#122 = AXIS2_PLACEMENT_3D('',#123,#124,#125);
#123 = CARTESIAN_POINT('',(53.75000089407,148.75000230968,76.46672846111
    ));
#124 = DIRECTION('',(1.165734175919E-15,-3.011479954296E-15,1.));
#125 = DIRECTION('',(3.234684852888E-27,1.,3.011479954296E-15));
#126 = ORIENTED_EDGE('',*,*,#127,.T.);
#127 = EDGE_CURVE('',#119,#128,#130,.T.);
#128 = VERTEX_POINT('',#129);
#129 = CARTESIAN_POINT('',(26.250000298023,155.00000230968,
    76.46672846111));
#130 = LINE('',#131,#132);
#131 = CARTESIAN_POINT('',(26.250000298023,155.00000230968,
    76.46672846111));
#132 = VECTOR('',#133,1.);
#133 = DIRECTION('',(-1.,3.231174267785E-27,1.165734175919E-15));
#134 = ORIENTED_EDGE('',*,*,#135,.T.);
#135 = EDGE_CURVE('',#128,#136,#138,.T.);
#136 = VERTEX_POINT('',#137);
#137 = CARTESIAN_POINT('',(20.000000298023,148.75000230968,
    76.46672846111));
#138 = CIRCLE('',#139,6.25);
#139 = AXIS2_PLACEMENT_3D('',#140,#141,#142);
#140 = CARTESIAN_POINT('',(26.250000298023,148.75000230968,
    76.46672846111));
#141 = DIRECTION('',(1.165734175919E-15,-3.011479954296E-15,1.));
#142 = DIRECTION('',(-1.,3.231174267785E-27,1.165734175919E-15));
#143 = ORIENTED_EDGE('',*,*,#144,.T.);
#144 = EDGE_CURVE('',#136,#145,#147,.T.);
#145 = VERTEX_POINT('',#146);
#146 = CARTESIAN_POINT('',(20.000000298023,121.25000171363,
    76.46672846111));
#147 = LINE('',#148,#149);
#148 = CARTESIAN_POINT('',(20.000000298023,121.00000180304,
    76.46672846111));
#149 = VECTOR('',#150,1.);
#150 = DIRECTION('',(-3.234684852888E-27,-1.,-3.011479954296E-15));
#151 = ORIENTED_EDGE('',*,*,#152,.T.);
#152 = EDGE_CURVE('',#145,#153,#155,.T.);
#153 = VERTEX_POINT('',#154);
#154 = CARTESIAN_POINT('',(26.250000298023,115.00000171363,
    76.46672846111));
#155 = CIRCLE('',#156,6.25);
#156 = AXIS2_PLACEMENT_3D('',#157,#158,#159);
#157 = CARTESIAN_POINT('',(26.250000298023,121.25000171363,
    76.46672846111));
#158 = DIRECTION('',(1.165734175919E-15,-3.011479954296E-15,1.));
#159 = DIRECTION('',(-3.234684852888E-27,-1.,-3.011479954296E-15));
#160 = ORIENTED_EDGE('',*,*,#161,.T.);
#161 = EDGE_CURVE('',#153,#22,#162,.T.);
#162 = LINE('',#163,#164);
#163 = CARTESIAN_POINT('',(26.250000298023,115.00000171363,
    76.46672846111));
#164 = VECTOR('',#165,1.);
#165 = DIRECTION('',(0.,-1.,-3.330669073875E-15));
#166 = FACE_BOUND('',#167,.T.);
#167 = EDGE_LOOP('',(#168));
#168 = ORIENTED_EDGE('',*,*,#169,.T.);
#169 = EDGE_CURVE('',#170,#170,#172,.T.);
#170 = VERTEX_POINT('',#171);
#171 = CARTESIAN_POINT('',(38.69999999972,120.99284439043,76.46672846111
    ));
#172 = CIRCLE('',#173,1.3);
#173 = AXIS2_PLACEMENT_3D('',#174,#175,#176);
#174 = CARTESIAN_POINT('',(39.99999999972,120.99284439043,76.46672846111
    ));
#175 = DIRECTION('',(-1.165734175919E-15,3.011479954296E-15,-1.));
#176 = DIRECTION('',(1.,-3.231174267785E-27,-1.165734175919E-15));
#177 = FACE_BOUND('',#178,.T.);
#178 = EDGE_LOOP('',(#179));
#179 = ORIENTED_EDGE('',*,*,#180,.T.);
#180 = EDGE_CURVE('',#181,#181,#183,.T.);
#181 = VERTEX_POINT('',#182);
#182 = CARTESIAN_POINT('',(38.700000000277,148.99284439043,
    76.46672846111));
#183 = CIRCLE('',#184,1.3);
#184 = AXIS2_PLACEMENT_3D('',#185,#186,#187);
#185 = CARTESIAN_POINT('',(40.000000000277,148.99284439043,
    76.46672846111));
#186 = DIRECTION('',(-1.165734175919E-15,3.011479954296E-15,-1.));
#187 = DIRECTION('',(1.,-3.231174267785E-27,-1.165734175919E-15));
#188 = FACE_BOUND('',#189,.T.);
#189 = EDGE_LOOP('',(#190));
#190 = ORIENTED_EDGE('',*,*,#191,.T.);
#191 = EDGE_CURVE('',#192,#192,#194,.T.);
#192 = VERTEX_POINT('',#193);
#193 = CARTESIAN_POINT('',(28.999999999999,134.99284439043,
    76.46672846111));
#194 = CIRCLE('',#195,11.);
#195 = AXIS2_PLACEMENT_3D('',#196,#197,#198);
#196 = CARTESIAN_POINT('',(39.999999999999,134.99284439043,
    76.46672846111));
#197 = DIRECTION('',(-1.165734175919E-15,3.011479954296E-15,-1.));
#198 = DIRECTION('',(1.,-3.231174267785E-27,-1.165734175919E-15));
#199 = FACE_BOUND('',#200,.T.);
#200 = EDGE_LOOP('',(#201));
#201 = ORIENTED_EDGE('',*,*,#202,.T.);
#202 = EDGE_CURVE('',#203,#203,#205,.T.);
#203 = VERTEX_POINT('',#204);
#204 = CARTESIAN_POINT('',(24.699999999999,134.99284439071,
    76.46672846111));
#205 = CIRCLE('',#206,1.3);
#206 = AXIS2_PLACEMENT_3D('',#207,#208,#209);
#207 = CARTESIAN_POINT('',(25.999999999999,134.99284439071,
    76.46672846111));
#208 = DIRECTION('',(-1.165734175919E-15,3.011479954296E-15,-1.));
#209 = DIRECTION('',(1.,-3.231174267785E-27,-1.165734175919E-15));
#210 = FACE_BOUND('',#211,.T.);
#211 = EDGE_LOOP('',(#212));
#212 = ORIENTED_EDGE('',*,*,#213,.T.);
#213 = EDGE_CURVE('',#214,#214,#216,.T.);
#214 = VERTEX_POINT('',#215);
#215 = CARTESIAN_POINT('',(52.699999999998,134.99284439015,
    76.46672846111));
#216 = CIRCLE('',#217,1.3);
#217 = AXIS2_PLACEMENT_3D('',#218,#219,#220);
#218 = CARTESIAN_POINT('',(53.999999999999,134.99284439015,
    76.46672846111));
#219 = DIRECTION('',(-1.165734175919E-15,3.011479954296E-15,-1.));
#220 = DIRECTION('',(1.,-3.231174267785E-27,-1.165734175919E-15));
#221 = PLANE('',#222);
#222 = AXIS2_PLACEMENT_3D('',#223,#224,#225);
#223 = CARTESIAN_POINT('',(40.000000596046,135.00000201165,
    76.46672846111));
#224 = DIRECTION('',(-1.165734175919E-15,3.011479954296E-15,-1.));
#225 = DIRECTION('',(1.,-3.231174267785E-27,-1.165734175919E-15));
#226 = ADVANCED_FACE('',(#227),#254,.T.);
#227 = FACE_BOUND('',#228,.T.);
#228 = EDGE_LOOP('',(#229,#237,#245,#251,#252,#253));
#229 = ORIENTED_EDGE('',*,*,#230,.F.);
#230 = EDGE_CURVE('',#231,#153,#233,.T.);
#231 = VERTEX_POINT('',#232);
#232 = CARTESIAN_POINT('',(26.250000298023,115.00000171363,
    71.46672846111));
#233 = LINE('',#234,#235);
#234 = CARTESIAN_POINT('',(26.250000298023,115.00000171363,
    71.46672846111));
#235 = VECTOR('',#236,1.);
#236 = DIRECTION('',(1.7763568394E-15,-3.552713678801E-15,1.));
#237 = ORIENTED_EDGE('',*,*,#238,.T.);
#238 = EDGE_CURVE('',#231,#239,#241,.T.);
#239 = VERTEX_POINT('',#240);
#240 = CARTESIAN_POINT('',(26.250000298023,107.00000171363,
    71.46672846111));
#241 = LINE('',#242,#243);
#242 = CARTESIAN_POINT('',(26.250000298023,115.00000171363,
    71.46672846111));
#243 = VECTOR('',#244,1.);
#244 = DIRECTION('',(0.,-1.,-3.330669073875E-15));
#245 = ORIENTED_EDGE('',*,*,#246,.T.);
#246 = EDGE_CURVE('',#239,#63,#247,.T.);
#247 = LINE('',#248,#249);
#248 = CARTESIAN_POINT('',(26.250000298023,107.00000171363,
    76.46672846111));
#249 = VECTOR('',#250,1.);
#250 = DIRECTION('',(0.,0.,1.));
#251 = ORIENTED_EDGE('',*,*,#62,.F.);
#252 = ORIENTED_EDGE('',*,*,#31,.F.);
#253 = ORIENTED_EDGE('',*,*,#161,.F.);
#254 = PLANE('',#255);
#255 = AXIS2_PLACEMENT_3D('',#256,#257,#258);
#256 = CARTESIAN_POINT('',(26.250000298023,115.00000171363,
    76.46672846111));
#257 = DIRECTION('',(-1.,-5.916456789158E-30,1.7763568394E-15));
#258 = DIRECTION('',(-1.7763568394E-15,3.552713678801E-15,-1.));
#259 = ADVANCED_FACE('',(#260),#287,.T.);
#260 = FACE_BOUND('',#261,.T.);
#261 = EDGE_LOOP('',(#262,#270,#271,#272,#273,#281));
#262 = ORIENTED_EDGE('',*,*,#263,.T.);
#263 = EDGE_CURVE('',#264,#94,#266,.T.);
#264 = VERTEX_POINT('',#265);
#265 = CARTESIAN_POINT('',(53.75000089407,115.00000171363,71.46672846111
    ));
#266 = LINE('',#267,#268);
#267 = CARTESIAN_POINT('',(53.75000089407,115.00000171363,71.46672846111
    ));
#268 = VECTOR('',#269,1.);
#269 = DIRECTION('',(1.7763568394E-15,-3.552713678801E-15,1.));
#270 = ORIENTED_EDGE('',*,*,#93,.T.);
#271 = ORIENTED_EDGE('',*,*,#47,.T.);
#272 = ORIENTED_EDGE('',*,*,#78,.F.);
#273 = ORIENTED_EDGE('',*,*,#274,.F.);
#274 = EDGE_CURVE('',#275,#71,#277,.T.);
#275 = VERTEX_POINT('',#276);
#276 = CARTESIAN_POINT('',(53.75000089407,107.00000171363,71.46672846111
    ));
#277 = LINE('',#278,#279);
#278 = CARTESIAN_POINT('',(53.75000089407,107.00000171363,71.46672846111
    ));
#279 = VECTOR('',#280,1.);
#280 = DIRECTION('',(1.7763568394E-15,-3.552713678801E-15,1.));
#281 = ORIENTED_EDGE('',*,*,#282,.F.);
#282 = EDGE_CURVE('',#264,#275,#283,.T.);
#283 = LINE('',#284,#285);
#284 = CARTESIAN_POINT('',(53.75000089407,115.00000171363,71.46672846111
    ));
#285 = VECTOR('',#286,1.);
#286 = DIRECTION('',(0.,-1.,-3.330669073875E-15));
#287 = PLANE('',#288);
#288 = AXIS2_PLACEMENT_3D('',#289,#290,#291);
#289 = CARTESIAN_POINT('',(53.75000089407,115.00000171363,71.46672846111
    ));
#290 = DIRECTION('',(1.,5.916456789158E-30,-1.7763568394E-15));
#291 = DIRECTION('',(1.7763568394E-15,-3.552713678801E-15,1.));
#292 = ADVANCED_FACE('',(#293),#304,.T.);
#293 = FACE_BOUND('',#294,.T.);
#294 = EDGE_LOOP('',(#295,#301,#302,#303));
#295 = ORIENTED_EDGE('',*,*,#296,.T.);
#296 = EDGE_CURVE('',#239,#275,#297,.T.);
#297 = LINE('',#298,#299);
#298 = CARTESIAN_POINT('',(26.250000298023,107.00000171363,
    71.46672846111));
#299 = VECTOR('',#300,1.);
#300 = DIRECTION('',(1.,-3.231174267785E-27,-1.165734175919E-15));
#301 = ORIENTED_EDGE('',*,*,#274,.T.);
#302 = ORIENTED_EDGE('',*,*,#70,.F.);
#303 = ORIENTED_EDGE('',*,*,#246,.F.);
#304 = PLANE('',#305);
#305 = AXIS2_PLACEMENT_3D('',#306,#307,#308);
#306 = CARTESIAN_POINT('',(26.250000298023,107.00000171363,
    71.46672846111));
#307 = DIRECTION('',(0.,-1.,-3.330669073875E-15));
#308 = DIRECTION('',(0.,3.330669073875E-15,-1.));
#309 = ADVANCED_FACE('',(#310),#329,.F.);
#310 = FACE_BOUND('',#311,.F.);
#311 = EDGE_LOOP('',(#312,#320,#327,#328));
#312 = ORIENTED_EDGE('',*,*,#313,.T.);
#313 = EDGE_CURVE('',#170,#314,#316,.T.);
#314 = VERTEX_POINT('',#315);
#315 = CARTESIAN_POINT('',(38.69999999972,120.99284439043,71.46672846111
    ));
#316 = LINE('',#317,#318);
#317 = CARTESIAN_POINT('',(38.69999999972,120.99284439043,71.46672846111
    ));
#318 = VECTOR('',#319,1.);
#319 = DIRECTION('',(-1.7763568394E-15,3.552713678801E-15,-1.));
#320 = ORIENTED_EDGE('',*,*,#321,.T.);
#321 = EDGE_CURVE('',#314,#314,#322,.T.);
#322 = CIRCLE('',#323,1.3);
#323 = AXIS2_PLACEMENT_3D('',#324,#325,#326);
#324 = CARTESIAN_POINT('',(39.99999999972,120.99284439043,71.46672846111
    ));
#325 = DIRECTION('',(1.165734175919E-15,-3.011479954296E-15,1.));
#326 = DIRECTION('',(1.,-3.231174267785E-27,-1.165734175919E-15));
#327 = ORIENTED_EDGE('',*,*,#313,.F.);
#328 = ORIENTED_EDGE('',*,*,#169,.T.);
#329 = CYLINDRICAL_SURFACE('',#330,1.3);
#330 = AXIS2_PLACEMENT_3D('',#331,#332,#333);
#331 = CARTESIAN_POINT('',(39.99999999972,120.99284439043,71.46672846111
    ));
#332 = DIRECTION('',(1.7763568394E-15,-3.552713678801E-15,1.));
#333 = DIRECTION('',(1.,-3.229004900296E-27,-1.7763568394E-15));
#334 = ADVANCED_FACE('',(#335),#354,.F.);
#335 = FACE_BOUND('',#336,.F.);
#336 = EDGE_LOOP('',(#337,#345,#352,#353));
#337 = ORIENTED_EDGE('',*,*,#338,.T.);
#338 = EDGE_CURVE('',#181,#339,#341,.T.);
#339 = VERTEX_POINT('',#340);
#340 = CARTESIAN_POINT('',(38.700000000277,148.99284439043,
    71.46672846111));
#341 = LINE('',#342,#343);
#342 = CARTESIAN_POINT('',(38.700000000277,148.99284439043,
    71.46672846111));
#343 = VECTOR('',#344,1.);
#344 = DIRECTION('',(-1.7763568394E-15,3.552713678801E-15,-1.));
#345 = ORIENTED_EDGE('',*,*,#346,.T.);
#346 = EDGE_CURVE('',#339,#339,#347,.T.);
#347 = CIRCLE('',#348,1.3);
#348 = AXIS2_PLACEMENT_3D('',#349,#350,#351);
#349 = CARTESIAN_POINT('',(40.000000000277,148.99284439043,
    71.46672846111));
#350 = DIRECTION('',(1.165734175919E-15,-3.011479954296E-15,1.));
#351 = DIRECTION('',(1.,-3.231174267785E-27,-1.165734175919E-15));
#352 = ORIENTED_EDGE('',*,*,#338,.F.);
#353 = ORIENTED_EDGE('',*,*,#180,.T.);
#354 = CYLINDRICAL_SURFACE('',#355,1.3);
#355 = AXIS2_PLACEMENT_3D('',#356,#357,#358);
#356 = CARTESIAN_POINT('',(40.000000000277,148.99284439043,
    71.46672846111));
#357 = DIRECTION('',(1.7763568394E-15,-3.552713678801E-15,1.));
#358 = DIRECTION('',(1.,-3.229004900296E-27,-1.7763568394E-15));
#359 = ADVANCED_FACE('',(#360),#379,.F.);
#360 = FACE_BOUND('',#361,.F.);
#361 = EDGE_LOOP('',(#362,#370,#377,#378));
#362 = ORIENTED_EDGE('',*,*,#363,.T.);
#363 = EDGE_CURVE('',#192,#364,#366,.T.);
#364 = VERTEX_POINT('',#365);
#365 = CARTESIAN_POINT('',(28.999999999999,134.99284439043,
    71.46672846111));
#366 = LINE('',#367,#368);
#367 = CARTESIAN_POINT('',(28.999999999999,134.99284439043,
    71.46672846111));
#368 = VECTOR('',#369,1.);
#369 = DIRECTION('',(-1.7763568394E-15,3.552713678801E-15,-1.));
#370 = ORIENTED_EDGE('',*,*,#371,.T.);
#371 = EDGE_CURVE('',#364,#364,#372,.T.);
#372 = CIRCLE('',#373,11.);
#373 = AXIS2_PLACEMENT_3D('',#374,#375,#376);
#374 = CARTESIAN_POINT('',(39.999999999999,134.99284439043,
    71.46672846111));
#375 = DIRECTION('',(1.165734175919E-15,-3.011479954296E-15,1.));
#376 = DIRECTION('',(1.,-3.231174267785E-27,-1.165734175919E-15));
#377 = ORIENTED_EDGE('',*,*,#363,.F.);
#378 = ORIENTED_EDGE('',*,*,#191,.T.);
#379 = CYLINDRICAL_SURFACE('',#380,11.);
#380 = AXIS2_PLACEMENT_3D('',#381,#382,#383);
#381 = CARTESIAN_POINT('',(39.999999999999,134.99284439043,
    71.46672846111));
#382 = DIRECTION('',(1.7763568394E-15,-3.552713678801E-15,1.));
#383 = DIRECTION('',(1.,-3.229004900296E-27,-1.7763568394E-15));
#384 = ADVANCED_FACE('',(#385),#404,.F.);
#385 = FACE_BOUND('',#386,.F.);
#386 = EDGE_LOOP('',(#387,#395,#402,#403));
#387 = ORIENTED_EDGE('',*,*,#388,.T.);
#388 = EDGE_CURVE('',#203,#389,#391,.T.);
#389 = VERTEX_POINT('',#390);
#390 = CARTESIAN_POINT('',(24.699999999999,134.99284439071,
    71.46672846111));
#391 = LINE('',#392,#393);
#392 = CARTESIAN_POINT('',(24.699999999999,134.99284439071,
    71.46672846111));
#393 = VECTOR('',#394,1.);
#394 = DIRECTION('',(-1.7763568394E-15,3.552713678801E-15,-1.));
#395 = ORIENTED_EDGE('',*,*,#396,.T.);
#396 = EDGE_CURVE('',#389,#389,#397,.T.);
#397 = CIRCLE('',#398,1.3);
#398 = AXIS2_PLACEMENT_3D('',#399,#400,#401);
#399 = CARTESIAN_POINT('',(25.999999999999,134.99284439071,
    71.46672846111));
#400 = DIRECTION('',(1.165734175919E-15,-3.011479954296E-15,1.));
#401 = DIRECTION('',(1.,-3.231174267785E-27,-1.165734175919E-15));
#402 = ORIENTED_EDGE('',*,*,#388,.F.);
#403 = ORIENTED_EDGE('',*,*,#202,.T.);
#404 = CYLINDRICAL_SURFACE('',#405,1.3);
#405 = AXIS2_PLACEMENT_3D('',#406,#407,#408);
#406 = CARTESIAN_POINT('',(25.999999999999,134.99284439071,
    71.46672846111));
#407 = DIRECTION('',(1.7763568394E-15,-3.552713678801E-15,1.));
#408 = DIRECTION('',(1.,-3.229004900296E-27,-1.7763568394E-15));
#409 = ADVANCED_FACE('',(#410),#429,.F.);
#410 = FACE_BOUND('',#411,.F.);
#411 = EDGE_LOOP('',(#412,#420,#427,#428));
#412 = ORIENTED_EDGE('',*,*,#413,.T.);
#413 = EDGE_CURVE('',#214,#414,#416,.T.);
#414 = VERTEX_POINT('',#415);
#415 = CARTESIAN_POINT('',(52.699999999998,134.99284439015,
    71.46672846111));
#416 = LINE('',#417,#418);
#417 = CARTESIAN_POINT('',(52.699999999998,134.99284439015,
    71.46672846111));
#418 = VECTOR('',#419,1.);
#419 = DIRECTION('',(-1.7763568394E-15,3.552713678801E-15,-1.));
#420 = ORIENTED_EDGE('',*,*,#421,.T.);
#421 = EDGE_CURVE('',#414,#414,#422,.T.);
#422 = CIRCLE('',#423,1.3);
#423 = AXIS2_PLACEMENT_3D('',#424,#425,#426);
#424 = CARTESIAN_POINT('',(53.999999999999,134.99284439015,
    71.46672846111));
#425 = DIRECTION('',(1.165734175919E-15,-3.011479954296E-15,1.));
#426 = DIRECTION('',(1.,-3.231174267785E-27,-1.165734175919E-15));
#427 = ORIENTED_EDGE('',*,*,#413,.F.);
#428 = ORIENTED_EDGE('',*,*,#213,.T.);
#429 = CYLINDRICAL_SURFACE('',#430,1.3);
#430 = AXIS2_PLACEMENT_3D('',#431,#432,#433);
#431 = CARTESIAN_POINT('',(53.999999999999,134.99284439015,
    71.46672846111));
#432 = DIRECTION('',(1.7763568394E-15,-3.552713678801E-15,1.));
#433 = DIRECTION('',(1.,-3.229004900296E-27,-1.7763568394E-15));
#434 = ADVANCED_FACE('',(#435),#460,.T.);
#435 = FACE_BOUND('',#436,.T.);
#436 = EDGE_LOOP('',(#437,#447,#453,#454));
#437 = ORIENTED_EDGE('',*,*,#438,.F.);
#438 = EDGE_CURVE('',#439,#441,#443,.T.);
#439 = VERTEX_POINT('',#440);
#440 = CARTESIAN_POINT('',(20.000000298023,121.25000171363,
    71.46672846111));
#441 = VERTEX_POINT('',#442);
#442 = CARTESIAN_POINT('',(20.000000298023,148.75000230968,
    71.46672846111));
#443 = LINE('',#444,#445);
#444 = CARTESIAN_POINT('',(20.000000298023,121.00000180304,
    71.46672846111));
#445 = VECTOR('',#446,1.);
#446 = DIRECTION('',(3.234684852888E-27,1.,3.011479954296E-15));
#447 = ORIENTED_EDGE('',*,*,#448,.T.);
#448 = EDGE_CURVE('',#439,#145,#449,.T.);
#449 = LINE('',#450,#451);
#450 = CARTESIAN_POINT('',(20.000000298023,121.25000171363,
    71.46672846111));
#451 = VECTOR('',#452,1.);
#452 = DIRECTION('',(1.7763568394E-15,-3.552713678801E-15,1.));
#453 = ORIENTED_EDGE('',*,*,#144,.F.);
#454 = ORIENTED_EDGE('',*,*,#455,.F.);
#455 = EDGE_CURVE('',#441,#136,#456,.T.);
#456 = LINE('',#457,#458);
#457 = CARTESIAN_POINT('',(20.000000298023,148.75000230968,
    71.46672846111));
#458 = VECTOR('',#459,1.);
#459 = DIRECTION('',(1.7763568394E-15,-3.552713678801E-15,1.));
#460 = PLANE('',#461);
#461 = AXIS2_PLACEMENT_3D('',#462,#463,#464);
#462 = CARTESIAN_POINT('',(20.000000298023,148.75000230968,
    71.46672846111));
#463 = DIRECTION('',(-1.,3.229335389874E-27,1.7763568394E-15));
#464 = DIRECTION('',(-3.234684852888E-27,-1.,-3.011479954296E-15));
#465 = ADVANCED_FACE('',(#466),#485,.T.);
#466 = FACE_BOUND('',#467,.T.);
#467 = EDGE_LOOP('',(#468,#477,#478,#479));
#468 = ORIENTED_EDGE('',*,*,#469,.F.);
#469 = EDGE_CURVE('',#441,#470,#472,.T.);
#470 = VERTEX_POINT('',#471);
#471 = CARTESIAN_POINT('',(26.250000298023,155.00000230968,
    71.46672846111));
#472 = CIRCLE('',#473,6.25);
#473 = AXIS2_PLACEMENT_3D('',#474,#475,#476);
#474 = CARTESIAN_POINT('',(26.250000298023,148.75000230968,
    71.46672846111));
#475 = DIRECTION('',(-1.165734175919E-15,3.011479954296E-15,-1.));
#476 = DIRECTION('',(-1.,3.231174267785E-27,1.165734175919E-15));
#477 = ORIENTED_EDGE('',*,*,#455,.T.);
#478 = ORIENTED_EDGE('',*,*,#135,.F.);
#479 = ORIENTED_EDGE('',*,*,#480,.F.);
#480 = EDGE_CURVE('',#470,#128,#481,.T.);
#481 = LINE('',#482,#483);
#482 = CARTESIAN_POINT('',(26.250000298023,155.00000230968,
    71.46672846111));
#483 = VECTOR('',#484,1.);
#484 = DIRECTION('',(1.7763568394E-15,-3.552713678801E-15,1.));
#485 = CYLINDRICAL_SURFACE('',#486,6.25);
#486 = AXIS2_PLACEMENT_3D('',#487,#488,#489);
#487 = CARTESIAN_POINT('',(26.250000298023,148.75000230968,
    71.46672846111));
#488 = DIRECTION('',(1.7763568394E-15,-3.552713678801E-15,1.));
#489 = DIRECTION('',(-1.,3.229004900296E-27,1.7763568394E-15));
#490 = ADVANCED_FACE('',(#491),#509,.T.);
#491 = FACE_BOUND('',#492,.T.);
#492 = EDGE_LOOP('',(#493,#501,#502,#503));
#493 = ORIENTED_EDGE('',*,*,#494,.F.);
#494 = EDGE_CURVE('',#470,#495,#497,.T.);
#495 = VERTEX_POINT('',#496);
#496 = CARTESIAN_POINT('',(53.75000089407,155.00000230968,71.46672846111
    ));
#497 = LINE('',#498,#499);
#498 = CARTESIAN_POINT('',(26.250000298023,155.00000230968,
    71.46672846111));
#499 = VECTOR('',#500,1.);
#500 = DIRECTION('',(1.,-3.231174267785E-27,-1.165734175919E-15));
#501 = ORIENTED_EDGE('',*,*,#480,.T.);
#502 = ORIENTED_EDGE('',*,*,#127,.F.);
#503 = ORIENTED_EDGE('',*,*,#504,.F.);
#504 = EDGE_CURVE('',#495,#119,#505,.T.);
#505 = LINE('',#506,#507);
#506 = CARTESIAN_POINT('',(53.75000089407,155.00000230968,71.46672846111
    ));
#507 = VECTOR('',#508,1.);
#508 = DIRECTION('',(1.7763568394E-15,-3.552713678801E-15,1.));
#509 = PLANE('',#510);
#510 = AXIS2_PLACEMENT_3D('',#511,#512,#513);
#511 = CARTESIAN_POINT('',(53.75000089407,155.00000230968,71.46672846111
    ));
#512 = DIRECTION('',(3.235315787538E-27,1.,3.552713678801E-15));
#513 = DIRECTION('',(-1.,3.231174267785E-27,1.165734175919E-15));
#514 = ADVANCED_FACE('',(#515),#534,.T.);
#515 = FACE_BOUND('',#516,.T.);
#516 = EDGE_LOOP('',(#517,#526,#527,#528));
#517 = ORIENTED_EDGE('',*,*,#518,.F.);
#518 = EDGE_CURVE('',#495,#519,#521,.T.);
#519 = VERTEX_POINT('',#520);
#520 = CARTESIAN_POINT('',(60.00000089407,148.75000230968,71.46672846111
    ));
#521 = CIRCLE('',#522,6.25);
#522 = AXIS2_PLACEMENT_3D('',#523,#524,#525);
#523 = CARTESIAN_POINT('',(53.75000089407,148.75000230968,71.46672846111
    ));
#524 = DIRECTION('',(-1.165734175919E-15,3.011479954296E-15,-1.));
#525 = DIRECTION('',(3.234684852888E-27,1.,3.011479954296E-15));
#526 = ORIENTED_EDGE('',*,*,#504,.T.);
#527 = ORIENTED_EDGE('',*,*,#118,.F.);
#528 = ORIENTED_EDGE('',*,*,#529,.F.);
#529 = EDGE_CURVE('',#519,#111,#530,.T.);
#530 = LINE('',#531,#532);
#531 = CARTESIAN_POINT('',(60.00000089407,148.75000230968,71.46672846111
    ));
#532 = VECTOR('',#533,1.);
#533 = DIRECTION('',(1.7763568394E-15,-3.552713678801E-15,1.));
#534 = CYLINDRICAL_SURFACE('',#535,6.25);
#535 = AXIS2_PLACEMENT_3D('',#536,#537,#538);
#536 = CARTESIAN_POINT('',(53.75000089407,148.75000230968,71.46672846111
    ));
#537 = DIRECTION('',(1.7763568394E-15,-3.552713678801E-15,1.));
#538 = DIRECTION('',(3.235646277116E-27,1.,3.552713678801E-15));
#539 = ADVANCED_FACE('',(#540),#558,.T.);
#540 = FACE_BOUND('',#541,.T.);
#541 = EDGE_LOOP('',(#542,#550,#551,#552));
#542 = ORIENTED_EDGE('',*,*,#543,.F.);
#543 = EDGE_CURVE('',#519,#544,#546,.T.);
#544 = VERTEX_POINT('',#545);
#545 = CARTESIAN_POINT('',(60.00000089407,121.25000171363,71.46672846111
    ));
#546 = LINE('',#547,#548);
#547 = CARTESIAN_POINT('',(60.00000089407,149.00000222027,71.46672846111
    ));
#548 = VECTOR('',#549,1.);
#549 = DIRECTION('',(-3.234684852888E-27,-1.,-3.011479954296E-15));
#550 = ORIENTED_EDGE('',*,*,#529,.T.);
#551 = ORIENTED_EDGE('',*,*,#110,.F.);
#552 = ORIENTED_EDGE('',*,*,#553,.F.);
#553 = EDGE_CURVE('',#544,#102,#554,.T.);
#554 = LINE('',#555,#556);
#555 = CARTESIAN_POINT('',(60.00000089407,121.25000171363,71.46672846111
    ));
#556 = VECTOR('',#557,1.);
#557 = DIRECTION('',(1.7763568394E-15,-3.552713678801E-15,1.));
#558 = PLANE('',#559);
#559 = AXIS2_PLACEMENT_3D('',#560,#561,#562);
#560 = CARTESIAN_POINT('',(60.00000089407,121.25000171363,71.46672846111
    ));
#561 = DIRECTION('',(1.,-3.229335389874E-27,-1.7763568394E-15));
#562 = DIRECTION('',(3.234684852888E-27,1.,3.011479954296E-15));
#563 = ADVANCED_FACE('',(#564),#576,.T.);
#564 = FACE_BOUND('',#565,.T.);
#565 = EDGE_LOOP('',(#566,#573,#574,#575));
#566 = ORIENTED_EDGE('',*,*,#567,.F.);
#567 = EDGE_CURVE('',#544,#264,#568,.T.);
#568 = CIRCLE('',#569,6.25);
#569 = AXIS2_PLACEMENT_3D('',#570,#571,#572);
#570 = CARTESIAN_POINT('',(53.75000089407,121.25000171363,71.46672846111
    ));
#571 = DIRECTION('',(-1.165734175919E-15,3.011479954296E-15,-1.));
#572 = DIRECTION('',(1.,-3.231174267785E-27,-1.165734175919E-15));
#573 = ORIENTED_EDGE('',*,*,#553,.T.);
#574 = ORIENTED_EDGE('',*,*,#101,.F.);
#575 = ORIENTED_EDGE('',*,*,#263,.F.);
#576 = CYLINDRICAL_SURFACE('',#577,6.25);
#577 = AXIS2_PLACEMENT_3D('',#578,#579,#580);
#578 = CARTESIAN_POINT('',(53.75000089407,121.25000171363,71.46672846111
    ));
#579 = DIRECTION('',(1.7763568394E-15,-3.552713678801E-15,1.));
#580 = DIRECTION('',(1.,-3.229004900296E-27,-1.7763568394E-15));
#581 = ADVANCED_FACE('',(#582),#594,.T.);
#582 = FACE_BOUND('',#583,.T.);
#583 = EDGE_LOOP('',(#584,#591,#592,#593));
#584 = ORIENTED_EDGE('',*,*,#585,.F.);
#585 = EDGE_CURVE('',#231,#439,#586,.T.);
#586 = CIRCLE('',#587,6.25);
#587 = AXIS2_PLACEMENT_3D('',#588,#589,#590);
#588 = CARTESIAN_POINT('',(26.250000298023,121.25000171363,
    71.46672846111));
#589 = DIRECTION('',(-1.165734175919E-15,3.011479954296E-15,-1.));
#590 = DIRECTION('',(-3.234684852888E-27,-1.,-3.011479954296E-15));
#591 = ORIENTED_EDGE('',*,*,#230,.T.);
#592 = ORIENTED_EDGE('',*,*,#152,.F.);
#593 = ORIENTED_EDGE('',*,*,#448,.F.);
#594 = CYLINDRICAL_SURFACE('',#595,6.25);
#595 = AXIS2_PLACEMENT_3D('',#596,#597,#598);
#596 = CARTESIAN_POINT('',(26.250000298023,121.25000171363,
    71.46672846111));
#597 = DIRECTION('',(1.7763568394E-15,-3.552713678801E-15,1.));
#598 = DIRECTION('',(-3.235646277116E-27,-1.,-3.552713678801E-15));
#599 = ADVANCED_FACE('',(#600,#612,#615,#618,#621,#624),#627,.T.);
#600 = FACE_BOUND('',#601,.T.);
#601 = EDGE_LOOP('',(#602,#603,#604,#605,#606,#607,#608,#609,#610,#611)
  );
#602 = ORIENTED_EDGE('',*,*,#585,.T.);
#603 = ORIENTED_EDGE('',*,*,#438,.T.);
#604 = ORIENTED_EDGE('',*,*,#469,.T.);
#605 = ORIENTED_EDGE('',*,*,#494,.T.);
#606 = ORIENTED_EDGE('',*,*,#518,.T.);
#607 = ORIENTED_EDGE('',*,*,#543,.T.);
#608 = ORIENTED_EDGE('',*,*,#567,.T.);
#609 = ORIENTED_EDGE('',*,*,#282,.T.);
#610 = ORIENTED_EDGE('',*,*,#296,.F.);
#611 = ORIENTED_EDGE('',*,*,#238,.F.);
#612 = FACE_BOUND('',#613,.T.);
#613 = EDGE_LOOP('',(#614));
#614 = ORIENTED_EDGE('',*,*,#421,.T.);
#615 = FACE_BOUND('',#616,.T.);
#616 = EDGE_LOOP('',(#617));
#617 = ORIENTED_EDGE('',*,*,#396,.T.);
#618 = FACE_BOUND('',#619,.T.);
#619 = EDGE_LOOP('',(#620));
#620 = ORIENTED_EDGE('',*,*,#371,.T.);
#621 = FACE_BOUND('',#622,.T.);
#622 = EDGE_LOOP('',(#623));
#623 = ORIENTED_EDGE('',*,*,#346,.T.);
#624 = FACE_BOUND('',#625,.T.);
#625 = EDGE_LOOP('',(#626));
#626 = ORIENTED_EDGE('',*,*,#321,.T.);
#627 = PLANE('',#628);
#628 = AXIS2_PLACEMENT_3D('',#629,#630,#631);
#629 = CARTESIAN_POINT('',(40.000000596046,135.00000201165,
    71.46672846111));
#630 = DIRECTION('',(-1.165734175919E-15,3.011479954296E-15,-1.));
#631 = DIRECTION('',(1.,-3.231174267785E-27,-1.165734175919E-15));
#632 = ( GEOMETRIC_REPRESENTATION_CONTEXT(3) 
GLOBAL_UNCERTAINTY_ASSIGNED_CONTEXT((#636)) GLOBAL_UNIT_ASSIGNED_CONTEXT
((#633,#634,#635)) REPRESENTATION_CONTEXT('Context #1',
  '3D Context with UNIT and UNCERTAINTY') );
#633 = ( LENGTH_UNIT() NAMED_UNIT(*) SI_UNIT(.MILLI.,.METRE.) );
#634 = ( NAMED_UNIT(*) PLANE_ANGLE_UNIT() SI_UNIT($,.RADIAN.) );
#635 = ( NAMED_UNIT(*) SI_UNIT($,.STERADIAN.) SOLID_ANGLE_UNIT() );
#636 = UNCERTAINTY_MEASURE_WITH_UNIT(LENGTH_MEASURE(1.E-07),#633,
  'distance_accuracy_value','confusion accuracy');
#637 = PRODUCT_RELATED_PRODUCT_CATEGORY('part',$,(#7));
#638 = MECHANICAL_DESIGN_GEOMETRIC_PRESENTATION_REPRESENTATION('',(#639)
  ,#632);
#639 = STYLED_ITEM('color',(#640),#15);
#640 = PRESENTATION_STYLE_ASSIGNMENT((#641,#647));
#641 = SURFACE_STYLE_USAGE(.BOTH.,#642);
#642 = SURFACE_SIDE_STYLE('',(#643));
#643 = SURFACE_STYLE_FILL_AREA(#644);
#644 = FILL_AREA_STYLE('',(#645));
#645 = FILL_AREA_STYLE_COLOUR('',#646);
#646 = COLOUR_RGB('',0.627451011593,0.627451011593,0.627451011593);
#647 = CURVE_STYLE('',#648,POSITIVE_LENGTH_MEASURE(0.1),#649);
#648 = DRAUGHTING_PRE_DEFINED_CURVE_FONT('continuous');
#649 = COLOUR_RGB('',9.803921802644E-02,9.803921802644E-02,
  9.803921802644E-02);
ENDSEC;
END-ISO-10303-21;
