ISO-10303-21;
HEADER;
FILE_DESCRIPTION(('FreeCAD Model'),'2;1');
FILE_NAME('Open CASCADE Shape Model','2026-08-20T22:00:53',('Author'),(
    ''),'Open CASCADE STEP processor 7.8','FreeCAD','Unknown');
FILE_SCHEMA(('AUTOMOTIVE_DESIGN { 1 0 10303 214 1 1 1 1 }'));
ENDSEC;
DATA;
#1 = APPLICATION_PROTOCOL_DEFINITION('international standard',
  'automotive_design',2000,#2);
#2 = APPLICATION_CONTEXT(
  'core data for automotive mechanical design processes');
#3 = SHAPE_DEFINITION_REPRESENTATION(#4,#10);
#4 = PRODUCT_DEFINITION_SHAPE('','',#5);
#5 = PRODUCT_DEFINITION('design','',#6,#9);
#6 = PRODUCT_DEFINITION_FORMATION('','',#7);
#7 = PRODUCT('COMPOUND006','COMPOUND006','',(#8));
#8 = PRODUCT_CONTEXT('',#2,'mechanical');
#9 = PRODUCT_DEFINITION_CONTEXT('part definition',#2,'design');
#10 = ADVANCED_BREP_SHAPE_REPRESENTATION('',(#11,#15),#1189);
#11 = AXIS2_PLACEMENT_3D('',#12,#13,#14);
#12 = CARTESIAN_POINT('',(0.,0.,0.));
#13 = DIRECTION('',(0.,0.,1.));
#14 = DIRECTION('',(1.,0.,-0.));
#15 = MANIFOLD_SOLID_BREP('',#16);
#16 = CLOSED_SHELL('',(#17,#50,#83,#116,#149,#182,#222,#268,#292,#332,
    #380,#427,#446,#471,#504,#537,#570,#603,#636,#676,#709,#740,#773,
    #804,#837,#868,#901,#932,#956,#989,#1020,#1053,#1084,#1108,#1150));
#17 = ADVANCED_FACE('',(#18),#45,.F.);
#18 = FACE_BOUND('',#19,.F.);
#19 = EDGE_LOOP('',(#20,#30,#37,#38));
#20 = ORIENTED_EDGE('',*,*,#21,.T.);
#21 = EDGE_CURVE('',#22,#24,#26,.T.);
#22 = VERTEX_POINT('',#23);
#23 = CARTESIAN_POINT('',(59.754887848964,198.74566179855,122.5));
#24 = VERTEX_POINT('',#25);
#25 = CARTESIAN_POINT('',(62.292893218811,198.74566179855,122.5));
#26 = LINE('',#27,#28);
#27 = CARTESIAN_POINT('',(59.486087389922,198.74566179855,122.5));
#28 = VECTOR('',#29,1.);
#29 = DIRECTION('',(1.,6.17863248487E-14,0.));
#30 = ORIENTED_EDGE('',*,*,#31,.T.);
#31 = EDGE_CURVE('',#24,#24,#32,.T.);
#32 = CIRCLE('',#33,1.2295);
#33 = AXIS2_PLACEMENT_3D('',#34,#35,#36);
#34 = CARTESIAN_POINT('',(62.292893218811,199.97516179855,122.5));
#35 = DIRECTION('',(-1.,0.,0.));
#36 = DIRECTION('',(0.,1.,7.642824143659E-46));
#37 = ORIENTED_EDGE('',*,*,#21,.F.);
#38 = ORIENTED_EDGE('',*,*,#39,.T.);
#39 = EDGE_CURVE('',#22,#22,#40,.T.);
#40 = CIRCLE('',#41,1.2295);
#41 = AXIS2_PLACEMENT_3D('',#42,#43,#44);
#42 = CARTESIAN_POINT('',(59.754887848963,199.97516179855,122.5));
#43 = DIRECTION('',(1.,0.,0.));
#44 = DIRECTION('',(-0.,1.,7.642824143659E-46));
#45 = CYLINDRICAL_SURFACE('',#46,1.2295);
#46 = AXIS2_PLACEMENT_3D('',#47,#48,#49);
#47 = CARTESIAN_POINT('',(59.486087389922,199.97516179855,122.5));
#48 = DIRECTION('',(1.,6.17863248487E-14,0.));
#49 = DIRECTION('',(-6.17863248487E-14,1.,7.642824143659E-46));
#50 = ADVANCED_FACE('',(#51),#78,.F.);
#51 = FACE_BOUND('',#52,.F.);
#52 = EDGE_LOOP('',(#53,#63,#70,#71));
#53 = ORIENTED_EDGE('',*,*,#54,.T.);
#54 = EDGE_CURVE('',#55,#57,#59,.T.);
#55 = VERTEX_POINT('',#56);
#56 = CARTESIAN_POINT('',(59.754887848964,198.74566179856,153.5));
#57 = VERTEX_POINT('',#58);
#58 = CARTESIAN_POINT('',(62.292893218811,198.74566179856,153.5));
#59 = LINE('',#60,#61);
#60 = CARTESIAN_POINT('',(59.486087389922,198.74566179856,153.5));
#61 = VECTOR('',#62,1.);
#62 = DIRECTION('',(1.,6.17863248487E-14,0.));
#63 = ORIENTED_EDGE('',*,*,#64,.T.);
#64 = EDGE_CURVE('',#57,#57,#65,.T.);
#65 = CIRCLE('',#66,1.2295);
#66 = AXIS2_PLACEMENT_3D('',#67,#68,#69);
#67 = CARTESIAN_POINT('',(62.292893218811,199.97516179856,153.5));
#68 = DIRECTION('',(-1.,0.,0.));
#69 = DIRECTION('',(0.,1.,7.642824143659E-46));
#70 = ORIENTED_EDGE('',*,*,#54,.F.);
#71 = ORIENTED_EDGE('',*,*,#72,.T.);
#72 = EDGE_CURVE('',#55,#55,#73,.T.);
#73 = CIRCLE('',#74,1.2295);
#74 = AXIS2_PLACEMENT_3D('',#75,#76,#77);
#75 = CARTESIAN_POINT('',(59.754887848963,199.97516179856,153.5));
#76 = DIRECTION('',(1.,0.,0.));
#77 = DIRECTION('',(-0.,1.,7.642824143659E-46));
#78 = CYLINDRICAL_SURFACE('',#79,1.2295);
#79 = AXIS2_PLACEMENT_3D('',#80,#81,#82);
#80 = CARTESIAN_POINT('',(59.486087389922,199.97516179856,153.5));
#81 = DIRECTION('',(1.,6.17863248487E-14,0.));
#82 = DIRECTION('',(-6.17863248487E-14,1.,7.642824143659E-46));
#83 = ADVANCED_FACE('',(#84),#111,.F.);
#84 = FACE_BOUND('',#85,.F.);
#85 = EDGE_LOOP('',(#86,#96,#103,#104));
#86 = ORIENTED_EDGE('',*,*,#87,.T.);
#87 = EDGE_CURVE('',#88,#90,#92,.T.);
#88 = VERTEX_POINT('',#89);
#89 = CARTESIAN_POINT('',(59.754887848966,167.74566179855,122.5));
#90 = VERTEX_POINT('',#91);
#91 = CARTESIAN_POINT('',(62.292893218813,167.74566179855,122.5));
#92 = LINE('',#93,#94);
#93 = CARTESIAN_POINT('',(59.486087389924,167.74566179855,122.5));
#94 = VECTOR('',#95,1.);
#95 = DIRECTION('',(1.,6.17863248487E-14,0.));
#96 = ORIENTED_EDGE('',*,*,#97,.T.);
#97 = EDGE_CURVE('',#90,#90,#98,.T.);
#98 = CIRCLE('',#99,1.2295);
#99 = AXIS2_PLACEMENT_3D('',#100,#101,#102);
#100 = CARTESIAN_POINT('',(62.292893218813,168.97516179855,122.5));
#101 = DIRECTION('',(-1.,0.,0.));
#102 = DIRECTION('',(0.,1.,7.642824143659E-46));
#103 = ORIENTED_EDGE('',*,*,#87,.F.);
#104 = ORIENTED_EDGE('',*,*,#105,.T.);
#105 = EDGE_CURVE('',#88,#88,#106,.T.);
#106 = CIRCLE('',#107,1.2295);
#107 = AXIS2_PLACEMENT_3D('',#108,#109,#110);
#108 = CARTESIAN_POINT('',(59.754887848965,168.97516179855,122.5));
#109 = DIRECTION('',(1.,0.,0.));
#110 = DIRECTION('',(-0.,1.,7.642824143659E-46));
#111 = CYLINDRICAL_SURFACE('',#112,1.2295);
#112 = AXIS2_PLACEMENT_3D('',#113,#114,#115);
#113 = CARTESIAN_POINT('',(59.486087389924,168.97516179855,122.5));
#114 = DIRECTION('',(1.,6.17863248487E-14,0.));
#115 = DIRECTION('',(-6.17863248487E-14,1.,7.642824143659E-46));
#116 = ADVANCED_FACE('',(#117),#144,.F.);
#117 = FACE_BOUND('',#118,.F.);
#118 = EDGE_LOOP('',(#119,#129,#136,#137));
#119 = ORIENTED_EDGE('',*,*,#120,.T.);
#120 = EDGE_CURVE('',#121,#123,#125,.T.);
#121 = VERTEX_POINT('',#122);
#122 = CARTESIAN_POINT('',(59.754887848966,167.74566179856,153.5));
#123 = VERTEX_POINT('',#124);
#124 = CARTESIAN_POINT('',(62.292893218813,167.74566179856,153.5));
#125 = LINE('',#126,#127);
#126 = CARTESIAN_POINT('',(59.486087389924,167.74566179856,153.5));
#127 = VECTOR('',#128,1.);
#128 = DIRECTION('',(1.,6.17863248487E-14,0.));
#129 = ORIENTED_EDGE('',*,*,#130,.T.);
#130 = EDGE_CURVE('',#123,#123,#131,.T.);
#131 = CIRCLE('',#132,1.2295);
#132 = AXIS2_PLACEMENT_3D('',#133,#134,#135);
#133 = CARTESIAN_POINT('',(62.292893218813,168.97516179856,153.5));
#134 = DIRECTION('',(-1.,0.,0.));
#135 = DIRECTION('',(0.,1.,7.642824143659E-46));
#136 = ORIENTED_EDGE('',*,*,#120,.F.);
#137 = ORIENTED_EDGE('',*,*,#138,.T.);
#138 = EDGE_CURVE('',#121,#121,#139,.T.);
#139 = CIRCLE('',#140,1.2295);
#140 = AXIS2_PLACEMENT_3D('',#141,#142,#143);
#141 = CARTESIAN_POINT('',(59.754887848965,168.97516179856,153.5));
#142 = DIRECTION('',(1.,0.,0.));
#143 = DIRECTION('',(-0.,1.,7.642824143659E-46));
#144 = CYLINDRICAL_SURFACE('',#145,1.2295);
#145 = AXIS2_PLACEMENT_3D('',#146,#147,#148);
#146 = CARTESIAN_POINT('',(59.486087389924,168.97516179856,153.5));
#147 = DIRECTION('',(1.,6.17863248487E-14,0.));
#148 = DIRECTION('',(-6.17863248487E-14,1.,7.642824143659E-46));
#149 = ADVANCED_FACE('',(#150),#177,.F.);
#150 = FACE_BOUND('',#151,.F.);
#151 = EDGE_LOOP('',(#152,#162,#169,#170));
#152 = ORIENTED_EDGE('',*,*,#153,.T.);
#153 = EDGE_CURVE('',#154,#156,#158,.T.);
#154 = VERTEX_POINT('',#155);
#155 = CARTESIAN_POINT('',(59.754887848965,173.47516179855,138.));
#156 = VERTEX_POINT('',#157);
#157 = CARTESIAN_POINT('',(62.292893218812,173.47516179855,138.));
#158 = LINE('',#159,#160);
#159 = CARTESIAN_POINT('',(59.486087389923,173.47516179855,138.));
#160 = VECTOR('',#161,1.);
#161 = DIRECTION('',(1.,6.17863248487E-14,0.));
#162 = ORIENTED_EDGE('',*,*,#163,.T.);
#163 = EDGE_CURVE('',#156,#156,#164,.T.);
#164 = CIRCLE('',#165,11.);
#165 = AXIS2_PLACEMENT_3D('',#166,#167,#168);
#166 = CARTESIAN_POINT('',(62.292893218812,184.47516179855,138.));
#167 = DIRECTION('',(-1.,0.,0.));
#168 = DIRECTION('',(0.,1.,7.563826938202E-46));
#169 = ORIENTED_EDGE('',*,*,#153,.F.);
#170 = ORIENTED_EDGE('',*,*,#171,.T.);
#171 = EDGE_CURVE('',#154,#154,#172,.T.);
#172 = CIRCLE('',#173,11.);
#173 = AXIS2_PLACEMENT_3D('',#174,#175,#176);
#174 = CARTESIAN_POINT('',(59.754887848965,184.47516179855,138.));
#175 = DIRECTION('',(1.,0.,0.));
#176 = DIRECTION('',(-0.,1.,7.563826938202E-46));
#177 = CYLINDRICAL_SURFACE('',#178,11.);
#178 = AXIS2_PLACEMENT_3D('',#179,#180,#181);
#179 = CARTESIAN_POINT('',(59.486087389923,184.47516179855,138.));
#180 = DIRECTION('',(1.,6.17863248487E-14,0.));
#181 = DIRECTION('',(-6.17863248487E-14,1.,7.563826938202E-46));
#182 = ADVANCED_FACE('',(#183),#217,.T.);
#183 = FACE_BOUND('',#184,.T.);
#184 = EDGE_LOOP('',(#185,#195,#203,#211));
#185 = ORIENTED_EDGE('',*,*,#186,.F.);
#186 = EDGE_CURVE('',#187,#189,#191,.T.);
#187 = VERTEX_POINT('',#188);
#188 = CARTESIAN_POINT('',(59.754887848966,163.51200101917,
    117.00000174343));
#189 = VERTEX_POINT('',#190);
#190 = CARTESIAN_POINT('',(62.292893218813,163.51200101917,
    117.00000174343));
#191 = LINE('',#192,#193);
#192 = CARTESIAN_POINT('',(42.75,163.51200101917,117.00000174343));
#193 = VECTOR('',#194,1.);
#194 = DIRECTION('',(1.,0.,0.));
#195 = ORIENTED_EDGE('',*,*,#196,.T.);
#196 = EDGE_CURVE('',#187,#197,#199,.T.);
#197 = VERTEX_POINT('',#198);
#198 = CARTESIAN_POINT('',(59.754887848966,205.51200101917,
    117.00000174343));
#199 = LINE('',#200,#201);
#200 = CARTESIAN_POINT('',(59.754887848966,163.51200101917,
    117.00000174343));
#201 = VECTOR('',#202,1.);
#202 = DIRECTION('',(0.,1.,0.));
#203 = ORIENTED_EDGE('',*,*,#204,.F.);
#204 = EDGE_CURVE('',#205,#197,#207,.T.);
#205 = VERTEX_POINT('',#206);
#206 = CARTESIAN_POINT('',(62.292893218813,205.51200101917,
    117.00000174343));
#207 = LINE('',#208,#209);
#208 = CARTESIAN_POINT('',(59.754887848966,205.51200101917,
    117.00000174343));
#209 = VECTOR('',#210,1.);
#210 = DIRECTION('',(-1.,0.,0.));
#211 = ORIENTED_EDGE('',*,*,#212,.F.);
#212 = EDGE_CURVE('',#189,#205,#213,.T.);
#213 = LINE('',#214,#215);
#214 = CARTESIAN_POINT('',(62.292893218813,163.51200101917,
    117.00000174343));
#215 = VECTOR('',#216,1.);
#216 = DIRECTION('',(0.,1.,0.));
#217 = PLANE('',#218);
#218 = AXIS2_PLACEMENT_3D('',#219,#220,#221);
#219 = CARTESIAN_POINT('',(62.292893218813,163.51200101917,
    117.00000174343));
#220 = DIRECTION('',(0.,0.,-1.));
#221 = DIRECTION('',(-1.,0.,0.));
#222 = ADVANCED_FACE('',(#223,#248,#251,#254,#257,#260),#263,.T.);
#223 = FACE_BOUND('',#224,.T.);
#224 = EDGE_LOOP('',(#225,#233,#241,#247));
#225 = ORIENTED_EDGE('',*,*,#226,.F.);
#226 = EDGE_CURVE('',#227,#187,#229,.T.);
#227 = VERTEX_POINT('',#228);
#228 = CARTESIAN_POINT('',(59.754887848966,163.51200101917,
    158.55075183068));
#229 = LINE('',#230,#231);
#230 = CARTESIAN_POINT('',(59.754887848966,163.51200101917,
    118.27537678706));
#231 = VECTOR('',#232,1.);
#232 = DIRECTION('',(0.,1.7763568394E-14,-1.));
#233 = ORIENTED_EDGE('',*,*,#234,.T.);
#234 = EDGE_CURVE('',#227,#235,#237,.T.);
#235 = VERTEX_POINT('',#236);
#236 = CARTESIAN_POINT('',(59.754887848966,205.51200101917,
    158.55075183068));
#237 = LINE('',#238,#239);
#238 = CARTESIAN_POINT('',(59.754887848966,163.51200101917,
    158.55075183068));
#239 = VECTOR('',#240,1.);
#240 = DIRECTION('',(0.,1.,0.));
#241 = ORIENTED_EDGE('',*,*,#242,.F.);
#242 = EDGE_CURVE('',#197,#235,#243,.T.);
#243 = LINE('',#244,#245);
#244 = CARTESIAN_POINT('',(59.754887848966,205.51200101917,
    158.55075183068));
#245 = VECTOR('',#246,1.);
#246 = DIRECTION('',(0.,0.,1.));
#247 = ORIENTED_EDGE('',*,*,#196,.F.);
#248 = FACE_BOUND('',#249,.T.);
#249 = EDGE_LOOP('',(#250));
#250 = ORIENTED_EDGE('',*,*,#171,.T.);
#251 = FACE_BOUND('',#252,.T.);
#252 = EDGE_LOOP('',(#253));
#253 = ORIENTED_EDGE('',*,*,#138,.T.);
#254 = FACE_BOUND('',#255,.T.);
#255 = EDGE_LOOP('',(#256));
#256 = ORIENTED_EDGE('',*,*,#105,.T.);
#257 = FACE_BOUND('',#258,.T.);
#258 = EDGE_LOOP('',(#259));
#259 = ORIENTED_EDGE('',*,*,#72,.T.);
#260 = FACE_BOUND('',#261,.T.);
#261 = EDGE_LOOP('',(#262));
#262 = ORIENTED_EDGE('',*,*,#39,.T.);
#263 = PLANE('',#264);
#264 = AXIS2_PLACEMENT_3D('',#265,#266,#267);
#265 = CARTESIAN_POINT('',(59.754887848966,163.51200101917,
    117.00000174343));
#266 = DIRECTION('',(-1.,0.,0.));
#267 = DIRECTION('',(0.,0.,1.));
#268 = ADVANCED_FACE('',(#269),#287,.T.);
#269 = FACE_BOUND('',#270,.T.);
#270 = EDGE_LOOP('',(#271,#272,#280,#286));
#271 = ORIENTED_EDGE('',*,*,#242,.T.);
#272 = ORIENTED_EDGE('',*,*,#273,.T.);
#273 = EDGE_CURVE('',#235,#274,#276,.T.);
#274 = VERTEX_POINT('',#275);
#275 = CARTESIAN_POINT('',(62.292893218813,205.51200101917,
    158.55075183068));
#276 = LINE('',#277,#278);
#277 = CARTESIAN_POINT('',(59.754887848966,205.51200101917,
    158.55075183068));
#278 = VECTOR('',#279,1.);
#279 = DIRECTION('',(1.,4.97310787183E-29,0.));
#280 = ORIENTED_EDGE('',*,*,#281,.T.);
#281 = EDGE_CURVE('',#274,#205,#282,.T.);
#282 = LINE('',#283,#284);
#283 = CARTESIAN_POINT('',(62.292893218813,205.51200101917,
    117.00000174343));
#284 = VECTOR('',#285,1.);
#285 = DIRECTION('',(0.,-3.037676686229E-30,-1.));
#286 = ORIENTED_EDGE('',*,*,#204,.T.);
#287 = PLANE('',#288);
#288 = AXIS2_PLACEMENT_3D('',#289,#290,#291);
#289 = CARTESIAN_POINT('',(61.02389053389,205.51200101917,
    137.77537678706));
#290 = DIRECTION('',(0.,1.,0.));
#291 = DIRECTION('',(0.,-0.,1.));
#292 = ADVANCED_FACE('',(#293),#327,.T.);
#293 = FACE_BOUND('',#294,.T.);
#294 = EDGE_LOOP('',(#295,#296,#297,#305,#313,#321));
#295 = ORIENTED_EDGE('',*,*,#226,.T.);
#296 = ORIENTED_EDGE('',*,*,#186,.T.);
#297 = ORIENTED_EDGE('',*,*,#298,.F.);
#298 = EDGE_CURVE('',#299,#189,#301,.T.);
#299 = VERTEX_POINT('',#300);
#300 = CARTESIAN_POINT('',(62.292893218813,163.51200101917,
    111.55075183069));
#301 = LINE('',#302,#303);
#302 = CARTESIAN_POINT('',(62.292893218813,163.51200101917,
    119.55075183069));
#303 = VECTOR('',#304,1.);
#304 = DIRECTION('',(0.,0.,1.));
#305 = ORIENTED_EDGE('',*,*,#306,.F.);
#306 = EDGE_CURVE('',#307,#299,#309,.T.);
#307 = VERTEX_POINT('',#308);
#308 = CARTESIAN_POINT('',(23.207106781187,163.51200101917,
    111.55075183069));
#309 = LINE('',#310,#311);
#310 = CARTESIAN_POINT('',(56.792893218813,163.51200101917,
    111.55075183069));
#311 = VECTOR('',#312,1.);
#312 = DIRECTION('',(1.,0.,0.));
#313 = ORIENTED_EDGE('',*,*,#314,.T.);
#314 = EDGE_CURVE('',#307,#315,#317,.T.);
#315 = VERTEX_POINT('',#316);
#316 = CARTESIAN_POINT('',(23.207106781187,163.51200101917,
    158.55075183069));
#317 = LINE('',#318,#319);
#318 = CARTESIAN_POINT('',(23.207106781187,163.51200101917,
    119.55075183069));
#319 = VECTOR('',#320,1.);
#320 = DIRECTION('',(0.,-1.7763568394E-14,1.));
#321 = ORIENTED_EDGE('',*,*,#322,.T.);
#322 = EDGE_CURVE('',#315,#227,#323,.T.);
#323 = LINE('',#324,#325);
#324 = CARTESIAN_POINT('',(56.792893218813,163.51200101917,
    158.55075183069));
#325 = VECTOR('',#326,1.);
#326 = DIRECTION('',(1.,1.057802736106E-15,0.));
#327 = PLANE('',#328);
#328 = AXIS2_PLACEMENT_3D('',#329,#330,#331);
#329 = CARTESIAN_POINT('',(23.207106781187,163.51200101917,
    119.55075183069));
#330 = DIRECTION('',(0.,1.,1.7763568394E-14));
#331 = DIRECTION('',(0.,-1.7763568394E-14,1.));
#332 = ADVANCED_FACE('',(#333,#360,#363,#366,#369,#372),#375,.T.);
#333 = FACE_BOUND('',#334,.T.);
#334 = EDGE_LOOP('',(#335,#345,#351,#352,#353,#354));
#335 = ORIENTED_EDGE('',*,*,#336,.T.);
#336 = EDGE_CURVE('',#337,#339,#341,.T.);
#337 = VERTEX_POINT('',#338);
#338 = CARTESIAN_POINT('',(62.292893218813,156.51200101917,
    158.55075183069));
#339 = VERTEX_POINT('',#340);
#340 = CARTESIAN_POINT('',(62.292893218813,156.51200101917,
    111.55075183069));
#341 = LINE('',#342,#343);
#342 = CARTESIAN_POINT('',(62.292893218813,156.51200101917,
    119.55075183069));
#343 = VECTOR('',#344,1.);
#344 = DIRECTION('',(0.,1.7763568394E-14,-1.));
#345 = ORIENTED_EDGE('',*,*,#346,.T.);
#346 = EDGE_CURVE('',#339,#299,#347,.T.);
#347 = LINE('',#348,#349);
#348 = CARTESIAN_POINT('',(62.292893218813,156.51200101917,
    111.55075183069));
#349 = VECTOR('',#350,1.);
#350 = DIRECTION('',(0.,1.,1.7763568394E-14));
#351 = ORIENTED_EDGE('',*,*,#298,.T.);
#352 = ORIENTED_EDGE('',*,*,#212,.T.);
#353 = ORIENTED_EDGE('',*,*,#281,.F.);
#354 = ORIENTED_EDGE('',*,*,#355,.F.);
#355 = EDGE_CURVE('',#337,#274,#356,.T.);
#356 = LINE('',#357,#358);
#357 = CARTESIAN_POINT('',(62.292893218813,163.51200101917,
    158.55075183068));
#358 = VECTOR('',#359,1.);
#359 = DIRECTION('',(0.,1.,0.));
#360 = FACE_BOUND('',#361,.T.);
#361 = EDGE_LOOP('',(#362));
#362 = ORIENTED_EDGE('',*,*,#163,.T.);
#363 = FACE_BOUND('',#364,.T.);
#364 = EDGE_LOOP('',(#365));
#365 = ORIENTED_EDGE('',*,*,#130,.T.);
#366 = FACE_BOUND('',#367,.T.);
#367 = EDGE_LOOP('',(#368));
#368 = ORIENTED_EDGE('',*,*,#97,.T.);
#369 = FACE_BOUND('',#370,.T.);
#370 = EDGE_LOOP('',(#371));
#371 = ORIENTED_EDGE('',*,*,#64,.T.);
#372 = FACE_BOUND('',#373,.T.);
#373 = EDGE_LOOP('',(#374));
#374 = ORIENTED_EDGE('',*,*,#31,.T.);
#375 = PLANE('',#376);
#376 = AXIS2_PLACEMENT_3D('',#377,#378,#379);
#377 = CARTESIAN_POINT('',(62.292893218813,156.51200101917,
    119.55075183069));
#378 = DIRECTION('',(1.,0.,0.));
#379 = DIRECTION('',(0.,0.,-1.));
#380 = ADVANCED_FACE('',(#381),#422,.T.);
#381 = FACE_BOUND('',#382,.T.);
#382 = EDGE_LOOP('',(#383,#393,#401,#407,#408,#416));
#383 = ORIENTED_EDGE('',*,*,#384,.F.);
#384 = EDGE_CURVE('',#385,#387,#389,.T.);
#385 = VERTEX_POINT('',#386);
#386 = CARTESIAN_POINT('',(56.792893218813,156.51200101917,
    119.55075183069));
#387 = VERTEX_POINT('',#388);
#388 = CARTESIAN_POINT('',(23.207106781187,156.51200101917,
    119.55075183069));
#389 = LINE('',#390,#391);
#390 = CARTESIAN_POINT('',(31.603553390593,156.51200101917,
    119.55075183069));
#391 = VECTOR('',#392,1.);
#392 = DIRECTION('',(-1.,-5.289013680532E-16,-7.026664390354E-30));
#393 = ORIENTED_EDGE('',*,*,#394,.T.);
#394 = EDGE_CURVE('',#385,#395,#397,.T.);
#395 = VERTEX_POINT('',#396);
#396 = CARTESIAN_POINT('',(56.792893218813,156.51200101917,
    111.55075183069));
#397 = LINE('',#398,#399);
#398 = CARTESIAN_POINT('',(56.792893218813,156.51200101917,
    119.55075183069));
#399 = VECTOR('',#400,1.);
#400 = DIRECTION('',(0.,1.7763568394E-14,-1.));
#401 = ORIENTED_EDGE('',*,*,#402,.T.);
#402 = EDGE_CURVE('',#395,#339,#403,.T.);
#403 = LINE('',#404,#405);
#404 = CARTESIAN_POINT('',(56.792893218813,156.51200101917,
    111.55075183069));
#405 = VECTOR('',#406,1.);
#406 = DIRECTION('',(1.,0.,0.));
#407 = ORIENTED_EDGE('',*,*,#336,.F.);
#408 = ORIENTED_EDGE('',*,*,#409,.F.);
#409 = EDGE_CURVE('',#410,#337,#412,.T.);
#410 = VERTEX_POINT('',#411);
#411 = CARTESIAN_POINT('',(23.207106781187,156.51200101917,
    158.55075183069));
#412 = LINE('',#413,#414);
#413 = CARTESIAN_POINT('',(23.207106781187,156.51200101917,
    158.55075183069));
#414 = VECTOR('',#415,1.);
#415 = DIRECTION('',(1.,5.289013680532E-16,0.));
#416 = ORIENTED_EDGE('',*,*,#417,.F.);
#417 = EDGE_CURVE('',#387,#410,#418,.T.);
#418 = LINE('',#419,#420);
#419 = CARTESIAN_POINT('',(23.207106781187,156.51200101917,
    119.55075183069));
#420 = VECTOR('',#421,1.);
#421 = DIRECTION('',(0.,0.,1.));
#422 = PLANE('',#423);
#423 = AXIS2_PLACEMENT_3D('',#424,#425,#426);
#424 = CARTESIAN_POINT('',(23.207106781187,156.51200101917,
    119.55075183069));
#425 = DIRECTION('',(5.289013680532E-16,-1.,0.));
#426 = DIRECTION('',(1.,5.289013680532E-16,0.));
#427 = ADVANCED_FACE('',(#428),#441,.T.);
#428 = FACE_BOUND('',#429,.T.);
#429 = EDGE_LOOP('',(#430,#431,#437,#438,#439,#440));
#430 = ORIENTED_EDGE('',*,*,#322,.F.);
#431 = ORIENTED_EDGE('',*,*,#432,.F.);
#432 = EDGE_CURVE('',#410,#315,#433,.T.);
#433 = LINE('',#434,#435);
#434 = CARTESIAN_POINT('',(23.207106781187,161.51200101917,
    158.55075183069));
#435 = VECTOR('',#436,1.);
#436 = DIRECTION('',(0.,1.,1.7763568394E-14));
#437 = ORIENTED_EDGE('',*,*,#409,.T.);
#438 = ORIENTED_EDGE('',*,*,#355,.T.);
#439 = ORIENTED_EDGE('',*,*,#273,.F.);
#440 = ORIENTED_EDGE('',*,*,#234,.F.);
#441 = PLANE('',#442);
#442 = AXIS2_PLACEMENT_3D('',#443,#444,#445);
#443 = CARTESIAN_POINT('',(40.,159.01200101917,158.55075183069));
#444 = DIRECTION('',(0.,0.,1.));
#445 = DIRECTION('',(1.,0.,-0.));
#446 = ADVANCED_FACE('',(#447),#466,.T.);
#447 = FACE_BOUND('',#448,.T.);
#448 = EDGE_LOOP('',(#449,#457,#458,#459,#460));
#449 = ORIENTED_EDGE('',*,*,#450,.F.);
#450 = EDGE_CURVE('',#387,#451,#453,.T.);
#451 = VERTEX_POINT('',#452);
#452 = CARTESIAN_POINT('',(23.207106781187,156.51200101917,
    111.55075183069));
#453 = LINE('',#454,#455);
#454 = CARTESIAN_POINT('',(23.207106781187,156.51200101917,
    119.55075183069));
#455 = VECTOR('',#456,1.);
#456 = DIRECTION('',(0.,1.7763568394E-14,-1.));
#457 = ORIENTED_EDGE('',*,*,#417,.T.);
#458 = ORIENTED_EDGE('',*,*,#432,.T.);
#459 = ORIENTED_EDGE('',*,*,#314,.F.);
#460 = ORIENTED_EDGE('',*,*,#461,.F.);
#461 = EDGE_CURVE('',#451,#307,#462,.T.);
#462 = LINE('',#463,#464);
#463 = CARTESIAN_POINT('',(23.207106781187,156.51200101917,
    111.55075183069));
#464 = VECTOR('',#465,1.);
#465 = DIRECTION('',(0.,1.,1.7763568394E-14));
#466 = PLANE('',#467);
#467 = AXIS2_PLACEMENT_3D('',#468,#469,#470);
#468 = CARTESIAN_POINT('',(23.207106781187,156.51200101917,
    111.55075183069));
#469 = DIRECTION('',(-1.,0.,0.));
#470 = DIRECTION('',(0.,-1.7763568394E-14,1.));
#471 = ADVANCED_FACE('',(#472),#499,.F.);
#472 = FACE_BOUND('',#473,.F.);
#473 = EDGE_LOOP('',(#474,#484,#491,#492));
#474 = ORIENTED_EDGE('',*,*,#475,.T.);
#475 = EDGE_CURVE('',#476,#478,#480,.T.);
#476 = VERTEX_POINT('',#477);
#477 = CARTESIAN_POINT('',(29.,135.51200101917,111.55075183069));
#478 = VERTEX_POINT('',#479);
#479 = CARTESIAN_POINT('',(29.,135.51200101917,119.55075183069));
#480 = LINE('',#481,#482);
#481 = CARTESIAN_POINT('',(29.,135.51200101917,119.55075183069));
#482 = VECTOR('',#483,1.);
#483 = DIRECTION('',(0.,-1.7763568394E-14,1.));
#484 = ORIENTED_EDGE('',*,*,#485,.F.);
#485 = EDGE_CURVE('',#478,#478,#486,.T.);
#486 = CIRCLE('',#487,11.);
#487 = AXIS2_PLACEMENT_3D('',#488,#489,#490);
#488 = CARTESIAN_POINT('',(40.,135.51200101917,119.55075183069));
#489 = DIRECTION('',(1.972152263056E-30,-1.701416785238E-14,1.));
#490 = DIRECTION('',(1.,0.,-1.972152263056E-30));
#491 = ORIENTED_EDGE('',*,*,#475,.F.);
#492 = ORIENTED_EDGE('',*,*,#493,.T.);
#493 = EDGE_CURVE('',#476,#476,#494,.T.);
#494 = CIRCLE('',#495,11.);
#495 = AXIS2_PLACEMENT_3D('',#496,#497,#498);
#496 = CARTESIAN_POINT('',(40.,135.51200101917,111.55075183069));
#497 = DIRECTION('',(1.972152263056E-30,-1.701416785238E-14,1.));
#498 = DIRECTION('',(1.,0.,-1.972152263056E-30));
#499 = CYLINDRICAL_SURFACE('',#500,11.);
#500 = AXIS2_PLACEMENT_3D('',#501,#502,#503);
#501 = CARTESIAN_POINT('',(40.,135.51200101917,119.55075183069));
#502 = DIRECTION('',(0.,1.7763568394E-14,-1.));
#503 = DIRECTION('',(1.,-3.503246160819E-44,-6.223015277873E-58));
#504 = ADVANCED_FACE('',(#505),#532,.F.);
#505 = FACE_BOUND('',#506,.F.);
#506 = EDGE_LOOP('',(#507,#517,#524,#525));
#507 = ORIENTED_EDGE('',*,*,#508,.T.);
#508 = EDGE_CURVE('',#509,#511,#513,.T.);
#509 = VERTEX_POINT('',#510);
#510 = CARTESIAN_POINT('',(23.2705,151.01200101917,111.55075183069));
#511 = VERTEX_POINT('',#512);
#512 = CARTESIAN_POINT('',(23.2705,151.01200101917,119.55075183069));
#513 = LINE('',#514,#515);
#514 = CARTESIAN_POINT('',(23.2705,151.01200101917,119.55075183069));
#515 = VECTOR('',#516,1.);
#516 = DIRECTION('',(0.,-1.7763568394E-14,1.));
#517 = ORIENTED_EDGE('',*,*,#518,.F.);
#518 = EDGE_CURVE('',#511,#511,#519,.T.);
#519 = CIRCLE('',#520,1.2295);
#520 = AXIS2_PLACEMENT_3D('',#521,#522,#523);
#521 = CARTESIAN_POINT('',(24.5,151.01200101917,119.55075183069));
#522 = DIRECTION('',(1.972152263056E-30,-1.701416785238E-14,1.));
#523 = DIRECTION('',(1.,-1.991364888916E-59,-1.972152263056E-30));
#524 = ORIENTED_EDGE('',*,*,#508,.F.);
#525 = ORIENTED_EDGE('',*,*,#526,.T.);
#526 = EDGE_CURVE('',#509,#509,#527,.T.);
#527 = CIRCLE('',#528,1.2295);
#528 = AXIS2_PLACEMENT_3D('',#529,#530,#531);
#529 = CARTESIAN_POINT('',(24.5,151.01200101917,111.55075183069));
#530 = DIRECTION('',(1.972152263056E-30,-1.701416785238E-14,1.));
#531 = DIRECTION('',(1.,-1.991364888916E-59,-1.972152263056E-30));
#532 = CYLINDRICAL_SURFACE('',#533,1.2295);
#533 = AXIS2_PLACEMENT_3D('',#534,#535,#536);
#534 = CARTESIAN_POINT('',(24.5,151.01200101917,119.55075183069));
#535 = DIRECTION('',(0.,1.7763568394E-14,-1.));
#536 = DIRECTION('',(1.,-3.503246160819E-44,-6.223015277873E-58));
#537 = ADVANCED_FACE('',(#538),#565,.F.);
#538 = FACE_BOUND('',#539,.F.);
#539 = EDGE_LOOP('',(#540,#550,#557,#558));
#540 = ORIENTED_EDGE('',*,*,#541,.T.);
#541 = EDGE_CURVE('',#542,#544,#546,.T.);
#542 = VERTEX_POINT('',#543);
#543 = CARTESIAN_POINT('',(54.2705,120.01200101917,111.55075183068));
#544 = VERTEX_POINT('',#545);
#545 = CARTESIAN_POINT('',(54.2705,120.01200101917,119.55075183068));
#546 = LINE('',#547,#548);
#547 = CARTESIAN_POINT('',(54.2705,120.01200101917,119.55075183068));
#548 = VECTOR('',#549,1.);
#549 = DIRECTION('',(0.,-1.7763568394E-14,1.));
#550 = ORIENTED_EDGE('',*,*,#551,.F.);
#551 = EDGE_CURVE('',#544,#544,#552,.T.);
#552 = CIRCLE('',#553,1.2295);
#553 = AXIS2_PLACEMENT_3D('',#554,#555,#556);
#554 = CARTESIAN_POINT('',(55.5,120.01200101917,119.55075183068));
#555 = DIRECTION('',(1.972152263056E-30,-1.701416785238E-14,1.));
#556 = DIRECTION('',(1.,-1.991364888916E-59,-1.972152263056E-30));
#557 = ORIENTED_EDGE('',*,*,#541,.F.);
#558 = ORIENTED_EDGE('',*,*,#559,.T.);
#559 = EDGE_CURVE('',#542,#542,#560,.T.);
#560 = CIRCLE('',#561,1.2295);
#561 = AXIS2_PLACEMENT_3D('',#562,#563,#564);
#562 = CARTESIAN_POINT('',(55.5,120.01200101917,111.55075183068));
#563 = DIRECTION('',(1.972152263056E-30,-1.701416785238E-14,1.));
#564 = DIRECTION('',(1.,-1.991364888916E-59,-1.972152263056E-30));
#565 = CYLINDRICAL_SURFACE('',#566,1.2295);
#566 = AXIS2_PLACEMENT_3D('',#567,#568,#569);
#567 = CARTESIAN_POINT('',(55.5,120.01200101917,119.55075183068));
#568 = DIRECTION('',(0.,1.7763568394E-14,-1.));
#569 = DIRECTION('',(1.,-3.503246160819E-44,-6.223015277873E-58));
#570 = ADVANCED_FACE('',(#571),#598,.F.);
#571 = FACE_BOUND('',#572,.F.);
#572 = EDGE_LOOP('',(#573,#583,#590,#591));
#573 = ORIENTED_EDGE('',*,*,#574,.T.);
#574 = EDGE_CURVE('',#575,#577,#579,.T.);
#575 = VERTEX_POINT('',#576);
#576 = CARTESIAN_POINT('',(23.2705,120.01200101917,111.55075183068));
#577 = VERTEX_POINT('',#578);
#578 = CARTESIAN_POINT('',(23.2705,120.01200101917,119.55075183068));
#579 = LINE('',#580,#581);
#580 = CARTESIAN_POINT('',(23.2705,120.01200101917,119.55075183068));
#581 = VECTOR('',#582,1.);
#582 = DIRECTION('',(0.,-1.7763568394E-14,1.));
#583 = ORIENTED_EDGE('',*,*,#584,.F.);
#584 = EDGE_CURVE('',#577,#577,#585,.T.);
#585 = CIRCLE('',#586,1.2295);
#586 = AXIS2_PLACEMENT_3D('',#587,#588,#589);
#587 = CARTESIAN_POINT('',(24.5,120.01200101917,119.55075183068));
#588 = DIRECTION('',(1.972152263056E-30,-1.701416785238E-14,1.));
#589 = DIRECTION('',(1.,-1.991364888916E-59,-1.972152263056E-30));
#590 = ORIENTED_EDGE('',*,*,#574,.F.);
#591 = ORIENTED_EDGE('',*,*,#592,.T.);
#592 = EDGE_CURVE('',#575,#575,#593,.T.);
#593 = CIRCLE('',#594,1.2295);
#594 = AXIS2_PLACEMENT_3D('',#595,#596,#597);
#595 = CARTESIAN_POINT('',(24.5,120.01200101917,111.55075183068));
#596 = DIRECTION('',(1.972152263056E-30,-1.701416785238E-14,1.));
#597 = DIRECTION('',(1.,-1.991364888916E-59,-1.972152263056E-30));
#598 = CYLINDRICAL_SURFACE('',#599,1.2295);
#599 = AXIS2_PLACEMENT_3D('',#600,#601,#602);
#600 = CARTESIAN_POINT('',(24.5,120.01200101917,119.55075183068));
#601 = DIRECTION('',(0.,1.7763568394E-14,-1.));
#602 = DIRECTION('',(1.,-3.503246160819E-44,-6.223015277873E-58));
#603 = ADVANCED_FACE('',(#604),#631,.F.);
#604 = FACE_BOUND('',#605,.F.);
#605 = EDGE_LOOP('',(#606,#616,#623,#624));
#606 = ORIENTED_EDGE('',*,*,#607,.T.);
#607 = EDGE_CURVE('',#608,#610,#612,.T.);
#608 = VERTEX_POINT('',#609);
#609 = CARTESIAN_POINT('',(54.2705,151.01200101917,111.55075183069));
#610 = VERTEX_POINT('',#611);
#611 = CARTESIAN_POINT('',(54.2705,151.01200101917,119.55075183069));
#612 = LINE('',#613,#614);
#613 = CARTESIAN_POINT('',(54.2705,151.01200101917,119.55075183069));
#614 = VECTOR('',#615,1.);
#615 = DIRECTION('',(0.,-1.7763568394E-14,1.));
#616 = ORIENTED_EDGE('',*,*,#617,.F.);
#617 = EDGE_CURVE('',#610,#610,#618,.T.);
#618 = CIRCLE('',#619,1.2295);
#619 = AXIS2_PLACEMENT_3D('',#620,#621,#622);
#620 = CARTESIAN_POINT('',(55.5,151.01200101917,119.55075183069));
#621 = DIRECTION('',(1.972152263056E-30,-1.701416785238E-14,1.));
#622 = DIRECTION('',(1.,-1.991364888916E-59,-1.972152263056E-30));
#623 = ORIENTED_EDGE('',*,*,#607,.F.);
#624 = ORIENTED_EDGE('',*,*,#625,.T.);
#625 = EDGE_CURVE('',#608,#608,#626,.T.);
#626 = CIRCLE('',#627,1.2295);
#627 = AXIS2_PLACEMENT_3D('',#628,#629,#630);
#628 = CARTESIAN_POINT('',(55.5,151.01200101917,111.55075183069));
#629 = DIRECTION('',(1.972152263056E-30,-1.701416785238E-14,1.));
#630 = DIRECTION('',(1.,-1.991364888916E-59,-1.972152263056E-30));
#631 = CYLINDRICAL_SURFACE('',#632,1.2295);
#632 = AXIS2_PLACEMENT_3D('',#633,#634,#635);
#633 = CARTESIAN_POINT('',(55.5,151.01200101917,119.55075183069));
#634 = DIRECTION('',(0.,1.7763568394E-14,-1.));
#635 = DIRECTION('',(1.,-3.503246160819E-44,-6.223015277873E-58));
#636 = ADVANCED_FACE('',(#637),#671,.T.);
#637 = FACE_BOUND('',#638,.T.);
#638 = EDGE_LOOP('',(#639,#649,#657,#665));
#639 = ORIENTED_EDGE('',*,*,#640,.T.);
#640 = EDGE_CURVE('',#641,#643,#645,.T.);
#641 = VERTEX_POINT('',#642);
#642 = CARTESIAN_POINT('',(22.853553390593,114.65844762857,
    119.55075183068));
#643 = VERTEX_POINT('',#644);
#644 = CARTESIAN_POINT('',(19.146446609407,118.36555440976,
    119.55075183068));
#645 = LINE('',#646,#647);
#646 = CARTESIAN_POINT('',(22.853553390593,114.65844762857,
    119.55075183068));
#647 = VECTOR('',#648,1.);
#648 = DIRECTION('',(-0.707106781187,0.707106781187,1.203083346466E-14)
  );
#649 = ORIENTED_EDGE('',*,*,#650,.T.);
#650 = EDGE_CURVE('',#643,#651,#653,.T.);
#651 = VERTEX_POINT('',#652);
#652 = CARTESIAN_POINT('',(19.146446609407,118.36555440976,
    111.55075183068));
#653 = LINE('',#654,#655);
#654 = CARTESIAN_POINT('',(19.146446609407,118.36555440976,
    119.55075183068));
#655 = VECTOR('',#656,1.);
#656 = DIRECTION('',(0.,1.7763568394E-14,-1.));
#657 = ORIENTED_EDGE('',*,*,#658,.F.);
#658 = EDGE_CURVE('',#659,#651,#661,.T.);
#659 = VERTEX_POINT('',#660);
#660 = CARTESIAN_POINT('',(22.853553390593,114.65844762857,
    111.55075183068));
#661 = LINE('',#662,#663);
#662 = CARTESIAN_POINT('',(22.853553390593,114.65844762857,
    111.55075183068));
#663 = VECTOR('',#664,1.);
#664 = DIRECTION('',(-0.707106781187,0.707106781187,1.203083346466E-14)
  );
#665 = ORIENTED_EDGE('',*,*,#666,.F.);
#666 = EDGE_CURVE('',#641,#659,#667,.T.);
#667 = LINE('',#668,#669);
#668 = CARTESIAN_POINT('',(22.853553390593,114.65844762857,
    119.55075183068));
#669 = VECTOR('',#670,1.);
#670 = DIRECTION('',(0.,1.7763568394E-14,-1.));
#671 = PLANE('',#672);
#672 = AXIS2_PLACEMENT_3D('',#673,#674,#675);
#673 = CARTESIAN_POINT('',(22.853553390593,114.65844762857,
    119.55075183068));
#674 = DIRECTION('',(-0.707106781187,-0.707106781187,-1.256073966947E-14
    ));
#675 = DIRECTION('',(-0.707106781187,0.707106781187,1.203083346466E-14)
  );
#676 = ADVANCED_FACE('',(#677),#704,.T.);
#677 = FACE_BOUND('',#678,.T.);
#678 = EDGE_LOOP('',(#679,#688,#689,#698));
#679 = ORIENTED_EDGE('',*,*,#680,.T.);
#680 = EDGE_CURVE('',#681,#641,#683,.T.);
#681 = VERTEX_POINT('',#682);
#682 = CARTESIAN_POINT('',(23.207106781187,114.51200101917,
    119.55075183068));
#683 = CIRCLE('',#684,0.5);
#684 = AXIS2_PLACEMENT_3D('',#685,#686,#687);
#685 = CARTESIAN_POINT('',(23.207106781187,115.01200101917,
    119.55075183068));
#686 = DIRECTION('',(-1.972152263056E-30,1.701416785238E-14,-1.));
#687 = DIRECTION('',(-8.881784197001E-15,-1.,-1.701416785238E-14));
#688 = ORIENTED_EDGE('',*,*,#666,.T.);
#689 = ORIENTED_EDGE('',*,*,#690,.F.);
#690 = EDGE_CURVE('',#691,#659,#693,.T.);
#691 = VERTEX_POINT('',#692);
#692 = CARTESIAN_POINT('',(23.207106781187,114.51200101917,
    111.55075183068));
#693 = CIRCLE('',#694,0.5);
#694 = AXIS2_PLACEMENT_3D('',#695,#696,#697);
#695 = CARTESIAN_POINT('',(23.207106781187,115.01200101917,
    111.55075183068));
#696 = DIRECTION('',(-1.972152263056E-30,1.701416785238E-14,-1.));
#697 = DIRECTION('',(-8.881784197001E-15,-1.,-1.701416785238E-14));
#698 = ORIENTED_EDGE('',*,*,#699,.F.);
#699 = EDGE_CURVE('',#681,#691,#700,.T.);
#700 = LINE('',#701,#702);
#701 = CARTESIAN_POINT('',(23.207106781187,114.51200101917,
    119.55075183068));
#702 = VECTOR('',#703,1.);
#703 = DIRECTION('',(0.,1.7763568394E-14,-1.));
#704 = CYLINDRICAL_SURFACE('',#705,0.5);
#705 = AXIS2_PLACEMENT_3D('',#706,#707,#708);
#706 = CARTESIAN_POINT('',(23.207106781187,115.01200101917,
    119.55075183068));
#707 = DIRECTION('',(0.,1.7763568394E-14,-1.));
#708 = DIRECTION('',(-8.881784197001E-15,-1.,-1.7763568394E-14));
#709 = ADVANCED_FACE('',(#710),#735,.T.);
#710 = FACE_BOUND('',#711,.T.);
#711 = EDGE_LOOP('',(#712,#720,#721,#729));
#712 = ORIENTED_EDGE('',*,*,#713,.T.);
#713 = EDGE_CURVE('',#714,#681,#716,.T.);
#714 = VERTEX_POINT('',#715);
#715 = CARTESIAN_POINT('',(56.792893218813,114.51200101917,
    119.55075183068));
#716 = LINE('',#717,#718);
#717 = CARTESIAN_POINT('',(56.792893218813,114.51200101917,
    119.55075183068));
#718 = VECTOR('',#719,1.);
#719 = DIRECTION('',(-1.,2.174011986908E-59,1.972152263056E-30));
#720 = ORIENTED_EDGE('',*,*,#699,.T.);
#721 = ORIENTED_EDGE('',*,*,#722,.F.);
#722 = EDGE_CURVE('',#723,#691,#725,.T.);
#723 = VERTEX_POINT('',#724);
#724 = CARTESIAN_POINT('',(56.792893218813,114.51200101917,
    111.55075183068));
#725 = LINE('',#726,#727);
#726 = CARTESIAN_POINT('',(56.792893218813,114.51200101917,
    111.55075183068));
#727 = VECTOR('',#728,1.);
#728 = DIRECTION('',(-1.,2.174011986908E-59,1.972152263056E-30));
#729 = ORIENTED_EDGE('',*,*,#730,.F.);
#730 = EDGE_CURVE('',#714,#723,#731,.T.);
#731 = LINE('',#732,#733);
#732 = CARTESIAN_POINT('',(56.792893218813,114.51200101917,
    119.55075183068));
#733 = VECTOR('',#734,1.);
#734 = DIRECTION('',(0.,1.7763568394E-14,-1.));
#735 = PLANE('',#736);
#736 = AXIS2_PLACEMENT_3D('',#737,#738,#739);
#737 = CARTESIAN_POINT('',(56.792893218813,114.51200101917,
    119.55075183068));
#738 = DIRECTION('',(-3.503246160819E-44,-1.,-1.7763568394E-14));
#739 = DIRECTION('',(-1.,5.974094666747E-59,1.972152263056E-30));
#740 = ADVANCED_FACE('',(#741),#768,.T.);
#741 = FACE_BOUND('',#742,.T.);
#742 = EDGE_LOOP('',(#743,#752,#753,#762));
#743 = ORIENTED_EDGE('',*,*,#744,.T.);
#744 = EDGE_CURVE('',#745,#714,#747,.T.);
#745 = VERTEX_POINT('',#746);
#746 = CARTESIAN_POINT('',(57.146446609407,114.65844762857,
    119.55075183068));
#747 = CIRCLE('',#748,0.5);
#748 = AXIS2_PLACEMENT_3D('',#749,#750,#751);
#749 = CARTESIAN_POINT('',(56.792893218813,115.01200101917,
    119.55075183068));
#750 = DIRECTION('',(-3.155443620884E-30,1.701416785238E-14,-1.));
#751 = DIRECTION('',(0.707106781187,-0.707106781187,-1.203083346466E-14)
  );
#752 = ORIENTED_EDGE('',*,*,#730,.T.);
#753 = ORIENTED_EDGE('',*,*,#754,.F.);
#754 = EDGE_CURVE('',#755,#723,#757,.T.);
#755 = VERTEX_POINT('',#756);
#756 = CARTESIAN_POINT('',(57.146446609407,114.65844762857,
    111.55075183068));
#757 = CIRCLE('',#758,0.5);
#758 = AXIS2_PLACEMENT_3D('',#759,#760,#761);
#759 = CARTESIAN_POINT('',(56.792893218813,115.01200101917,
    111.55075183068));
#760 = DIRECTION('',(-3.155443620884E-30,1.701416785238E-14,-1.));
#761 = DIRECTION('',(0.707106781187,-0.707106781187,-1.203083346466E-14)
  );
#762 = ORIENTED_EDGE('',*,*,#763,.F.);
#763 = EDGE_CURVE('',#745,#755,#764,.T.);
#764 = LINE('',#765,#766);
#765 = CARTESIAN_POINT('',(57.146446609407,114.65844762857,
    119.55075183068));
#766 = VECTOR('',#767,1.);
#767 = DIRECTION('',(0.,1.7763568394E-14,-1.));
#768 = CYLINDRICAL_SURFACE('',#769,0.5);
#769 = AXIS2_PLACEMENT_3D('',#770,#771,#772);
#770 = CARTESIAN_POINT('',(56.792893218813,115.01200101917,
    119.55075183068));
#771 = DIRECTION('',(0.,1.7763568394E-14,-1.));
#772 = DIRECTION('',(0.707106781187,-0.707106781187,-1.256073966947E-14)
  );
#773 = ADVANCED_FACE('',(#774),#799,.T.);
#774 = FACE_BOUND('',#775,.T.);
#775 = EDGE_LOOP('',(#776,#784,#785,#793));
#776 = ORIENTED_EDGE('',*,*,#777,.T.);
#777 = EDGE_CURVE('',#778,#745,#780,.T.);
#778 = VERTEX_POINT('',#779);
#779 = CARTESIAN_POINT('',(60.853553390593,118.36555440976,
    119.55075183068));
#780 = LINE('',#781,#782);
#781 = CARTESIAN_POINT('',(60.853553390593,118.36555440976,
    119.55075183068));
#782 = VECTOR('',#783,1.);
#783 = DIRECTION('',(-0.707106781187,-0.707106781187,-1.203083346466E-14
    ));
#784 = ORIENTED_EDGE('',*,*,#763,.T.);
#785 = ORIENTED_EDGE('',*,*,#786,.F.);
#786 = EDGE_CURVE('',#787,#755,#789,.T.);
#787 = VERTEX_POINT('',#788);
#788 = CARTESIAN_POINT('',(60.853553390593,118.36555440976,
    111.55075183068));
#789 = LINE('',#790,#791);
#790 = CARTESIAN_POINT('',(60.853553390593,118.36555440976,
    111.55075183068));
#791 = VECTOR('',#792,1.);
#792 = DIRECTION('',(-0.707106781187,-0.707106781187,-1.203083346466E-14
    ));
#793 = ORIENTED_EDGE('',*,*,#794,.F.);
#794 = EDGE_CURVE('',#778,#787,#795,.T.);
#795 = LINE('',#796,#797);
#796 = CARTESIAN_POINT('',(60.853553390593,118.36555440976,
    119.55075183068));
#797 = VECTOR('',#798,1.);
#798 = DIRECTION('',(0.,1.7763568394E-14,-1.));
#799 = PLANE('',#800);
#800 = AXIS2_PLACEMENT_3D('',#801,#802,#803);
#801 = CARTESIAN_POINT('',(60.853553390593,118.36555440976,
    119.55075183068));
#802 = DIRECTION('',(0.707106781187,-0.707106781187,-1.256073966947E-14)
  );
#803 = DIRECTION('',(-0.707106781187,-0.707106781187,-1.203083346466E-14
    ));
#804 = ADVANCED_FACE('',(#805),#832,.T.);
#805 = FACE_BOUND('',#806,.T.);
#806 = EDGE_LOOP('',(#807,#816,#817,#826));
#807 = ORIENTED_EDGE('',*,*,#808,.T.);
#808 = EDGE_CURVE('',#809,#778,#811,.T.);
#809 = VERTEX_POINT('',#810);
#810 = CARTESIAN_POINT('',(61.,118.71910780035,119.55075183068));
#811 = CIRCLE('',#812,0.5);
#812 = AXIS2_PLACEMENT_3D('',#813,#814,#815);
#813 = CARTESIAN_POINT('',(60.5,118.71910780035,119.55075183068));
#814 = DIRECTION('',(-1.972152263056E-30,1.701416785238E-14,-1.));
#815 = DIRECTION('',(1.,-3.5527136788E-14,-6.064368208886E-28));
#816 = ORIENTED_EDGE('',*,*,#794,.T.);
#817 = ORIENTED_EDGE('',*,*,#818,.F.);
#818 = EDGE_CURVE('',#819,#787,#821,.T.);
#819 = VERTEX_POINT('',#820);
#820 = CARTESIAN_POINT('',(61.,118.71910780035,111.55075183068));
#821 = CIRCLE('',#822,0.5);
#822 = AXIS2_PLACEMENT_3D('',#823,#824,#825);
#823 = CARTESIAN_POINT('',(60.5,118.71910780035,111.55075183068));
#824 = DIRECTION('',(-1.972152263056E-30,1.701416785238E-14,-1.));
#825 = DIRECTION('',(1.,-3.5527136788E-14,-6.064368208886E-28));
#826 = ORIENTED_EDGE('',*,*,#827,.F.);
#827 = EDGE_CURVE('',#809,#819,#828,.T.);
#828 = LINE('',#829,#830);
#829 = CARTESIAN_POINT('',(61.,118.71910780035,119.55075183068));
#830 = VECTOR('',#831,1.);
#831 = DIRECTION('',(0.,1.7763568394E-14,-1.));
#832 = CYLINDRICAL_SURFACE('',#833,0.5);
#833 = AXIS2_PLACEMENT_3D('',#834,#835,#836);
#834 = CARTESIAN_POINT('',(60.5,118.71910780035,119.55075183068));
#835 = DIRECTION('',(0.,1.7763568394E-14,-1.));
#836 = DIRECTION('',(1.,-3.5527136788E-14,-6.310887241768E-28));
#837 = ADVANCED_FACE('',(#838),#863,.T.);
#838 = FACE_BOUND('',#839,.T.);
#839 = EDGE_LOOP('',(#840,#848,#849,#857));
#840 = ORIENTED_EDGE('',*,*,#841,.T.);
#841 = EDGE_CURVE('',#842,#809,#844,.T.);
#842 = VERTEX_POINT('',#843);
#843 = CARTESIAN_POINT('',(61.,152.30489423798,119.55075183069));
#844 = LINE('',#845,#846);
#845 = CARTESIAN_POINT('',(61.,152.30489423798,119.55075183069));
#846 = VECTOR('',#847,1.);
#847 = DIRECTION('',(-3.355452963409E-44,-1.,-1.701416785238E-14));
#848 = ORIENTED_EDGE('',*,*,#827,.T.);
#849 = ORIENTED_EDGE('',*,*,#850,.F.);
#850 = EDGE_CURVE('',#851,#819,#853,.T.);
#851 = VERTEX_POINT('',#852);
#852 = CARTESIAN_POINT('',(61.,152.30489423798,111.55075183069));
#853 = LINE('',#854,#855);
#854 = CARTESIAN_POINT('',(61.,152.30489423798,111.55075183069));
#855 = VECTOR('',#856,1.);
#856 = DIRECTION('',(-3.355452963409E-44,-1.,-1.701416785238E-14));
#857 = ORIENTED_EDGE('',*,*,#858,.F.);
#858 = EDGE_CURVE('',#842,#851,#859,.T.);
#859 = LINE('',#860,#861);
#860 = CARTESIAN_POINT('',(61.,152.30489423798,119.55075183069));
#861 = VECTOR('',#862,1.);
#862 = DIRECTION('',(0.,1.7763568394E-14,-1.));
#863 = PLANE('',#864);
#864 = AXIS2_PLACEMENT_3D('',#865,#866,#867);
#865 = CARTESIAN_POINT('',(61.,152.30489423798,119.55075183069));
#866 = DIRECTION('',(1.,-3.355452963409E-44,-5.960481820838E-58));
#867 = DIRECTION('',(-3.355452963409E-44,-1.,-1.701416785238E-14));
#868 = ADVANCED_FACE('',(#869),#896,.T.);
#869 = FACE_BOUND('',#870,.T.);
#870 = EDGE_LOOP('',(#871,#880,#881,#890));
#871 = ORIENTED_EDGE('',*,*,#872,.T.);
#872 = EDGE_CURVE('',#873,#842,#875,.T.);
#873 = VERTEX_POINT('',#874);
#874 = CARTESIAN_POINT('',(60.853553390593,152.65844762857,
    119.55075183069));
#875 = CIRCLE('',#876,0.5);
#876 = AXIS2_PLACEMENT_3D('',#877,#878,#879);
#877 = CARTESIAN_POINT('',(60.5,152.30489423798,119.55075183069));
#878 = DIRECTION('',(0.,1.701416785238E-14,-1.));
#879 = DIRECTION('',(0.707106781187,0.707106781187,1.203083346466E-14));
#880 = ORIENTED_EDGE('',*,*,#858,.T.);
#881 = ORIENTED_EDGE('',*,*,#882,.F.);
#882 = EDGE_CURVE('',#883,#851,#885,.T.);
#883 = VERTEX_POINT('',#884);
#884 = CARTESIAN_POINT('',(60.853553390593,152.65844762857,
    111.55075183069));
#885 = CIRCLE('',#886,0.5);
#886 = AXIS2_PLACEMENT_3D('',#887,#888,#889);
#887 = CARTESIAN_POINT('',(60.5,152.30489423798,111.55075183069));
#888 = DIRECTION('',(0.,1.701416785238E-14,-1.));
#889 = DIRECTION('',(0.707106781187,0.707106781187,1.203083346466E-14));
#890 = ORIENTED_EDGE('',*,*,#891,.F.);
#891 = EDGE_CURVE('',#873,#883,#892,.T.);
#892 = LINE('',#893,#894);
#893 = CARTESIAN_POINT('',(60.853553390593,152.65844762857,
    119.55075183069));
#894 = VECTOR('',#895,1.);
#895 = DIRECTION('',(0.,1.7763568394E-14,-1.));
#896 = CYLINDRICAL_SURFACE('',#897,0.5);
#897 = AXIS2_PLACEMENT_3D('',#898,#899,#900);
#898 = CARTESIAN_POINT('',(60.5,152.30489423798,119.55075183069));
#899 = DIRECTION('',(0.,1.7763568394E-14,-1.));
#900 = DIRECTION('',(0.707106781187,0.707106781187,1.256073966947E-14));
#901 = ADVANCED_FACE('',(#902),#927,.T.);
#902 = FACE_BOUND('',#903,.T.);
#903 = EDGE_LOOP('',(#904,#912,#913,#921));
#904 = ORIENTED_EDGE('',*,*,#905,.T.);
#905 = EDGE_CURVE('',#906,#873,#908,.T.);
#906 = VERTEX_POINT('',#907);
#907 = CARTESIAN_POINT('',(57.146446609407,156.36555440976,
    119.55075183069));
#908 = LINE('',#909,#910);
#909 = CARTESIAN_POINT('',(57.146446609407,156.36555440976,
    119.55075183069));
#910 = VECTOR('',#911,1.);
#911 = DIRECTION('',(0.707106781187,-0.707106781187,-1.203083346466E-14)
  );
#912 = ORIENTED_EDGE('',*,*,#891,.T.);
#913 = ORIENTED_EDGE('',*,*,#914,.F.);
#914 = EDGE_CURVE('',#915,#883,#917,.T.);
#915 = VERTEX_POINT('',#916);
#916 = CARTESIAN_POINT('',(57.146446609407,156.36555440976,
    111.55075183069));
#917 = LINE('',#918,#919);
#918 = CARTESIAN_POINT('',(57.146446609407,156.36555440976,
    111.55075183069));
#919 = VECTOR('',#920,1.);
#920 = DIRECTION('',(0.707106781187,-0.707106781187,-1.203083346466E-14)
  );
#921 = ORIENTED_EDGE('',*,*,#922,.F.);
#922 = EDGE_CURVE('',#906,#915,#923,.T.);
#923 = LINE('',#924,#925);
#924 = CARTESIAN_POINT('',(57.146446609407,156.36555440976,
    119.55075183069));
#925 = VECTOR('',#926,1.);
#926 = DIRECTION('',(0.,1.7763568394E-14,-1.));
#927 = PLANE('',#928);
#928 = AXIS2_PLACEMENT_3D('',#929,#930,#931);
#929 = CARTESIAN_POINT('',(57.146446609407,156.36555440976,
    119.55075183069));
#930 = DIRECTION('',(0.707106781187,0.707106781187,1.256073966947E-14));
#931 = DIRECTION('',(0.707106781187,-0.707106781187,-1.203083346466E-14)
  );
#932 = ADVANCED_FACE('',(#933),#951,.T.);
#933 = FACE_BOUND('',#934,.T.);
#934 = EDGE_LOOP('',(#935,#942,#943,#950));
#935 = ORIENTED_EDGE('',*,*,#936,.T.);
#936 = EDGE_CURVE('',#385,#906,#937,.T.);
#937 = CIRCLE('',#938,0.5);
#938 = AXIS2_PLACEMENT_3D('',#939,#940,#941);
#939 = CARTESIAN_POINT('',(56.792893218813,156.01200101917,
    119.55075183069));
#940 = DIRECTION('',(-1.972152263056E-30,1.701416785238E-14,-1.));
#941 = DIRECTION('',(1.7763568394E-14,1.,1.701416785238E-14));
#942 = ORIENTED_EDGE('',*,*,#922,.T.);
#943 = ORIENTED_EDGE('',*,*,#944,.F.);
#944 = EDGE_CURVE('',#395,#915,#945,.T.);
#945 = CIRCLE('',#946,0.5);
#946 = AXIS2_PLACEMENT_3D('',#947,#948,#949);
#947 = CARTESIAN_POINT('',(56.792893218813,156.01200101917,
    111.55075183069));
#948 = DIRECTION('',(-1.972152263056E-30,1.701416785238E-14,-1.));
#949 = DIRECTION('',(1.7763568394E-14,1.,1.701416785238E-14));
#950 = ORIENTED_EDGE('',*,*,#394,.F.);
#951 = CYLINDRICAL_SURFACE('',#952,0.5);
#952 = AXIS2_PLACEMENT_3D('',#953,#954,#955);
#953 = CARTESIAN_POINT('',(56.792893218813,156.01200101917,
    119.55075183069));
#954 = DIRECTION('',(0.,1.7763568394E-14,-1.));
#955 = DIRECTION('',(1.7763568394E-14,1.,1.7763568394E-14));
#956 = ADVANCED_FACE('',(#957),#984,.T.);
#957 = FACE_BOUND('',#958,.T.);
#958 = EDGE_LOOP('',(#959,#968,#969,#978));
#959 = ORIENTED_EDGE('',*,*,#960,.T.);
#960 = EDGE_CURVE('',#961,#387,#963,.T.);
#961 = VERTEX_POINT('',#962);
#962 = CARTESIAN_POINT('',(22.853553390593,156.36555440976,
    119.55075183069));
#963 = CIRCLE('',#964,0.5);
#964 = AXIS2_PLACEMENT_3D('',#965,#966,#967);
#965 = CARTESIAN_POINT('',(23.207106781187,156.01200101917,
    119.55075183069));
#966 = DIRECTION('',(-3.155443620884E-30,1.701416785238E-14,-1.));
#967 = DIRECTION('',(-0.707106781187,0.707106781187,1.203083346466E-14)
  );
#968 = ORIENTED_EDGE('',*,*,#450,.T.);
#969 = ORIENTED_EDGE('',*,*,#970,.F.);
#970 = EDGE_CURVE('',#971,#451,#973,.T.);
#971 = VERTEX_POINT('',#972);
#972 = CARTESIAN_POINT('',(22.853553390593,156.36555440976,
    111.55075183069));
#973 = CIRCLE('',#974,0.5);
#974 = AXIS2_PLACEMENT_3D('',#975,#976,#977);
#975 = CARTESIAN_POINT('',(23.207106781187,156.01200101917,
    111.55075183069));
#976 = DIRECTION('',(-3.155443620884E-30,1.701416785238E-14,-1.));
#977 = DIRECTION('',(-0.707106781187,0.707106781187,1.203083346466E-14)
  );
#978 = ORIENTED_EDGE('',*,*,#979,.F.);
#979 = EDGE_CURVE('',#961,#971,#980,.T.);
#980 = LINE('',#981,#982);
#981 = CARTESIAN_POINT('',(22.853553390593,156.36555440976,
    119.55075183069));
#982 = VECTOR('',#983,1.);
#983 = DIRECTION('',(0.,1.7763568394E-14,-1.));
#984 = CYLINDRICAL_SURFACE('',#985,0.5);
#985 = AXIS2_PLACEMENT_3D('',#986,#987,#988);
#986 = CARTESIAN_POINT('',(23.207106781187,156.01200101917,
    119.55075183069));
#987 = DIRECTION('',(0.,1.7763568394E-14,-1.));
#988 = DIRECTION('',(-0.707106781187,0.707106781187,1.256073966947E-14)
  );
#989 = ADVANCED_FACE('',(#990),#1015,.T.);
#990 = FACE_BOUND('',#991,.T.);
#991 = EDGE_LOOP('',(#992,#1000,#1001,#1009));
#992 = ORIENTED_EDGE('',*,*,#993,.T.);
#993 = EDGE_CURVE('',#994,#961,#996,.T.);
#994 = VERTEX_POINT('',#995);
#995 = CARTESIAN_POINT('',(19.146446609407,152.65844762857,
    119.55075183069));
#996 = LINE('',#997,#998);
#997 = CARTESIAN_POINT('',(19.146446609407,152.65844762857,
    119.55075183069));
#998 = VECTOR('',#999,1.);
#999 = DIRECTION('',(0.707106781187,0.707106781187,1.203083346466E-14));
#1000 = ORIENTED_EDGE('',*,*,#979,.T.);
#1001 = ORIENTED_EDGE('',*,*,#1002,.F.);
#1002 = EDGE_CURVE('',#1003,#971,#1005,.T.);
#1003 = VERTEX_POINT('',#1004);
#1004 = CARTESIAN_POINT('',(19.146446609407,152.65844762857,
    111.55075183069));
#1005 = LINE('',#1006,#1007);
#1006 = CARTESIAN_POINT('',(19.146446609407,152.65844762857,
    111.55075183069));
#1007 = VECTOR('',#1008,1.);
#1008 = DIRECTION('',(0.707106781187,0.707106781187,1.203083346466E-14)
  );
#1009 = ORIENTED_EDGE('',*,*,#1010,.F.);
#1010 = EDGE_CURVE('',#994,#1003,#1011,.T.);
#1011 = LINE('',#1012,#1013);
#1012 = CARTESIAN_POINT('',(19.146446609407,152.65844762857,
    119.55075183069));
#1013 = VECTOR('',#1014,1.);
#1014 = DIRECTION('',(0.,1.7763568394E-14,-1.));
#1015 = PLANE('',#1016);
#1016 = AXIS2_PLACEMENT_3D('',#1017,#1018,#1019);
#1017 = CARTESIAN_POINT('',(19.146446609407,152.65844762857,
    119.55075183069));
#1018 = DIRECTION('',(-0.707106781187,0.707106781187,1.256073966947E-14)
  );
#1019 = DIRECTION('',(0.707106781187,0.707106781187,1.203083346466E-14)
  );
#1020 = ADVANCED_FACE('',(#1021),#1048,.T.);
#1021 = FACE_BOUND('',#1022,.T.);
#1022 = EDGE_LOOP('',(#1023,#1032,#1033,#1042));
#1023 = ORIENTED_EDGE('',*,*,#1024,.T.);
#1024 = EDGE_CURVE('',#1025,#994,#1027,.T.);
#1025 = VERTEX_POINT('',#1026);
#1026 = CARTESIAN_POINT('',(19.,152.30489423798,119.55075183069));
#1027 = CIRCLE('',#1028,0.5);
#1028 = AXIS2_PLACEMENT_3D('',#1029,#1030,#1031);
#1029 = CARTESIAN_POINT('',(19.5,152.30489423798,119.55075183069));
#1030 = DIRECTION('',(-1.972152263056E-30,1.701416785238E-14,-1.));
#1031 = DIRECTION('',(-1.,3.5527136788E-14,6.064368208887E-28));
#1032 = ORIENTED_EDGE('',*,*,#1010,.T.);
#1033 = ORIENTED_EDGE('',*,*,#1034,.F.);
#1034 = EDGE_CURVE('',#1035,#1003,#1037,.T.);
#1035 = VERTEX_POINT('',#1036);
#1036 = CARTESIAN_POINT('',(19.,152.30489423798,111.55075183069));
#1037 = CIRCLE('',#1038,0.5);
#1038 = AXIS2_PLACEMENT_3D('',#1039,#1040,#1041);
#1039 = CARTESIAN_POINT('',(19.5,152.30489423798,111.55075183069));
#1040 = DIRECTION('',(-1.972152263056E-30,1.701416785238E-14,-1.));
#1041 = DIRECTION('',(-1.,3.5527136788E-14,6.064368208887E-28));
#1042 = ORIENTED_EDGE('',*,*,#1043,.F.);
#1043 = EDGE_CURVE('',#1025,#1035,#1044,.T.);
#1044 = LINE('',#1045,#1046);
#1045 = CARTESIAN_POINT('',(19.,152.30489423798,119.55075183069));
#1046 = VECTOR('',#1047,1.);
#1047 = DIRECTION('',(0.,1.7763568394E-14,-1.));
#1048 = CYLINDRICAL_SURFACE('',#1049,0.5);
#1049 = AXIS2_PLACEMENT_3D('',#1050,#1051,#1052);
#1050 = CARTESIAN_POINT('',(19.5,152.30489423798,119.55075183069));
#1051 = DIRECTION('',(0.,1.7763568394E-14,-1.));
#1052 = DIRECTION('',(-1.,3.5527136788E-14,6.310887241768E-28));
#1053 = ADVANCED_FACE('',(#1054),#1079,.T.);
#1054 = FACE_BOUND('',#1055,.T.);
#1055 = EDGE_LOOP('',(#1056,#1064,#1065,#1073));
#1056 = ORIENTED_EDGE('',*,*,#1057,.T.);
#1057 = EDGE_CURVE('',#1058,#1025,#1060,.T.);
#1058 = VERTEX_POINT('',#1059);
#1059 = CARTESIAN_POINT('',(19.,118.71910780035,119.55075183068));
#1060 = LINE('',#1061,#1062);
#1061 = CARTESIAN_POINT('',(19.,118.71910780035,119.55075183068));
#1062 = VECTOR('',#1063,1.);
#1063 = DIRECTION('',(3.355452963409E-44,1.,1.701416785238E-14));
#1064 = ORIENTED_EDGE('',*,*,#1043,.T.);
#1065 = ORIENTED_EDGE('',*,*,#1066,.F.);
#1066 = EDGE_CURVE('',#1067,#1035,#1069,.T.);
#1067 = VERTEX_POINT('',#1068);
#1068 = CARTESIAN_POINT('',(19.,118.71910780035,111.55075183068));
#1069 = LINE('',#1070,#1071);
#1070 = CARTESIAN_POINT('',(19.,118.71910780035,111.55075183068));
#1071 = VECTOR('',#1072,1.);
#1072 = DIRECTION('',(3.355452963409E-44,1.,1.701416785238E-14));
#1073 = ORIENTED_EDGE('',*,*,#1074,.F.);
#1074 = EDGE_CURVE('',#1058,#1067,#1075,.T.);
#1075 = LINE('',#1076,#1077);
#1076 = CARTESIAN_POINT('',(19.,118.71910780035,119.55075183068));
#1077 = VECTOR('',#1078,1.);
#1078 = DIRECTION('',(0.,1.7763568394E-14,-1.));
#1079 = PLANE('',#1080);
#1080 = AXIS2_PLACEMENT_3D('',#1081,#1082,#1083);
#1081 = CARTESIAN_POINT('',(19.,118.71910780035,119.55075183068));
#1082 = DIRECTION('',(-1.,3.355452963409E-44,5.960481820838E-58));
#1083 = DIRECTION('',(3.355452963409E-44,1.,1.701416785238E-14));
#1084 = ADVANCED_FACE('',(#1085),#1103,.T.);
#1085 = FACE_BOUND('',#1086,.T.);
#1086 = EDGE_LOOP('',(#1087,#1094,#1095,#1102));
#1087 = ORIENTED_EDGE('',*,*,#1088,.T.);
#1088 = EDGE_CURVE('',#643,#1058,#1089,.T.);
#1089 = CIRCLE('',#1090,0.5);
#1090 = AXIS2_PLACEMENT_3D('',#1091,#1092,#1093);
#1091 = CARTESIAN_POINT('',(19.5,118.71910780035,119.55075183068));
#1092 = DIRECTION('',(0.,1.701416785238E-14,-1.));
#1093 = DIRECTION('',(-0.707106781187,-0.707106781187,
    -1.203083346466E-14));
#1094 = ORIENTED_EDGE('',*,*,#1074,.T.);
#1095 = ORIENTED_EDGE('',*,*,#1096,.F.);
#1096 = EDGE_CURVE('',#651,#1067,#1097,.T.);
#1097 = CIRCLE('',#1098,0.5);
#1098 = AXIS2_PLACEMENT_3D('',#1099,#1100,#1101);
#1099 = CARTESIAN_POINT('',(19.5,118.71910780035,111.55075183068));
#1100 = DIRECTION('',(0.,1.701416785238E-14,-1.));
#1101 = DIRECTION('',(-0.707106781187,-0.707106781187,
    -1.203083346466E-14));
#1102 = ORIENTED_EDGE('',*,*,#650,.F.);
#1103 = CYLINDRICAL_SURFACE('',#1104,0.5);
#1104 = AXIS2_PLACEMENT_3D('',#1105,#1106,#1107);
#1105 = CARTESIAN_POINT('',(19.5,118.71910780035,119.55075183068));
#1106 = DIRECTION('',(0.,1.7763568394E-14,-1.));
#1107 = DIRECTION('',(-0.707106781187,-0.707106781187,
    -1.256073966947E-14));
#1108 = ADVANCED_FACE('',(#1109,#1130,#1133,#1136,#1139,#1142),#1145,.T.
  );
#1109 = FACE_BOUND('',#1110,.T.);
#1110 = EDGE_LOOP('',(#1111,#1112,#1113,#1114,#1115,#1116,#1117,#1118,
    #1119,#1120,#1121,#1122,#1123,#1124,#1125,#1126,#1127,#1128,#1129));
#1111 = ORIENTED_EDGE('',*,*,#1096,.T.);
#1112 = ORIENTED_EDGE('',*,*,#1066,.T.);
#1113 = ORIENTED_EDGE('',*,*,#1034,.T.);
#1114 = ORIENTED_EDGE('',*,*,#1002,.T.);
#1115 = ORIENTED_EDGE('',*,*,#970,.T.);
#1116 = ORIENTED_EDGE('',*,*,#461,.T.);
#1117 = ORIENTED_EDGE('',*,*,#306,.T.);
#1118 = ORIENTED_EDGE('',*,*,#346,.F.);
#1119 = ORIENTED_EDGE('',*,*,#402,.F.);
#1120 = ORIENTED_EDGE('',*,*,#944,.T.);
#1121 = ORIENTED_EDGE('',*,*,#914,.T.);
#1122 = ORIENTED_EDGE('',*,*,#882,.T.);
#1123 = ORIENTED_EDGE('',*,*,#850,.T.);
#1124 = ORIENTED_EDGE('',*,*,#818,.T.);
#1125 = ORIENTED_EDGE('',*,*,#786,.T.);
#1126 = ORIENTED_EDGE('',*,*,#754,.T.);
#1127 = ORIENTED_EDGE('',*,*,#722,.T.);
#1128 = ORIENTED_EDGE('',*,*,#690,.T.);
#1129 = ORIENTED_EDGE('',*,*,#658,.T.);
#1130 = FACE_BOUND('',#1131,.T.);
#1131 = EDGE_LOOP('',(#1132));
#1132 = ORIENTED_EDGE('',*,*,#625,.T.);
#1133 = FACE_BOUND('',#1134,.T.);
#1134 = EDGE_LOOP('',(#1135));
#1135 = ORIENTED_EDGE('',*,*,#592,.T.);
#1136 = FACE_BOUND('',#1137,.T.);
#1137 = EDGE_LOOP('',(#1138));
#1138 = ORIENTED_EDGE('',*,*,#559,.T.);
#1139 = FACE_BOUND('',#1140,.T.);
#1140 = EDGE_LOOP('',(#1141));
#1141 = ORIENTED_EDGE('',*,*,#526,.T.);
#1142 = FACE_BOUND('',#1143,.T.);
#1143 = EDGE_LOOP('',(#1144));
#1144 = ORIENTED_EDGE('',*,*,#493,.T.);
#1145 = PLANE('',#1146);
#1146 = AXIS2_PLACEMENT_3D('',#1147,#1148,#1149);
#1147 = CARTESIAN_POINT('',(40.,135.51200101917,111.55075183069));
#1148 = DIRECTION('',(-1.972152263056E-30,1.701416785238E-14,-1.));
#1149 = DIRECTION('',(1.,0.,-1.972152263056E-30));
#1150 = ADVANCED_FACE('',(#1151,#1169,#1172,#1175,#1178,#1181),#1184,.F.
  );
#1151 = FACE_BOUND('',#1152,.T.);
#1152 = EDGE_LOOP('',(#1153,#1154,#1155,#1156,#1157,#1158,#1159,#1160,
    #1161,#1162,#1163,#1164,#1165,#1166,#1167,#1168));
#1153 = ORIENTED_EDGE('',*,*,#384,.T.);
#1154 = ORIENTED_EDGE('',*,*,#960,.F.);
#1155 = ORIENTED_EDGE('',*,*,#993,.F.);
#1156 = ORIENTED_EDGE('',*,*,#1024,.F.);
#1157 = ORIENTED_EDGE('',*,*,#1057,.F.);
#1158 = ORIENTED_EDGE('',*,*,#1088,.F.);
#1159 = ORIENTED_EDGE('',*,*,#640,.F.);
#1160 = ORIENTED_EDGE('',*,*,#680,.F.);
#1161 = ORIENTED_EDGE('',*,*,#713,.F.);
#1162 = ORIENTED_EDGE('',*,*,#744,.F.);
#1163 = ORIENTED_EDGE('',*,*,#777,.F.);
#1164 = ORIENTED_EDGE('',*,*,#808,.F.);
#1165 = ORIENTED_EDGE('',*,*,#841,.F.);
#1166 = ORIENTED_EDGE('',*,*,#872,.F.);
#1167 = ORIENTED_EDGE('',*,*,#905,.F.);
#1168 = ORIENTED_EDGE('',*,*,#936,.F.);
#1169 = FACE_BOUND('',#1170,.T.);
#1170 = EDGE_LOOP('',(#1171));
#1171 = ORIENTED_EDGE('',*,*,#617,.F.);
#1172 = FACE_BOUND('',#1173,.T.);
#1173 = EDGE_LOOP('',(#1174));
#1174 = ORIENTED_EDGE('',*,*,#584,.F.);
#1175 = FACE_BOUND('',#1176,.T.);
#1176 = EDGE_LOOP('',(#1177));
#1177 = ORIENTED_EDGE('',*,*,#551,.F.);
#1178 = FACE_BOUND('',#1179,.T.);
#1179 = EDGE_LOOP('',(#1180));
#1180 = ORIENTED_EDGE('',*,*,#518,.F.);
#1181 = FACE_BOUND('',#1182,.T.);
#1182 = EDGE_LOOP('',(#1183));
#1183 = ORIENTED_EDGE('',*,*,#485,.F.);
#1184 = PLANE('',#1185);
#1185 = AXIS2_PLACEMENT_3D('',#1186,#1187,#1188);
#1186 = CARTESIAN_POINT('',(40.,135.51200101917,119.55075183069));
#1187 = DIRECTION('',(-1.972152263056E-30,1.701416785238E-14,-1.));
#1188 = DIRECTION('',(1.,0.,-1.972152263056E-30));
#1189 = ( GEOMETRIC_REPRESENTATION_CONTEXT(3) 
GLOBAL_UNCERTAINTY_ASSIGNED_CONTEXT((#1193)) 
GLOBAL_UNIT_ASSIGNED_CONTEXT((#1190,#1191,#1192)) REPRESENTATION_CONTEXT
('Context #1','3D Context with UNIT and UNCERTAINTY') );
#1190 = ( LENGTH_UNIT() NAMED_UNIT(*) SI_UNIT(.MILLI.,.METRE.) );
#1191 = ( NAMED_UNIT(*) PLANE_ANGLE_UNIT() SI_UNIT($,.RADIAN.) );
#1192 = ( NAMED_UNIT(*) SI_UNIT($,.STERADIAN.) SOLID_ANGLE_UNIT() );
#1193 = UNCERTAINTY_MEASURE_WITH_UNIT(LENGTH_MEASURE(1.E-07),#1190,
  'distance_accuracy_value','confusion accuracy');
#1194 = PRODUCT_RELATED_PRODUCT_CATEGORY('part',$,(#7));
#1195 = MECHANICAL_DESIGN_GEOMETRIC_PRESENTATION_REPRESENTATION('',(
    #1196),#1189);
#1196 = STYLED_ITEM('color',(#1197),#15);
#1197 = PRESENTATION_STYLE_ASSIGNMENT((#1198,#1204));
#1198 = SURFACE_STYLE_USAGE(.BOTH.,#1199);
#1199 = SURFACE_SIDE_STYLE('',(#1200));
#1200 = SURFACE_STYLE_FILL_AREA(#1201);
#1201 = FILL_AREA_STYLE('',(#1202));
#1202 = FILL_AREA_STYLE_COLOUR('',#1203);
#1203 = COLOUR_RGB('',0.627451011593,0.627451011593,0.627451011593);
#1204 = CURVE_STYLE('',#1205,POSITIVE_LENGTH_MEASURE(0.1),#1206);
#1205 = DRAUGHTING_PRE_DEFINED_CURVE_FONT('continuous');
#1206 = COLOUR_RGB('',9.803921802644E-02,9.803921802644E-02,
  9.803921802644E-02);
ENDSEC;
END-ISO-10303-21;
