ISO-10303-21;
HEADER;
FILE_DESCRIPTION(('FreeCAD Model'),'2;1');
FILE_NAME('Open CASCADE Shape Model','2026-08-20T22:00:24',('Author'),(
    ''),'Open CASCADE STEP processor 7.8','FreeCAD','Unknown');
FILE_SCHEMA(('AUTOMOTIVE_DESIGN { 1 0 10303 214 1 1 1 1 }'));
ENDSEC;
DATA;
#1 = APPLICATION_PROTOCOL_DEFINITION('international standard',
  'automotive_design',2000,#2);
#2 = APPLICATION_CONTEXT(
  'core data for automotive mechanical design processes');
#3 = SHAPE_DEFINITION_REPRESENTATION(#4,#10);
#4 = PRODUCT_DEFINITION_SHAPE('','',#5);
#5 = PRODUCT_DEFINITION('design','',#6,#9);
#6 = PRODUCT_DEFINITION_FORMATION('','',#7);
#7 = PRODUCT('COMPOUND004','COMPOUND004','',(#8));
#8 = PRODUCT_CONTEXT('',#2,'mechanical');
#9 = PRODUCT_DEFINITION_CONTEXT('part definition',#2,'design');
#10 = ADVANCED_BREP_SHAPE_REPRESENTATION('',(#11,#15),#286);
#11 = AXIS2_PLACEMENT_3D('',#12,#13,#14);
#12 = CARTESIAN_POINT('',(0.,0.,0.));
#13 = DIRECTION('',(0.,0.,1.));
#14 = DIRECTION('',(1.,0.,-0.));
#15 = MANIFOLD_SOLID_BREP('',#16);
#16 = CLOSED_SHELL('',(#17,#57,#81,#98,#123,#163,#196,#227,#251,#270));
#17 = ADVANCED_FACE('',(#18),#52,.F.);
#18 = FACE_BOUND('',#19,.T.);
#19 = EDGE_LOOP('',(#20,#30,#38,#46));
#20 = ORIENTED_EDGE('',*,*,#21,.F.);
#21 = EDGE_CURVE('',#22,#24,#26,.T.);
#22 = VERTEX_POINT('',#23);
#23 = CARTESIAN_POINT('',(38.063508326825,131.49284439047,56.16672846111
    ));
#24 = VERTEX_POINT('',#25);
#25 = CARTESIAN_POINT('',(41.936491673033,131.49284439039,56.16672846111
    ));
#26 = LINE('',#27,#28);
#27 = CARTESIAN_POINT('',(89.718245985493,131.49284438945,56.16672846111
    ));
#28 = VECTOR('',#29,1.);
#29 = DIRECTION('',(1.,-1.985974023565E-11,-1.165734175979E-15));
#30 = ORIENTED_EDGE('',*,*,#31,.F.);
#31 = EDGE_CURVE('',#32,#22,#34,.T.);
#32 = VERTEX_POINT('',#33);
#33 = CARTESIAN_POINT('',(38.063508326825,131.49284439047,71.16672846111
    ));
#34 = LINE('',#35,#36);
#35 = CARTESIAN_POINT('',(38.063508326825,131.49284439047,71.46672846111
    ));
#36 = VECTOR('',#37,1.);
#37 = DIRECTION('',(-1.2111523905E-15,2.8260222445E-15,-1.));
#38 = ORIENTED_EDGE('',*,*,#39,.F.);
#39 = EDGE_CURVE('',#40,#32,#42,.T.);
#40 = VERTEX_POINT('',#41);
#41 = CARTESIAN_POINT('',(41.936491673033,131.49284439039,71.16672846111
    ));
#42 = LINE('',#43,#44);
#43 = CARTESIAN_POINT('',(89.718245985493,131.49284438945,71.16672846111
    ));
#44 = VECTOR('',#45,1.);
#45 = DIRECTION('',(-1.,1.985969064942E-11,1.165734175979E-15));
#46 = ORIENTED_EDGE('',*,*,#47,.T.);
#47 = EDGE_CURVE('',#40,#24,#48,.T.);
#48 = LINE('',#49,#50);
#49 = CARTESIAN_POINT('',(41.936491673033,131.49284439039,56.46672846111
    ));
#50 = VECTOR('',#51,1.);
#51 = DIRECTION('',(-1.17306583734E-15,3.016455010302E-15,-1.));
#52 = PLANE('',#53);
#53 = AXIS2_PLACEMENT_3D('',#54,#55,#56);
#54 = CARTESIAN_POINT('',(41.936491673033,131.49284439039,56.46672846111
    ));
#55 = DIRECTION('',(-1.985974023565E-11,-1.,-3.016455010279E-15));
#56 = DIRECTION('',(-1.,1.985974023565E-11,1.165734175853E-15));
#57 = ADVANCED_FACE('',(#58),#76,.F.);
#58 = FACE_BOUND('',#59,.F.);
#59 = EDGE_LOOP('',(#60,#61,#68,#69));
#60 = ORIENTED_EDGE('',*,*,#31,.F.);
#61 = ORIENTED_EDGE('',*,*,#62,.T.);
#62 = EDGE_CURVE('',#32,#40,#63,.T.);
#63 = CIRCLE('',#64,4.);
#64 = AXIS2_PLACEMENT_3D('',#65,#66,#67);
#65 = CARTESIAN_POINT('',(39.999999999999,134.99284439043,71.16672846111
    ));
#66 = DIRECTION('',(-1.165734175919E-15,3.011479954296E-15,-1.));
#67 = DIRECTION('',(-0.484122918293,-0.87499999999,-2.070686328779E-15)
  );
#68 = ORIENTED_EDGE('',*,*,#47,.T.);
#69 = ORIENTED_EDGE('',*,*,#70,.T.);
#70 = EDGE_CURVE('',#24,#22,#71,.T.);
#71 = CIRCLE('',#72,4.);
#72 = AXIS2_PLACEMENT_3D('',#73,#74,#75);
#73 = CARTESIAN_POINT('',(39.999999999999,134.99284439043,56.16672846111
    ));
#74 = DIRECTION('',(1.165734175919E-15,-3.011479954296E-15,1.));
#75 = DIRECTION('',(1.,-1.985974023565E-11,-1.165734175979E-15));
#76 = CYLINDRICAL_SURFACE('',#77,4.);
#77 = AXIS2_PLACEMENT_3D('',#78,#79,#80);
#78 = CARTESIAN_POINT('',(39.999999999999,134.99284439043,56.46672846111
    ));
#79 = DIRECTION('',(-1.17306583734E-15,3.016455010302E-15,-1.));
#80 = DIRECTION('',(1.985955653863E-11,1.,3.016455010279E-15));
#81 = ADVANCED_FACE('',(#82),#93,.T.);
#82 = FACE_BOUND('',#83,.T.);
#83 = EDGE_LOOP('',(#84));
#84 = ORIENTED_EDGE('',*,*,#85,.F.);
#85 = EDGE_CURVE('',#86,#86,#88,.T.);
#86 = VERTEX_POINT('',#87);
#87 = CARTESIAN_POINT('',(224.02924454909,134.99284439043,62.16672846111
    ));
#88 = CIRCLE('',#89,10.970755450906);
#89 = AXIS2_PLACEMENT_3D('',#90,#91,#92);
#90 = CARTESIAN_POINT('',(234.99999999999,134.99284439043,62.16672846111
    ));
#91 = DIRECTION('',(1.165734175919E-15,-3.011479954296E-15,1.));
#92 = DIRECTION('',(1.,-6.309346498154E-31,-1.165734175919E-15));
#93 = PLANE('',#94);
#94 = AXIS2_PLACEMENT_3D('',#95,#96,#97);
#95 = CARTESIAN_POINT('',(234.99999999999,134.99284439043,62.16672846111
    ));
#96 = DIRECTION('',(-1.165734175919E-15,3.011479954296E-15,-1.));
#97 = DIRECTION('',(1.,-7.006492321624E-46,-1.165734175919E-15));
#98 = ADVANCED_FACE('',(#99),#118,.F.);
#99 = FACE_BOUND('',#100,.F.);
#100 = EDGE_LOOP('',(#101,#109,#110,#111));
#101 = ORIENTED_EDGE('',*,*,#102,.T.);
#102 = EDGE_CURVE('',#103,#86,#105,.T.);
#103 = VERTEX_POINT('',#104);
#104 = CARTESIAN_POINT('',(224.02924454909,134.99284439043,
    56.16672846111));
#105 = LINE('',#106,#107);
#106 = CARTESIAN_POINT('',(224.02924454909,134.99284439043,
    71.16672846111));
#107 = VECTOR('',#108,1.);
#108 = DIRECTION('',(0.,-3.552713678801E-15,1.));
#109 = ORIENTED_EDGE('',*,*,#85,.F.);
#110 = ORIENTED_EDGE('',*,*,#102,.F.);
#111 = ORIENTED_EDGE('',*,*,#112,.T.);
#112 = EDGE_CURVE('',#103,#103,#113,.T.);
#113 = CIRCLE('',#114,10.970755450906);
#114 = AXIS2_PLACEMENT_3D('',#115,#116,#117);
#115 = CARTESIAN_POINT('',(234.99999999999,134.99284439043,
    56.16672846111));
#116 = DIRECTION('',(1.165734175919E-15,-3.011479954296E-15,1.));
#117 = DIRECTION('',(1.,-7.006492321624E-46,-1.165734175919E-15));
#118 = CYLINDRICAL_SURFACE('',#119,10.970755450906);
#119 = AXIS2_PLACEMENT_3D('',#120,#121,#122);
#120 = CARTESIAN_POINT('',(234.99999999999,134.99284439043,
    71.16672846111));
#121 = DIRECTION('',(0.,3.552713678801E-15,-1.));
#122 = DIRECTION('',(1.,-4.141519752634E-30,-1.471363387621E-44));
#123 = ADVANCED_FACE('',(#124),#158,.T.);
#124 = FACE_BOUND('',#125,.T.);
#125 = EDGE_LOOP('',(#126,#136,#144,#152));
#126 = ORIENTED_EDGE('',*,*,#127,.F.);
#127 = EDGE_CURVE('',#128,#130,#132,.T.);
#128 = VERTEX_POINT('',#129);
#129 = CARTESIAN_POINT('',(235.00000350177,149.00000222027,
    71.16672846111));
#130 = VERTEX_POINT('',#131);
#131 = CARTESIAN_POINT('',(40.,149.00000222027,71.16672846111));
#132 = LINE('',#133,#134);
#133 = CARTESIAN_POINT('',(110.00000350177,149.00000222027,
    71.16672846111));
#134 = VECTOR('',#135,1.);
#135 = DIRECTION('',(-1.,6.70543211202E-46,1.165734175919E-15));
#136 = ORIENTED_EDGE('',*,*,#137,.T.);
#137 = EDGE_CURVE('',#128,#138,#140,.T.);
#138 = VERTEX_POINT('',#139);
#139 = CARTESIAN_POINT('',(235.00000350177,149.00000222027,
    56.16672846111));
#140 = LINE('',#141,#142);
#141 = CARTESIAN_POINT('',(235.00000350177,149.00000222027,
    71.16672846111));
#142 = VECTOR('',#143,1.);
#143 = DIRECTION('',(0.,3.552713678801E-15,-1.));
#144 = ORIENTED_EDGE('',*,*,#145,.F.);
#145 = EDGE_CURVE('',#146,#138,#148,.T.);
#146 = VERTEX_POINT('',#147);
#147 = CARTESIAN_POINT('',(40.,149.00000222027,56.16672846111));
#148 = LINE('',#149,#150);
#149 = CARTESIAN_POINT('',(110.00000350177,149.00000222027,
    56.16672846111));
#150 = VECTOR('',#151,1.);
#151 = DIRECTION('',(1.,-6.70543211202E-46,-1.165734175919E-15));
#152 = ORIENTED_EDGE('',*,*,#153,.F.);
#153 = EDGE_CURVE('',#130,#146,#154,.T.);
#154 = LINE('',#155,#156);
#155 = CARTESIAN_POINT('',(40.,149.00000222027,71.16672846111));
#156 = VECTOR('',#157,1.);
#157 = DIRECTION('',(0.,3.552713678801E-15,-1.));
#158 = PLANE('',#159);
#159 = AXIS2_PLACEMENT_3D('',#160,#161,#162);
#160 = CARTESIAN_POINT('',(40.,149.00000222027,71.16672846111));
#161 = DIRECTION('',(4.141519752634E-30,1.,3.552713678801E-15));
#162 = DIRECTION('',(1.,-1.261168617892E-44,-1.165734175919E-15));
#163 = ADVANCED_FACE('',(#164),#191,.T.);
#164 = FACE_BOUND('',#165,.T.);
#165 = EDGE_LOOP('',(#166,#175,#176,#185));
#166 = ORIENTED_EDGE('',*,*,#167,.T.);
#167 = EDGE_CURVE('',#168,#130,#170,.T.);
#168 = VERTEX_POINT('',#169);
#169 = CARTESIAN_POINT('',(40.000000596046,120.9856865606,71.16672846111
    ));
#170 = CIRCLE('',#171,14.007157829836);
#171 = AXIS2_PLACEMENT_3D('',#172,#173,#174);
#172 = CARTESIAN_POINT('',(40.000000596046,134.99284439043,
    71.16672846111));
#173 = DIRECTION('',(-1.165734175919E-15,3.011479954296E-15,-1.));
#174 = DIRECTION('',(-3.510585102819E-30,-1.,-3.011479954296E-15));
#175 = ORIENTED_EDGE('',*,*,#153,.T.);
#176 = ORIENTED_EDGE('',*,*,#177,.F.);
#177 = EDGE_CURVE('',#178,#146,#180,.T.);
#178 = VERTEX_POINT('',#179);
#179 = CARTESIAN_POINT('',(40.000000596046,120.9856865606,56.16672846111
    ));
#180 = CIRCLE('',#181,14.007157829836);
#181 = AXIS2_PLACEMENT_3D('',#182,#183,#184);
#182 = CARTESIAN_POINT('',(40.000000596046,134.99284439043,
    56.16672846111));
#183 = DIRECTION('',(-1.165734175919E-15,3.011479954296E-15,-1.));
#184 = DIRECTION('',(-3.510585102819E-30,-1.,-3.011479954296E-15));
#185 = ORIENTED_EDGE('',*,*,#186,.F.);
#186 = EDGE_CURVE('',#168,#178,#187,.T.);
#187 = LINE('',#188,#189);
#188 = CARTESIAN_POINT('',(40.000000596046,120.9856865606,71.16672846111
    ));
#189 = VECTOR('',#190,1.);
#190 = DIRECTION('',(0.,3.552713678801E-15,-1.));
#191 = CYLINDRICAL_SURFACE('',#192,14.007157829836);
#192 = AXIS2_PLACEMENT_3D('',#193,#194,#195);
#193 = CARTESIAN_POINT('',(40.000000596046,134.99284439043,
    71.16672846111));
#194 = DIRECTION('',(0.,3.552713678801E-15,-1.));
#195 = DIRECTION('',(-3.510585102819E-30,-1.,-3.552713678801E-15));
#196 = ADVANCED_FACE('',(#197),#222,.T.);
#197 = FACE_BOUND('',#198,.T.);
#198 = EDGE_LOOP('',(#199,#207,#208,#216));
#199 = ORIENTED_EDGE('',*,*,#200,.T.);
#200 = EDGE_CURVE('',#201,#168,#203,.T.);
#201 = VERTEX_POINT('',#202);
#202 = CARTESIAN_POINT('',(234.99999999999,120.9856865606,71.16672846111
    ));
#203 = LINE('',#204,#205);
#204 = CARTESIAN_POINT('',(234.99999999999,120.9856865606,71.16672846111
    ));
#205 = VECTOR('',#206,1.);
#206 = DIRECTION('',(-1.,6.70543211202E-46,1.165734175919E-15));
#207 = ORIENTED_EDGE('',*,*,#186,.T.);
#208 = ORIENTED_EDGE('',*,*,#209,.F.);
#209 = EDGE_CURVE('',#210,#178,#212,.T.);
#210 = VERTEX_POINT('',#211);
#211 = CARTESIAN_POINT('',(234.99999999999,120.9856865606,56.16672846111
    ));
#212 = LINE('',#213,#214);
#213 = CARTESIAN_POINT('',(234.99999999999,120.9856865606,56.16672846111
    ));
#214 = VECTOR('',#215,1.);
#215 = DIRECTION('',(-1.,6.70543211202E-46,1.165734175919E-15));
#216 = ORIENTED_EDGE('',*,*,#217,.F.);
#217 = EDGE_CURVE('',#201,#210,#218,.T.);
#218 = LINE('',#219,#220);
#219 = CARTESIAN_POINT('',(234.99999999999,120.9856865606,71.16672846111
    ));
#220 = VECTOR('',#221,1.);
#221 = DIRECTION('',(0.,3.552713678801E-15,-1.));
#222 = PLANE('',#223);
#223 = AXIS2_PLACEMENT_3D('',#224,#225,#226);
#224 = CARTESIAN_POINT('',(234.99999999999,120.9856865606,71.16672846111
    ));
#225 = DIRECTION('',(-4.141519752634E-30,-1.,-3.552713678801E-15));
#226 = DIRECTION('',(-1.,1.261168617892E-44,1.165734175919E-15));
#227 = ADVANCED_FACE('',(#228),#246,.T.);
#228 = FACE_BOUND('',#229,.T.);
#229 = EDGE_LOOP('',(#230,#237,#238,#245));
#230 = ORIENTED_EDGE('',*,*,#231,.T.);
#231 = EDGE_CURVE('',#128,#201,#232,.T.);
#232 = CIRCLE('',#233,14.007157829837);
#233 = AXIS2_PLACEMENT_3D('',#234,#235,#236);
#234 = CARTESIAN_POINT('',(234.99999999999,134.99284439043,
    71.16672846111));
#235 = DIRECTION('',(-1.165734691115E-15,9.506908212736E-16,-1.));
#236 = DIRECTION('',(2.499989281401E-07,1.,9.506905298412E-16));
#237 = ORIENTED_EDGE('',*,*,#217,.T.);
#238 = ORIENTED_EDGE('',*,*,#239,.F.);
#239 = EDGE_CURVE('',#138,#210,#240,.T.);
#240 = CIRCLE('',#241,14.007157829837);
#241 = AXIS2_PLACEMENT_3D('',#242,#243,#244);
#242 = CARTESIAN_POINT('',(234.99999999999,134.99284439043,
    56.16672846111));
#243 = DIRECTION('',(-1.165734691115E-15,9.506908212736E-16,-1.));
#244 = DIRECTION('',(2.499989281401E-07,1.,9.506905298412E-16));
#245 = ORIENTED_EDGE('',*,*,#137,.F.);
#246 = CYLINDRICAL_SURFACE('',#247,14.007157829837);
#247 = AXIS2_PLACEMENT_3D('',#248,#249,#250);
#248 = CARTESIAN_POINT('',(234.99999999999,134.99284439043,
    71.16672846111));
#249 = DIRECTION('',(0.,3.552713678801E-15,-1.));
#250 = DIRECTION('',(2.499989281401E-07,1.,3.5527136788E-15));
#251 = ADVANCED_FACE('',(#252,#258,#262),#265,.T.);
#252 = FACE_BOUND('',#253,.T.);
#253 = EDGE_LOOP('',(#254,#255,#256,#257));
#254 = ORIENTED_EDGE('',*,*,#239,.T.);
#255 = ORIENTED_EDGE('',*,*,#209,.T.);
#256 = ORIENTED_EDGE('',*,*,#177,.T.);
#257 = ORIENTED_EDGE('',*,*,#145,.T.);
#258 = FACE_BOUND('',#259,.T.);
#259 = EDGE_LOOP('',(#260,#261));
#260 = ORIENTED_EDGE('',*,*,#70,.T.);
#261 = ORIENTED_EDGE('',*,*,#21,.T.);
#262 = FACE_BOUND('',#263,.T.);
#263 = EDGE_LOOP('',(#264));
#264 = ORIENTED_EDGE('',*,*,#112,.T.);
#265 = PLANE('',#266);
#266 = AXIS2_PLACEMENT_3D('',#267,#268,#269);
#267 = CARTESIAN_POINT('',(137.50000029802,134.99284439043,
    56.16672846111));
#268 = DIRECTION('',(-1.165734175919E-15,3.011479954296E-15,-1.));
#269 = DIRECTION('',(1.,-7.006492321624E-46,-1.165734175919E-15));
#270 = ADVANCED_FACE('',(#271,#277),#281,.F.);
#271 = FACE_BOUND('',#272,.T.);
#272 = EDGE_LOOP('',(#273,#274,#275,#276));
#273 = ORIENTED_EDGE('',*,*,#231,.F.);
#274 = ORIENTED_EDGE('',*,*,#127,.T.);
#275 = ORIENTED_EDGE('',*,*,#167,.F.);
#276 = ORIENTED_EDGE('',*,*,#200,.F.);
#277 = FACE_BOUND('',#278,.T.);
#278 = EDGE_LOOP('',(#279,#280));
#279 = ORIENTED_EDGE('',*,*,#39,.T.);
#280 = ORIENTED_EDGE('',*,*,#62,.T.);
#281 = PLANE('',#282);
#282 = AXIS2_PLACEMENT_3D('',#283,#284,#285);
#283 = CARTESIAN_POINT('',(137.50000029802,134.99284439043,
    71.16672846111));
#284 = DIRECTION('',(-1.165734175919E-15,3.011479954296E-15,-1.));
#285 = DIRECTION('',(1.,-7.006492321624E-46,-1.165734175919E-15));
#286 = ( GEOMETRIC_REPRESENTATION_CONTEXT(3) 
GLOBAL_UNCERTAINTY_ASSIGNED_CONTEXT((#290)) GLOBAL_UNIT_ASSIGNED_CONTEXT
((#287,#288,#289)) REPRESENTATION_CONTEXT('Context #1',
  '3D Context with UNIT and UNCERTAINTY') );
#287 = ( LENGTH_UNIT() NAMED_UNIT(*) SI_UNIT(.MILLI.,.METRE.) );
#288 = ( NAMED_UNIT(*) PLANE_ANGLE_UNIT() SI_UNIT($,.RADIAN.) );
#289 = ( NAMED_UNIT(*) SI_UNIT($,.STERADIAN.) SOLID_ANGLE_UNIT() );
#290 = UNCERTAINTY_MEASURE_WITH_UNIT(LENGTH_MEASURE(1.E-07),#287,
  'distance_accuracy_value','confusion accuracy');
#291 = PRODUCT_RELATED_PRODUCT_CATEGORY('part',$,(#7));
#292 = MECHANICAL_DESIGN_GEOMETRIC_PRESENTATION_REPRESENTATION('',(#293)
  ,#286);
#293 = STYLED_ITEM('color',(#294),#15);
#294 = PRESENTATION_STYLE_ASSIGNMENT((#295,#301));
#295 = SURFACE_STYLE_USAGE(.BOTH.,#296);
#296 = SURFACE_SIDE_STYLE('',(#297));
#297 = SURFACE_STYLE_FILL_AREA(#298);
#298 = FILL_AREA_STYLE('',(#299));
#299 = FILL_AREA_STYLE_COLOUR('',#300);
#300 = COLOUR_RGB('',0.627451011593,0.627451011593,0.627451011593);
#301 = CURVE_STYLE('',#302,POSITIVE_LENGTH_MEASURE(0.1),#303);
#302 = DRAUGHTING_PRE_DEFINED_CURVE_FONT('continuous');
#303 = COLOUR_RGB('',9.803921802644E-02,9.803921802644E-02,
  9.803921802644E-02);
ENDSEC;
END-ISO-10303-21;
